<svg width="26" height="26" viewBox="0 0 26 26" fill="none" xmlns="http://www.w3.org/2000/svg">
<g clip-path="url(#clip0)">
<path d="M20.1289 8.52759C19.8594 8.52759 19.6406 8.74634 19.6406 9.01587C19.6406 9.2854 19.8594 9.50415 20.1289 9.50415C20.3984 9.50415 20.6172 9.2854 20.6172 9.01587C20.6172 8.74634 20.3984 8.52759 20.1289 8.52759Z" fill="white"/>
<path d="M24.0352 6.57446H18.6729L17.1247 3.47813C16.8749 2.97856 16.3728 2.66821 15.8145 2.66821H10.1855C9.6271 2.66821 9.12505 2.97856 8.87529 3.47817L7.32715 6.57446H6.35938V6.08618C6.35938 5.27847 5.70225 4.62134 4.89453 4.62134H3.91797C3.11025 4.62134 2.45312 5.27847 2.45312 6.08618V6.57446H1.96484C1.15713 6.57446 0.5 7.23159 0.5 8.03931C0.5 9.36621 0.5 21.195 0.5 21.7112C0.5 22.5189 1.15713 23.176 1.96484 23.176H24.0352C24.8429 23.176 25.5 22.5189 25.5 21.7112C25.5 20.3843 25.5 8.55547 25.5 8.03931C25.5 7.23159 24.8429 6.57446 24.0352 6.57446ZM9.74878 3.91489C9.83208 3.74829 9.99941 3.64478 10.1855 3.64478H15.8145C16.0006 3.64478 16.168 3.74829 16.2513 3.91489L17.5811 6.57446H8.41894L9.74878 3.91489ZM3.42969 6.08618C3.42969 5.81694 3.64873 5.5979 3.91797 5.5979H4.89453C5.16377 5.5979 5.38281 5.81694 5.38281 6.08618V6.57446H3.42969V6.08618ZM1.47656 11.4524H7.65093C7.002 12.4661 6.65234 13.6542 6.65234 14.8752C6.65234 16.0964 7.00205 17.2797 7.65088 18.2932H1.47656V11.4524ZM13 9.50415C15.9362 9.50415 18.3711 11.883 18.3711 14.8752C18.3711 17.8641 15.9396 20.2463 13 20.2463C10.0578 20.2463 7.62891 17.8615 7.62891 14.8752C7.62891 11.8867 10.0601 9.50415 13 9.50415ZM24.5234 21.7112C24.5234 21.9804 24.3044 22.1995 24.0352 22.1995H1.96484C1.69561 22.1995 1.47656 21.9804 1.47656 21.7112V19.2698H8.42119C9.61431 20.5135 11.2703 21.2229 13 21.2229C14.73 21.2229 16.3861 20.5133 17.5789 19.2698H24.5234V21.7112ZM24.5234 18.2932H18.3491C18.998 17.2795 19.3477 16.0964 19.3477 14.8752C19.3477 13.6541 18.998 12.471 18.3491 11.4573H24.5234V18.2932ZM24.5234 10.4807H17.5788C16.3857 9.23696 14.7298 8.52759 13 8.52759C11.27 8.52759 9.61392 9.23716 8.42114 10.4807H1.47656V8.03931C1.47656 7.77007 1.69561 7.55103 1.96484 7.55103C2.40825 7.55103 23.3487 7.55103 24.0352 7.55103C24.3044 7.55103 24.5234 7.77007 24.5234 8.03931V10.4807Z" fill="white"/>
<path d="M14.4648 4.62134H11.5352C11.2655 4.62134 11.0469 4.83994 11.0469 5.10962C11.0469 5.3793 11.2655 5.5979 11.5352 5.5979H14.4648C14.7345 5.5979 14.9531 5.3793 14.9531 5.10962C14.9531 4.83994 14.7345 4.62134 14.4648 4.62134Z" fill="white"/>
<path d="M13 10.4807C10.5769 10.4807 8.60547 12.4521 8.60547 14.8752C8.60547 17.2984 10.5769 19.2698 13 19.2698C15.4231 19.2698 17.3945 17.2984 17.3945 14.8752C17.3945 12.4521 15.4231 10.4807 13 10.4807ZM13 18.2932C11.1153 18.2932 9.58203 16.7599 9.58203 14.8752C9.58203 12.9906 11.1153 11.4573 13 11.4573C14.8847 11.4573 16.418 12.9906 16.418 14.8752C16.418 16.7599 14.8847 18.2932 13 18.2932Z" fill="white"/>
<path d="M13 12.4338C11.6538 12.4338 10.5586 13.5291 10.5586 14.8752C10.5586 15.1449 10.7772 15.3635 11.0469 15.3635C11.3166 15.3635 11.5352 15.1449 11.5352 14.8752C11.5352 14.0675 12.1923 13.4104 13 13.4104C13.2696 13.4104 13.4883 13.1918 13.4883 12.9221C13.4883 12.6524 13.2696 12.4338 13 12.4338Z" fill="white"/>
<path d="M23.0586 8.52759H22.082C21.8124 8.52759 21.5938 8.74619 21.5938 9.01587C21.5938 9.28555 21.8124 9.50415 22.082 9.50415H23.0586C23.3282 9.50415 23.5469 9.28555 23.5469 9.01587C23.5469 8.74619 23.3282 8.52759 23.0586 8.52759Z" fill="white"/>
</g>
<defs>
<clipPath id="clip0">
<rect x="0.5" y="0.422119" width="25" height="25" fill="white"/>
</clipPath>
</defs>
</svg>
