<svg width="26" height="26" viewBox="0 0 26 26" fill="none" xmlns="http://www.w3.org/2000/svg">
<g clip-path="url(#clip0)">
<path d="M3.41518 14.594H5.08102V17.5093C5.08102 17.7392 5.26748 17.9256 5.49752 17.9256C5.60799 17.9256 5.71384 17.8817 5.79189 17.8037L9.0016 14.594H9.66204V13.7611H8.8292C8.71873 13.7611 8.61272 13.805 8.53467 13.8831L5.91385 16.5039V14.1776C5.91385 13.9476 5.72756 13.7611 5.49752 13.7611H3.41518C2.26568 13.7598 1.33438 12.8283 1.33301 11.6788V3.34975C1.33438 2.20025 2.26585 1.26878 3.41518 1.26741H16.7419C17.8912 1.26878 18.8227 2.20025 18.8241 3.34975V9.59661H19.6571V3.34975C19.6552 1.74052 18.3511 0.436286 16.7417 0.43457H3.41518C1.80595 0.436286 0.501887 1.74052 0.5 3.34975V11.6788C0.501887 13.288 1.80595 14.5922 3.41518 14.594Z" fill="white"/>
<path d="M22.5735 10.4294H13.4114C11.802 10.4313 10.498 11.7354 10.4961 13.3446V19.175C10.498 20.7844 11.802 22.0884 13.4114 22.0903H17.8201L21.0296 25.2999C21.1924 25.4625 21.4561 25.4625 21.6187 25.2999C21.6967 25.2218 21.7405 25.1158 21.7405 25.0055V22.0903H22.5735C24.1827 22.0884 25.4868 20.7844 25.4887 19.175V13.3446C25.4868 11.7354 24.1827 10.4313 22.5735 10.4294ZM24.6558 19.175C24.6545 20.3245 23.723 21.2559 22.5735 21.2573H21.3241C21.0941 21.2573 20.9076 21.4438 20.9076 21.6738V24.0001L18.2868 21.3793C18.2088 21.3012 18.1029 21.2573 17.9925 21.2573H13.4114C12.2619 21.2559 11.3305 20.3245 11.3291 19.175V13.3446C11.3305 12.1953 12.2619 11.2638 13.4114 11.2624H22.5735C23.723 11.2637 24.6543 12.1953 24.6557 13.3446V19.175H24.6558Z" fill="white"/>
<path d="M3.83203 3.76636H12.1612V4.59919H3.83203V3.76636Z" fill="white"/>
<path d="M13.8262 3.76636H16.325V4.59919H13.8262V3.76636Z" fill="white"/>
<path d="M3.83203 6.26489H16.3258V7.09772H3.83203V6.26489Z" fill="white"/>
<path d="M9.66211 8.76343H16.3255V9.59643H9.66211V8.76343Z" fill="white"/>
<path d="M3.83203 8.76343H7.99655V9.59643H3.83203V8.76343Z" fill="white"/>
<path d="M3.83203 11.2625H9.66239V12.0953H3.83203V11.2625Z" fill="white"/>
<path d="M12.9941 13.3445H18.8245V14.1775H12.9941V13.3445Z" fill="white"/>
<path d="M20.4902 13.3445H22.9891V14.1775H20.4902V13.3445Z" fill="white"/>
<path d="M12.9941 15.8433H22.989V16.6761H12.9941V15.8433Z" fill="white"/>
<path d="M12.9941 18.342H22.989V19.1749H12.9941V18.342Z" fill="white"/>
</g>
<defs>
<clipPath id="clip0">
<rect x="0.5" y="0.421875" width="25" height="25" fill="white"/>
</clipPath>
</defs>
</svg>
