<svg width="26" height="26" viewBox="0 0 26 26" fill="none" xmlns="http://www.w3.org/2000/svg">
<g clip-path="url(#clip0)">
<path d="M15.1711 4.61492C13.7716 3.21537 11.9108 2.44458 9.93146 2.44458C7.95216 2.44458 6.09136 3.21537 4.69182 4.61492C3.29228 6.01446 2.52148 7.87532 2.52148 9.85462C2.52148 11.8339 3.29228 13.6947 4.69182 15.0943C6.09136 16.4938 7.95222 17.2646 9.93146 17.2646C11.9108 17.2646 13.7716 16.4938 15.1711 15.0943C16.5706 13.6947 17.3414 11.8339 17.3414 9.85462C17.3414 7.87525 16.5706 6.01446 15.1711 4.61492ZM14.4736 14.3967C13.2604 15.61 11.6472 16.2782 9.93146 16.2782C8.21567 16.2782 6.60253 15.61 5.38929 14.3967C2.88475 11.8922 2.88475 7.81692 5.38929 5.31239C6.60253 4.09915 8.21567 3.43101 9.93146 3.43101C11.6472 3.43101 13.2604 4.09915 14.4736 5.31239C16.9782 7.81692 16.9782 11.8922 14.4736 14.3967Z" fill="white"/>
<path d="M12.9312 4.91416C12.6985 4.77264 12.395 4.84655 12.2535 5.07928C12.112 5.31202 12.1859 5.61544 12.4186 5.75696C12.7445 5.9551 13.0478 6.19369 13.3202 6.46614C13.4165 6.56248 13.5428 6.61062 13.669 6.61062C13.7952 6.61062 13.9214 6.56248 14.0177 6.46614C14.2103 6.27352 14.2103 5.96128 14.0177 5.76867C13.6898 5.44065 13.3242 5.15314 12.9312 4.91416Z" fill="white"/>
<path d="M6.19437 6.61061C6.32057 6.61061 6.44683 6.56247 6.5431 6.46613C7.62094 5.38829 9.16503 4.88508 10.6732 5.11998C10.9425 5.16194 11.1945 4.97768 11.2365 4.70851C11.2783 4.43935 11.0942 4.18722 10.8251 4.14526C9.00667 3.86216 7.14529 4.46901 5.84563 5.76866C5.65302 5.96128 5.65302 6.27351 5.84563 6.46613C5.94191 6.56247 6.06817 6.61061 6.19437 6.61061Z" fill="white"/>
<path d="M7.39972 13.9246C7.0911 13.7322 6.80293 13.5029 6.5431 13.2431C6.35049 13.0505 6.03818 13.0505 5.84563 13.2431C5.65302 13.4357 5.65302 13.7479 5.84563 13.9406C6.1584 14.2533 6.50568 14.5296 6.8779 14.7616C6.95905 14.8122 7.04927 14.8363 7.13831 14.8363C7.30291 14.8363 7.46383 14.7539 7.55735 14.604C7.70143 14.3729 7.63087 14.0687 7.39972 13.9246Z" fill="white"/>
<path d="M13.3204 13.2431C12.2754 14.288 10.8334 14.7874 9.36384 14.6131C9.09337 14.5808 8.84801 14.7742 8.81598 15.0447C8.78389 15.3152 8.97717 15.5605 9.24764 15.5926C9.47978 15.6201 9.71107 15.6337 9.94104 15.6337C11.4662 15.6337 12.9229 15.0354 14.0179 13.9405C14.2105 13.7479 14.2105 13.4356 14.0179 13.243C13.8253 13.0505 13.513 13.0505 13.3204 13.2431Z" fill="white"/>
<path d="M24.9012 21.9276L18.9321 15.9585C18.7395 15.7659 18.4272 15.7659 18.2347 15.9585L17.9959 16.1973L17.4101 15.6115C20.2614 11.9136 19.9932 6.56943 16.6052 3.18145C12.9258 -0.497984 6.93895 -0.497984 3.25958 3.18145C-0.419859 6.86082 -0.419859 12.8477 3.25958 16.5271C5.09926 18.3668 7.51588 19.2866 9.93243 19.2866C11.9661 19.2866 13.9998 18.635 15.6897 17.332L16.2754 17.9177L16.0366 18.1565C15.9441 18.249 15.8922 18.3745 15.8922 18.5053C15.8922 18.6361 15.9441 18.7615 16.0366 18.854L22.0057 24.8231C22.4049 25.2222 22.9291 25.4218 23.4535 25.4218C23.9778 25.4218 24.5021 25.2222 24.9013 24.8231C25.6995 24.0248 25.6995 22.7259 24.9012 21.9276ZM3.95698 15.8296C2.36088 14.2335 1.48191 12.1114 1.48191 9.8543C1.48191 7.59716 2.36094 5.47503 3.95698 3.87899C5.55309 2.28295 7.67515 1.40391 9.93229 1.40391C12.1894 1.40391 14.3116 2.28295 15.9077 3.87899C17.5038 5.47509 18.3827 7.59716 18.3827 9.8543C18.3827 12.1114 17.5038 14.2336 15.9077 15.8296C14.3116 17.4257 12.1895 18.3047 9.93236 18.3047C7.67522 18.3047 5.55309 17.4257 3.95698 15.8296ZM16.4403 16.6878C16.4958 16.635 16.5508 16.5815 16.6051 16.5271C16.6595 16.4726 16.7131 16.4177 16.7659 16.3623L17.2983 16.8948L16.9728 17.2203L16.4403 16.6878ZM24.2037 24.1257C23.7899 24.5394 23.1169 24.5393 22.7032 24.1257L17.0828 18.5053L18.5834 17.0048L24.2037 22.6251C24.6174 23.0388 24.6174 23.712 24.2037 24.1257Z" fill="white"/>
</g>
<defs>
<clipPath id="clip0">
<rect x="0.5" y="0.422119" width="25" height="25" fill="white"/>
</clipPath>
</defs>
</svg>
