<svg width="26" height="26" viewBox="0 0 26 26" fill="none" xmlns="http://www.w3.org/2000/svg">
<g clip-path="url(#clip0)">
<path d="M23.2731 4.6375C19.8334 3.69503 16.3735 2.2275 13.2674 0.393616C13.1024 0.296204 12.8977 0.296204 12.7327 0.393616C9.53705 2.28018 6.2641 3.66832 2.72676 4.6375C2.49824 4.70005 2.33984 4.90777 2.33984 5.14473V10.5181C2.33984 16.0514 4.89252 19.7141 7.03402 21.8123C9.33949 24.0713 12.025 25.3206 13.0001 25.3206C13.975 25.3206 16.6606 24.0713 18.966 21.8123C21.1075 19.7141 23.66 16.0514 23.66 10.5181V5.14468C23.66 4.90777 23.5016 4.70005 23.2731 4.6375ZM22.6083 10.518C22.6083 15.6861 20.2274 19.1038 18.2299 21.061C15.9628 23.2824 13.5388 24.2687 13.0001 24.2687C12.4614 24.2687 10.0372 23.2824 7.77006 21.061C5.77265 19.1038 3.39165 15.6861 3.39165 10.518V5.5439C6.77436 4.58345 9.92464 3.24307 13.0002 1.45582C15.9989 3.19566 19.3064 4.60269 22.6083 5.5437V10.518Z" fill="white"/>
<path d="M8.33842 5.48515C8.23198 5.21489 7.92666 5.08212 7.65634 5.18862C6.71689 5.55878 5.75264 5.8995 4.79038 6.20136C4.57109 6.27021 4.42188 6.47333 4.42188 6.70311V8.73392C4.42188 9.02435 4.65737 9.2598 4.94775 9.2598C5.23813 9.2598 5.47363 9.02435 5.47363 8.73392V7.08744C6.33686 6.80814 7.19917 6.49921 8.04189 6.16713C8.31215 6.06073 8.44492 5.75541 8.33842 5.48515Z" fill="white"/>
<path d="M9.33763 5.58482C9.40818 5.58482 9.47981 5.57061 9.54851 5.54063L9.55818 5.53643C9.82425 5.41983 9.94407 5.11011 9.82747 4.84415C9.71077 4.57808 9.3993 4.45772 9.13352 4.57422L9.12503 4.57789C8.85882 4.69415 8.7386 5.00362 8.85486 5.26973C8.94114 5.46729 9.13475 5.58482 9.33763 5.58482Z" fill="white"/>
<path d="M19.2652 17.2778C19.0222 17.119 18.6963 17.1873 18.5373 17.4304C18.1039 18.0937 17.5955 18.7288 17.026 19.3181C16.5576 19.8025 16.0501 20.2541 15.5175 20.6601C15.2866 20.8362 15.2422 21.1661 15.4182 21.3972C15.5218 21.5328 15.6784 21.6042 15.8368 21.6042C15.948 21.6042 16.0601 21.5691 16.1553 21.4965C16.7297 21.0584 17.2771 20.5715 17.7821 20.0491C18.3979 19.4122 18.9482 18.7247 19.4178 18.0057C19.5767 17.7625 19.5083 17.4367 19.2652 17.2778Z" fill="white"/>
<path d="M14.2966 21.4847L14.2664 21.5025C14.0151 21.648 13.9292 21.9697 14.0747 22.221C14.1722 22.3895 14.3488 22.4835 14.5303 22.4835C14.6197 22.4835 14.7104 22.4607 14.7933 22.4126L14.8281 22.3922C15.0787 22.2454 15.1629 21.9233 15.0161 21.6727C14.8693 21.4221 14.5471 21.3381 14.2966 21.4847Z" fill="white"/>
<path d="M9.41444 11.7473C9.09154 11.4244 8.66209 11.2466 8.20536 11.2466C7.74862 11.2466 7.31913 11.4244 6.99608 11.7473C6.32943 12.4141 6.32943 13.4991 6.99608 14.1658L10.1013 17.271C10.4243 17.5938 10.8537 17.7716 11.3105 17.7716C11.7673 17.7716 12.1968 17.5938 12.5198 17.2709L19.0022 10.7884C19.6688 10.1214 19.6688 9.03662 19.0021 8.37007C18.6792 8.04712 18.2497 7.86938 17.7929 7.86938C17.3361 7.86938 16.9067 8.04717 16.5837 8.37007L11.3105 13.6433L9.41444 11.7473ZM17.3274 9.11382C17.4517 8.98955 17.6171 8.92114 17.7929 8.92114C17.9689 8.92114 18.1341 8.98955 18.2585 9.11382C18.5151 9.37041 18.5151 9.78808 18.2584 10.0448L11.7761 16.5272C11.6518 16.6514 11.4864 16.7199 11.3105 16.7199C11.1346 16.7199 10.9693 16.6514 10.845 16.5272L7.73978 13.4221C7.48309 13.1654 7.48309 12.7477 7.73968 12.4912C7.864 12.3669 8.02938 12.2984 8.20531 12.2984C8.38123 12.2984 8.54652 12.3668 8.67078 12.4911L10.9386 14.7589C11.0373 14.8575 11.171 14.9129 11.3105 14.9129C11.45 14.9129 11.5837 14.8576 11.6823 14.7589L17.3274 9.11382Z" fill="white"/>
</g>
<defs>
<clipPath id="clip0">
<rect x="0.5" y="0.320557" width="25" height="25" fill="white"/>
</clipPath>
</defs>
</svg>
