<svg width="21" height="21" viewBox="0 0 21 21" fill="none" xmlns="http://www.w3.org/2000/svg">
<g clip-path="url(#clip0)">
<path d="M11.1741 10.7585C11.6089 10.8606 12.0486 10.5873 12.1492 10.1432C12.1968 9.93324 12.1555 9.72538 12.0569 9.55236L12.4487 7.93555L12.938 8.05638C13.0428 8.08211 13.1536 8.05599 13.2366 7.98565C13.3197 7.91573 13.364 7.80962 13.3565 7.70089L13.1332 4.39895C13.1277 4.31934 13.0721 4.25213 12.9944 4.23283C12.9176 4.21404 12.8374 4.24754 12.7957 4.31595L11.0877 7.14162C11.0313 7.23453 11.0225 7.34909 11.0634 7.44997C11.1055 7.5506 11.1912 7.62531 11.2968 7.65143L11.7859 7.77188L11.4538 9.14017L9.74584 8.74389L7.82146 5.90154C7.59141 5.56145 7.24848 5.53811 6.83754 5.53811C6.83754 10.1745 6.83754 9.88074 6.83754 11.9772H7.81398C7.81398 15.1089 7.81398 12.1762 7.81398 19.3273H5.8617V14.1502H5.15053V19.3273H3.19822C3.19822 12.1972 3.19822 15.1011 3.19822 11.9772H4.1741C4.1741 9.88181 4.1741 10.1751 4.1741 5.53816C3.70311 5.53816 3.31803 5.59104 3.12213 6.02369L0.40952 12.0156C0.22319 12.4277 0.402758 12.9139 0.81242 13.102C1.21872 13.2897 1.70239 13.1101 1.88978 12.6964L3.2003 9.80079V11.2889H3.19822C2.82118 11.2889 2.5158 11.5971 2.5158 11.9772V19.3273C2.5158 19.7075 2.82122 20.0156 3.19822 20.0156C3.19822 20.5592 3.63506 21.0001 4.1741 21.0001C4.71289 21.0001 5.15053 20.5592 5.15053 20.0156C5.28043 20.0156 5.40232 19.9786 5.50639 19.9148C5.60992 19.9786 5.731 20.0156 5.8617 20.0156C5.8617 20.5592 6.29854 21.0001 6.83758 21.0001C7.37637 21.0001 7.81402 20.5592 7.81402 20.0156C8.19106 20.0156 8.49644 19.7075 8.49644 19.3273V11.9772C8.49644 11.597 8.19106 11.2889 7.81402 11.2889H7.81189V8.79677L8.58158 9.93388C8.6965 10.1045 8.8722 10.2249 9.07069 10.2708L11.1741 10.7585Z" fill="#6C7185"/>
<path d="M6.15577 5.53809H4.85742V8.30611H6.15577V5.53809Z" fill="#6C7185"/>
<path d="M3.60579 3.27204C3.61672 4.32156 4.46191 5.16915 5.50562 5.16915C6.54879 5.16915 7.39478 4.32156 7.40563 3.27204C7.77365 3.26214 8.07099 2.96121 8.07099 2.58685C8.07099 1.16048 6.91962 0 5.50562 0C4.09031 0 2.93945 1.16048 2.93945 2.58685C2.93945 2.96125 3.23705 3.26214 3.60579 3.27204ZM4.1405 1.28534V1.48028C4.1405 1.67029 4.29297 1.8244 4.4816 1.8244C4.66997 1.8244 4.82244 1.67029 4.82244 1.48028V0.82185C4.93217 0.778915 5.04578 0.744988 5.16401 0.722899V1.48028C5.16401 1.67029 5.31645 1.8244 5.50567 1.8244C5.69353 1.8244 5.84668 1.67029 5.84668 1.48028V0.722899C5.96496 0.744988 6.07856 0.778915 6.18753 0.82185V1.48028C6.18753 1.67029 6.33996 1.8244 6.52914 1.8244C6.71751 1.8244 6.87075 1.67029 6.87075 1.48028V1.28534C7.18927 1.62543 7.38781 2.08145 7.38781 2.58685H3.62212C3.62212 2.08145 3.82092 1.62543 4.1405 1.28534Z" fill="#6C7185"/>
<path d="M14.6858 18.678H10.4764C10.2872 18.678 10.1348 18.8317 10.1348 19.0221V20.5607C10.1348 20.7509 10.2872 20.9048 10.4764 20.9048H14.6858C14.8734 20.9048 15.0266 20.7509 15.0266 20.5607V19.0221C15.0266 18.8317 14.8734 18.678 14.6858 18.678Z" fill="#6C7185"/>
<path d="M20.1448 18.678H15.9354C15.7462 18.678 15.5938 18.8317 15.5938 19.0221V20.5607C15.5938 20.7509 15.7461 20.9048 15.9354 20.9048H20.1448C20.3324 20.9048 20.4857 20.7509 20.4857 20.5607V19.0221C20.4857 18.8317 20.3324 18.678 20.1448 18.678Z" fill="#6C7185"/>
<path d="M20.1448 13.1711H15.9354C15.7462 13.1711 15.5938 13.3253 15.5938 13.5154V15.0539C15.5938 15.2444 15.7461 15.3982 15.9354 15.3982H20.1448C20.3324 15.3982 20.4857 15.2444 20.4857 15.0539V13.5154C20.4857 13.3253 20.3324 13.1711 20.1448 13.1711Z" fill="#6C7185"/>
<path d="M14.6858 13.1711H10.4764C10.2872 13.1711 10.1348 13.3253 10.1348 13.5154V15.0539C10.1348 15.2444 10.2872 15.3982 10.4764 15.3982H14.6858C14.8734 15.3982 15.0266 15.2444 15.0266 15.0539V13.5154C15.0266 13.3253 14.8734 13.1711 14.6858 13.1711Z" fill="#6C7185"/>
<path d="M12.8633 16.2686V17.8074C12.8633 17.9975 13.0157 18.1515 13.2049 18.1515H17.4144C17.6022 18.1515 17.7555 17.9975 17.7555 17.8074V16.2686C17.7555 16.0784 17.6022 15.9243 17.4144 15.9243H13.2049C13.0157 15.9243 12.8633 16.0784 12.8633 16.2686Z" fill="#6C7185"/>
<path d="M12.8633 10.7623V12.3008C12.8633 12.4914 13.0157 12.645 13.2049 12.645H17.4144C17.6022 12.645 17.7555 12.4914 17.7555 12.3008V10.7623C17.7555 10.5722 17.6022 10.4181 17.4144 10.4181H13.2049C13.0157 10.4181 12.8633 10.5722 12.8633 10.7623Z" fill="#6C7185"/>
<path d="M20.1456 15.9243H18.5518C18.3634 15.9243 18.2109 16.0784 18.2109 16.2686V17.8074C18.2109 17.9975 18.3633 18.1515 18.5518 18.1515H20.1456C20.3333 18.1515 20.4865 17.9975 20.4865 17.8074V16.2686C20.4865 16.0784 20.3333 15.9243 20.1456 15.9243Z" fill="#6C7185"/>
<path d="M20.1456 10.4181H18.5518C18.3634 10.4181 18.2109 10.5722 18.2109 10.7623V12.3008C18.2109 12.4914 18.3633 12.645 18.5518 12.645H20.1456C20.3333 12.645 20.4865 12.4914 20.4865 12.3008V10.7623C20.4865 10.5722 20.3333 10.4181 20.1456 10.4181Z" fill="#6C7185"/>
</g>
<defs>
<clipPath id="clip0">
<rect width="20.8235" height="21" fill="white"/>
</clipPath>
</defs>
</svg>
