<svg width="21" height="15" viewBox="0 0 21 15" fill="none" xmlns="http://www.w3.org/2000/svg">
<path d="M19.95 0.150024H1.04999C0.471117 0.150024 0 0.6211 0 1.20001V8.20001C0 8.77892 0.471117 9.25 1.04999 9.25H19.95C20.5289 9.25 21 8.77888 21 8.20001V1.20001C21 0.6211 20.5289 0.150024 19.95 0.150024ZM9.10001 2.60002H11.9C12.0936 2.60002 12.25 2.75647 12.25 2.95C12.25 3.14353 12.0936 3.29998 11.9 3.29998H9.10001C8.90644 3.29998 8.75003 3.14353 8.75003 2.95C8.75003 2.75647 8.90644 2.60002 9.10001 2.60002ZM19.25 7.84999H1.74999C1.55642 7.84999 1.40001 7.69353 1.40001 7.50001C1.40001 7.30644 1.55646 7.15002 1.74999 7.15002H19.25C19.4435 7.15002 19.6 7.30648 19.6 7.50001C19.6 7.69357 19.4435 7.84999 19.25 7.84999ZM19.25 6.45002H1.74999C1.55642 6.45002 1.40001 6.29357 1.40001 6.10004C1.40001 5.90647 1.55646 5.75006 1.74999 5.75006H19.25C19.4435 5.75006 19.6 5.90651 19.6 6.10004C19.6 6.29357 19.4435 6.45002 19.25 6.45002Z" fill="#6C7185"/>
<path d="M10.6622 11.7393C10.3422 11.5734 10.1512 11.3627 10.1512 11.1751C10.1512 10.9875 10.3423 10.7764 10.6622 10.6105C10.8337 10.5216 10.9008 10.3106 10.8119 10.139C10.723 9.96754 10.5116 9.89998 10.3402 9.98926C9.76688 10.2864 9.45117 10.7074 9.45117 11.1751C9.45117 11.6427 9.76688 12.0637 10.3402 12.3605C10.6601 12.5265 10.8511 12.7375 10.8511 12.9251C10.8511 13.1127 10.66 13.3234 10.3402 13.4893C10.1687 13.5782 10.1015 13.7892 10.1904 13.9611C10.2527 14.0811 10.3748 14.1501 10.5015 14.1501C10.5555 14.1501 10.6111 14.1375 10.6622 14.1105C11.2355 13.8137 11.5512 13.3927 11.5512 12.9251C11.5512 12.4574 11.2355 12.0364 10.6622 11.7393Z" fill="#6C7185"/>
<path d="M6.8106 12.4393C6.49068 12.2734 6.29961 12.0628 6.29961 11.8752C6.29961 11.6876 6.49072 11.4765 6.8106 11.3106C6.9821 11.2217 7.04928 11.0107 6.96038 10.8391C6.87148 10.6676 6.65973 10.5997 6.48859 10.6894C5.91531 10.9865 5.59961 11.4075 5.59961 11.8752C5.59961 12.3428 5.91531 12.7638 6.48859 13.0606C6.80851 13.2265 6.99958 13.4376 6.99958 13.6252C6.99958 13.8128 6.80847 14.0235 6.48859 14.1894C6.31709 14.2783 6.24991 14.4893 6.33881 14.6612C6.40111 14.7812 6.52325 14.8501 6.64997 14.8501C6.70389 14.8501 6.75951 14.8376 6.81064 14.8106C7.38392 14.5138 7.69962 14.0928 7.69962 13.6251C7.69962 13.1575 7.38388 12.7365 6.8106 12.4393Z" fill="#6C7185"/>
<path d="M14.5098 12.4393C14.1899 12.2734 13.9988 12.0628 13.9988 11.8752C13.9988 11.6876 14.1899 11.4765 14.5098 11.3106C14.6813 11.2217 14.7485 11.0107 14.6596 10.8391C14.5707 10.6676 14.3589 10.5997 14.1878 10.6894C13.6145 10.9865 13.2988 11.4075 13.2988 11.8752C13.2988 12.3428 13.6145 12.7638 14.1878 13.0606C14.5077 13.2265 14.6988 13.4376 14.6988 13.6252C14.6988 13.8128 14.5077 14.0235 14.1878 14.1894C14.0163 14.2783 13.9491 14.4893 14.038 14.6612C14.1003 14.7812 14.2225 14.8501 14.3492 14.8501C14.4031 14.8501 14.4587 14.8376 14.5099 14.8106C15.0831 14.5138 15.3988 14.0928 15.3988 13.6251C15.3988 13.1575 15.0831 12.7365 14.5098 12.4393Z" fill="#6C7185"/>
</svg>
