<svg width="21" height="21" viewBox="0 0 21 21" fill="none" xmlns="http://www.w3.org/2000/svg">
<path d="M20.5694 19.2201V17.8591C20.5694 16.934 20.0337 16.3933 19.1171 16.3933H9.98833C8.75636 16.3933 8.12109 16.9821 8.12109 17.8591V19.6259C8.12109 20.5418 8.73063 21 9.98833 21H19.1171C20.0337 21 20.5694 20.3848 20.5694 19.2201ZM18.9096 19.3248H9.78087V18.0684H18.9096V19.3248Z" fill="#6C7185"/>
<path d="M13.5137 6.7613V7.18007V10.7695V10.7699L14.0423 12.2055H13.1527L4.47287 0L2.56038 1.16423L3.14006 2.18981V7.59883H2.52762L2.93924 10.5303H3.11932H3.14006V11.4161C2.76663 11.5874 2.35166 11.9551 2.35166 12.6155C2.35166 13.059 2.52306 13.3827 2.77365 13.5988L0.523438 15.5558H1.15914L3.15213 13.8225C3.33264 13.8937 3.52556 13.933 3.71645 13.933C3.90816 13.933 4.09861 13.8815 4.2704 13.7881L6.43101 15.5558H7.07873L7.08329 15.5499L4.5978 13.5167C4.76625 13.3119 4.8779 13.0372 4.8779 12.6858C4.8779 12.4542 4.692 12.267 4.46298 12.267C4.23391 12.267 4.04806 12.4542 4.04806 12.6858C4.04806 12.8362 4.00779 12.9304 3.95511 12.9911L3.84142 12.8981C3.76383 12.8349 3.65136 12.8357 3.57547 12.9023L3.41986 13.0376C3.28539 12.9748 3.18168 12.8517 3.18168 12.6159C3.18168 12.2373 3.5539 12.1456 3.62402 12.1322C3.82402 12.0974 3.97008 11.9232 3.97008 11.7188V10.5303H4.26055H4.43065L5.01116 7.59879H4.5925H4.38491V4.55923L9.36423 14.2311V14.2977V14.4237V14.7182H11.024V15.5557H16.8332H17.2481V14.7182H19.3228H19.7377V6.7613H13.5137ZM9.92439 8.93899L9.92938 8.94613L8.23641 10.058L9.10695 7.8041L9.92439 8.93899ZM3.96995 7.59888H3.76249H3.55503V2.97965L3.96995 3.76948V7.59888ZM4.33093 3.32979L3.61478 1.957L4.7314 1.21617L4.33093 3.32979ZM5.30193 2.07131L6.0978 3.46502L4.81316 4.3001L5.30193 2.07131ZM5.42929 5.10079L6.63969 4.30636L6.16584 6.48194L5.42929 5.10079ZM7.15133 5.01622L8.04388 6.32993L6.70196 7.19724L7.15133 5.01622ZM7.01356 8.19816L8.51317 7.16124L7.6592 9.46956L7.01356 8.19816ZM9.2331 12.1804L8.50987 10.8922L10.3053 9.59814L9.2331 12.1804ZM9.79655 13.0954L11.024 10.4257L12.0223 11.7997L9.79655 13.0954ZM18.078 10.9492H15.1734V8.43645H18.078V10.9492Z" fill="#6C7185"/>
<path d="M0.65125 18.0686H0.236328V18.9062H6.87542V18.0686H6.04553V17.2311V16.8123H6.87542V15.9747H0.236328V16.8123H1.06621V18.0686H0.65125Z" fill="#6C7185"/>
</svg>
