<svg width="21" height="19" viewBox="0 0 21 19" fill="none" xmlns="http://www.w3.org/2000/svg">
<path d="M15.7091 8.41648V17.622C15.7091 18.3775 15.0966 18.9906 14.3407 18.9906C13.5849 18.9906 12.9723 18.3775 12.9723 17.622V17.2182C12.8503 17.2364 12.7264 17.249 12.5991 17.249H8.34428C6.97019 17.249 5.85633 16.1354 5.85633 14.7611V14.1888H4.78864C4.32456 14.1888 4.12748 13.9481 4.04419 13.5871C1.65534 13.064 -0.158504 10.4774 1.51992 8.09916C2.22534 7.09995 3.73214 6.00404 3.22843 4.60992C2.72186 3.20734 1.11718 2.41097 0.187948 1.31314C-0.429713 0.583915 0.620348 -0.477169 1.2428 0.258284C2.17337 1.35755 3.52105 2.10669 4.27067 3.36304C4.95963 4.51743 5.00527 5.93268 4.23163 7.06475C3.57377 8.02705 2.20314 9.01561 2.37333 10.3165C2.49096 11.2146 3.22433 11.8446 4.06272 12.0905L4.06336 12.0573C4.15703 11.7399 4.35848 11.5348 4.78838 11.5348H5.85601V11.2775C5.85601 9.90384 6.96987 8.78972 8.34391 8.78972H12.5988C12.7262 8.78972 12.85 8.80255 12.9721 8.82076V8.4168C12.9721 7.66122 13.5847 7.04846 14.3405 7.04846C15.0964 7.04846 15.7091 7.66095 15.7091 8.41648ZM21 10.4648C21 9.92898 20.5651 9.4945 20.0295 9.4945H16.1319V11.4351H20.0295C20.5654 11.4352 21 11.001 21 10.4648ZM20.0295 14.537H16.1319V16.4777H20.0295C20.5651 16.4777 21 16.0432 21 15.5073C21 14.9715 20.5654 14.537 20.0295 14.537Z" fill="#6C7185"/>
</svg>
