<svg width="19" height="19" viewBox="0 0 19 19" fill="none" xmlns="http://www.w3.org/2000/svg">
<path d="M16.625 17.2188V18.4062H17.8125V17.2188" fill="#6C7185"/>
<path d="M5.64062 16.9219C7.27759 16.9219 8.60938 15.5901 8.60938 13.9531C8.60938 12.3162 7.27759 10.9844 5.64062 10.9844C4.00366 10.9844 2.67188 12.3162 2.67188 13.9531C2.67188 15.5901 4.00366 16.9219 5.64062 16.9219ZM5.64062 11.5781C6.95014 11.5781 8.01562 12.6436 8.01562 13.9531C8.01562 15.2626 6.95014 16.3281 5.64062 16.3281C4.33111 16.3281 3.26562 15.2626 3.26562 13.9531C3.26562 12.6436 4.33111 11.5781 5.64062 11.5781Z" fill="#6C7185"/>
<path d="M5.64038 15.7342C6.4927 15.7342 7.20609 15.1321 7.38036 14.3315L7.12475 14.0759C6.96859 13.9197 6.68716 13.9197 6.531 14.0759L6.35703 14.2498C6.16555 14.4413 5.91113 14.5467 5.64038 14.5467C5.36963 14.5467 5.11491 14.4413 4.92372 14.2498L4.74975 14.0759C4.59359 13.9197 4.31216 13.9197 4.156 14.0759L3.90039 14.3315C4.07466 15.1321 4.78805 15.7342 5.64038 15.7342Z" fill="#6C7185"/>
<path d="M0.890625 18.1094H10.3906V9.79688H0.890625V18.1094ZM5.64062 10.3906C7.60505 10.3906 9.20312 11.9887 9.20312 13.9531C9.20312 15.9175 7.60505 17.5156 5.64062 17.5156C3.6762 17.5156 2.07812 15.9175 2.07812 13.9531C2.07812 11.9887 3.6762 10.3906 5.64062 10.3906Z" fill="#6C7185"/>
<path d="M5.64062 2.67188H1.48438V5.64062H5.64062V2.67188ZM2.28802 4.95989L1.86823 4.54011L3.05573 3.35261L3.47552 3.77239L2.28802 4.95989ZM4.06927 4.95989L3.64948 4.54011L4.83698 3.35261L5.25677 3.77239L4.06927 4.95989Z" fill="#6C7185"/>
<path d="M2.07812 7.42188H5.64062V8.01562H2.07812V7.42188Z" fill="#6C7185"/>
<path d="M5.16963 13.6563L5.3436 13.8302C5.49976 13.9864 5.7812 13.9864 5.93735 13.8302L6.11132 13.6563C6.43996 13.3273 6.9779 13.2831 7.36591 13.5188C7.17146 12.7463 6.47262 12.1719 5.64048 12.1719C4.80834 12.1719 4.10949 12.7463 3.91504 13.5188C4.30305 13.2831 4.84099 13.3273 5.16963 13.6563Z" fill="#6C7185"/>
<path d="M10.9844 16.9219H18.1094V7.42188H10.9844V16.9219ZM15.7344 8.90625C15.7344 8.74238 15.8674 8.60938 16.0312 8.60938H17.2188C17.3826 8.60938 17.5156 8.74238 17.5156 8.90625V12.4688C17.5156 12.6326 17.3826 12.7656 17.2188 12.7656H16.0312C15.8674 12.7656 15.7344 12.6326 15.7344 12.4688V8.90625Z" fill="#6C7185"/>
<path d="M16.3281 9.20312H16.9219V12.1719H16.3281V9.20312Z" fill="#6C7185"/>
<path d="M0.890625 6.23438V9.20312H10.3906V6.23438H0.890625ZM6.23438 8.3125C6.23438 8.47638 6.10138 8.60938 5.9375 8.60938H1.78125C1.61738 8.60938 1.48438 8.47638 1.48438 8.3125V7.125C1.48438 6.96113 1.61738 6.82812 1.78125 6.82812H5.9375C6.10138 6.82812 6.23438 6.96113 6.23438 7.125V8.3125ZM9.79688 8.60938H7.125V8.01562H9.79688V8.60938ZM9.79688 7.42188H7.125V6.82812H9.79688V7.42188Z" fill="#6C7185"/>
<path d="M9.79688 5.64062H10.6875C10.8514 5.64062 10.9844 5.77362 10.9844 5.9375V6.82812H18.1094V2.07812H9.79688V5.64062Z" fill="#6C7185"/>
<path d="M9.79688 0.890625H18.1094V1.48438H9.79688V0.890625Z" fill="#6C7185"/>
<path d="M8.01562 2.67188H6.23438V5.64062H8.01562V2.67188ZM7.42188 5.04688H6.82812V4.45312H7.42188V5.04688ZM7.42188 3.85938H6.82812V3.26562H7.42188V3.85938Z" fill="#6C7185"/>
</svg>
