<svg width="19" height="19" viewBox="0 0 19 19" fill="none" xmlns="http://www.w3.org/2000/svg">
<path d="M13.8389 8.21496L15.3824 9.78211C15.3827 9.78242 15.3827 9.78276 15.3831 9.78306L18.7106 13.1621V10.4749L15.162 6.87134L13.8389 8.21496Z" fill="#6C7185"/>
<path d="M7.44457 17.8429L3.69612 14.0366L2.37305 15.3799L3.91661 16.9474L5.4056 18.4591L5.9379 18.9997H8.58408L7.44498 17.8432C7.44491 17.8432 7.44457 17.8432 7.44457 17.8429Z" fill="#6C7185"/>
<path d="M9.42858 4.63206L13.1708 0.831792C13.1727 0.829566 13.1733 0.826736 13.1755 0.82451C13.178 0.821983 13.1811 0.821341 13.1836 0.819115L13.99 0.000244141H11.3438L8.10547 3.28844L9.42858 4.63206Z" fill="#6C7185"/>
<path d="M8.98784 8.66258L7.44431 7.09509L3.69615 3.28882L2.37305 4.6321L3.91661 6.19955L7.66507 10.0062L8.98784 8.66258Z" fill="#6C7185"/>
<path d="M2.95947 18.3665H4.43159L3.6957 17.6191L2.95947 18.3665Z" fill="#6C7185"/>
<path d="M15.4507 0.000244141H14.8723L13.8389 1.04967L15.3824 2.61716C15.3831 2.6178 15.3831 2.61844 15.3837 2.61905L18.7106 5.99753V3.31033L15.4507 0.000244141Z" fill="#6C7185"/>
<path d="M3.91661 9.78211L7.66507 13.5887L8.98817 12.2451L7.44431 10.6776L3.69615 6.87134L2.37305 8.21496L3.91661 9.78211Z" fill="#6C7185"/>
<path d="M13.8369 15.3796L15.3808 16.9474L17.402 18.9999H18.397C18.5695 18.9999 18.7089 18.8581 18.7089 18.6833V17.6399L15.1575 14.0334L13.8369 15.3796Z" fill="#6C7185"/>
<path d="M1.93146 15.8276L0 17.7887V18.683C0 18.8581 0.139689 18.9996 0.311811 18.9996H1.45403L1.98633 18.4591L3.25453 17.1712L1.93146 15.8276Z" fill="#6C7185"/>
<path d="M0.000488281 10.624V13.3109L1.71116 11.5737L3.25472 10.0062L1.93165 8.6626L0.000488281 10.624Z" fill="#6C7185"/>
<path d="M3.25521 13.5887L1.93214 12.2451L0.000976562 14.2065V16.8934L1.71168 15.1559L3.25521 13.5887Z" fill="#6C7185"/>
<path d="M8.98774 5.07991L7.44417 3.51241C7.4233 3.49121 7.41052 3.46522 7.39677 3.4399C7.37121 3.42564 7.34532 3.41202 7.32444 3.39082L3.98539 0H1.33984L7.66463 6.42349L8.98774 5.07991Z" fill="#6C7185"/>
<path d="M0.456621 0.000244141H0.311323C0.138866 0.000244141 -0.000488281 0.141797 -0.000488281 0.316889V2.56298L1.48973 1.04933L0.456621 0.000244141Z" fill="#6C7185"/>
<path d="M3.25521 2.8409L1.93214 1.49731L0.000976562 3.45838V6.14558L1.71168 4.40805L3.25521 2.8409Z" fill="#6C7185"/>
<path d="M3.25453 6.42317L1.93146 5.07959L0 7.04069V9.72819L1.711 7.99066L3.25453 6.42317Z" fill="#6C7185"/>
<path d="M15.3786 13.3614L18.7095 16.7443V14.0575L15.161 10.4539L13.8379 11.7974L15.3777 13.3608C15.378 13.3611 15.3783 13.3611 15.3786 13.3614Z" fill="#6C7185"/>
<path d="M13.8008 18.9998H16.5199L15.1603 17.6191L13.8008 18.9998Z" fill="#6C7185"/>
<path d="M7.66507 17.1712L8.98817 15.8276L7.44431 14.2605L3.69582 10.4539L2.37305 11.7975L3.91661 13.3649L7.66507 17.1712Z" fill="#6C7185"/>
<path d="M18.7092 0.31689C18.7092 0.141759 18.5698 0.000244141 18.3974 0.000244141H16.3315L18.7092 2.41479V0.31689Z" fill="#6C7185"/>
<path d="M15.3819 6.1995L18.7101 9.57922V6.893L15.1612 3.28906L13.8384 4.63234L15.3788 6.19667L15.3819 6.1995Z" fill="#6C7185"/>
<path d="M14.717 13.5859L13.3967 12.2451L9.64821 16.0517L8.10498 17.6189L9.42775 18.9625L13.1759 15.1562L14.717 13.5859Z" fill="#6C7185"/>
<path d="M13.3964 15.8276L10.2725 18.9999H12.9189L14.7194 17.1712L13.3964 15.8276Z" fill="#6C7185"/>
<path d="M10.461 0H4.86621L7.66359 2.84075L10.461 0Z" fill="#6C7185"/>
<path d="M9.64821 12.4692L8.10498 14.0364L9.42775 15.3799L14.7198 10.0062L13.3967 8.6626L9.64821 12.4692Z" fill="#6C7185"/>
<path d="M13.3975 5.07983L9.649 8.88641L8.10547 10.4536L9.42854 11.7972L13.1767 7.99121L14.7178 6.42055L13.3975 5.07983Z" fill="#6C7185"/>
<path d="M9.64903 5.30383L8.10547 6.87098L9.42824 8.21457L13.1767 4.40796C13.177 4.40765 13.1777 4.40765 13.1777 4.40732L14.7203 2.84114L13.3972 1.49756L9.64903 5.30383Z" fill="#6C7185"/>
</svg>
