<svg width="21" height="21" viewBox="0 0 21 21" fill="none" xmlns="http://www.w3.org/2000/svg">
<g clip-path="url(#clip0)">
<path d="M4.56833 4.82312C4.38824 4.82312 4.24219 4.97001 4.24219 5.15112H4.8946C4.8946 4.97001 4.74855 4.82312 4.56833 4.82312Z" fill="#6C7185"/>
<path d="M6.84958 4.82312C6.66949 4.82312 6.52344 4.97001 6.52344 5.15112H7.17572C7.17572 4.97001 7.02967 4.82312 6.84958 4.82312Z" fill="#6C7185"/>
<path d="M9.13486 4.82312C8.95465 4.82312 8.80859 4.97001 8.80859 5.15112H9.46101C9.46101 4.97001 9.31495 4.82312 9.13486 4.82312Z" fill="#6C7185"/>
<path d="M11.4179 4.82312C11.2379 4.82312 11.0918 4.97001 11.0918 5.15112H11.7442C11.7442 4.97001 11.5982 4.82312 11.4179 4.82312Z" fill="#6C7185"/>
<path d="M14.0262 11.3841V5.80737H16.3095C16.4896 5.80737 16.6357 5.66048 16.6357 5.47937C16.6357 5.29813 16.4896 5.15125 16.3095 5.15125H11.7429V10.4C11.7429 10.5812 11.5968 10.7281 11.4166 10.7281C11.2365 10.7281 11.0905 10.5812 11.0905 10.4V5.15125H9.4595V10.4C9.4595 10.5812 9.31345 10.7281 9.13336 10.7281C8.95315 10.7281 8.80709 10.5812 8.80709 10.4V5.15125H7.17611V10.4C7.17611 10.5812 7.03006 10.7281 6.84997 10.7281C6.66988 10.7281 6.52383 10.5812 6.52383 10.4V5.15125H4.89285V10.4C4.89285 10.5812 4.74679 10.7281 4.56658 10.7281C4.38649 10.7281 4.24044 10.5812 4.24044 10.4V5.15125H2.93573C2.82664 5.15189 2.72493 5.20739 2.6649 5.29903L0.707785 8.25138C0.671462 8.30445 0.652217 8.36738 0.652344 8.43172V13.6804C0.652344 13.8615 0.798402 14.0084 0.978488 14.0084H2.28332C2.42313 14.0075 2.54727 13.9182 2.59328 13.7855L2.93573 11.7122H13.7C13.8801 11.7122 14.0262 11.5653 14.0262 11.3841Z" fill="#6C7185"/>
<path d="M19.8943 9.4092L17.3956 6.84059C17.1527 6.61245 16.837 6.47876 16.5051 6.46338H14.6784V12.3682H3.26172V13.6803C3.26172 13.8614 3.40778 14.0083 3.58786 14.0083H4.56642C4.56642 14.9144 5.29671 15.6486 6.1974 15.6486C7.09808 15.6486 7.82837 14.9144 7.82837 14.0083H8.48079C8.48079 14.9144 9.21107 15.6486 10.1118 15.6486C11.0124 15.6486 11.7427 14.9144 11.7427 14.0083H15.3308C15.3308 14.9144 16.061 15.6486 16.9617 15.6486C17.8624 15.6486 18.5926 14.9144 18.5926 14.0083H19.2451C19.5122 14.0364 19.7777 13.9419 19.9676 13.7508C20.1573 13.5599 20.2515 13.2929 20.2236 13.0242V10.2293C20.2231 9.9233 20.1051 9.62966 19.8943 9.4092ZM6.1974 14.9925C5.65701 14.9925 5.21884 14.5519 5.21884 14.0083C5.21884 13.4649 5.65701 13.0242 6.1974 13.0242C6.73778 13.0242 7.17596 13.4649 7.17596 14.0083C7.17443 14.5513 6.73715 14.9909 6.1974 14.9925ZM10.1118 14.9925C9.57137 14.9925 9.1332 14.5519 9.1332 14.0083C9.1332 13.4649 9.57137 13.0242 10.1118 13.0242C10.6521 13.0242 11.0903 13.4649 11.0903 14.0083C11.0887 14.5513 10.6515 14.9909 10.1118 14.9925ZM16.9617 14.9925C16.4213 14.9925 15.9831 14.5519 15.9831 14.0083C15.9831 13.4649 16.4213 13.0242 16.9617 13.0242C17.5022 13.0242 17.9404 13.4649 17.9404 14.0083C17.9387 14.5513 17.5015 14.9909 16.9617 14.9925ZM16.6372 9.41574C16.5504 9.41625 16.467 9.38177 16.4054 9.32025C16.3439 9.25872 16.3094 9.17502 16.3094 9.08774V7.1195H16.5051C16.6615 7.13424 16.8096 7.19717 16.929 7.29997L18.9874 9.41574H16.6372Z" fill="#6C7185"/>
</g>
<defs>
<clipPath id="clip0">
<rect width="20.8814" height="21" fill="white"/>
</clipPath>
</defs>
</svg>
