<svg width="21" height="21" viewBox="0 0 21 21" fill="none" xmlns="http://www.w3.org/2000/svg">
<g clip-path="url(#clip0)">
<path d="M20.7924 8.17075C21.0689 7.89429 21.0689 7.44596 20.7924 7.16945L19.7298 6.10687C19.4895 5.86657 19.1122 5.83093 18.8312 6.02191L16.597 7.54041L18.1063 5.29112C18.2948 5.01022 18.2582 4.63515 18.019 4.39597L15.7141 2.09108C15.5013 1.87829 15.1773 1.8232 14.9062 1.95381L14.5077 2.14569L14.6986 1.72228C14.8195 1.45394 14.7619 1.13881 14.5537 0.930652L13.8302 0.207227C13.5538 -0.0692383 13.1054 -0.0692383 12.8289 0.207227L7.20898 5.82711L15.1725 13.7906L20.7924 8.17075Z" fill="#6C7185"/>
<path d="M6.16277 6.87366L4.53589 8.50054C4.40311 8.63332 4.32848 8.8134 4.32848 9.00117C4.32848 9.18894 4.40306 9.36906 4.53589 9.5018L6.07912 11.045C6.37645 11.3424 6.52065 11.7527 6.47477 12.1708C6.42894 12.5886 6.19897 12.958 5.84387 13.1843C1.30922 16.0749 0.886521 16.4977 0.747652 16.6366C-0.249217 17.6334 -0.249217 19.2554 0.747652 20.2523C1.74551 21.2502 3.36758 21.2482 4.36336 20.2523C4.50233 20.1134 4.92516 19.6905 7.81556 15.1561C8.04138 14.8018 8.41064 14.5724 8.82862 14.5265C9.24792 14.4807 9.6582 14.6242 9.95482 14.9208L11.4981 16.464C11.7745 16.7405 12.2229 16.7405 12.4994 16.464L14.1263 14.8371L6.16277 6.87366ZM3.30655 19.1087C2.91571 19.4995 2.28206 19.4995 1.89127 19.1087C1.50044 18.7178 1.50044 18.0842 1.89127 17.6934C2.28211 17.3026 2.91576 17.3026 3.30655 17.6934C3.69738 18.0842 3.69738 18.7178 3.30655 19.1087Z" fill="#6C7185"/>
</g>
<defs>
<clipPath id="clip0">
<rect width="21" height="21" fill="white"/>
</clipPath>
</defs>
</svg>
