<svg width="21" height="13" viewBox="0 0 21 13" fill="none" xmlns="http://www.w3.org/2000/svg">
<path d="M6.22101 9.25414C5.19949 9.25414 4.37099 10.0826 4.37099 11.1011C4.37099 12.1226 5.19949 12.9511 6.22101 12.9511C7.23954 12.9511 8.06802 12.1226 8.06802 11.1011C8.06802 10.0826 7.23954 9.25414 6.22101 9.25414ZM6.22101 12.0276C5.71025 12.0276 5.29454 11.6119 5.29454 11.1011C5.29454 10.5934 5.71025 10.1776 6.22101 10.1776C6.72875 10.1776 7.1445 10.5933 7.1445 11.1011C7.1445 11.6119 6.72878 12.0276 6.22101 12.0276ZM4.62851 9.25493H0.488216C0.32423 9.25493 0.191299 9.38786 0.191299 9.55184V10.4528C0.191299 10.6168 0.32423 10.7497 0.488216 10.7497H3.80683C3.89351 10.1552 4.19355 9.63004 4.62851 9.25493ZM15.8866 9.25414C14.868 9.25414 14.0396 10.0826 14.0396 11.1011C14.0396 12.1226 14.8681 12.9511 15.8866 12.9511C16.9081 12.9511 17.7336 12.1226 17.7336 11.1011C17.7336 10.0826 16.9081 9.25414 15.8866 9.25414ZM15.8866 12.0276C15.3758 12.0276 14.9631 11.6119 14.9631 11.1011C14.9631 10.5934 15.3758 10.1776 15.8866 10.1776C16.3973 10.1776 16.8101 10.5933 16.8101 11.1011C16.8101 11.6119 16.3973 12.0276 15.8866 12.0276ZM20.7031 9.25414H19.9815V5.21864C19.9815 4.74651 19.839 4.28328 19.5747 3.89128L17.7663 1.21285C17.3268 0.559554 16.5874 0.167588 15.7976 0.167588H12.9944C12.6677 0.167588 12.4005 0.431872 12.4005 0.76149V9.25414H7.81265C8.24621 9.63124 8.54611 10.1539 8.63224 10.7507H13.4754C13.6447 9.57188 14.6602 8.66023 15.8866 8.66023C17.113 8.66023 18.1286 9.57185 18.3008 10.7507H20.7031C20.8694 10.7507 21 10.6171 21 10.4538V9.55109C21 9.38775 20.8693 9.25414 20.7031 9.25414ZM17.7454 4.42578H14.0455C13.8822 4.42578 13.7486 4.29512 13.7486 4.12883V2.07697C13.7486 1.91364 13.8823 1.78002 14.0455 1.78002H16.2994C16.3973 1.78002 16.4894 1.82751 16.5429 1.90472L17.989 3.95956C18.1285 4.15556 17.986 4.42578 17.7454 4.42578ZM10.987 8.66023H0.593868C0.265897 8.66023 0 8.39437 0 8.06637V5.39384C0 5.06584 0.265897 4.79994 0.593868 4.79994H10.987C11.315 4.79994 11.5809 5.06584 11.5809 5.39384V8.06637C11.5809 8.39437 11.315 8.66023 10.987 8.66023ZM4.75115 3.90912H0.593868C0.265897 3.90912 0 3.64319 0 3.31522V0.64273C0 0.314725 0.265897 0.0488281 0.593868 0.0488281H4.75111C5.07912 0.0488281 5.34502 0.314725 5.34502 0.64273V3.31522C5.34505 3.64319 5.07915 3.90912 4.75115 3.90912ZM10.987 3.90912H6.82977C6.50177 3.90912 6.23587 3.64322 6.23587 3.31525V0.64273C6.23587 0.314725 6.50177 0.0488624 6.82977 0.0488624H10.987C11.315 0.0488624 11.5809 0.314759 11.5809 0.64273V3.31525C11.5809 3.64319 11.315 3.90912 10.987 3.90912Z" fill="#6C7185"/>
</svg>
