<svg width="21" height="21" viewBox="0 0 21 21" fill="none" xmlns="http://www.w3.org/2000/svg">
<path d="M20.9337 9.33405C20.9006 9.0389 20.5563 8.81685 20.2586 8.81685C19.2965 8.81685 18.4426 8.25214 18.0845 7.37812C17.719 6.48311 17.9548 5.43953 18.6717 4.78192C18.8974 4.57549 18.925 4.22984 18.7357 3.9899C18.2431 3.36453 17.6835 2.79955 17.0723 2.30996C16.8332 2.11815 16.4818 2.14485 16.2743 2.37453C15.6484 3.06765 14.5242 3.3252 13.6554 2.96275C12.7517 2.5825 12.1813 1.66642 12.2373 0.683142C12.2558 0.37409 12.0298 0.105542 11.7219 0.0696694C10.9375 -0.0211481 10.1462 -0.0237818 9.35951 0.0634938C9.05545 0.0970963 8.82968 0.359286 8.83976 0.664433C8.87382 1.63809 8.29694 2.538 7.40194 2.90463C6.54362 3.25528 5.4272 2.99962 4.80265 2.31259C4.59622 2.08627 4.25102 2.05848 4.01027 2.2462C3.38108 2.73998 2.80884 3.30532 2.31171 3.9256C2.11799 4.16672 2.1466 4.51619 2.37428 4.72334C3.10527 5.38531 3.34094 6.43788 2.96142 7.34333C2.59905 8.20655 1.70278 8.76263 0.67681 8.76263C0.343873 8.75191 0.10693 8.9756 0.0701492 9.27838C-0.0221214 10.067 -0.0231204 10.8709 0.0656991 11.6659C0.0988475 11.9623 0.453308 12.1825 0.754277 12.1825C1.66881 12.1592 2.54629 12.725 2.91492 13.6211C3.28173 14.5161 3.0456 15.5592 2.3276 16.2177C2.10301 16.4242 2.07431 16.769 2.26394 17.0087C2.75154 17.6301 3.3117 18.1955 3.92472 18.6893C4.16538 18.8831 4.51539 18.8559 4.724 18.626C5.35228 17.9312 6.47633 17.6741 7.34154 18.0373C8.2479 18.4165 8.81806 19.3325 8.76238 20.3161C8.74413 20.6251 8.97063 20.8945 9.2775 20.9295C9.67891 20.9765 10.0824 20.9997 10.4872 20.9997C10.8713 20.9997 11.2556 20.9788 11.6398 20.936C11.9443 20.9024 12.1697 20.6399 12.1594 20.3347C12.1243 19.3615 12.7024 18.4615 13.5963 18.0956C14.4604 17.7427 15.5718 18.0009 16.1967 18.687C16.4042 18.9128 16.7473 18.9403 16.9891 18.7533C17.6172 18.2608 18.1883 17.6957 18.6876 17.0738C18.8815 16.8331 18.854 16.4832 18.6251 16.2757C17.8943 15.6142 17.6573 14.5611 18.0368 13.6566C18.3936 12.805 19.2565 12.2332 20.1847 12.2332L20.3146 12.2367C20.6159 12.2611 20.8928 12.0291 20.9292 11.7216C21.0219 10.9324 21.0229 10.1293 20.9337 9.33405ZM10.4998 16.5531C7.15655 16.5531 4.44646 13.8431 4.44646 10.4999C4.44646 7.1567 7.15664 4.44662 10.4998 4.44662C13.843 4.44662 16.5532 7.1567 16.5532 10.4999C16.5532 11.6346 16.2403 12.696 15.6969 13.6037L13.0463 10.953C13.2382 10.5005 13.3396 10.01 13.3395 9.50379C13.3395 8.51252 12.9534 7.58064 12.2524 6.8798C11.5516 6.17896 10.6197 5.79299 9.6286 5.79299C9.29784 5.79299 8.96863 5.83694 8.65013 5.92367C8.51064 5.96173 8.39657 6.0767 8.35943 6.21647C8.32146 6.35942 8.36424 6.50591 8.47595 6.6177C8.47595 6.6177 9.78454 7.93637 10.2224 8.37411C10.2682 8.41998 10.2681 8.52941 10.2617 8.56882L10.2576 8.59761C10.2135 9.07895 10.1284 9.65673 10.0582 9.87878C10.0487 9.88813 10.0398 9.89603 10.0302 9.90566C10.0201 9.91574 10.0109 9.92546 10.0011 9.93545C9.77618 10.0076 9.1895 10.0937 8.70054 10.1375L8.70063 10.1349L8.67865 10.1404C8.67475 10.1409 8.66748 10.1414 8.65785 10.1414C8.605 10.1414 8.52726 10.1266 8.4566 10.0561C8.00088 9.60033 6.7436 8.35204 6.7436 8.35204C6.63081 8.23961 6.5151 8.216 6.438 8.216C6.25827 8.216 6.09734 8.34587 6.04667 8.53214C5.70056 9.81293 6.06747 11.1906 7.00443 12.1277C7.70545 12.8286 8.63742 13.2146 9.62869 13.2146C10.1349 13.2146 10.6254 13.1133 11.0778 12.9214L13.7572 15.6008C12.8165 16.2028 11.6994 16.5531 10.4998 16.5531Z" fill="#6C7185"/>
</svg>
