<svg width="21" height="21" viewBox="0 0 21 21" fill="none" xmlns="http://www.w3.org/2000/svg">
<path d="M0.123047 9.55334H1.91155V11.6996H0.123047V9.55334Z" fill="#6C7185"/>
<path d="M4.41406 12.7726H6.20257V14.2064C6.20257 14.5999 5.88358 14.9189 5.49008 14.9189H4.41406V12.7726Z" fill="#6C7185"/>
<path d="M7.06055 9.29192L13.7153 6.33398V14.9191L7.06055 11.9611V9.29192Z" fill="#6C7185"/>
<path d="M2.62695 12.7726H4.77322V16.7074H2.62695V12.7726Z" fill="#6C7185"/>
<path d="M18.3675 0.252808L15.5059 3.11461V5.61848H18.0097L20.8714 2.75684L18.3675 0.252808ZM17.1156 4.54535C16.8192 4.54535 16.579 4.30518 16.579 4.00878C16.579 3.71254 16.8192 3.47221 17.1156 3.47221C17.4118 3.47221 17.6521 3.71254 17.6521 4.00878C17.6521 4.30518 17.4118 4.54535 17.1156 4.54535Z" fill="#6C7185"/>
<path d="M2.58216 8.12244H6.25082C6.81815 8.12244 7.27813 8.58242 7.27813 9.14975V12.103C7.27813 12.6704 6.81815 13.1303 6.25082 13.1303H2.58216C2.01467 13.1303 1.55469 12.6704 1.55469 12.103V9.14975C1.55469 8.58242 2.01467 8.12244 2.58216 8.12244Z" fill="#6C7185"/>
<path d="M17.3282 14.2139L14.7988 16.7434L18.3401 20.2847L20.8695 17.7553L17.3282 14.2139ZM17.5536 17.859C17.3777 17.8454 17.238 17.7055 17.2245 17.5296L17.0528 15.2989L17.7661 15.2441L17.9141 17.1694L19.879 17.3203L19.8244 18.0336L17.5536 17.859Z" fill="#6C7185"/>
<path d="M19.7985 8.48024C19.7985 9.07304 19.3181 9.55338 18.7253 9.55338C18.1327 9.55338 17.6523 9.07304 17.6523 8.48024C17.6523 7.8876 18.1327 7.4071 18.7253 7.4071C19.3181 7.4071 19.7985 7.8876 19.7985 8.48024Z" fill="#6C7185"/>
<path d="M18.3728 9.91101H19.0751C19.6714 9.91117 20.1546 10.3947 20.1546 10.9909V12.7727H17.293V10.9909C17.293 10.3945 17.7765 9.91101 18.3728 9.91101Z" fill="#6C7185"/>
<path d="M16.9366 8.83781C16.9366 9.2329 16.6163 9.55318 16.2212 9.55318C15.8261 9.55318 15.5059 9.2329 15.5059 8.83781C15.5059 8.44271 15.8261 8.12244 16.2212 8.12244C16.6163 8.12244 16.9366 8.44271 16.9366 8.83781Z" fill="#6C7185"/>
<path d="M16.2196 9.91101C16.8123 9.91101 17.2928 10.3915 17.2928 10.9841V12.0573H15.1465V10.9841C15.1465 10.3915 15.627 9.91101 16.2196 9.91101Z" fill="#6C7185"/>
<path d="M13.6118 0.505806L13.106 0L10.9208 2.18456C9.80917 1.35271 8.23359 1.57942 7.40174 2.69101C6.56989 3.8026 6.7966 5.37817 7.90819 6.21002C9.01994 7.04203 10.5954 6.81516 11.4274 5.70358C12.0956 4.81052 12.0956 3.58406 11.4274 2.69101L13.6118 0.505806ZM9.42416 5.97626C8.43626 5.97626 7.6355 5.1755 7.6355 4.18776C7.6355 3.19986 8.43626 2.39909 9.42416 2.39909C10.4119 2.39909 11.2127 3.19986 11.2127 4.18776C11.2115 5.17502 10.4114 5.97498 9.42416 5.97626Z" fill="#6C7185"/>
<path d="M9.78014 14.9189H8.3494L6.20312 17.0652L10.1379 21L12.9995 18.1384L9.78014 14.9189ZM8.09641 17.5278L9.52731 16.0969L10.0331 16.6027L8.60222 18.0336L8.09641 17.5278ZM9.67535 19.1067L9.16955 18.6009L10.6004 17.17L11.1063 17.6758L9.67535 19.1067Z" fill="#6C7185"/>
</svg>
