<svg width="21" height="21" viewBox="0 0 21 21" fill="none" xmlns="http://www.w3.org/2000/svg">
<path d="M19.9333 4.14014H16.0971C15.5077 4.14014 15.03 4.61745 15.03 5.20706V7.97669H12.2604C11.6708 7.97669 11.1931 8.45383 11.1931 9.04348V11.8133H8.42351C7.83391 11.8133 7.35642 12.2911 7.35642 12.8801V15.7833H4.45386C4.17063 15.7833 3.89923 15.8956 3.6992 16.0955C3.499 16.2954 3.38672 16.5681 3.38672 16.8502L3.38706 19.0824C3.38706 19.6726 3.8649 20.1498 4.45416 20.1498H19.9333C20.5229 20.1498 21.0004 19.6726 21.0004 19.0824V5.20701C21.0005 4.61745 20.5229 4.14014 19.9333 4.14014Z" fill="#6C7185"/>
<path d="M14.3172 1.06509C14.0426 0.783551 13.5928 0.778141 13.3114 1.05206C8.74803 5.49739 4.40672 9.83922 0.208467 14.0371C0.0748853 14.1707 0 14.3521 0 14.5405V19.4089C0 19.8012 0.318371 20.1204 0.711367 20.1204C1.10397 20.1204 1.42291 19.8013 1.42291 19.4089V14.8348C5.55303 10.7046 9.823 6.43679 14.304 2.07097C14.5852 1.7971 14.5909 1.34645 14.3172 1.06509Z" fill="#6C7185"/>
</svg>
