<svg width="24" height="16" viewBox="0 0 24 16" fill="none" xmlns="http://www.w3.org/2000/svg">
<path d="M5.578 15.264C3.39267 15.264 1.74267 14.4647 0.628 12.866L1.464 12.03C2.44667 13.4233 3.818 14.12 5.578 14.12C6.634 14.12 7.50667 13.7827 8.196 13.108C8.9 12.4333 9.252 11.59 9.252 10.578C9.252 9.478 8.90733 8.60533 8.218 7.96C7.54333 7.31467 6.67067 6.992 5.6 6.992C4.26533 6.992 3.07733 7.46867 2.036 8.422L1.09 8.026V0.325999H9.56V1.47H2.344V7.212C3.28267 6.30267 4.44867 5.848 5.842 5.848C7.14733 5.848 8.25467 6.266 9.164 7.102C10.0733 7.92333 10.528 9.06733 10.528 10.534C10.528 11.9567 10.0513 13.1007 9.098 13.966C8.14467 14.8313 6.97133 15.264 5.578 15.264ZM21.0007 14.582C20.282 15.0367 19.4534 15.264 18.5147 15.264C17.576 15.264 16.74 15.0367 16.0067 14.582C15.2734 14.1273 14.7014 13.526 14.2907 12.778C13.8947 12.0153 13.594 11.2087 13.3887 10.358C13.1834 9.49267 13.0807 8.598 13.0807 7.674C13.0807 6.75 13.1834 5.86267 13.3887 5.012C13.594 4.14667 13.8947 3.34 14.2907 2.592C14.7014 1.844 15.266 1.24267 15.9847 0.787999C16.718 0.333332 17.5614 0.105999 18.5147 0.105999C19.4534 0.105999 20.282 0.333332 21.0007 0.787999C21.7194 1.24267 22.284 1.844 22.6947 2.592C23.1054 3.34 23.4134 4.14667 23.6187 5.012C23.824 5.86267 23.9267 6.75 23.9267 7.674C23.9267 8.58333 23.824 9.47067 23.6187 10.336C23.4134 11.2013 23.1054 12.0153 22.6947 12.778C22.284 13.526 21.7194 14.1273 21.0007 14.582ZM18.5147 14.12C19.248 14.12 19.886 13.9293 20.4287 13.548C20.986 13.1667 21.4114 12.6607 21.7047 12.03C22.0127 11.3847 22.2327 10.7027 22.3647 9.984C22.5114 9.25067 22.5847 8.48067 22.5847 7.674C22.5847 6.86733 22.5114 6.10467 22.3647 5.386C22.2327 4.65267 22.0127 3.97067 21.7047 3.34C21.4114 2.69467 20.986 2.18867 20.4287 1.822C19.886 1.44067 19.248 1.25 18.5147 1.25C17.7667 1.25 17.114 1.44067 16.5567 1.822C16.014 2.18867 15.5887 2.69467 15.2807 3.34C14.9874 3.97067 14.7674 4.65267 14.6207 5.386C14.474 6.10467 14.4007 6.86733 14.4007 7.674C14.4007 8.48067 14.474 9.25067 14.6207 9.984C14.7674 10.7027 14.9874 11.3847 15.2807 12.03C15.5887 12.6607 16.014 13.1667 16.5567 13.548C17.114 13.9293 17.7667 14.12 18.5147 14.12Z" fill="white"/>
</svg>
