<svg width="13" height="12" viewBox="0 0 13 12" fill="none" xmlns="http://www.w3.org/2000/svg">
<path d="M6.5 11.5C3.45 11.5 1 9.05 1 6C1 2.95 3.45 0.5 6.5 0.5C9.55 0.5 12 2.95 12 6C12 9.05 9.55 11.5 6.5 11.5ZM6.5 1.5C4 1.5 2 3.5 2 6C2 8.5 4 10.5 6.5 10.5C9 10.5 11 8.5 11 6C11 3.5 9 1.5 6.5 1.5Z" fill="#FF855F"/>
<path d="M6.5 6.5C6.2 6.5 6 6.3 6 6V4C6 3.7 6.2 3.5 6.5 3.5C6.8 3.5 7 3.7 7 4V6C7 6.3 6.8 6.5 6.5 6.5Z" fill="#FF855F"/>
<path d="M6.5 8.5C6.35 8.5 6.25 8.45 6.15 8.35C6.05 8.25 6 8.15 6 8C6 7.95 6 7.85 6.05 7.8C6.1 7.75 6.1 7.7 6.15 7.65C6.3 7.5 6.5 7.45 6.7 7.55C6.75 7.55 6.75 7.55 6.8 7.6C6.8 7.6 6.85 7.65 6.9 7.65C6.95 7.7 7 7.75 7 7.8C7 7.85 7 7.95 7 8C7 8.05 7 8.15 6.95 8.2C6.9 8.25 6.9 8.3 6.85 8.35C6.75 8.45 6.65 8.5 6.5 8.5Z" fill="#FF855F"/>
</svg>
