<svg width="23" height="23" viewBox="0 0 23 23" fill="none" xmlns="http://www.w3.org/2000/svg">
<g clip-path="url(#clip0)">
<path d="M3.69018 7.9939H3.63527C2.93136 7.9939 2.35742 8.58481 2.35742 9.30537V15.0153C2.35742 15.7387 2.93136 16.3277 3.63527 16.3277H3.69112C4.39503 16.3277 4.96897 15.7368 4.96897 15.0153V9.30533C4.96803 8.58481 4.39321 7.9939 3.69018 7.9939Z" fill="white"/>
<path d="M5.58008 17.2193C5.58008 17.8825 6.10823 18.4227 6.75447 18.4227H8.00945V21.5069C8.00945 22.2312 8.58521 22.8202 9.2873 22.8202H9.34221C10.0471 22.8202 10.6219 22.2303 10.6219 21.5069V18.4227H12.3757V21.5069C12.3757 22.2312 12.9533 22.8202 13.6554 22.8202H13.7094C14.4142 22.8202 14.9882 22.2303 14.9882 21.5069V18.4227H16.244C16.8893 18.4227 17.4175 17.8825 17.4175 17.2193V8.20337H5.58008V17.2193Z" fill="white"/>
<path d="M14.4475 2.73584L15.4443 1.15665C15.5084 1.05705 15.48 0.920862 15.3821 0.856014C15.2851 0.79025 15.1523 0.817514 15.0891 0.919904L14.0557 2.55362C13.2804 2.22764 12.4145 2.04446 11.5 2.04446C10.5846 2.04446 9.72054 2.22764 8.94342 2.55362L7.91182 0.919904C7.84868 0.817514 7.71501 0.79025 7.61707 0.856014C7.51913 0.920819 7.49074 1.05705 7.55482 1.15665L8.55255 2.73584C6.75385 3.64055 5.54102 5.34564 5.54102 7.30156C5.54102 7.4218 5.54836 7.54018 5.55841 7.65759H17.4425C17.4526 7.54018 17.459 7.4218 17.459 7.30156C17.459 5.34564 16.2452 3.64055 14.4475 2.73584ZM8.74478 5.56358C8.42898 5.56358 8.17267 5.3024 8.17267 4.97737C8.17267 4.65234 8.42898 4.39208 8.74478 4.39208C9.06241 4.39208 9.31689 4.6523 9.31689 4.97737C9.31689 5.30244 9.06059 5.56358 8.74478 5.56358ZM14.2544 5.56358C13.9385 5.56358 13.6822 5.3024 13.6822 4.97737C13.6822 4.65234 13.9385 4.39208 14.2544 4.39208C14.571 4.39208 14.8255 4.6523 14.8255 4.97737C14.8255 5.3024 14.571 5.56358 14.2544 5.56358Z" fill="white"/>
<path d="M19.3621 7.9939H19.309C18.6051 7.9939 18.0293 8.58481 18.0293 9.30537V15.0153C18.0293 15.7387 18.606 16.3277 19.309 16.3277H19.363C20.0678 16.3277 20.6408 15.7368 20.6408 15.0153V9.30533C20.6408 8.58481 20.066 7.9939 19.3621 7.9939Z" fill="white"/>
</g>
<defs>
<clipPath id="clip0">
<rect x="0.78125" y="0.820312" width="21.4359" height="22" fill="white"/>
</clipPath>
</defs>
</svg>
