<svg width="23" height="23" viewBox="0 0 23 23" fill="none" xmlns="http://www.w3.org/2000/svg">
<g clip-path="url(#clip0)">
<path d="M3.15438 8.90761C1.29448 12.1351 2.47685 17.033 4.5336 20.0028C5.56024 21.4876 6.59965 22.8203 8.0233 22.8203C8.05013 22.8203 8.07704 22.8198 8.10459 22.8188C8.77347 22.7921 9.25682 22.5861 9.72415 22.3871C10.2488 22.1635 10.7915 21.9323 11.6426 21.9323C12.4524 21.9323 12.9691 22.156 13.4688 22.3723C13.9614 22.5853 14.4687 22.8058 15.2182 22.7917C16.8219 22.7618 17.8065 21.3237 18.6751 20.055C19.5816 18.7303 20.0363 17.4441 20.1897 16.9526L20.1959 16.9331C20.2252 16.8457 20.1839 16.7504 20.1001 16.7119C20.0978 16.7108 20.0893 16.7073 20.0869 16.7063C19.8046 16.5908 17.3274 15.4919 17.3014 12.4967C17.2772 10.0633 19.1597 8.77468 19.5372 8.54111L19.5548 8.53015C19.5957 8.50382 19.6242 8.46206 19.6339 8.41431C19.6436 8.36663 19.6335 8.317 19.6061 8.2769C18.3067 6.37538 16.3151 6.0888 15.5133 6.05432C15.397 6.04271 15.2769 6.03687 15.1563 6.03687C14.2145 6.03687 13.3124 6.39254 12.5876 6.67833C12.0873 6.87561 11.6552 7.04598 11.3571 7.04598C11.0222 7.04598 10.5876 6.87351 10.0844 6.67386C9.41139 6.40675 8.64861 6.10409 7.8411 6.10409C7.82184 6.10409 7.80287 6.10431 7.78419 6.10467C5.90661 6.13229 4.13248 7.20647 3.15438 8.90761Z" fill="white"/>
<path d="M15.5149 0.820451C14.3779 0.866759 13.014 1.56665 12.1988 2.52152C11.5059 3.32412 10.8291 4.6623 11.0074 6.01115C11.0186 6.09555 11.0873 6.16068 11.1722 6.16724C11.2489 6.17323 11.3273 6.17626 11.4053 6.17633C12.5171 6.17633 13.7164 5.56127 14.5354 4.57091C15.3975 3.52515 15.8334 2.18308 15.7015 0.980943C15.6911 0.88674 15.6082 0.816772 15.5149 0.820451Z" fill="white"/>
</g>
<defs>
<clipPath id="clip0">
<rect x="0.216797" y="0.820312" width="22" height="22" fill="white"/>
</clipPath>
</defs>
</svg>
