<svg width="17" height="38" fill="none" xmlns="http://www.w3.org/2000/svg"><path d="M.825 36.684s-.015-.156-.046-.443c-.03-.287-.078-.727-.105-1.254-.015-.269-.039-.563-.05-.887-.013-.323-.019-.676-.028-1.054-.009-.378 0-.774 0-1.195 0-.422.033-.866.048-1.327.066-.923.147-1.923.3-2.966.145-1.103.341-2.195.587-3.271.265-1.14.58-2.263.945-3.362a37.8 37.8 0 011.296-3.271 41.49 41.49 0 011.585-3.108c.559-1 1.154-1.926 1.759-2.798.604-.873 1.203-1.705 1.822-2.435.62-.731 1.203-1.418 1.747-2.047l.812-.868.734-.753c.475-.476.902-.887 1.245-1.221.343-.334.629-.589.818-.77.19-.182.3-.28.3-.28a.414.414 0 00.11-.234.459.459 0 00-.041-.264.342.342 0 00-.174-.168.27.27 0 00-.222.008l-.349.178c-.222.127-.56.29-.962.56-.202.134-.436.269-.674.443l-.77.563-.848.698c-.3.251-.601.538-.902.829a25.794 25.794 0 00-1.9 2.075c-.67.823-1.3 1.69-1.892 2.595a33.334 33.334 0 00-1.744 3.035 38.21 38.21 0 00-1.468 3.351A42.765 42.765 0 00.804 24.11a47.84 47.84 0 00-.509 3.355 52.774 52.774 0 00-.24 3.038c0 .473-.03.927-.045 1.356-.015.429 0 .84 0 1.225.018.767.033 1.435.066 1.991s.066.974.08 1.269a8 8 0 00.034.447.41.41 0 00.116.25.283.283 0 00.227.083.303.303 0 00.212-.129.436.436 0 00.08-.27v-.04z" fill="#4880FF"/><path d="M13.617 1.431c.464.043.923.147 1.368.31.225.062.451.163.677.25l.676.274-.544-.805c-.152.447-.27.91-.352 1.382-.04.238-.05.48-.033.722.01.13.028.257.057.382.018.069.033.134.054.203.023.073.05.144.081.212.027.06.063.112.106.154a.406.406 0 00.147.094.357.357 0 00.325-.042l.036-.025c.056-.044.108-.093.156-.148a1.891 1.891 0 00.322-.487c.108-.224.183-.468.223-.722a6.422 6.422 0 00.066-1.523l-.021-.32a.596.596 0 00-.16-.378.413.413 0 00-.333-.132h-.03c-.453.094-.912.14-1.372.141A4.646 4.646 0 0113.72.76a.275.275 0 00-.244.034.38.38 0 00-.157.372.377.377 0 00.124.237c.032.027.07.047.108.057.024 0 .045-.032.07-.032l-.003.003z" fill="#4880FF"/></svg>