<svg width="35" height="36" viewBox="0 0 35 36" fill="none" xmlns="http://www.w3.org/2000/svg">
<g clip-path="url(#clip0)">
<path d="M8.05079 12.4181C7.78419 12.1515 7.35079 12.1515 7.08425 12.4181C6.81697 12.6854 6.81697 13.1181 7.08425 13.3847C7.35086 13.652 7.78425 13.652 8.05079 13.3847C8.31801 13.1181 8.31801 12.6854 8.05079 12.4181Z" fill="#6C7185"/>
<path d="M17.3086 31.1058C17.61 30.6975 17.7729 30.2057 17.7729 29.6885C17.7729 28.3693 16.6996 27.296 15.3803 27.296H3.75964C3.12027 27.296 2.51946 27.5448 2.06781 27.9966C1.61595 28.4484 1.36712 29.0492 1.36712 29.6885C1.36712 30.2183 1.54048 30.7081 1.83299 31.1049C0.744503 31.6773 0 32.8189 0 34.1317V34.8153C0 35.1928 0.306114 35.4989 0.683595 35.4989H18.4564C18.8339 35.4989 19.14 35.1928 19.14 34.8153V34.1317C19.14 32.8195 18.3962 31.6783 17.3086 31.1058ZM3.03448 28.9632C3.228 28.7696 3.48558 28.6631 3.75964 28.6631H15.3803C15.9457 28.6631 16.4057 29.1231 16.4057 29.6884C16.4057 29.9625 16.299 30.22 16.1054 30.4136C15.9119 30.6072 15.6543 30.7138 15.3803 30.7138H3.75964C3.19423 30.7138 2.73431 30.2538 2.73431 29.6885C2.73431 29.4144 2.84088 29.1568 3.03448 28.9632ZM1.36712 34.1317C1.36712 33.001 2.2871 32.081 3.41784 32.081H3.75964H15.3803H15.7221C16.8529 32.081 17.7729 33.001 17.7729 34.1317H1.36712Z" fill="#6C7185"/>
<path d="M34.9214 29.2192C34.6893 28.8594 34.4123 28.5412 34.0981 28.2735L30.904 25.4877C30.8791 25.4502 30.8502 25.4147 30.8172 25.3817C30.7617 25.3262 30.6988 25.283 30.632 25.2505L28.7003 23.5658L19.7596 15.7666C20.1256 15.384 20.3271 14.8837 20.3271 14.3516C20.3271 13.8035 20.1138 13.2885 19.726 12.9007C19.5568 12.7318 19.3646 12.599 19.1592 12.5017L19.9864 11.6746C20.2175 11.736 20.4551 11.7675 20.6928 11.7675C21.3929 11.7674 22.0931 11.5009 22.626 10.968C23.1426 10.4514 23.4272 9.76473 23.4272 9.03444C23.4272 8.30416 23.1426 7.61749 22.6261 7.10089L16.8259 1.30086C16.3093 0.784268 15.6226 0.499756 14.8921 0.499756C14.1619 0.499756 13.4754 0.784268 12.9589 1.30086C12.2449 2.01481 12.0099 3.02851 12.2523 3.94056L3.99961 12.1932C3.77156 12.1326 3.53429 12.1006 3.29189 12.1006C2.56126 12.1006 1.87486 12.3849 1.35868 12.901C0.292549 13.9671 0.292549 15.7019 1.35868 16.7681L7.15877 22.5683C7.69191 23.1013 8.39211 23.3679 9.09232 23.3679C9.79259 23.3679 10.4928 23.1013 11.0259 22.5683C11.7399 21.8542 11.9749 20.8406 11.7325 19.9286L12.5579 19.103C12.6571 19.3102 12.7917 19.5013 12.9589 19.6684C13.3463 20.0558 13.8612 20.2691 14.4092 20.2691C14.9407 20.2691 15.4408 20.0679 15.8239 19.7024L25.3468 30.6436C25.3731 30.6846 25.4037 30.7236 25.4395 30.7594C25.4518 30.7717 25.4647 30.7828 25.4777 30.7939L28.3153 34.0542C28.3859 34.1375 28.4613 34.2194 28.5395 34.2977C29.3189 35.0768 30.3483 35.4996 31.4291 35.4996C31.6196 35.4996 31.8119 35.4864 32.0045 35.4598C33.2916 35.2816 34.404 34.5116 35.0563 33.3469C35.7709 32.0704 35.7177 30.4498 34.9214 29.2192ZM13.9257 2.2676C14.184 2.00927 14.5273 1.86695 14.8921 1.86695C15.2575 1.86695 15.601 2.00927 15.8592 2.2676L21.6594 8.0677C21.9177 8.32603 22.06 8.6694 22.06 9.03451C22.06 9.39962 21.9177 9.74299 21.6593 10.0013C21.1264 10.5343 20.2592 10.5343 19.7264 10.0013L13.926 4.20095C13.9259 4.20081 13.9258 4.20074 13.9257 4.2006C13.3927 3.66767 13.3927 2.80053 13.9257 2.2676ZM10.0592 21.6015C9.52613 22.1346 8.65858 22.1347 8.12551 21.6015L2.32542 15.8014C1.79229 15.2683 1.79229 14.4009 2.32542 13.8677C2.58327 13.6098 2.92657 13.4678 3.29189 13.4678C3.65713 13.4678 4.00023 13.6097 4.25801 13.8675L10.0591 19.6686C10.5922 20.2014 10.5922 21.0687 10.0592 21.6015ZM12.9373 16.7904L11.0259 18.7018L5.22516 12.9011L12.9589 5.16728L18.7595 10.968L16.8446 12.8829C16.8384 12.8888 16.8323 12.8946 16.8258 12.9011L12.9608 16.766C12.9528 16.7739 12.9451 16.7821 12.9373 16.7904ZM15.3781 18.2164C15.3767 18.2178 15.3754 18.2191 15.3741 18.2205L14.8927 18.7018C14.7636 18.8309 14.5919 18.902 14.4091 18.902C14.2264 18.902 14.0547 18.8309 13.9256 18.7018C13.7963 18.5726 13.7252 18.4007 13.7252 18.2179C13.7252 18.0389 13.7935 17.8705 13.9174 17.7435L17.8003 13.8606C18.0664 13.6018 18.4967 13.605 18.7596 13.8677C18.8888 13.9969 18.96 14.1688 18.96 14.3516C18.96 14.5344 18.889 14.7058 18.7596 14.8349L18.281 15.3135C18.2777 15.3167 18.2744 15.32 18.2712 15.3232L15.3781 18.2164ZM16.7937 18.7342L18.7916 16.7364L27.2505 24.1148L24.1638 27.2015L16.7937 18.7342ZM25.0635 28.2353L28.2831 25.0155L29.3158 25.9163L25.9632 29.2691L25.0635 28.2353ZM33.8635 32.679C33.4223 33.4667 32.6765 33.9866 31.8171 34.1056C30.9597 34.2242 30.1174 33.9418 29.5061 33.3308C29.4535 33.2783 29.4032 33.2236 29.3563 33.1681C29.3541 33.1655 29.3519 33.1629 29.3497 33.1604L26.8628 30.3028L30.3485 26.817L33.2025 29.3065C33.2046 29.3084 33.2068 29.3102 33.209 29.3121C33.4227 29.4938 33.6122 29.7119 33.7731 29.9611C34.29 30.7599 34.3262 31.8523 33.8635 32.679Z" fill="#6C7185"/>
<path d="M12.8847 7.58448C12.6177 7.31754 12.185 7.31754 11.9179 7.58448L9.01759 10.4848C8.75065 10.7518 8.75065 11.1846 9.01759 11.4515C9.1511 11.585 9.32603 11.6517 9.50096 11.6517C9.67589 11.6517 9.85082 11.5849 9.98433 11.4515L12.8847 8.55115C13.1516 8.28428 13.1516 7.8515 12.8847 7.58448Z" fill="#6C7185"/>
</g>
<defs>
<clipPath id="clip0">
<rect y="0.5" width="35" height="35" fill="white"/>
</clipPath>
</defs>
</svg>
