<svg width="31" height="36" viewBox="0 0 31 36" fill="none" xmlns="http://www.w3.org/2000/svg">
<path d="M17.1206 22.3353H15.1196C14.3919 22.3353 13.8025 21.7459 13.8025 21.0182C13.8025 20.2906 14.3919 19.7012 15.1196 19.7012H18.6414C19.1216 19.7012 19.5146 19.3082 19.5146 18.828C19.5146 18.3477 19.1216 17.9548 18.6414 17.9548H16.9896V16.7396C16.9896 16.2594 16.5967 15.8665 16.1164 15.8665C15.6362 15.8665 15.2433 16.2594 15.2433 16.7396V17.9548H15.1196C13.4314 17.9548 12.0562 19.3301 12.0562 21.0182C12.0562 22.7064 13.4314 24.0816 15.1196 24.0816H17.1206C17.8483 24.0816 18.4376 24.671 18.4376 25.3987C18.4376 26.1263 17.8483 26.7157 17.1206 26.7157H13.5333C13.053 26.7157 12.6601 27.1087 12.6601 27.5889C12.6601 28.0692 13.053 28.4621 13.5333 28.4621H15.2505V29.7064C15.2505 30.1866 15.6435 30.5796 16.1237 30.5796C16.604 30.5796 16.9969 30.1866 16.9969 29.7064V28.4621H17.1424C17.1497 28.4621 17.157 28.4621 17.1643 28.4621C18.8379 28.4403 20.184 27.0723 20.184 25.3987C20.184 23.7105 18.8088 22.3353 17.1206 22.3353Z" fill="#6C7185"/>
<path d="M29.2434 20.356C28.3266 18.2458 27.0605 16.2011 25.4596 14.2874C23.5241 11.9589 21.5958 10.4017 20.6135 9.68136L24.3245 2.79779C24.5064 2.45579 24.4482 2.03375 24.1644 1.76452C23.2039 0.825852 22.1852 0.367432 21.0501 0.367432C20.0095 0.367432 19.0563 0.760363 18.2268 1.10964C17.5719 1.37887 16.9534 1.64082 16.4513 1.64082C16.2985 1.64082 16.1675 1.61899 16.0365 1.56806C14.3047 0.934999 12.9731 0.542068 11.6852 0.542068C10.0553 0.542068 8.66545 1.19695 7.30474 2.59404C7.02096 2.8851 6.9773 3.34352 7.20287 3.68552L11.2049 9.7323C10.2153 10.4672 8.32345 12.0098 6.42428 14.2874C4.83073 16.2011 3.55734 18.2458 2.6405 20.356C1.49081 23.0119 0.908691 25.7843 0.908691 28.593C0.908691 32.3259 3.95027 35.3674 7.68312 35.3674H24.2008C27.9336 35.3674 30.9752 32.3259 30.9752 28.593C30.9752 25.7843 30.3931 23.0119 29.2434 20.356ZM9.06566 3.32169C9.90973 2.59404 10.7174 2.27388 11.6852 2.27388C12.7185 2.27388 13.8827 2.62315 15.4326 3.19799C15.7528 3.31442 16.0948 3.37263 16.444 3.37263C17.2954 3.37263 18.1104 3.03791 18.8889 2.71047C19.6384 2.39758 20.3515 2.09924 21.0428 2.09924C21.3775 2.09924 21.8505 2.15745 22.4472 2.57949L18.9544 9.07013H12.8713L9.06566 3.32169ZM24.2008 33.6211H7.68312C4.91077 33.6211 2.65505 31.3654 2.65505 28.593C2.65505 23.9288 4.36503 19.5046 7.72678 15.4444C9.85152 12.8757 12.0126 11.2822 12.6675 10.8165H19.2018C19.864 11.2749 22.0178 12.8757 24.1426 15.4444C27.5116 19.5046 29.2143 23.9215 29.2143 28.593C29.2289 31.3654 26.9731 33.6211 24.2008 33.6211Z" fill="#6C7185"/>
</svg>
