<svg width="41" height="41" viewBox="0 0 41 41" fill="none" xmlns="http://www.w3.org/2000/svg">
<g clip-path="url(#clip0)">
<path d="M31.8791 27.2401C33.2715 28.251 33.9293 31.2346 34.0662 32.3012L35.1045 40.1333L36.1894 39.991L35.1519 32.1497C35.1301 31.9764 34.5808 27.8459 32.527 26.3642C31.839 25.9043 31.1018 25.522 30.3281 25.2255C30.2815 25.1899 30.2313 25.1616 30.1757 25.1425L29.724 24.9828C29.0416 24.7191 28.329 24.4727 27.6447 24.2592L27.2222 24.1114C27.1803 24.0959 27.1374 24.0868 27.0927 24.0822C25.9485 23.72 24.9439 23.4527 24.4056 23.3122V22.1151C26.0397 20.9472 27.0105 19.0622 27.0087 17.054V16.1324C27.1912 16.199 27.3837 16.2337 27.5762 16.2365C28.4896 16.2365 29.2295 15.4965 29.2295 14.5832V13.1087C29.2295 12.7082 29.0817 12.3222 28.8162 12.0248C28.9923 11.7438 29.0817 11.4171 29.0744 11.0868V10.4573C29.1 9.99833 28.9549 9.54577 28.6684 9.18537C28.5197 9.03027 28.329 8.91895 28.1191 8.86694C27.9896 7.37334 27.2806 2.98831 23.4987 1.27481H23.4658C22.4804 0.852367 21.423 0.62609 20.3527 0.608754H20.0379C19.0142 0.587769 17.9951 0.748353 17.0261 1.08229H17.0005C12.8126 2.62244 12.058 7.30217 11.9394 8.85235C11.7287 8.90435 11.537 9.01475 11.3892 9.17078C11.0891 9.52661 10.9321 9.98008 10.9513 10.4436V11.0914C10.9431 11.4217 11.0325 11.7474 11.2077 12.0266C10.944 12.3268 10.7953 12.7127 10.7953 13.1133V14.5905C10.7953 15.5038 11.5361 16.2428 12.4485 16.2428C12.6429 16.2428 12.8336 16.2073 13.0151 16.1388V17.064C13.0188 19.0494 13.9686 20.9134 15.5726 22.0832V23.3122C13.6383 23.8167 11.7323 24.4289 9.86643 25.1488H9.8418C9.01515 25.4581 8.22684 25.8623 7.49052 26.3496C5.4367 27.8459 4.88834 31.9718 4.86553 32.136L3.82812 39.9818L4.91298 40.1223L5.95038 32.2766C6.08907 31.2127 6.74509 28.2328 8.12008 27.2136C8.55713 26.9226 9.02063 26.6744 9.50512 26.4718V31.1716C8.70585 31.4654 7.69764 32.2875 7.69764 34.0229V40.0649C7.69764 40.3632 7.93943 40.6068 8.23961 40.6068H31.8034C32.1036 40.6068 32.3445 40.3632 32.3445 40.0649V34.0329C32.3445 32.2975 31.3299 31.4764 30.537 31.1835V26.4837C31.0087 26.6917 31.4567 26.9454 31.8791 27.2401ZM28.1547 13.1087V14.5877C28.131 14.8998 27.8563 15.1334 27.5443 15.1087C27.2669 15.0859 27.0461 14.8651 27.0233 14.5877V13.1087C26.9996 12.7958 27.2313 12.523 27.5443 12.4965C27.8563 12.4719 28.131 12.7054 28.1547 13.0175C28.1584 13.0476 28.1584 13.0786 28.1547 13.1087ZM20.7788 1.71915C21.4385 1.76934 22.089 1.91258 22.7104 2.14068V4.88612C22.2633 5.52936 21.558 5.94268 20.7788 6.0175V1.71915ZM17.7633 1.99014C18.391 1.81039 19.0398 1.71094 19.6949 1.69361V6.0321C18.9157 5.95728 18.2086 5.54305 17.7633 4.8998V1.99014ZM13.0015 14.5832C12.9768 14.8952 12.7022 15.1297 12.3911 15.1042C12.1137 15.0832 11.8929 14.8624 11.8701 14.5832V13.1087C11.8445 12.7958 12.0781 12.523 12.3911 12.4965C12.7022 12.4719 12.9768 12.7054 13.0015 13.0175C13.0042 13.0476 13.0042 13.0786 13.0015 13.1087V14.5832ZM12.4339 11.4527C12.3308 11.4527 12.2305 11.4627 12.131 11.481C12.0471 11.3688 12.0069 11.2273 12.0215 11.0868V10.4299C12.0151 10.2575 12.058 10.0877 12.1484 9.94085C12.1693 9.92351 12.1967 9.91712 12.225 9.92077H12.4339C12.7332 9.92077 12.9768 9.67716 12.9768 9.37698C12.9768 9.12424 13.048 4.31404 16.6757 2.42627V5.03119C16.6757 5.11148 16.694 5.18995 16.7286 5.26203C16.766 5.33776 17.6502 7.1425 20.2323 7.1425C22.8135 7.1425 23.7012 5.33502 23.7368 5.26203C23.7697 5.18995 23.7888 5.11148 23.7861 5.03119V2.68722C26.9658 4.71641 27.0416 9.13428 27.0416 9.37698C27.0416 9.67716 27.2852 9.92077 27.5835 9.92077H27.7934C27.8472 9.92077 27.8591 9.92077 27.8691 9.94085C27.9613 10.0914 28.0042 10.2648 27.9959 10.4418V11.0868C28.0105 11.2292 27.9686 11.3715 27.8801 11.481C27.3481 11.3761 26.798 11.5439 26.4166 11.9308H13.6082C13.2971 11.6215 12.8746 11.4518 12.4376 11.4564L12.4339 11.4527ZM14.0863 17.064V13.0157H25.9458V17.064C25.9412 19.9071 23.6356 22.2082 20.7934 22.2054H19.2314C16.392 22.2045 14.09 19.9043 14.0863 17.064ZM23.3345 22.7446V23.5467L20.0087 27.7994L16.6456 23.5467V22.7218C17.4567 23.0987 18.339 23.293 19.2314 23.2939H20.7934C21.6702 23.2939 22.537 23.106 23.3345 22.7446ZM13.5115 25.0266C14.5452 24.7109 15.4358 24.47 15.8974 24.3496L20.016 29.5567L24.0881 24.3496C24.5562 24.4727 25.4613 24.7109 26.5178 25.0403V31.2519H13.4996L13.5115 25.0266ZM31.2614 34.0329V39.532H8.78158V34.0329C8.78158 32.3961 9.99325 32.1607 10.1228 32.1379C10.392 32.1005 10.59 31.8705 10.59 31.6005V26.0311C11.1858 25.7994 11.819 25.5795 12.4339 25.3806V31.7948C12.4339 32.095 12.6766 32.3386 12.9768 32.3386H27.0772C27.3764 32.3386 27.62 32.095 27.62 31.7948V25.3915L29.4458 26.0311V31.6005C29.4458 31.8714 29.6474 32.1032 29.9156 32.1379C29.9713 32.1452 31.2614 32.3386 31.2614 34.0329Z" fill="white"/>
<path d="M10.0352 33.3496H12.9631V34.3222H10.0352V33.3496Z" fill="white"/>
<path d="M27.0625 33.3496H29.9922V34.3222H27.0625V33.3496Z" fill="white"/>
</g>
<defs>
<clipPath id="clip0">
<rect x="0.03125" y="0.606934" width="40" height="40" fill="white"/>
</clipPath>
</defs>
</svg>
