<svg width="18" height="19" viewBox="0 0 18 19" fill="none" xmlns="http://www.w3.org/2000/svg">
<path d="M17.6842 1.26667H15.4676V0.316667C15.4676 0.14155 15.326 0 15.1509 0H12.9342C12.7591 0 12.6176 0.14155 12.6176 0.316667V1.26667H5.65091V0.316667C5.65091 0.14155 5.50936 0 5.33424 0H3.11758C2.94246 0 2.80091 0.14155 2.80091 0.316667V1.26667H0.584245C0.409128 1.26667 0.267578 1.40822 0.267578 1.58333V5.06667V18.6833C0.267578 18.8584 0.409128 19 0.584245 19H17.6842C17.8594 19 18.0009 18.8584 18.0009 18.6833V5.06667V1.58333C18.0009 1.40822 17.8594 1.26667 17.6842 1.26667ZM13.2509 0.633333H14.8342V1.58333V2.53333H13.2509V1.58333V0.633333ZM3.43424 0.633333H5.01758V1.58333V2.53333H3.43424V1.58333V0.633333ZM0.900911 1.9H2.80091V2.85C2.80091 3.02512 2.94246 3.16667 3.11758 3.16667H5.33424C5.50936 3.16667 5.65091 3.02512 5.65091 2.85V1.9H12.6176V2.85C12.6176 3.02512 12.7591 3.16667 12.9342 3.16667H15.1509C15.326 3.16667 15.4676 3.02512 15.4676 2.85V1.9H17.3676V4.75H0.900911V1.9ZM0.900911 18.3667V5.38333H17.3676V18.3667H0.900911Z" fill="#3D404C"/>
<path d="M11.6672 7.28333H9.45052H8.81719H6.60052H5.96719H3.11719V10.1333V10.7667V12.9833V13.6167V16.4667H5.96719H6.60052H8.81719H9.45052H11.6672H12.3005H15.1505V13.6167V12.9833V10.7667V10.1333V7.28333H12.3005H11.6672ZM9.45052 7.91666H11.6672V10.1333H9.45052V7.91666ZM11.6672 12.9833H9.45052V10.7667H11.6672V12.9833ZM6.60052 10.7667H8.81719V12.9833H6.60052V10.7667ZM6.60052 7.91666H8.81719V10.1333H6.60052V7.91666ZM3.75052 7.91666H5.96719V10.1333H3.75052V7.91666ZM3.75052 10.7667H5.96719V12.9833H3.75052V10.7667ZM5.96719 15.8333H3.75052V13.6167H5.96719V15.8333ZM8.81719 15.8333H6.60052V13.6167H8.81719V15.8333ZM11.6672 15.8333H9.45052V13.6167H11.6672V15.8333ZM14.5172 15.8333H12.3005V13.6167H14.5172V15.8333ZM14.5172 12.9833H12.3005V10.7667H14.5172V12.9833ZM14.5172 7.91666V10.1333H12.3005V7.91666H14.5172Z" fill="#3D404C"/>
</svg>
