<svg width="39" height="35" viewBox="0 0 39 35" fill="none" xmlns="http://www.w3.org/2000/svg">
<rect width="39" height="35" rx="5" fill="#4880FF"/>
<path d="M28.0495 9.26667H25.8328V8.31667C25.8328 8.14155 25.6913 8 25.5161 8H23.2995C23.1244 8 22.9828 8.14155 22.9828 8.31667V9.26667H16.0161V8.31667C16.0161 8.14155 15.8746 8 15.6995 8H13.4828C13.3077 8 13.1661 8.14155 13.1661 8.31667V9.26667H10.9495C10.7744 9.26667 10.6328 9.40822 10.6328 9.58333V13.0667V26.6833C10.6328 26.8584 10.7744 27 10.9495 27H28.0495C28.2246 27 28.3661 26.8584 28.3661 26.6833V13.0667V9.58333C28.3661 9.40822 28.2246 9.26667 28.0495 9.26667ZM23.6161 8.63333H25.1995V9.58333V10.5333H23.6161V9.58333V8.63333ZM13.7995 8.63333H15.3828V9.58333V10.5333H13.7995V9.58333V8.63333ZM11.2661 9.9H13.1661V10.85C13.1661 11.0251 13.3077 11.1667 13.4828 11.1667H15.6995C15.8746 11.1667 16.0161 11.0251 16.0161 10.85V9.9H22.9828V10.85C22.9828 11.0251 23.1244 11.1667 23.2995 11.1667H25.5161C25.6913 11.1667 25.8328 11.0251 25.8328 10.85V9.9H27.7328V12.75H11.2661V9.9ZM11.2661 26.3667V13.3833H27.7328V26.3667H11.2661Z" fill="white"/>
<path d="M22.0344 15.2834H19.8177H19.1844H16.9677H16.3344H13.4844V18.1334V18.7668V20.9834V21.6168V24.4668H16.3344H16.9677H19.1844H19.8177H22.0344H22.6677H25.5177V21.6168V20.9834V18.7668V18.1334V15.2834H22.6677H22.0344ZM19.8177 15.9168H22.0344V18.1334H19.8177V15.9168ZM22.0344 20.9834H19.8177V18.7668H22.0344V20.9834ZM16.9677 18.7668H19.1844V20.9834H16.9677V18.7668ZM16.9677 15.9168H19.1844V18.1334H16.9677V15.9168ZM14.1177 15.9168H16.3344V18.1334H14.1177V15.9168ZM14.1177 18.7668H16.3344V20.9834H14.1177V18.7668ZM16.3344 23.8334H14.1177V21.6168H16.3344V23.8334ZM19.1844 23.8334H16.9677V21.6168H19.1844V23.8334ZM22.0344 23.8334H19.8177V21.6168H22.0344V23.8334ZM24.8844 23.8334H22.6677V21.6168H24.8844V23.8334ZM24.8844 20.9834H22.6677V18.7668H24.8844V20.9834ZM24.8844 15.9168V18.1334H22.6677V15.9168H24.8844Z" fill="white"/>
</svg>
