<svg width="18" height="18" viewBox="0 0 18 18" fill="none" xmlns="http://www.w3.org/2000/svg">
<path d="M15.751 3.26953C15.9451 3.26953 16.1025 3.11214 16.1025 2.91797V1.05469C16.1025 0.473133 15.6294 0 15.0478 0H1.05566C0.474109 0 0.000976562 0.473133 0.000976562 1.05469V16.9453C0.000976562 17.5269 0.474109 18 1.05566 18H15.0478C15.6294 18 16.1025 17.5269 16.1025 16.9453V15.9609C16.1025 15.7668 15.9451 15.6094 15.751 15.6094C15.5568 15.6094 15.3994 15.7668 15.3994 15.9609V16.9453C15.3994 17.1392 15.2417 17.2969 15.0478 17.2969H1.05566C0.861812 17.2969 0.704102 17.1392 0.704102 16.9453V1.05469C0.704102 0.860836 0.861812 0.703125 1.05566 0.703125H15.0478C15.2417 0.703125 15.3994 0.860836 15.3994 1.05469V2.91797C15.3994 3.11214 15.5568 3.26953 15.751 3.26953Z" fill="white"/>
<path d="M14.0629 1.6875H2.03906C1.84489 1.6875 1.6875 1.84489 1.6875 2.03906V9.38672C1.6875 9.58089 1.84489 9.73828 2.03906 9.73828C2.23323 9.73828 2.39063 9.58089 2.39063 9.38672V2.39062H13.7114V2.95312C13.7114 3.14729 13.8688 3.30469 14.0629 3.30469C14.2571 3.30469 14.4145 3.14729 14.4145 2.95312V2.03906C14.4145 1.84489 14.2571 1.6875 14.0629 1.6875Z" fill="white"/>
<path d="M2.28762 10.4389C2.22223 10.3736 2.13188 10.3359 2.03906 10.3359C1.9466 10.3359 1.8559 10.3736 1.79051 10.4389C1.72512 10.5043 1.6875 10.595 1.6875 10.6875C1.6875 10.78 1.72512 10.8707 1.79051 10.9361C1.8559 11.0014 1.9466 11.0391 2.03906 11.0391C2.13188 11.0391 2.22223 11.0014 2.28762 10.9361C2.35336 10.8707 2.39063 10.78 2.39063 10.6875C2.39063 10.595 2.35336 10.5043 2.28762 10.4389Z" fill="white"/>
<path d="M14.0629 14.8359C13.8688 14.8359 13.7114 14.9933 13.7114 15.1875V15.6094H2.39063V12.041C2.39063 11.8468 2.23323 11.6895 2.03906 11.6895C1.84489 11.6895 1.6875 11.8468 1.6875 12.041V15.9609C1.6875 16.1551 1.84489 16.3125 2.03906 16.3125H14.0629C14.2571 16.3125 14.4145 16.1551 14.4145 15.9609V15.1875C14.4145 14.9933 14.2571 14.8359 14.0629 14.8359Z" fill="white"/>
<path d="M10.8954 12.422C10.7581 12.2846 10.5355 12.2846 10.3982 12.4219L9.70339 13.1168L9.27149 12.6849C8.99879 12.4122 8.55515 12.4122 8.28244 12.6849L8.0014 12.9659C7.86412 13.1032 7.86412 13.3258 8.0014 13.4631C8.13869 13.6004 8.3613 13.6004 8.49862 13.4631L8.77698 13.1848L9.20888 13.6167C9.34522 13.753 9.5243 13.8212 9.70339 13.8212C9.88248 13.8212 10.0616 13.753 10.1979 13.6167L10.8954 12.9192C11.0327 12.7819 11.0327 12.5593 10.8954 12.422Z" fill="white"/>
<path d="M17.8383 7.37514C17.9932 7.13344 18.0395 6.83574 17.9652 6.55842C17.8908 6.28111 17.702 6.04644 17.4469 5.91461C17.3363 5.85744 17.2686 5.74016 17.2744 5.61582C17.2877 5.32901 17.179 5.04811 16.976 4.84508C16.773 4.64209 16.4921 4.53314 16.2052 4.54664C16.0803 4.55269 15.9636 4.4847 15.9064 4.37413C15.7746 4.11911 15.5399 3.93021 15.2626 3.85589C14.9852 3.78154 14.6876 3.82784 14.4459 3.98277C14.3411 4.04999 14.2057 4.04996 14.101 3.98277C13.8593 3.8278 13.5616 3.78157 13.2843 3.85589C13.007 3.93021 12.7723 4.11911 12.6405 4.37413C12.5833 4.48473 12.4657 4.55227 12.3417 4.54664C12.0548 4.53325 11.774 4.64209 11.571 4.84508C11.3679 5.04811 11.2592 5.32901 11.2725 5.61578C11.2783 5.74016 11.2105 5.85744 11.1 5.91461C10.845 6.04644 10.6561 6.28108 10.5817 6.55842C10.5463 6.69072 10.5386 6.82765 10.5567 6.96093H4.42198C4.22781 6.96093 4.07042 7.11832 4.07042 7.31249C4.07042 7.50666 4.22781 7.66405 4.42198 7.66405H10.7364C10.7288 7.68335 10.72 7.7023 10.7086 7.72016C10.5537 7.96186 10.5074 8.25957 10.5817 8.53688C10.5919 8.57495 10.6045 8.61215 10.6189 8.64843H4.42187C4.22771 8.64843 4.07031 8.80582 4.07031 8.99999C4.07031 9.19416 4.22771 9.35155 4.42187 9.35155H11.2515C11.2668 9.39174 11.2745 9.43509 11.2724 9.47949C11.2591 9.76629 11.3678 10.0472 11.5709 10.2502C11.7739 10.4532 12.0546 10.5622 12.3416 10.5487C12.4658 10.5426 12.5832 10.6106 12.6404 10.7212C12.6826 10.8029 12.7355 10.8777 12.7968 10.9442V14.2276C12.7968 14.3696 12.8823 14.4977 13.0134 14.5522C13.1445 14.6067 13.2956 14.577 13.3963 14.4768L14.2734 13.6043L15.1504 14.4768C15.2177 14.5436 15.3073 14.5791 15.3985 14.5791C15.4439 14.5791 15.4897 14.5703 15.5334 14.5521C15.6645 14.4976 15.75 14.3695 15.75 14.2275V10.9442C15.8113 10.8777 15.8642 10.8028 15.9064 10.7211C15.9636 10.6105 16.081 10.543 16.2052 10.5486C16.4923 10.5622 16.7729 10.4532 16.9759 10.2502C17.179 10.0472 17.2877 9.76626 17.2744 9.47945C17.2686 9.3551 17.3363 9.23782 17.4469 9.18066C17.7019 9.04882 17.8908 8.81419 17.9652 8.53684C18.0395 8.2595 17.9932 7.96183 17.8383 7.72009C17.7711 7.61536 17.7711 7.47994 17.8383 7.37514ZM15.0468 13.3819L14.5213 12.8592C14.3842 12.7227 14.1626 12.7227 14.0254 12.8592L13.5 13.3819V11.2728C13.7103 11.2828 13.9211 11.2278 14.1009 11.1125C14.2057 11.0453 14.3411 11.0453 14.4459 11.1125C14.6119 11.219 14.8044 11.2741 14.9986 11.2741C15.0147 11.2741 15.0307 11.2733 15.0468 11.2726V13.3819ZM17.286 8.35491C17.2624 8.44283 17.2049 8.51431 17.124 8.55611C16.7702 8.73903 16.5535 9.11428 16.572 9.51218C16.5763 9.60313 16.5431 9.68867 16.4787 9.75307C16.4144 9.81744 16.3288 9.85049 16.2379 9.84634C15.8398 9.82792 15.4647 10.0445 15.2818 10.3983C15.24 10.4792 15.1685 10.5367 15.0806 10.5603C14.9927 10.5838 14.902 10.5698 14.8254 10.5206C14.6577 10.4131 14.4656 10.3594 14.2734 10.3594C14.0812 10.3594 13.889 10.4132 13.7214 10.5206C13.6447 10.5698 13.5541 10.5838 13.4661 10.5603C13.3782 10.5367 13.3067 10.4792 13.2649 10.3983C13.082 10.0445 12.707 9.82775 12.3088 9.84634C12.2181 9.85053 12.1323 9.81744 12.068 9.75307C12.0036 9.68867 11.9704 9.60313 11.9747 9.51215C11.9877 9.23132 11.8832 8.96209 11.6964 8.76349C11.691 8.75748 11.6854 8.75158 11.6795 8.74595C11.6053 8.67075 11.5193 8.60607 11.4227 8.55611C11.3419 8.51431 11.2843 8.44287 11.2608 8.35491C11.2372 8.26695 11.2513 8.17628 11.3004 8.09968C11.5154 7.76435 11.5154 7.33102 11.3004 6.9957C11.2513 6.91906 11.2372 6.82839 11.2608 6.74043C11.2843 6.6525 11.3419 6.58103 11.4227 6.53923C11.7766 6.35631 11.9932 5.98105 11.9747 5.58316C11.9705 5.49221 12.0036 5.40667 12.068 5.34226C12.1324 5.27786 12.2181 5.24481 12.3089 5.24899C12.707 5.26745 13.0821 5.05085 13.2649 4.69701C13.3067 4.61611 13.3782 4.5586 13.4662 4.53504C13.5541 4.51152 13.6448 4.52555 13.7214 4.5747C14.0567 4.78971 14.4901 4.78971 14.8253 4.5747C14.902 4.52559 14.9926 4.51145 15.0806 4.53504C15.1685 4.5586 15.24 4.61615 15.2818 4.69701C15.4647 5.05082 15.84 5.26756 16.2379 5.24899C16.3289 5.24485 16.4144 5.27786 16.4787 5.34226C16.5432 5.40667 16.5763 5.49221 16.572 5.58316C16.5535 5.98102 16.7702 6.35631 17.124 6.53923C17.2049 6.58103 17.2624 6.65247 17.286 6.74043C17.3095 6.82839 17.2955 6.91906 17.2463 6.99566C17.0313 7.33098 17.0313 7.76432 17.2463 8.09964C17.2955 8.17628 17.3096 8.26695 17.286 8.35491Z" fill="white"/>
<path d="M15.9446 6.59137C15.8073 6.45408 15.5847 6.45408 15.4474 6.59137L14.2805 7.75827L13.816 7.29375C13.6787 7.15647 13.4561 7.15647 13.3188 7.29375C13.1815 7.43104 13.1815 7.65365 13.3188 7.79097L14.0319 8.50408C14.1006 8.57274 14.1905 8.60705 14.2805 8.60705C14.3704 8.60705 14.4604 8.57274 14.5291 8.50408L15.9446 7.08858C16.0818 6.9513 16.0818 6.72869 15.9446 6.59137Z" fill="white"/>
<path d="M4.29152 4.25145C4.22613 4.18605 4.13543 4.14844 4.04297 4.14844C3.95051 4.14844 3.8598 4.18605 3.79441 4.25145C3.72902 4.31684 3.69141 4.40754 3.69141 4.5C3.69141 4.59246 3.72902 4.68316 3.79441 4.74855C3.8598 4.81395 3.95051 4.85156 4.04297 4.85156C4.13543 4.85156 4.22613 4.81395 4.29152 4.74855C4.35691 4.68316 4.39453 4.59246 4.39453 4.5C4.39453 4.40754 4.35691 4.31684 4.29152 4.25145Z" fill="white"/>
<path d="M7.06642 4.14844H5.35547C5.1613 4.14844 5.00391 4.30583 5.00391 4.5C5.00391 4.69417 5.1613 4.85156 5.35547 4.85156H7.06642C7.26059 4.85156 7.41798 4.69417 7.41798 4.5C7.41798 4.30583 7.26059 4.14844 7.06642 4.14844Z" fill="white"/>
<path d="M10.6471 10.3359H6.62793C6.43376 10.3359 6.27637 10.4933 6.27637 10.6875C6.27637 10.8817 6.43376 11.0391 6.62793 11.0391H10.647C10.8412 11.0391 10.9986 10.8817 10.9986 10.6875C10.9986 10.4933 10.8412 10.3359 10.6471 10.3359Z" fill="white"/>
</svg>
