<svg width="43" height="43" viewBox="0 0 43 43" fill="none" xmlns="http://www.w3.org/2000/svg">
<g clip-path="url(#clip0)">
<path d="M39.1465 0.820068H9.74648C7.81448 0.822343 6.24876 2.38807 6.24648 4.32007V37.2201H1.34648C0.959909 37.2201 0.646484 37.5335 0.646484 37.9201V39.3201C0.648759 41.2521 2.21448 42.8178 4.14648 42.8201H33.5465C35.4785 42.8178 37.0442 41.2521 37.0465 39.3201V22.8099L41.3914 18.465C42.2446 17.6118 42.2446 16.2284 41.3914 15.3752C40.5382 14.522 39.1548 14.522 38.3016 15.3752L37.0465 16.6303V6.42007H41.9465C42.3331 6.42007 42.6465 6.10664 42.6465 5.72007V4.32007C42.6442 2.38807 41.0785 0.822343 39.1465 0.820068ZM4.14648 41.4201C2.98667 41.4201 2.04648 40.4799 2.04648 39.3201V38.6201H30.0465V39.3201C30.0481 39.5382 30.0701 39.7556 30.1123 39.9697C30.1249 40.0397 30.1452 40.0992 30.1613 40.1643C30.196 40.3068 30.2395 40.4471 30.2915 40.5843C30.3188 40.6543 30.3482 40.7201 30.3797 40.7873C30.4394 40.9148 30.5067 41.0387 30.5813 41.1583C30.6177 41.2171 30.6513 41.2766 30.6926 41.3326C30.7122 41.3613 30.7269 41.3928 30.7479 41.4201H4.14648ZM35.6465 39.3201C35.6465 40.4799 34.7063 41.4201 33.5465 41.4201C32.3867 41.4201 31.4465 40.4799 31.4465 39.3201V37.9201C31.4465 37.5335 31.1331 37.2201 30.7465 37.2201H7.64648V4.32007C7.64648 3.16026 8.58667 2.22007 9.74648 2.22007H36.3465C36.3255 2.24737 36.3108 2.27887 36.2912 2.30757C36.2513 2.36357 36.2163 2.42307 36.1799 2.48187C36.1053 2.60139 36.038 2.72529 35.9783 2.85287C35.9468 2.92287 35.9174 2.98727 35.8901 3.05587C35.8381 3.19307 35.7946 3.33333 35.7599 3.47587C35.7438 3.54097 35.7235 3.60397 35.7109 3.67047C35.6691 3.88449 35.6476 4.10202 35.6465 4.32007V18.0303L26.7516 26.9252C26.6618 27.0149 26.5982 27.1275 26.5675 27.2507L25.8675 30.0507C25.808 30.2891 25.8779 30.5412 26.0516 30.715C26.1106 30.7718 26.1794 30.8175 26.2546 30.8501C26.2728 30.8585 26.2896 30.8662 26.3085 30.8732C26.3832 30.9017 26.4623 30.9174 26.5423 30.9194H26.5465C26.6036 30.9193 26.6605 30.9123 26.7159 30.8984L29.5159 30.1984C29.6391 30.1677 29.7516 30.104 29.8414 30.0143L35.6465 24.2099V39.3201ZM39.2914 16.365C39.602 16.0683 40.091 16.0683 40.4016 16.365C40.7076 16.6717 40.7076 17.1684 40.4016 17.4752L39.8465 18.0303L38.7363 16.9201L39.2914 16.365ZM37.7465 17.9099L38.8567 19.0201L28.9867 28.8901L27.5069 29.2604L27.8772 27.7806L37.7465 17.9099ZM41.2465 5.02007H37.0465V4.32007C37.0465 3.16026 37.9867 2.22007 39.1465 2.22007C40.3063 2.22007 41.2465 3.16026 41.2465 4.32007V5.02007Z" fill="#4880FF"/>
<path d="M29.3473 5.02002H13.9473V6.42002H29.3473V5.02002Z" fill="#4880FF"/>
<path d="M16.2504 8.02515L14.9673 9.30824C14.869 9.25251 14.7583 9.22223 14.6453 9.22004H11.1453C10.7587 9.22004 10.4453 9.53347 10.4453 9.92004V13.42C10.4453 13.8066 10.7587 14.12 11.1453 14.12H14.6453C15.0319 14.12 15.3453 13.8066 15.3453 13.42V10.9098L17.2402 9.01494L16.2504 8.02515ZM13.9453 12.72H11.8453V10.62H13.6555L12.7504 11.5251L13.7402 12.5149L13.9453 12.3098V12.72Z" fill="#4880FF"/>
<path d="M32.8465 9.21997H18.1465V10.62H32.8465V9.21997Z" fill="#4880FF"/>
<path d="M30.0465 12.02H18.1465V13.42H30.0465V12.02Z" fill="#4880FF"/>
<path d="M16.2504 15.0251L14.9673 16.3082C14.869 16.2525 14.7583 16.2222 14.6453 16.22H11.1453C10.7587 16.22 10.4453 16.5335 10.4453 16.92V20.42C10.4453 20.8066 10.7587 21.12 11.1453 21.12H14.6453C15.0319 21.12 15.3453 20.8066 15.3453 20.42V17.9098L17.2402 16.0149L16.2504 15.0251ZM13.9453 19.72H11.8453V17.62H13.6555L12.7504 18.5251L13.7402 19.5149L13.9453 19.3098V19.72Z" fill="#4880FF"/>
<path d="M32.8465 16.22H18.1465V17.62H32.8465V16.22Z" fill="#4880FF"/>
<path d="M30.0465 19.02H18.1465V20.42H30.0465V19.02Z" fill="#4880FF"/>
<path d="M16.2504 22.0251L14.9673 23.3083C14.869 23.2525 14.7583 23.2222 14.6453 23.2201H11.1453C10.7587 23.2201 10.4453 23.5335 10.4453 23.9201V27.4201C10.4453 27.8067 10.7587 28.1201 11.1453 28.1201H14.6453C15.0319 28.1201 15.3453 27.8067 15.3453 27.4201V24.9099L17.2402 23.015L16.2504 22.0251ZM13.9453 26.7201H11.8453V24.6201H13.6555L12.7504 25.5252L13.7402 26.515L13.9453 26.3099V26.7201Z" fill="#4880FF"/>
<path d="M27.2465 23.2202H18.1465V24.6202H27.2465V23.2202Z" fill="#4880FF"/>
<path d="M24.4465 26.02H18.1465V27.42H24.4465V26.02Z" fill="#4880FF"/>
<path d="M16.2504 29.0251L14.9673 30.3082C14.869 30.2525 14.7583 30.2222 14.6453 30.22H11.1453C10.7587 30.22 10.4453 30.5335 10.4453 30.92V34.4201C10.4453 34.8066 10.7587 35.1201 11.1453 35.1201H14.6453C15.0319 35.1201 15.3453 34.8066 15.3453 34.4201V31.9099L17.2402 30.0149L16.2504 29.0251ZM13.9453 33.7201H11.8453V31.62H13.6555L12.7504 32.5251L13.7402 33.515L13.9453 33.3099V33.7201Z" fill="#4880FF"/>
<path d="M24.4465 30.22H18.1465V31.62H24.4465V30.22Z" fill="#4880FF"/>
<path d="M30.0465 33.02H18.1465V34.42H30.0465V33.02Z" fill="#4880FF"/>
</g>
<defs>
<clipPath id="clip0">
<rect x="0.646484" y="0.820068" width="42" height="42" fill="white"/>
</clipPath>
</defs>
</svg>
