<svg width="32" height="44" viewBox="0 0 32 44" fill="none" xmlns="http://www.w3.org/2000/svg">
<path d="M0.646484 16.3589C0.646484 24.7513 7.4501 31.5549 15.8425 31.5549C24.2354 31.5549 31.0385 24.7513 31.0385 16.3589C31.0385 7.96645 24.2354 1.16284 15.8425 1.16284C7.4501 1.16284 0.646484 7.96645 0.646484 16.3589ZM29.139 16.3589C29.139 23.7023 23.1864 29.6554 15.8425 29.6554C8.49909 29.6554 2.54599 23.7023 2.54599 16.3589C2.54599 9.01545 8.49909 3.06234 15.8425 3.06234C23.1864 3.06234 29.139 9.01545 29.139 16.3589Z" fill="#4880FF" stroke="white" stroke-width="0.5"/>
<path d="M15.8417 12.5597C16.6226 12.5699 17.252 13.2034 17.2571 13.9844C17.2571 14.5089 17.6823 14.9341 18.2068 14.9341C18.7313 14.9341 19.1566 14.5089 19.1566 13.9844C19.1528 12.5194 18.1934 11.2283 16.7915 10.8026V9.71049C16.7915 9.186 16.3662 8.76074 15.8417 8.76074C15.3172 8.76074 14.892 9.186 14.892 9.71049V10.8026C13.3171 11.2793 12.3279 12.8361 12.5653 14.4643C12.8032 16.0926 14.1963 17.302 15.8417 17.3085C16.6287 17.3085 17.2663 17.9462 17.2663 18.7331C17.2663 19.5196 16.6287 20.1578 15.8417 20.1578C15.0552 20.1578 14.4171 19.5196 14.4171 18.7331C14.4171 18.2086 13.9918 17.7834 13.4673 17.7834C12.9428 17.7834 12.5176 18.2086 12.5176 18.7331C12.5227 20.2009 13.4868 21.4924 14.892 21.9149V23.007C14.892 23.5315 15.3172 23.9568 15.8417 23.9568C16.3662 23.9568 16.7915 23.5315 16.7915 23.007V21.9149C18.3668 21.4382 19.356 19.8809 19.1181 18.2527C18.8806 16.6245 17.4875 15.4155 15.8417 15.409C15.0552 15.409 14.4171 14.7709 14.4171 13.9844C14.4171 13.1974 15.0552 12.5597 15.8417 12.5597Z" fill="#4880FF" stroke="white" stroke-width="0.5"/>
<path d="M4.44532 16.3588C4.44532 22.6532 9.54791 27.7558 15.8423 27.7558C22.1368 27.7558 27.2394 22.6532 27.2394 16.3588C27.2394 15.8343 26.8141 15.409 26.2896 15.409C25.7651 15.409 25.3398 15.8343 25.3398 16.3588C25.3412 20.8896 22.1409 24.7906 17.6973 25.6754C13.2532 26.5603 8.80313 24.1826 7.06873 19.9969C5.33385 15.8111 6.79743 10.9826 10.5649 8.46491C14.3319 5.94677 19.3529 6.44066 22.5574 9.64422C22.9298 10.0166 23.5336 10.0166 23.9059 9.64422C24.2783 9.27137 24.2783 8.66757 23.9059 8.29518C20.6463 5.03227 15.7412 4.05516 11.4799 5.82064C7.21852 7.58658 4.44207 11.7464 4.44532 16.3588Z" fill="#4880FF" stroke="white" stroke-width="0.5"/>
<path d="M27.238 31.5549H23.439C22.9145 31.5549 22.4893 31.9802 22.4893 32.5047C22.4893 33.0292 22.9145 33.4544 23.439 33.4544H24.6169L15.841 40.7672L7.06557 33.4544H8.24302C8.76751 33.4544 9.19277 33.0292 9.19277 32.5047C9.19277 31.9802 8.76751 31.5549 8.24302 31.5549H4.44401C4.04426 31.5549 3.68718 31.8058 3.5513 32.1819C3.4145 32.558 3.52858 32.9796 3.83651 33.236L15.2335 42.7335C15.5855 43.0266 16.097 43.0266 16.449 42.7335L27.846 33.236C28.1539 32.9796 28.2676 32.558 28.1312 32.1819C27.9949 31.8058 27.6383 31.5549 27.238 31.5549Z" fill="#4880FF" stroke="white" stroke-width="0.5"/>
<path d="M14.8926 34.4041V37.2533C14.8926 37.7778 15.3178 38.2031 15.8423 38.2031C16.3668 38.2031 16.7921 37.7778 16.7921 37.2533V34.4041C16.7921 33.8796 16.3668 33.4543 15.8423 33.4543C15.3178 33.4543 14.8926 33.8796 14.8926 34.4041Z" fill="#4880FF" stroke="white" stroke-width="0.5"/>
</svg>
