<svg width="26" height="26" viewBox="0 0 26 26" fill="none" xmlns="http://www.w3.org/2000/svg">
<g clip-path="url(#clip0)">
<path d="M17.0492 19.8003C16.8854 19.7727 16.7175 19.7587 16.5502 19.7587H14.953V18.7398C15.8729 18.1259 16.4802 17.0789 16.4802 15.8924V14.0596C16.4802 13.4283 16.3069 12.8112 15.9788 12.2755L15.3536 12.6583C15.6111 13.0788 15.7472 13.5635 15.7472 14.0596V14.4439L15.6509 14.266C15.3578 13.7241 14.793 13.3874 14.1769 13.3874H11.9409C11.3249 13.3874 10.7601 13.7241 10.4669 14.266L10.3708 14.4439V14.0596C10.3708 12.5772 11.5766 11.3714 13.059 11.3714C13.7741 11.3714 14.4472 11.6491 14.9542 12.1532L15.4711 11.6332C14.8258 10.9916 13.9692 10.6382 13.059 10.6382C11.1725 10.6382 9.63763 12.173 9.63763 14.0596V15.8924C9.63763 17.0789 10.2451 18.1261 11.165 18.7398V19.7587H9.56782C7.92197 19.7587 6.58301 21.0977 6.58301 22.7437V25.6675H7.31619V22.7437C7.31619 21.5021 8.32613 20.4919 9.56782 20.4919H11.1933C11.347 21.3828 12.1248 22.063 13.059 22.063C13.9932 22.063 14.7711 21.3828 14.9248 20.4919H16.5502C16.6769 20.4919 16.8037 20.5024 16.9275 20.5234L17.0492 19.8003ZM14.2198 20.169C14.2198 20.8091 13.6991 21.3298 13.059 21.3298C12.4189 21.3298 11.8982 20.8091 11.8982 20.169V19.1106C12.2608 19.2419 12.6516 19.3136 13.059 19.3136C13.4664 19.3136 13.8573 19.2419 14.2198 19.1106V20.169ZM13.059 18.5806C11.6064 18.5806 10.42 17.4222 10.3731 15.981L11.112 14.6148C11.2768 14.31 11.5946 14.1206 11.9409 14.1206H14.1769C14.5235 14.1206 14.8413 14.31 15.0061 14.6148L15.745 15.9809C15.6978 17.4222 14.5115 18.5806 13.059 18.5806Z" fill="#3D404C"/>
<path d="M17.8433 20.0527L17.5254 20.7132C18.3009 21.0865 18.8018 21.8836 18.8018 22.7436V25.6674H19.535V22.7436C19.535 21.6036 18.871 20.5475 17.8433 20.0527Z" fill="#3D404C"/>
<path d="M16.6025 23.908H17.3357V25.6675H16.6025V23.908Z" fill="#3D404C"/>
<path d="M8.78223 23.908H9.51541V25.6675H8.78223V23.908Z" fill="#3D404C"/>
<path d="M7.06403 4.12246L6.2164 2.40527L5.36877 4.12246L3.47363 4.39788L4.84502 5.73474L4.52134 7.62225L6.2164 6.73114L7.91146 7.62225L7.58778 5.73474L8.95917 4.39788L7.06403 4.12246ZM6.93776 6.28215L6.2164 5.90278L5.49504 6.28215L5.63275 5.47878L5.0491 4.90981L5.85572 4.7927L6.2164 4.06181L6.57708 4.7927L7.3837 4.90981L6.80005 5.47878L6.93776 6.28215Z" fill="#3D404C"/>
<path d="M14.1509 4.12241L13.3033 2.40503L12.4559 4.12241L10.5605 4.39783L11.9319 5.73469L11.6083 7.6222L13.3033 6.73109L14.9986 7.6222L14.6747 5.7345L16.0461 4.39783L14.1509 4.12241ZM14.0249 6.2821L13.3033 5.90272L12.582 6.2821L12.7197 5.47872L12.136 4.90976L12.9426 4.79265L13.3033 4.06175L13.664 4.79265L14.4706 4.90976L13.887 5.47872L14.0249 6.2821Z" fill="#3D404C"/>
<path d="M19.9015 2.40503L19.0538 4.12241L17.1587 4.39783L18.5301 5.7345L18.2064 7.6222L19.9015 6.73109L21.5967 7.6222L21.2728 5.7345L22.6442 4.39783L20.7491 4.12241L19.9015 2.40503ZM20.6228 6.2821L19.9015 5.90272L19.1799 6.2821L19.3178 5.47872L18.7342 4.90976L19.5408 4.79265L19.9015 4.06175L20.2621 4.79265L21.0688 4.90976L20.4851 5.47872L20.6228 6.2821Z" fill="#3D404C"/>
<path d="M24.2028 0.66748H19.7012V1.40067H24.2028C24.5396 1.40067 24.8137 1.67475 24.8137 2.01159V8.36535C24.8137 8.70238 24.5396 8.97646 24.2028 8.97646H7.56058V11.568L3.88893 8.97646H1.9154C1.57856 8.97646 1.30447 8.70238 1.30447 8.36535V5.17245H0.571289V8.36535C0.571289 9.10654 1.1742 9.70946 1.9154 9.70946H3.65643L8.29376 12.983V9.70946H24.2028C24.944 9.70946 25.5469 9.10654 25.5469 8.36535V2.01159C25.5469 1.27039 24.944 0.66748 24.2028 0.66748Z" fill="#3D404C"/>
<path d="M1.30447 2.01159C1.30447 1.67475 1.57856 1.40067 1.9154 1.40067H18.9682V0.66748H1.9154C1.1742 0.66748 0.571289 1.27039 0.571289 2.01159V4.43926H1.30447V2.01159Z" fill="#3D404C"/>
<path d="M8.04932 22.7437H8.7825C8.7825 22.3106 9.13479 21.9581 9.56795 21.9581V21.2251C8.73062 21.2251 8.04932 21.9064 8.04932 22.7437Z" fill="#3D404C"/>
<path d="M24.0315 3.96656V2.13379H22.1987V2.86678H23.2983V3.96656H24.0315Z" fill="#3D404C"/>
<path d="M2.0376 6.36157V8.19453H3.87037V7.46135H2.77059V6.36157H2.0376Z" fill="#3D404C"/>
<path d="M11.2261 24.0303H11.9591V24.7633H11.2261V24.0303Z" fill="#3D404C"/>
<path d="M12.6924 24.0303H13.4256V24.7633H12.6924V24.0303Z" fill="#3D404C"/>
<path d="M14.1592 24.0303H14.8922V24.7633H14.1592V24.0303Z" fill="#3D404C"/>
</g>
<defs>
<clipPath id="clip0">
<rect x="0.571289" y="0.66748" width="25" height="25" fill="white"/>
</clipPath>
</defs>
</svg>
