<svg width="36" height="36" viewBox="0 0 36 36" fill="none" xmlns="http://www.w3.org/2000/svg">
<g clip-path="url(#clip0)">
<path d="M32.7532 18.7154C32.6123 18.4273 32.6123 18.0968 32.7532 17.8088L34.0585 15.1383C34.7853 13.6515 34.2095 11.8792 32.7476 11.1036L30.1219 9.71042C29.8386 9.56016 29.6444 9.29274 29.589 8.97699L29.0755 6.04925C28.7895 4.41916 27.2816 3.32378 25.6433 3.55558L22.7002 3.97189C22.3826 4.01673 22.0685 3.9146 21.838 3.69168L19.7017 1.62505C18.5122 0.4743 16.6487 0.474231 15.4593 1.62505L13.3229 3.69189C13.0924 3.91488 12.7783 4.0168 12.4607 3.97209L9.51767 3.55579C7.87877 3.32384 6.37145 4.41936 6.08551 6.04945L5.57199 8.97706C5.51656 9.29288 5.32235 9.56023 5.03914 9.71056L2.41347 11.1037C0.951543 11.8793 0.375686 13.6517 1.10248 15.1385L2.40779 17.8089C2.54861 18.097 2.54861 18.4275 2.40779 18.7156L1.10241 21.3859C0.375618 22.8728 0.951474 24.645 2.4134 25.4207L5.03907 26.8138C5.32235 26.9641 5.51656 27.2315 5.57199 27.5473L6.08551 30.475C6.34582 31.9589 7.61825 32.9996 9.08066 32.9995C9.22469 32.9995 9.37084 32.9894 9.51774 32.9686L12.4608 32.5523C12.7782 32.5072 13.0925 32.6096 13.323 32.8325L15.4593 34.8991C16.0542 35.4746 16.8172 35.7622 17.5805 35.7622C18.3436 35.7621 19.1071 35.4744 19.7017 34.8991L21.838 32.8325C22.0685 32.6096 22.3827 32.5077 22.7002 32.5523L25.6433 32.9686C27.2824 33.2005 28.7895 32.105 29.0755 30.4749L29.589 27.5473C29.6445 27.2315 29.8387 26.9642 30.1219 26.8138L32.7476 25.4207C34.2095 24.6451 34.7853 22.8727 34.0585 21.3859L32.7532 18.7154ZM31.8014 23.6374L29.1757 25.0306C28.3386 25.4748 27.7645 26.2649 27.6007 27.1984L27.0872 30.1261C26.9905 30.6776 26.4806 31.0481 25.926 30.9698L22.983 30.5535C22.0444 30.4205 21.1157 30.7226 20.4345 31.3815L18.2981 33.4481C17.8958 33.8373 17.2653 33.8373 16.8628 33.4481L14.7265 31.3814C14.1508 30.8245 13.3981 30.5227 12.6124 30.5227C12.4685 30.5227 12.3233 30.5328 12.178 30.5534L9.23494 30.9697C8.68082 31.0481 8.17052 30.6776 8.07373 30.126L7.56015 27.1983C7.39636 26.2648 6.82228 25.4746 5.98509 25.0305L3.35942 23.6373C2.86477 23.3749 2.66995 22.7753 2.91584 22.2723L4.22122 19.6018C4.63739 18.7503 4.63739 17.7738 4.22122 16.9223L2.91584 14.2518C2.66995 13.7488 2.86477 13.1492 3.35942 12.8868L5.98509 11.4936C6.82221 11.0494 7.39636 10.2593 7.56008 9.32576L8.07359 6.39808C8.17039 5.84656 8.68021 5.47606 9.23481 5.5544L12.1779 5.9707C13.1161 6.10353 14.0452 5.80158 14.7264 5.14267L16.8627 3.07604C17.2651 2.68681 17.8955 2.68681 18.298 3.07604L20.4343 5.14267C21.1155 5.80165 22.0445 6.10353 22.9828 5.9707L25.9259 5.5544C26.4801 5.47599 26.9904 5.84656 27.0871 6.39808L27.6006 9.32583C27.7644 10.2593 28.3385 11.0495 29.1757 11.4936L31.8013 12.8868C32.296 13.1492 32.4908 13.7488 32.2449 14.2518L30.9395 16.9222C30.5234 17.7736 30.5234 18.7503 30.9395 19.6018L32.2449 22.2721C32.4909 22.7753 32.296 23.375 31.8014 23.6374Z" fill="#6C7185"/>
<path d="M24.9551 10.8872C24.561 10.493 23.9219 10.493 23.5277 10.8872L10.2053 24.2097C9.81113 24.6038 9.81113 25.2429 10.2053 25.6371C10.4024 25.8341 10.6607 25.9327 10.919 25.9327C11.1772 25.9327 11.4356 25.8342 11.6326 25.6371L24.9551 12.3146C25.3493 11.9204 25.3493 11.2814 24.9551 10.8872Z" fill="#6C7185"/>
<path d="M13.5432 9.17822C11.5025 9.17822 9.84229 10.8385 9.84229 12.8791C9.84229 14.9198 11.5025 16.58 13.5432 16.58C15.5838 16.58 17.2441 14.9198 17.2441 12.8791C17.2441 10.8385 15.5838 9.17822 13.5432 9.17822ZM13.5432 14.5613C12.6156 14.5613 11.861 13.8067 11.861 12.879C11.861 11.9515 12.6156 11.1969 13.5432 11.1969C14.4707 11.1969 15.2254 11.9515 15.2254 12.879C15.2254 13.8067 14.4707 14.5613 13.5432 14.5613Z" fill="#6C7185"/>
<path d="M21.6174 19.9443C19.5767 19.9443 17.9165 21.6046 17.9165 23.6452C17.9165 25.6859 19.5767 27.3461 21.6174 27.3461C23.658 27.3461 25.3183 25.6859 25.3183 23.6452C25.3183 21.6046 23.658 19.9443 21.6174 19.9443ZM21.6174 25.3274C20.6898 25.3274 19.9351 24.5728 19.9351 23.6452C19.9351 22.7177 20.6898 21.963 21.6174 21.963C22.545 21.963 23.2996 22.7177 23.2996 23.6452C23.2996 24.5728 22.545 25.3274 21.6174 25.3274Z" fill="#6C7185"/>
</g>
<defs>
<clipPath id="clip0">
<rect x="0.0800781" y="0.762085" width="35" height="35" fill="white"/>
</clipPath>
</defs>
</svg>
