<svg width="13" height="13" viewBox="0 0 13 13" fill="none" xmlns="http://www.w3.org/2000/svg">
<g clip-path="url(#clip0)">
<path d="M9.61807 3.63709C9.81333 3.44182 9.81333 3.12524 9.61807 2.92998L9.60414 2.91605C9.40888 2.72079 9.0923 2.72079 8.89703 2.91605L6.3595 5.45359C6.16424 5.64886 6.16424 5.96544 6.3595 6.1607L6.37343 6.17462C6.56869 6.36989 6.88527 6.36989 7.08053 6.17462L9.61807 3.63709ZM12.4895 2.89367C12.2919 2.7092 11.9834 2.71524 11.7931 2.90732L7.0805 7.66483C6.88552 7.86168 6.56764 7.86243 6.37173 7.66651L4.91742 6.2122C4.72216 6.01694 4.40557 6.01694 4.21031 6.2122L4.19639 6.22613C4.00112 6.42139 4.00112 6.73797 4.19639 6.93323L6.3734 9.11026C6.56867 9.30552 6.88525 9.30552 7.08051 9.11026L12.5413 3.64949C12.7413 3.44945 12.7357 3.12343 12.5289 2.93041L12.4895 2.89367ZM1.26078 6.22613C1.06552 6.42139 1.06552 6.73797 1.26078 6.93323L3.4378 9.11026C3.63306 9.30552 3.94964 9.30552 4.14491 9.11026L4.15883 9.09633C4.35409 8.90107 4.35409 8.58449 4.15883 8.38923L1.98181 6.2122C1.78655 6.01694 1.46997 6.01694 1.2747 6.2122L1.26078 6.22613Z" fill="white"/>
</g>
<defs>
<clipPath id="clip0">
<rect width="12" height="12" fill="white" transform="translate(0.907227 0.0136719)"/>
</clipPath>
</defs>
</svg>
