<svg width="18" height="18" viewBox="0 0 18 18" fill="none" xmlns="http://www.w3.org/2000/svg">
<path d="M17.9999 6.89986C17.9999 6.89357 17.9966 6.88815 17.9964 6.88218C17.9945 6.8614 17.9904 6.84087 17.984 6.82097C17.9799 6.80321 17.9742 6.78585 17.967 6.76908C17.9584 6.75319 17.9484 6.7381 17.937 6.72408C17.9251 6.70688 17.9114 6.69099 17.8962 6.67668C17.8913 6.67247 17.8893 6.66677 17.8842 6.66287L14.9999 4.42214V2.09979C14.9999 1.60274 14.597 1.19977 14.0999 1.19977H10.8488L9.54701 0.189047C9.22536 -0.0615509 8.77454 -0.0615509 8.45289 0.189047L7.1509 1.19977H3.89974C3.40269 1.19977 2.99972 1.6027 2.99972 2.09979V4.42214L0.115771 6.66287C0.110674 6.66677 0.108564 6.67247 0.103783 6.67668C0.0885249 6.69099 0.0748489 6.70688 0.0629659 6.72408C0.0515751 6.7381 0.0415202 6.75319 0.0329771 6.76908C0.0256996 6.78581 0.0199691 6.80318 0.0158909 6.82097C0.00963297 6.84048 0.00551962 6.86059 0.003586 6.88098C0.003586 6.88699 0 6.89237 0 6.89866V17.1C0.00119533 17.1966 0.0181058 17.2924 0.0500985 17.3835C-0.0187737 17.4874 -0.0155393 17.6232 0.0581494 17.7236C0.131838 17.8241 0.260371 17.868 0.380116 17.8335C0.531712 17.9419 0.713402 18.0001 0.899733 18H17.1C17.2871 17.9997 17.4694 17.9406 17.6211 17.8311C17.6467 17.839 17.6732 17.8433 17.7 17.8441C17.8096 17.8447 17.9106 17.785 17.9629 17.6887C18.0152 17.5924 18.0103 17.4751 17.9502 17.3836C17.9821 17.2924 17.9989 17.1966 18 17.1001V6.89986H17.9999ZM8.81979 0.66247C8.92456 0.579218 9.07292 0.579218 9.17769 0.66247L9.86978 1.19977H8.12977L8.81979 0.66247ZM0.97409 17.4001L8.81983 11.3058C8.92466 11.223 9.0726 11.223 9.17744 11.3058L17.0255 17.4001H0.97409ZM17.4 16.9314L9.54641 10.832C9.22497 10.5818 8.77465 10.5818 8.45321 10.832L0.59967 16.9314V7.35676L5.51586 11.1743C5.64685 11.2759 5.83536 11.2521 5.93693 11.1211C6.0385 10.9901 6.01466 10.8016 5.88367 10.7L0.889186 6.82157L2.99972 5.18174V7.49988C2.99972 7.66558 3.13405 7.79988 3.29971 7.79988C3.46541 7.79988 3.59971 7.66554 3.59971 7.49988V2.09979C3.59971 1.93409 3.73401 1.79979 3.8997 1.79979H14.0999C14.2655 1.79979 14.3998 1.93409 14.3998 2.09979V7.49988C14.3998 7.66558 14.5341 7.79988 14.6998 7.79988C14.8655 7.79988 14.9998 7.66554 14.9998 7.49988V5.18174L17.1104 6.82157L12.107 10.7069C11.9761 10.8086 11.9524 10.9971 12.054 11.128C12.1556 11.2589 12.3442 11.2826 12.4751 11.1809L17.4 7.35679V16.9314Z" fill="white"/>
<path d="M6.00019 3.8993H12.0003C12.166 3.8993 12.3003 3.765 12.3003 3.59931C12.3003 3.43362 12.166 3.29932 12.0003 3.29932H6.00019C5.83449 3.29932 5.7002 3.43362 5.7002 3.59931C5.7002 3.765 5.83449 3.8993 6.00019 3.8993Z" fill="white"/>
<path d="M12.3003 5.39936C12.3003 5.23366 12.166 5.09937 12.0003 5.09937H6.00019C5.83449 5.09937 5.7002 5.2337 5.7002 5.39936C5.7002 5.56505 5.83449 5.69935 6.00019 5.69935H12.0003C12.166 5.69935 12.3003 5.56502 12.3003 5.39936Z" fill="white"/>
<path d="M12.3 7.19929C12.3 7.03359 12.1657 6.89929 12 6.89929H9.29999C9.1343 6.89929 9 7.03359 9 7.19929C9 7.36498 9.1343 7.49928 9.29999 7.49928H12C12.1657 7.49928 12.3 7.36494 12.3 7.19929Z" fill="white"/>
</svg>
