<svg width="44" height="44" viewBox="0 0 44 44" fill="none" xmlns="http://www.w3.org/2000/svg">
<path d="M0 20C0 8.9543 8.95431 0 20 0H24C35.0457 0 44 8.95431 44 20V24C44 35.0457 35.0457 44 24 44H20C8.9543 44 0 35.0457 0 24V20Z" fill="#FFC501"/>
<path d="M22.7335 19.9816C22.7335 20.0574 22.7627 20.1243 22.821 20.1826L23.8177 21.1792C23.8759 21.2376 23.9428 21.2667 24.0186 21.2667C24.0944 21.2667 24.1613 21.2375 24.2195 21.1792L27.1221 18.277L28.3806 19.5357C28.4912 19.6465 28.6226 19.7019 28.7741 19.7019C28.9255 19.7019 29.0567 19.6465 29.1675 19.5357C29.2781 19.425 29.3335 19.2939 29.3335 19.1424L29.3335 15.2262C29.3335 15.0746 29.2781 14.9435 29.1675 14.8327C29.0567 14.7221 28.9256 14.6667 28.7741 14.6667L24.8579 14.6667C24.7064 14.6667 24.575 14.7221 24.4644 14.8327C24.3538 14.9435 24.2982 15.0746 24.2982 15.2262C24.2982 15.3777 24.3537 15.5088 24.4644 15.6196L25.7232 16.8784L22.8208 19.7805C22.7627 19.8388 22.7335 19.9058 22.7335 19.9816Z" fill="#3D404C"/>
<path d="M13.7596 30.7997L17.6758 30.7997C17.8273 30.7997 17.9585 30.7443 18.0692 30.6336C18.1799 30.5229 18.2353 30.3916 18.2353 30.2402C18.2353 30.0887 18.1799 29.9575 18.0692 29.8469L16.8104 28.5881L19.7126 25.6859C19.771 25.6276 19.8 25.5606 19.8 25.4849C19.8 25.4091 19.771 25.342 19.7126 25.2838L18.7162 24.2873C18.6578 24.2291 18.5909 24.2001 18.5151 24.2001C18.4394 24.2001 18.3723 24.229 18.314 24.2873L15.4118 27.1896L14.1531 25.9309C14.0424 25.8202 13.9113 25.7647 13.7597 25.7647C13.6081 25.7647 13.477 25.8202 13.3663 25.9309C13.2556 26.0414 13.2002 26.1727 13.2002 26.3242L13.2002 30.2404C13.2002 30.3919 13.2556 30.5231 13.3662 30.6336C13.4769 30.7443 13.608 30.7997 13.7596 30.7997Z" fill="#3D404C"/>
</svg>
