<svg width="90" height="90" viewBox="0 0 90 90" fill="none" xmlns="http://www.w3.org/2000/svg">
<g clip-path="url(#clip0)">
<path d="M88.3588 53.7389C89.6052 54.145 90.289 55.4839 89.883 56.7304C89.5578 57.7346 88.627 58.3709 87.6252 58.3709C87.383 58.3709 87.1362 58.333 86.8917 58.2546L82.8154 56.9299C81.5666 56.5238 80.8851 55.1849 81.2912 53.9384C81.6948 52.692 83.0361 52.0082 84.2826 52.4142L88.3588 53.7389Z" fill="#FFC501"/>
<path d="M84.5074 29.3734C85.2102 31.5362 84.6355 33.8676 83.0046 35.4583L68.7551 49.3469C68.4749 49.6199 68.3491 50.014 68.4132 50.3986L71.7773 70.0112C72.1619 72.2547 71.2574 74.4793 69.4175 75.816C68.3776 76.571 67.1597 76.9556 65.9345 76.9556C64.9897 76.9556 64.0424 76.7276 63.1664 76.267L45.5528 67.008C45.2061 66.8251 44.793 66.8251 44.4489 67.008L26.8353 76.267C24.8196 77.3259 22.4242 77.1549 20.5841 75.816C18.7418 74.4793 17.8372 72.2548 18.2218 70.0112L21.5859 50.3986C21.6524 50.014 21.5242 49.6199 21.244 49.3469L6.99451 35.4583C5.3659 33.8676 4.78899 31.5362 5.49404 29.3734C6.19681 27.2082 8.03197 25.6602 10.285 25.3328L29.9784 22.4719C30.363 22.415 30.6977 22.1727 30.871 21.8214L39.6766 3.97748C40.6859 1.9379 42.7251 0.670166 44.9996 0.670166C47.2763 0.670166 49.3157 1.9379 50.3224 3.97731L59.1304 21.8212C59.3037 22.1726 59.6361 22.4148 60.023 22.4717L79.7165 25.3326C81.9672 25.6602 83.8048 27.2082 84.5074 29.3734ZM79.6903 32.0562C80.1675 31.5932 80.0607 31.052 79.9917 30.8407C79.9228 30.6294 79.6926 30.1284 79.0325 30.0335L59.3415 27.1704C57.4065 26.8902 55.7352 25.6771 54.8711 23.9249L46.0657 6.07842C45.9186 5.7817 45.7073 5.61541 45.5055 5.52524C45.3037 5.43506 45.1114 5.41836 44.9997 5.41836C44.779 5.41836 44.2305 5.48252 43.9361 6.07842L35.1281 23.9248C34.2639 25.6769 32.5924 26.89 30.6599 27.1702L10.9665 30.0333C10.3089 30.1282 10.0786 30.6292 10.0097 30.8405C9.94077 31.0518 9.83161 31.593 10.3089 32.056L24.5584 45.9471C25.9592 47.3122 26.5953 49.2757 26.2654 51.201L22.9013 70.8136C22.7897 71.4689 23.1957 71.844 23.3738 71.9746C23.5541 72.1052 24.0361 72.376 24.625 72.0648L42.2386 62.8057C43.1027 62.3499 44.0525 62.1219 44.9997 62.1219C45.9493 62.1219 46.8966 62.3499 47.7632 62.8057L65.3768 72.0648C65.9657 72.3758 66.4475 72.1052 66.6255 71.9746C66.8059 71.844 67.212 71.4689 67.098 70.8136L63.7339 51.201C63.404 49.2757 64.0426 47.3122 65.441 45.9471L79.6903 32.0562Z" fill="#FBCF3A"/>
<path d="M79.9925 30.8406C80.0614 31.0519 80.1681 31.5931 79.691 32.0561L65.4415 45.9472C64.0432 47.3123 63.4046 49.2758 63.7345 51.2011L67.0986 70.8137C67.2125 71.469 66.8067 71.8441 66.6261 71.9747C66.4481 72.1053 65.9661 72.376 65.3774 72.0649L47.7638 62.8058C46.8972 62.35 45.9499 62.122 45.0003 62.122C44.053 62.122 43.1035 62.35 42.2392 62.8058L24.6254 72.0651C24.0365 72.376 23.5547 72.1055 23.3742 71.9749C23.1961 71.8443 22.79 71.4692 22.9017 70.8139L26.2658 51.2013C26.5957 49.276 25.9596 47.3125 24.5588 45.9474L10.3093 32.0563C9.83201 31.5933 9.94134 31.0521 10.0101 30.8408C10.079 30.6295 10.3093 30.1285 10.9668 30.0336L30.6603 27.1705C32.5928 26.8903 34.2641 25.6772 35.1285 23.925L43.9367 6.07851C44.2311 5.48262 44.7795 5.41846 45.0003 5.41846C45.1119 5.41846 45.3042 5.43516 45.506 5.52533C45.7078 5.61551 45.9191 5.7818 46.0663 6.07851L54.8718 23.9248C55.736 25.677 57.4075 26.8901 59.3423 27.1703L79.0333 30.0334C79.6933 30.1285 79.9236 30.6293 79.9925 30.8406Z" fill="#FFC501"/>
<path d="M72.7337 3.97731C73.7949 4.74652 74.0299 6.23275 73.2607 7.29166L70.7393 10.7603C70.2762 11.4014 69.5522 11.7408 68.8162 11.7408C68.3342 11.7408 67.8452 11.5937 67.4226 11.2873C66.3637 10.5157 66.1287 9.03189 66.8979 7.9707L69.4193 4.50201C70.1887 3.44082 71.6749 3.2058 72.7337 3.97731Z" fill="#FFC501"/>
<path d="M47.3732 82.6678V86.9554C47.3732 88.2684 46.312 89.3295 44.9991 89.3295C43.6886 89.3295 42.625 88.2684 42.625 86.9554V82.6678C42.625 81.3574 43.6886 80.2937 44.9991 80.2937C46.312 80.2937 47.3732 81.3574 47.3732 82.6678Z" fill="#FFC501"/>
<path d="M23.0915 7.95649C23.8607 9.01768 23.6257 10.5016 22.5668 11.2731C22.1442 11.5793 21.6552 11.7266 21.1732 11.7266C20.4372 11.7266 19.7132 11.3872 19.2502 10.7484L16.729 7.27973C15.9597 6.21854 16.1948 4.73232 17.2537 3.9631C18.3149 3.19142 19.8011 3.42662 20.5703 4.48781L23.0915 7.95649Z" fill="#FFC501"/>
<path d="M8.70895 53.9337C9.115 55.1825 8.4335 56.5216 7.18475 56.9275L3.10839 58.2521C2.86388 58.3305 2.61691 58.3685 2.37486 58.3685C1.37291 58.3685 0.442322 57.7299 0.117128 56.7279C-0.288926 55.4792 0.394861 54.1401 1.64132 53.7342L5.71768 52.4095C6.96625 52.0059 8.30535 52.6873 8.70895 53.9337Z" fill="#FFC501"/>
</g>
<defs>
<clipPath id="clip0">
<rect width="90" height="90" fill="white"/>
</clipPath>
</defs>
</svg>
