<svg width="14" height="14" viewBox="0 0 14 14" fill="none" xmlns="http://www.w3.org/2000/svg">
<path d="M9.91432 5.1333H4.08099C3.95219 5.1333 3.84766 5.2376 3.84766 5.36663C3.84766 5.49567 3.95219 5.59997 4.08099 5.59997H9.91432C10.0431 5.59997 10.1477 5.49567 10.1477 5.36663C10.1477 5.2376 10.0431 5.1333 9.91432 5.1333Z" fill="white"/>
<path d="M4.08099 3.73327H6.41432C6.54312 3.73327 6.64766 3.62897 6.64766 3.49994C6.64766 3.3709 6.54312 3.2666 6.41432 3.2666H4.08099C3.95219 3.2666 3.84766 3.3709 3.84766 3.49994C3.84766 3.62897 3.95219 3.73327 4.08099 3.73327Z" fill="white"/>
<path d="M9.91432 7H4.08099C3.95219 7 3.84766 7.1043 3.84766 7.23333C3.84766 7.36237 3.95219 7.46667 4.08099 7.46667H9.91432C10.0431 7.46667 10.1477 7.36237 10.1477 7.23333C10.1477 7.1043 10.0431 7 9.91432 7Z" fill="white"/>
<path d="M9.91432 8.8667H4.08099C3.95219 8.8667 3.84766 8.971 3.84766 9.10003C3.84766 9.22907 3.95219 9.33337 4.08099 9.33337H9.91432C10.0431 9.33337 10.1477 9.22907 10.1477 9.10003C10.1477 8.971 10.0431 8.8667 9.91432 8.8667Z" fill="white"/>
<path d="M9.91432 10.7334H4.08099C3.95219 10.7334 3.84766 10.8377 3.84766 10.9667C3.84766 11.0958 3.95219 11.2001 4.08099 11.2001H9.91432C10.0431 11.2001 10.1477 11.0958 10.1477 10.9667C10.1477 10.8377 10.0431 10.7334 9.91432 10.7334Z" fill="white"/>
<path d="M9.07889 0H1.51562V14H12.4823V3.4034L9.07889 0ZM9.21562 0.7966L11.6857 3.26667H9.21562V0.7966ZM1.98229 13.5333V0.466667H8.74896V3.73333H12.0156V13.5333H1.98229Z" fill="white"/>
</svg>
