<svg width="18" height="16" viewBox="0 0 18 16" fill="none" xmlns="http://www.w3.org/2000/svg">
<path d="M3.42219 15.9514C2.60266 15.9514 1.8326 15.632 1.25344 15.053C0.0577734 13.8572 0.0577734 11.9114 1.25344 10.7157L10.7347 1.23405C11.4985 0.469402 12.5151 0.0488281 13.596 0.0488281C14.6771 0.0488281 15.6937 0.469402 16.4576 1.23405C17.2221 1.99849 17.6432 3.01454 17.6432 4.09538C17.6432 5.17644 17.2226 6.19245 16.4582 6.95643L8.99442 14.4195C8.77034 14.6435 8.40745 14.6435 8.18347 14.4195C7.95939 14.1955 7.95939 13.8326 8.18347 13.6084L15.6471 6.14538C16.1949 5.59764 16.4962 4.86952 16.4962 4.09538C16.4962 3.32138 16.1943 2.5928 15.6466 2.045C15.0987 1.49727 14.3706 1.19584 13.596 1.19584C12.8216 1.19584 12.0934 1.49727 11.5456 2.045L2.06449 11.5267C1.31626 12.2755 1.31626 13.4932 2.06449 14.2419C2.79029 14.9667 4.05395 14.9667 4.77972 14.2419L11.1462 7.87496C11.3193 7.70185 11.4185 7.46222 11.4185 7.21796C11.4185 6.97028 11.3216 6.73681 11.1457 6.56092C10.7839 6.19913 10.1941 6.19804 9.83234 6.56092L5.48432 10.9094C5.26037 11.1336 4.89731 11.1336 4.67337 10.9094C4.44928 10.6855 4.44928 10.3224 4.67337 10.0985L9.02125 5.75001C9.83002 4.94128 11.1468 4.94128 11.9567 5.75001C12.3493 6.14256 12.5655 6.66407 12.5655 7.21799C12.5655 7.76457 12.3437 8.29947 11.9573 8.68591L5.59081 15.053C5.01164 15.632 4.24154 15.9514 3.42219 15.9514Z" fill="#676767"/>
</svg>
