<svg width="13" height="15" viewBox="0 0 13 15" fill="none" xmlns="http://www.w3.org/2000/svg">
<path d="M12.0929 8.78229C11.9211 6.54521 10.8796 5.14333 9.96069 3.90624C9.10985 2.76096 8.375 1.77196 8.375 0.313035C8.375 0.195848 8.30938 0.0887384 8.20531 0.0350372C8.10093 -0.0189862 7.97551 -0.0101386 7.88062 0.0588263C6.50062 1.04631 5.34919 2.71063 4.94697 4.29864C4.66774 5.40422 4.6308 6.64711 4.62562 7.46798C3.3512 7.19578 3.06251 5.28949 3.05946 5.26872C3.04511 5.16984 2.9847 5.0838 2.89681 5.03681C2.80801 4.99043 2.70362 4.98706 2.61359 5.03162C2.54677 5.06396 0.973262 5.86348 0.881709 9.05569C0.875293 9.16189 0.875 9.26842 0.875 9.37491C0.875 12.4762 3.39849 14.9995 6.5 14.9995C6.50428 14.9998 6.50885 15.0004 6.51251 14.9995C6.51374 14.9995 6.51494 14.9995 6.51647 14.9995C9.61036 14.9907 12.125 12.4707 12.125 9.37491C12.125 9.21896 12.0929 8.78229 12.0929 8.78229ZM6.5 14.3746C5.46605 14.3746 4.625 13.4786 4.625 12.3773C4.625 12.3398 4.62471 12.302 4.62743 12.2556C4.63994 11.7911 4.72815 11.4741 4.82489 11.2632C5.00618 11.6526 5.33026 12.0105 5.8567 12.0105C6.02943 12.0105 6.16921 11.8708 6.16921 11.6981C6.16921 11.2532 6.17838 10.7399 6.28915 10.2766C6.38773 9.8659 6.62331 9.4289 6.92179 9.0786C7.05453 9.53329 7.31334 9.90129 7.56603 10.2605C7.92767 10.7743 8.30149 11.3056 8.36712 12.2116C8.37107 12.2653 8.37506 12.3194 8.37506 12.3773C8.375 13.4786 7.53395 14.3746 6.5 14.3746Z" fill="#FF855F"/>
</svg>
