<svg width="36" height="36" viewBox="0 0 36 36" fill="none" xmlns="http://www.w3.org/2000/svg">
<path d="M10.9997 7.5C10.3557 7.5 9.83301 8.02267 9.83301 8.66667C9.83301 9.31067 10.3557 9.83333 10.9997 9.83333C11.6437 9.83333 12.1663 9.31067 12.1663 8.66667C12.1663 8.02267 11.6437 7.5 10.9997 7.5Z" fill="#6C7185"/>
<path d="M17.9999 16.8333C17.3566 16.8333 16.8332 16.3099 16.8332 15.6666C16.8332 15.0233 17.3566 14.4999 17.9999 14.4999C18.4131 14.4999 18.8494 14.7107 19.2616 15.1097C19.7249 15.5579 20.4633 15.5456 20.9114 15.0827C21.3594 14.6196 21.3473 13.881 20.8843 13.4329C20.2923 12.8599 19.6998 12.5358 19.1665 12.359V10.9999C19.1665 10.3556 18.6441 9.83325 17.9999 9.83325C17.3556 9.83325 16.8332 10.3556 16.8332 10.9999V12.3673C15.4753 12.8489 14.4999 14.1456 14.4999 15.6666C14.4999 17.5965 16.07 19.1666 17.9999 19.1666C18.6432 19.1666 19.1665 19.69 19.1665 20.3333C19.1665 20.9766 18.6432 21.4999 17.9999 21.4999C17.5015 21.4999 16.9634 21.1864 16.485 20.6173C16.0704 20.1241 15.3344 20.0605 14.8412 20.4751C14.348 20.8898 14.2844 21.6257 14.6989 22.1188C15.3226 22.8607 16.056 23.3777 16.8332 23.6383V24.9999C16.8332 25.6443 17.3556 26.1666 17.9999 26.1666C18.6441 26.1666 19.1665 25.6443 19.1665 24.9999V23.6326C20.5244 23.151 21.4999 21.8542 21.4999 20.3333C21.4999 18.4034 19.9298 16.8333 17.9999 16.8333Z" fill="#6C7185"/>
<path d="M18 0.5C8.3505 0.5 0.5 8.3505 0.5 18C0.5 27.6495 8.3505 35.5 18 35.5C27.6495 35.5 35.5 27.6495 35.5 18C35.5 8.3505 27.6495 0.5 18 0.5ZM18 33.1667C9.63698 33.1667 2.83333 26.3629 2.83333 18C2.83333 9.6371 9.63698 2.83333 18 2.83333C26.363 2.83333 33.1667 9.6371 33.1667 18C33.1667 26.3629 26.363 33.1667 18 33.1667Z" fill="#6C7185"/>
<path d="M26.0566 8.00957C23.0208 5.5584 19.0476 4.63393 15.1575 5.47265C14.5276 5.60845 14.1271 6.22912 14.2629 6.859C14.3987 7.48877 15.0195 7.88893 15.6493 7.75348C18.847 7.06398 22.1062 7.81893 24.5909 9.8249C27.0754 11.831 28.5003 14.8105 28.5003 17.9999C28.5003 23.7896 23.79 28.4999 18.0003 28.4999C12.2106 28.4999 7.50033 23.7896 7.50033 17.9999C7.50033 16.2704 7.92966 14.5561 8.74189 13.0425C9.04651 12.4748 8.83324 11.7675 8.26554 11.4628C7.69773 11.1581 6.99038 11.3714 6.68588 11.9391C5.69223 13.791 5.16699 15.8867 5.16699 17.9999C5.16699 25.0762 10.924 30.8332 18.0003 30.8332C25.0766 30.8332 30.8337 25.0762 30.8337 17.9999C30.8337 14.1019 29.0925 10.4606 26.0566 8.00957Z" fill="#6C7185"/>
</svg>
