<svg width="18" height="18" viewBox="0 0 18 18" fill="none" xmlns="http://www.w3.org/2000/svg">
<g clip-path="url(#clip0)">
<path d="M17.8086 7.31479L9.27631 1.06763C9.11178 0.947184 8.88826 0.947184 8.7238 1.06763L0.191446 7.31479C-0.0169601 7.4674 -0.0622414 7.76004 0.0903719 7.96845C0.242985 8.17686 0.535661 8.22207 0.744032 8.06952L9.00002 2.02462L17.256 8.06949C17.3393 8.13049 17.436 8.15984 17.5319 8.15984C17.6759 8.15984 17.818 8.09357 17.9096 7.96841C18.0623 7.76004 18.017 7.4674 17.8086 7.31479Z" fill="#6C7185"/>
<path d="M15.5474 8.17542C15.2892 8.17542 15.0798 8.38481 15.0798 8.6431V16.0874H11.3384V12.0238C11.3384 10.7343 10.2892 9.68524 8.99977 9.68524C7.71031 9.68524 6.66118 10.7344 6.66118 12.0238V16.0874H2.91974V8.64313C2.91974 8.38484 2.71032 8.17545 2.45206 8.17545C2.1938 8.17545 1.98438 8.38484 1.98438 8.64313V16.5552C1.98438 16.8134 2.1938 17.0228 2.45206 17.0228H7.12886C7.37481 17.0228 7.57608 16.8328 7.59472 16.5916C7.59584 16.5806 7.59654 16.5687 7.59654 16.5552V12.0239C7.59654 11.2501 8.22602 10.6206 8.99977 10.6206C9.77352 10.6206 10.403 11.2501 10.403 12.0239V16.5552C10.403 16.5686 10.4037 16.5804 10.4048 16.5912C10.4232 16.8326 10.6246 17.0228 10.8707 17.0228H15.5475C15.8058 17.0228 16.0152 16.8134 16.0152 16.5552V8.64313C16.0151 8.38481 15.8057 8.17542 15.5474 8.17542Z" fill="#6C7185"/>
</g>
<defs>
<clipPath id="clip0">
<rect width="18" height="18" fill="white"/>
</clipPath>
</defs>
</svg>
