<svg width="14" height="15" viewBox="0 0 14 15" fill="none" xmlns="http://www.w3.org/2000/svg">
<path d="M6.9997 0.500122C3.13422 0.500122 0 3.63434 0 7.49983C0 11.3653 3.13422 14.5001 6.9997 14.5001C10.8652 14.5001 14 11.3653 14 7.49983C14 3.63434 10.8652 0.500122 6.9997 0.500122ZM8.45689 11.3487C8.09659 11.4909 7.80978 11.5988 7.59467 11.6735C7.38015 11.7481 7.13067 11.7855 6.84681 11.7855C6.41067 11.7855 6.07111 11.6788 5.82933 11.466C5.58756 11.2533 5.46726 10.9837 5.46726 10.656C5.46726 10.5286 5.47615 10.3982 5.49393 10.2655C5.5123 10.1327 5.54133 9.98338 5.58104 9.81568L6.032 8.22279C6.0717 8.0699 6.10607 7.92471 6.13333 7.7896C6.16059 7.65331 6.17363 7.52827 6.17363 7.41449C6.17363 7.21183 6.13156 7.0696 6.048 6.9896C5.96326 6.9096 5.80385 6.87049 5.56622 6.87049C5.45007 6.87049 5.33037 6.88768 5.2077 6.92383C5.08622 6.96116 4.98074 6.99494 4.89422 7.02812L5.01333 6.53746C5.30844 6.41716 5.59111 6.31405 5.86074 6.22871C6.13037 6.1422 6.38519 6.09953 6.62519 6.09953C7.05837 6.09953 7.39259 6.20501 7.62785 6.4136C7.86193 6.62279 7.97985 6.89479 7.97985 7.22901C7.97985 7.29834 7.97156 7.42042 7.95556 7.59464C7.93956 7.76946 7.90933 7.92886 7.86548 8.07523L7.41689 9.66338C7.38015 9.79079 7.34756 9.93657 7.31793 10.0995C7.28889 10.2625 7.27467 10.3869 7.27467 10.4705C7.27467 10.6815 7.32148 10.8255 7.4163 10.9019C7.50993 10.9783 7.67407 11.0169 7.90637 11.0169C8.016 11.0169 8.13867 10.9973 8.27733 10.9594C8.41481 10.9215 8.51437 10.8877 8.57719 10.8586L8.45689 11.3487ZM8.37748 4.90249C8.1683 5.09686 7.91644 5.19405 7.62193 5.19405C7.328 5.19405 7.07437 5.09686 6.86341 4.90249C6.65363 4.70812 6.54756 4.47168 6.54756 4.19553C6.54756 3.91997 6.65422 3.68294 6.86341 3.48679C7.07437 3.29005 7.328 3.19227 7.62193 3.19227C7.91644 3.19227 8.16889 3.29005 8.37748 3.48679C8.58667 3.68294 8.69156 3.91997 8.69156 4.19553C8.69156 4.47227 8.58667 4.70812 8.37748 4.90249Z" fill="#4880FF"/>
</svg>
