<svg width="55" height="56" viewBox="0 0 55 56" fill="none" xmlns="http://www.w3.org/2000/svg">
<circle cx="27.5" cy="27.6582" r="27.5" fill="#F5F6FA"/>
<circle cx="27.5" cy="27.6582" r="23.913" fill="#33C093"/>
<path d="M34.0293 37.9707C33.6843 37.9707 33.4043 38.2507 33.4043 38.5957C33.4043 38.9407 33.6843 39.2207 34.0293 39.2207C34.3743 39.2207 34.6543 38.9407 34.6543 38.5957C34.6543 38.2507 34.3743 37.9707 34.0293 37.9707Z" fill="white"/>
<path d="M21.5293 37.9707C21.1843 37.9707 20.9043 38.2507 20.9043 38.5957C20.9043 38.9407 21.1843 39.2207 21.5293 39.2207C21.8743 39.2207 22.1543 38.9407 22.1543 38.5957C22.1543 38.2507 21.8743 37.9707 21.5293 37.9707Z" fill="white"/>
<path d="M39.0085 34.2604C38.3489 33.2394 37.4425 32.4282 36.3807 31.9043C36.2912 31.8212 36.1761 31.7654 36.048 31.7512C35.2801 31.4252 34.4705 31.2598 33.6387 31.2598H31.8809V29.7139C32.8981 28.8411 33.6294 27.685 33.984 26.3965H34.2246C35.517 26.3965 36.5684 25.3451 36.5684 24.0527C36.5684 23.4403 36.332 22.8823 35.946 22.4643C35.9828 22.433 36.0188 22.4004 36.0534 22.3659C36.3855 22.0338 36.5684 21.5924 36.5684 21.123C36.5684 20.3518 36.0688 19.6954 35.3764 19.4592C35.1694 16.7648 33.2784 14.4623 30.6748 13.7407C30.5205 12.9349 29.8555 12.1582 28.9512 12.1582H26.6074C25.7031 12.1582 25.0381 12.9349 24.8838 13.7407C22.2804 14.4623 20.3896 16.7644 20.1823 19.4584C19.9302 19.5439 19.699 19.6864 19.5052 19.8802C19.1731 20.2123 18.9902 20.6537 18.9902 21.123C18.9902 21.6599 19.2325 22.1411 19.6131 22.4638C19.2268 22.8818 18.9902 23.4401 18.9902 24.0527C18.9902 25.3451 20.0416 26.3965 21.334 26.3965H21.5729C21.8689 27.4721 22.4302 28.4596 23.2132 29.2753C23.3603 29.4287 23.5163 29.5748 23.6777 29.7134V31.2598H21.9199C21.088 31.2598 20.2785 31.4252 19.5105 31.7511C19.3826 31.7654 19.2674 31.8211 19.1779 31.9042C18.116 32.4282 17.2097 33.2394 16.5501 34.2603C15.8465 35.3494 15.4746 36.6013 15.4746 37.8809V41.5723C15.4746 41.8958 15.7369 42.1582 16.0605 42.1582H39.498C39.8217 42.1582 40.084 41.8958 40.084 41.5723V37.8809C40.084 36.6013 39.7121 35.3494 39.0085 34.2604ZM18.9902 40.9863H16.6465V37.8809C16.6465 36.0986 17.5595 34.3904 18.9902 33.3763V40.9863ZM34.2246 25.2246H34.1979C34.2154 25.0297 34.2246 24.834 34.2246 24.6387V22.8809C34.8708 22.8809 35.3965 23.4066 35.3965 24.0527C35.3965 24.6989 34.8708 25.2246 34.2246 25.2246ZM24.8496 14.9788V17.6074C24.8496 17.931 25.1119 18.1934 25.4355 18.1934C25.7592 18.1934 26.0215 17.931 26.0215 17.6074V14.2127C26.0215 14.2112 26.0215 14.2096 26.0215 14.2081V14.0918C26.0215 13.7287 26.3282 13.3301 26.6074 13.3301H28.9512C29.2304 13.3301 29.5371 13.7287 29.5371 14.0918V14.2081C29.5371 14.2096 29.5371 14.2112 29.5371 14.2127V17.6074C29.5371 17.931 29.7994 18.1934 30.123 18.1934C30.4467 18.1934 30.709 17.931 30.709 17.6074V14.9788C32.601 15.6484 33.9668 17.3605 34.1919 19.3652H21.3667C21.5918 17.3605 22.9576 15.6484 24.8496 14.9788ZM21.334 25.2246C20.6878 25.2246 20.1621 24.6989 20.1621 24.0527C20.1621 23.4066 20.6878 22.8809 21.334 22.8809V24.6387C21.334 24.834 21.3432 25.0297 21.3607 25.2246H21.334ZM21.334 21.709H20.748C20.425 21.709 20.1621 21.4461 20.1621 21.123C20.1621 20.9667 20.2231 20.8196 20.3338 20.7089C20.4446 20.5981 20.5917 20.5371 20.748 20.5371H34.8105C35.1336 20.5371 35.3965 20.8 35.3965 21.123C35.3965 21.2794 35.3355 21.4265 35.2247 21.5372C35.114 21.648 34.9669 21.709 34.8105 21.709H34.2246H33.6387H21.9199H21.334ZM22.6123 25.7041C22.6112 25.6977 22.61 25.6914 22.6086 25.6851C22.5406 25.3412 22.5059 24.9892 22.5059 24.6387V22.8809H33.0527V24.6387C33.0527 24.9889 33.018 25.3407 32.95 25.6849C32.9486 25.6912 32.9474 25.6976 32.9463 25.704C32.6844 27.011 31.9597 28.181 30.9045 28.9993C29.9877 29.7115 28.9071 30.0879 27.7793 30.0879C26.6515 30.0879 25.5709 29.7115 24.6533 28.9987C24.4432 28.8362 24.2433 28.6563 24.0588 28.464C23.3197 27.6939 22.8197 26.74 22.6123 25.7041ZM27.1934 40.9863H22.5059V39.6387C22.5059 39.3151 22.2435 39.0527 21.9199 39.0527C21.5963 39.0527 21.334 39.3151 21.334 39.6387V40.9863H20.1621V32.7524C20.5424 32.609 20.9341 32.5134 21.334 32.4663V36.123C21.334 36.4467 21.5963 36.709 21.9199 36.709C22.2435 36.709 22.5059 36.4467 22.5059 36.123V32.4316H24.0126L27.1934 35.7715V40.9863ZM24.8496 31.6113V30.52C25.7538 31.006 26.7496 31.2598 27.7793 31.2598C28.809 31.2598 29.8049 31.0059 30.709 30.52V31.6113L27.7793 34.6875L24.8496 31.6113ZM35.3965 40.9863H34.2246V39.6387C34.2246 39.3151 33.9623 39.0527 33.6387 39.0527C33.3151 39.0527 33.0527 39.3151 33.0527 39.6387V40.9863H28.3652V35.7715L31.546 32.4316H33.0527V36.123C33.0527 36.4467 33.3151 36.709 33.6387 36.709C33.9623 36.709 34.2246 36.4467 34.2246 36.123V32.4663C34.6245 32.5134 35.0162 32.6091 35.3965 32.7524V40.9863ZM38.9121 40.9863H36.5684V33.3762C37.9991 34.3903 38.9121 36.0986 38.9121 37.8809V40.9863Z" fill="white"/>
</svg>
