<svg width="56" height="56" viewBox="0 0 56 56" fill="none" xmlns="http://www.w3.org/2000/svg">
<circle cx="28.0469" cy="28.4421" r="27.5" fill="#F5F6FA"/>
<circle cx="28.0468" cy="28.4421" r="23.913" fill="#FF855F"/>
<path d="M16.1169 39.133H39.9768C41.1008 39.133 42.1333 38.5201 42.6717 37.5333C43.21 36.5466 43.1664 35.3464 42.5579 34.4013L30.6279 15.8707C30.0603 14.9889 29.0952 14.4626 28.0468 14.4626C26.9982 14.4626 26.0332 14.9891 25.4656 15.8708L13.5357 34.4015C12.9273 35.3466 12.8838 36.5468 13.4221 37.5334C13.9602 38.5201 14.9929 39.133 16.1169 39.133ZM15.5594 35.7042L27.4893 17.1736C27.666 16.8992 27.938 16.8695 28.0468 16.8695C28.1555 16.8695 28.4277 16.8992 28.6043 17.1737L40.5342 35.7044C40.7266 36.003 40.6156 36.2769 40.5588 36.3807C40.5021 36.4845 40.332 36.7262 39.9768 36.7262H16.1169C15.7618 36.7262 15.5915 36.4845 15.5349 36.3807C15.4781 36.2767 15.3672 36.003 15.5594 35.7042Z" fill="white"/>
<path d="M28.0472 30.4963C28.712 30.4963 29.2506 29.9575 29.2506 29.2929V23.463C29.2506 22.7983 28.712 22.2595 28.0472 22.2595C27.3826 22.2595 26.8438 22.7983 26.8438 23.463V29.2929C26.8438 29.9575 27.3826 30.4963 28.0472 30.4963Z" fill="white"/>
<path d="M28.0394 34.1849H28.0567C28.7213 34.1849 29.2602 33.6461 29.2602 32.9815C29.2602 32.3169 28.7213 31.7781 28.0567 31.7781H28.0394C27.3748 31.7781 26.8359 32.3169 26.8359 32.9815C26.8359 33.6461 27.3748 34.1849 28.0394 34.1849Z" fill="white"/>
</svg>
