<svg width="56" height="56" viewBox="0 0 56 56" fill="none" xmlns="http://www.w3.org/2000/svg">
<circle cx="28.2793" cy="27.5142" r="27.5" fill="#F5F6FA"/>
<circle cx="28.2793" cy="27.5141" r="23.913" fill="#FF855F"/>
<g clip-path="url(#clip0)">
<path d="M41.3495 29.9991H40.9006V25.9553C40.9006 25.3151 40.582 24.7483 40.0953 24.4039V23.8532C40.0953 23.0546 39.4456 22.4048 38.6469 22.4048H38.3117L39.5942 20.5228C40.0241 19.892 39.8607 19.0289 39.2298 18.599L30.5269 12.6681C30.2213 12.4598 29.853 12.3829 29.4895 12.4519C29.1261 12.5207 28.8113 12.7269 28.603 13.0326L21.0913 24.0554H19.0009L19.5053 18.9501C19.5109 18.8926 19.5483 18.8427 19.6005 18.8231C20.2502 18.5781 20.8133 18.1206 21.186 17.5349C21.2153 17.4888 21.2707 17.4624 21.328 17.4682L24.6066 17.7921C24.8417 17.8149 25.0508 17.6437 25.074 17.4088C25.0972 17.1738 24.9256 16.9646 24.6906 16.9414L21.412 16.6174C21.0314 16.5802 20.6685 16.7556 20.4646 17.0759C20.1906 17.5066 19.7766 17.8429 19.2989 18.0231C18.9393 18.1586 18.6924 18.4816 18.6544 18.866L18.1418 24.0553H17.5967L18.3943 15.9809C18.423 15.6903 18.6824 15.4767 18.9734 15.5059L25.5988 16.1604C25.8338 16.183 26.043 16.0119 26.0662 15.777C26.0894 15.542 25.9178 15.3328 25.6829 15.3096L19.0574 14.6551C18.2978 14.5801 17.6185 15.1371 17.5435 15.8968L16.9006 22.4048H15.8058C15.0071 22.4048 14.3573 23.0546 14.3573 23.8532V24.2288C13.7039 24.5297 13.249 25.1901 13.249 25.9553V40.5273C13.249 41.5749 14.1013 42.4272 15.149 42.4272H39.0006C40.0483 42.4272 40.9006 41.5749 40.9006 40.5273V36.4835H41.3495C41.8795 36.4835 42.3105 36.0524 42.3105 35.5225V30.9601C42.3106 30.4302 41.8795 29.9991 41.3495 29.9991ZM38.6469 23.2598C38.9742 23.2598 39.2404 23.526 39.2404 23.8533V24.0711C39.1618 24.0611 39.0819 24.0555 39.0006 24.0555H37.1869L37.729 23.2598H38.6469ZM29.3095 13.514C29.3892 13.3971 29.5096 13.3182 29.6486 13.2918C29.6818 13.2856 29.7152 13.2824 29.7483 13.2824C29.8536 13.2824 29.9564 13.3139 30.0454 13.3745L38.7484 19.3054C38.9897 19.4698 39.0522 19.8 38.8878 20.0413L36.1523 24.0553H35.4958L36.837 22.0873C37.0545 21.7681 37.0724 21.362 36.8836 21.0272C36.6327 20.5825 36.531 20.0588 36.5972 19.5526C36.6464 19.1761 36.4807 18.8084 36.1648 18.5932L31.6532 15.5186C31.3372 15.3033 30.9344 15.2836 30.602 15.4671C30.1552 15.7138 29.6306 15.8107 29.1249 15.7399C28.7499 15.6873 28.3696 15.8566 28.1553 16.171L22.7823 24.0553H22.1259L29.3095 13.514ZM29.4978 20.7732C27.6362 20.7732 26.1081 22.2247 25.9836 24.0553H23.8168L28.8617 16.6524C28.8617 16.6524 28.8617 16.6524 28.8617 16.6524C28.8904 16.6103 28.9379 16.5852 28.9867 16.5852C28.9932 16.5852 28.9997 16.5857 29.0062 16.5866C29.694 16.6828 30.4074 16.5512 31.0151 16.2156C31.0629 16.1891 31.1243 16.1929 31.1717 16.2252L35.6833 19.2998C35.7306 19.332 35.7565 19.3878 35.7495 19.4419C35.6594 20.1303 35.7978 20.8425 36.139 21.4473C36.1664 21.4958 36.163 21.5581 36.1306 21.6058L34.4614 24.0553H33.0122C32.8875 22.2247 31.3595 20.7732 29.4978 20.7732ZM32.1549 24.0554H26.8407C26.9632 22.6967 28.1078 21.6282 29.4978 21.6282C30.8879 21.6281 32.0325 22.6967 32.1549 24.0554ZM15.2123 23.8532C15.2123 23.5259 15.4785 23.2597 15.8058 23.2597H16.8162L16.7376 24.0553H15.2123V23.8532ZM14.104 25.9553C14.104 25.3791 14.5728 24.9103 15.149 24.9103H39.0006C39.5769 24.9103 40.0456 25.3791 40.0456 25.9553V27.1415H14.104V25.9553ZM40.0456 40.5273C40.0456 41.1035 39.5769 41.5723 39.0006 41.5723H15.149C14.5728 41.5723 14.104 41.1035 14.104 40.5273V39.3411H16.4092C16.6453 39.3411 16.8366 39.1497 16.8366 38.9137C16.8366 38.6776 16.6452 38.4862 16.4092 38.4862H14.104V27.9964H40.0456V29.9991H35.9812H35.9812C34.7005 29.9991 33.5912 30.7456 33.0648 31.8262C33.063 31.8298 33.061 31.8333 33.0592 31.8369C33.0548 31.8461 33.0509 31.8557 33.0466 31.8649C32.9839 31.9981 32.9294 32.136 32.885 32.2783C32.8849 32.2787 32.8848 32.279 32.8847 32.2794C32.79 32.5835 32.739 32.9065 32.739 33.2413C32.739 35.0291 34.1934 36.4835 35.9811 36.4835H35.9812H40.0456V38.4862H19.1463C18.9102 38.4862 18.7189 38.6776 18.7189 38.9137C18.7189 39.1497 18.9102 39.3411 19.1463 39.3411H40.0456V40.5273ZM41.4556 35.5225C41.4556 35.581 41.4081 35.6285 41.3495 35.6285H35.9813C35.0763 35.6285 34.2873 35.1223 33.8826 34.3783C33.8642 34.3445 33.8466 34.3101 33.8298 34.2754C33.7962 34.2058 33.7659 34.1344 33.7391 34.0613C33.6453 33.8055 33.5941 33.5292 33.5941 33.2413C33.5941 32.9534 33.6453 32.6772 33.7391 32.4214C33.766 32.3483 33.7963 32.2769 33.8298 32.2073C33.8466 32.1725 33.8642 32.1382 33.8826 32.1044C34.2873 31.3603 35.0763 30.8541 35.9813 30.8541H41.3495C41.408 30.8541 41.4556 30.9017 41.4556 30.9601V35.5225Z" fill="white" stroke="white" stroke-width="0.2"/>
<path d="M36.0811 31.5071C35.1247 31.5071 34.3467 32.2851 34.3467 33.2415C34.3467 34.1978 35.1247 34.9758 36.0811 34.9758C37.0374 34.9758 37.8154 34.1978 37.8154 33.2415C37.8154 32.2851 37.0374 31.5071 36.0811 31.5071ZM36.0811 34.1208C35.5961 34.1208 35.2016 33.7263 35.2016 33.2415C35.2016 32.7566 35.5961 32.362 36.0811 32.362C36.566 32.362 36.9605 32.7565 36.9605 33.2415C36.9605 33.7264 36.566 34.1208 36.0811 34.1208Z" fill="white" stroke="white" stroke-width="0.2"/>
</g>
<defs>
<clipPath id="clip0">
<rect x="12.7793" y="12.4272" width="30" height="30" fill="white"/>
</clipPath>
</defs>
</svg>
