<svg width="57" height="32" viewBox="0 0 57 32" fill="none" xmlns="http://www.w3.org/2000/svg">
<g clip-path="url(#clip0)">
<path d="M28.0714 11.1788C28.4762 11.4644 29.6964 12.3128 31.732 13.7235C33.7678 15.1341 35.3273 16.2203 36.4106 16.982C36.5297 17.0655 36.7825 17.247 37.1694 17.5268C37.5563 17.8068 37.8778 18.033 38.1336 18.2056C38.3896 18.3781 38.6991 18.5716 39.0623 18.7858C39.4255 18.9998 39.7678 19.1608 40.0892 19.2674C40.4107 19.3748 40.7083 19.4281 40.982 19.4281H41H41.018C41.2918 19.4281 41.5895 19.3748 41.911 19.2674C42.2323 19.1608 42.5749 18.9996 42.9377 18.7858C43.3007 18.5713 43.6102 18.378 43.8662 18.2056C44.1222 18.033 44.4435 17.8068 44.8305 17.5268C45.2173 17.2468 45.4705 17.0655 45.5895 16.982C46.6845 16.2203 49.4705 14.2857 53.9465 11.1784C54.8155 10.5715 55.5416 9.83926 56.1248 8.98207C56.7085 8.12526 57 7.22642 57 6.28604C57 5.50022 56.7171 4.82754 56.1516 4.26807C55.5861 3.70847 54.9164 3.42883 54.1428 3.42883H27.857C26.9404 3.42883 26.235 3.73831 25.741 4.35726C25.247 4.97634 25 5.75015 25 6.67864C25 7.42863 25.3275 8.24135 25.9822 9.1163C26.6368 9.99131 27.3334 10.6789 28.0714 11.1788Z" fill="white"/>
<path d="M55.214 13.0894C51.3097 15.732 48.345 17.7858 46.3215 19.2502C45.6429 19.75 45.0925 20.1402 44.6697 20.4197C44.247 20.6995 43.6848 20.9852 42.9822 21.2767C42.28 21.5687 41.6255 21.7143 41.0182 21.7143H41H40.9821C40.375 21.7143 39.7201 21.5687 39.0179 21.2767C38.3156 20.9852 37.753 20.6995 37.3304 20.4197C36.9079 20.1402 36.3572 19.75 35.6787 19.2502C34.0715 18.0717 31.1132 16.0178 26.8038 13.0894C26.125 12.6373 25.5238 12.1191 25 11.5359V25.714C25 26.5002 25.2796 27.1726 25.8392 27.7321C26.3987 28.2918 27.0714 28.5716 27.8572 28.5716H54.143C54.9286 28.5716 55.6013 28.2918 56.1608 27.7321C56.7205 27.1724 57 26.5003 57 25.714V11.5359C56.488 12.1071 55.893 12.6252 55.214 13.0894Z" fill="white"/>
</g>
<line x1="15" y1="8.25" x2="20" y2="8.25" stroke="white" stroke-width="1.5"/>
<line x1="10" y1="13.25" x2="20" y2="13.25" stroke="white" stroke-width="1.5"/>
<line x1="5" y1="18.25" x2="20" y2="18.25" stroke="white" stroke-width="1.5"/>
<line x1="6.55671e-08" y1="23.25" x2="20" y2="23.25" stroke="white" stroke-width="1.5"/>
<defs>
<clipPath id="clip0">
<rect x="25" width="32" height="32" fill="white"/>
</clipPath>
</defs>
</svg>
