<svg width="56" height="56" viewBox="0 0 56 56" fill="none" xmlns="http://www.w3.org/2000/svg">
<circle cx="28.2793" cy="27.5862" r="27.5" fill="#F5F6FA"/>
<circle cx="28.2793" cy="27.5861" r="23.913" fill="white"/>
<g clip-path="url(#clip0)">
<path d="M28.2802 3.66919C15.0741 3.66919 4.36621 14.377 4.36621 27.5832C4.36621 40.7893 15.0741 51.4992 28.2802 51.4992C41.4863 51.4992 52.1962 40.7893 52.1962 27.5832C52.1962 14.377 41.4863 3.66919 28.2802 3.66919ZM33.2586 40.7326C32.0276 41.2185 31.0478 41.587 30.3128 41.8421C29.58 42.0972 28.7276 42.2247 27.7579 42.2247C26.2678 42.2247 25.1077 41.8603 24.2817 41.1335C23.4557 40.4067 23.0447 39.4855 23.0447 38.3659C23.0447 37.9307 23.0751 37.4853 23.1358 37.0318C23.1986 36.5783 23.2978 36.0681 23.4334 35.4951L24.9741 30.0531C25.1098 29.5308 25.2272 29.0348 25.3203 28.5732C25.4134 28.1075 25.458 27.6804 25.458 27.2916C25.458 26.5992 25.3142 26.1134 25.0288 25.84C24.7393 25.5667 24.1947 25.4331 23.3828 25.4331C22.986 25.4331 22.577 25.4918 22.158 25.6153C21.7429 25.7429 21.3826 25.8583 21.087 25.9716L21.4939 24.2953C22.5021 23.8843 23.4678 23.5321 24.389 23.2405C25.3102 22.9449 26.1807 22.7992 27.0007 22.7992C28.4806 22.7992 29.6225 23.1595 30.4262 23.8722C31.2259 24.5868 31.6288 25.5161 31.6288 26.658C31.6288 26.8948 31.6005 27.3119 31.5458 27.9071C31.4911 28.5044 31.3879 29.049 31.2381 29.549L29.7055 34.9748C29.58 35.4101 29.4686 35.9081 29.3674 36.4649C29.2682 37.0216 29.2196 37.4468 29.2196 37.7323C29.2196 38.453 29.3795 38.945 29.7035 39.2061C30.0233 39.4673 30.5841 39.5989 31.3778 39.5989C31.7523 39.5989 32.1714 39.5321 32.6451 39.4025C33.1148 39.2729 33.455 39.1575 33.6696 39.0583L33.2586 40.7326ZM32.9873 18.7096C32.2726 19.3736 31.4122 19.7057 30.406 19.7057C29.4018 19.7057 28.5353 19.3736 27.8146 18.7096C27.0979 18.0455 26.7355 17.2377 26.7355 16.2943C26.7355 15.3529 27.0999 14.543 27.8146 13.8729C28.5353 13.2008 29.4018 12.8667 30.406 12.8667C31.4122 12.8667 32.2746 13.2008 32.9873 13.8729C33.7019 14.543 34.0603 15.3529 34.0603 16.2943C34.0603 17.2398 33.7019 18.0455 32.9873 18.7096Z" fill="#4880FF"/>
</g>
<defs>
<clipPath id="clip0">
<rect x="4.36621" y="3.66919" width="47.83" height="47.83" fill="white"/>
</clipPath>
</defs>
</svg>
