<svg width="74" height="58" viewBox="0 0 74 58" fill="none" xmlns="http://www.w3.org/2000/svg">
<path d="M71.1238 24.3527L61.0974 29.7447L48.4073 36.5653C47.9456 36.8132 47.424 36.9263 46.9015 36.8918L43.1314 36.6172C42.6091 36.5796 42.0869 36.6916 41.6256 36.9401L-16.6494 68.3639L-24.0193 54.5705L34.1114 23.2246C34.3792 23.0791 34.6154 22.8814 34.806 22.643C34.9966 22.4047 35.1378 22.1306 35.2213 21.8368L38.8471 10.281C38.8878 10.1252 38.9248 9.97303 38.9544 9.8246C39.0728 9.32734 39.1726 8.85977 39.2614 8.42188C39.4538 7.44221 39.5944 6.62952 39.7313 6.10258C39.736 6.07307 39.7447 6.04435 39.7572 6.01723C39.8386 5.69809 39.9274 5.50141 40.0347 5.44946C41.3814 4.78521 43.5384 6.27328 44.0267 7.93947C44.1367 8.26421 44.188 8.60601 44.1784 8.94883L43.9416 14.2999C43.9352 14.4485 43.968 14.5962 44.0369 14.7279C44.1057 14.8596 44.2081 14.9707 44.3337 15.0499C44.4592 15.129 44.6034 15.1734 44.7516 15.1786C44.8998 15.1838 45.0467 15.1495 45.1774 15.0792L51.4596 11.7097L63.6355 5.16743C63.8987 5.02432 64.188 4.93609 64.4861 4.90805C64.7842 4.88 65.0848 4.91272 65.37 5.00424C65.6551 5.09577 65.9189 5.24419 66.1453 5.4406C66.3718 5.637 66.5563 5.87732 66.6878 6.14711C66.9363 6.68515 66.9684 7.29856 66.7776 7.85977C66.5867 8.42099 66.1875 8.8868 65.663 9.16035L53.9532 15.4689C53.9041 15.4946 53.8605 15.5299 53.8251 15.5727C53.7897 15.6155 53.7632 15.6649 53.747 15.7181C53.7308 15.7713 53.7253 15.8272 53.7309 15.8825C53.7364 15.9378 53.7529 15.9915 53.7793 16.0403C53.8058 16.0903 53.8418 16.1346 53.8853 16.1706C53.9288 16.2066 53.979 16.2337 54.0329 16.2502C54.0869 16.2667 54.1436 16.2725 54.1997 16.267C54.2559 16.2616 54.3104 16.2451 54.3602 16.2185L69.6476 7.97658C69.9061 7.83769 70.1893 7.75123 70.4811 7.72212C70.7729 7.69302 71.0675 7.72185 71.3482 7.80696C71.6289 7.89208 71.8901 8.03181 72.117 8.21818C72.3438 8.40455 72.5318 8.63391 72.6703 8.89317C72.8088 9.15242 72.895 9.43649 72.924 9.72916C72.953 10.0218 72.9243 10.3174 72.8394 10.5989C72.7546 10.8804 72.6152 11.1424 72.4294 11.37C72.2436 11.5975 72.0149 11.7861 71.7565 11.925L57.5938 19.5397C57.5392 19.5622 57.4899 19.5959 57.4492 19.6387C57.4084 19.6814 57.377 19.7323 57.3571 19.788C57.3371 19.8437 57.329 19.9029 57.3333 19.962C57.3377 20.021 57.3543 20.0784 57.3821 20.1306C57.4099 20.1828 57.4484 20.2285 57.4949 20.2649C57.5415 20.3012 57.5951 20.3274 57.6524 20.3416C57.7096 20.3559 57.7692 20.3579 57.8273 20.3476C57.8854 20.3374 57.9407 20.315 57.9896 20.2819L70.7168 13.4427C70.9805 13.3015 71.2698 13.2147 71.5675 13.1874C71.8652 13.1602 72.1653 13.193 72.4501 13.2839C72.735 13.3749 72.9988 13.5222 73.226 13.7171C73.4531 13.912 73.6391 14.1505 73.7728 14.4187C74.0222 14.9576 74.0544 15.5722 73.8627 16.1344C73.6711 16.6965 73.2704 17.1627 72.7443 17.4356L58.9664 24.8574C58.9086 24.878 58.8559 24.911 58.8119 24.9539C58.768 24.9969 58.7338 25.0489 58.7118 25.1064C58.6898 25.1638 58.6804 25.2254 58.6843 25.2868C58.6883 25.3483 58.7054 25.4081 58.7346 25.4623C58.7637 25.5164 58.8042 25.5636 58.8533 25.6006C58.9023 25.6376 58.9588 25.6635 59.0188 25.6766C59.0788 25.6896 59.1408 25.6895 59.2008 25.6762C59.2607 25.6629 59.317 25.6368 59.366 25.5996L68.9335 20.4526C69.4519 20.1652 70.0611 20.09 70.6335 20.2429C71.2059 20.3958 71.6971 20.7648 72.0044 21.2727C72.1535 21.5316 72.2491 21.818 72.2855 22.1149C72.3219 22.4117 72.2983 22.7128 72.2161 23.0002C72.1339 23.2877 71.9948 23.5556 71.8072 23.788C71.6195 24.0203 71.3871 24.2124 71.1238 24.3527Z" fill="#D1AE88"/>
<path d="M-16.2205 69.1545L-24.6633 53.3646L32.4536 22.5605L40.8965 38.3541L-16.2205 69.1545Z" fill="#F9F8F7"/>
<path d="M-14.9772 71.4853L-24.9999 52.7268L28.199 24.0342L38.2217 42.789L-14.9772 71.4853Z" fill="#4880FF"/>
<path d="M31.6069 40.6366C31.3593 40.7698 31.1566 40.9736 31.0246 41.2224C30.8925 41.4711 30.8369 41.7535 30.8648 42.0339C30.8928 42.3143 31.003 42.5801 31.1815 42.7977C31.3601 43.0153 31.5989 43.1749 31.8679 43.2564C32.1368 43.3378 32.4239 43.3375 32.6926 43.2553C32.9614 43.1732 33.1998 43.013 33.3778 42.7949C33.5558 42.5769 33.6653 42.3108 33.6925 42.0303C33.7198 41.7498 33.6635 41.4676 33.5307 41.2192C33.443 41.0538 33.3235 40.9075 33.1791 40.7887C33.0347 40.6698 32.8684 40.5807 32.6896 40.5266C32.5108 40.4725 32.3231 40.4543 32.1373 40.4732C31.9515 40.492 31.7712 40.5476 31.6069 40.6366Z" fill="#4E6975"/>
<path d="M25.4281 43.9577C25.1806 44.091 24.9779 44.2948 24.8458 44.5436C24.7138 44.7923 24.6582 45.0747 24.6861 45.3551C24.7141 45.6355 24.8243 45.9013 25.0028 46.1189C25.1813 46.3365 25.4202 46.4961 25.6892 46.5776C25.9581 46.659 26.2451 46.6587 26.5139 46.5765C26.7827 46.4944 27.0211 46.3342 27.1991 46.1161C27.3771 45.8981 27.4866 45.632 27.5138 45.3515C27.541 45.071 27.4847 44.7887 27.352 44.5404C27.2639 44.3754 27.1442 44.2294 26.9998 44.1108C26.8554 43.9923 26.6891 43.9034 26.5104 43.8493C26.3318 43.7952 26.1442 43.7769 25.9585 43.7955C25.7728 43.8141 25.5926 43.8693 25.4281 43.9577Z" fill="#4E6975"/>
<g style="mix-blend-mode:multiply">
<path d="M33.8164 23.3746L41.1885 37.1705L40.4743 37.5544L33.1023 23.7585L33.8164 23.3746Z" fill="#E6E7E8"/>
</g>
<g style="mix-blend-mode:multiply">
<path d="M29.6841 24.0483L38.124 39.8427L36.9794 40.458L28.5395 24.6636L29.6841 24.0483Z" fill="#F5F6FA"/>
</g>
<path d="M39.0503 9.47935L39.276 8.42175C39.4684 7.44207 39.609 6.62939 39.7459 6.10244C39.7506 6.07294 39.7593 6.04422 39.7718 6.01709C40.0271 6.14326 40.7448 6.52548 40.5117 7.67957C40.4301 8.07521 40.2547 8.44532 40.0003 8.7586C39.7459 9.07187 39.4201 9.31909 39.0503 9.47935Z" fill="#F7E8D7"/>
<path d="M71.5122 15.5916L64.4419 24.5311L55.4959 35.8419C55.171 36.2543 54.7361 36.5657 54.2417 36.7399L50.664 37.9719C50.1691 38.1452 49.7339 38.4568 49.4098 38.87L8.34239 90.9004L-3.86683 81.1704L37.0896 29.2847C37.4647 28.8016 37.6349 28.1896 37.5631 27.5815L36.3274 15.5285C36.3015 15.3689 36.2793 15.2168 36.2497 15.0646C36.1572 14.5636 36.0647 14.0924 35.9722 13.6582C35.765 12.6785 35.569 11.877 35.4876 11.3389C35.484 11.3105 35.484 11.2819 35.4876 11.2535C35.4358 10.927 35.4395 10.708 35.5172 10.6227C36.4902 9.47231 39.0578 9.98441 40.1678 11.3166C40.3903 11.5682 40.5692 11.8554 40.6968 12.1664L42.5948 17.191C42.6473 17.3302 42.7356 17.453 42.8508 17.5469C42.966 17.6407 43.104 17.7023 43.2506 17.7253C43.3972 17.7483 43.5473 17.7319 43.6856 17.6778C43.8238 17.6237 43.9453 17.5338 44.0377 17.4173L48.4663 11.8102L57.0387 0.966948C57.2237 0.730858 57.4544 0.534738 57.7169 0.390384C57.9794 0.246029 58.2683 0.156424 58.5662 0.126958C58.8641 0.0974913 59.1649 0.128773 59.4505 0.21892C59.7361 0.309068 60.0005 0.456219 60.2279 0.651522C60.6707 1.0467 60.9442 1.59826 60.991 2.19091C61.0379 2.78357 60.8546 3.37147 60.4795 3.83175L52.2179 14.2594C52.1834 14.3035 52.1579 14.3539 52.1429 14.4079C52.1278 14.4619 52.1235 14.5183 52.1302 14.574C52.1369 14.6296 52.1545 14.6834 52.1819 14.7323C52.2093 14.7811 52.2461 14.8241 52.29 14.8587C52.334 14.8933 52.3843 14.9188 52.4382 14.9339C52.492 14.949 52.5483 14.9533 52.6037 14.9466C52.6592 14.9399 52.7128 14.9223 52.7615 14.8948C52.8102 14.8673 52.8531 14.8304 52.8876 14.7863L63.6761 1.14878C63.8583 0.918522 64.0839 0.726512 64.3401 0.583714C64.5963 0.440916 64.878 0.350126 65.1691 0.316529C65.4603 0.282931 65.7552 0.307184 66.037 0.387903C66.3188 0.468621 66.582 0.604224 66.8116 0.786969C67.0412 0.969715 67.2326 1.19602 67.375 1.45297C67.5174 1.70993 67.6079 1.99249 67.6414 2.28453C67.6749 2.57656 67.6507 2.87236 67.5702 3.15503C67.4897 3.43769 67.3545 3.70169 67.1723 3.93195L57.183 16.549C57.1242 16.6379 57.1007 16.7456 57.1171 16.851C57.1336 16.9564 57.1888 17.0518 57.2719 17.1184C57.355 17.185 57.46 17.2179 57.5661 17.2107C57.6722 17.2036 57.7718 17.1568 57.8452 17.0796L66.8209 5.74286C67.0072 5.50829 67.2384 5.31348 67.501 5.16989C67.7635 5.0263 68.052 4.93682 68.3495 4.90674C68.647 4.87666 68.9475 4.90657 69.2333 4.99472C69.5191 5.08287 69.7845 5.22747 70.0138 5.42002C70.4552 5.81621 70.7274 6.3679 70.7736 6.96027C70.8197 7.55264 70.6364 8.14005 70.2616 8.60025L60.5461 20.9018C60.5092 20.9455 60.4815 20.9961 60.4646 21.0506C60.4477 21.1052 60.4418 21.1627 60.4474 21.2195C60.453 21.2764 60.47 21.3316 60.4972 21.3818C60.5245 21.432 60.5615 21.4761 60.6062 21.5117C60.6508 21.5472 60.7021 21.5735 60.757 21.5887C60.8119 21.604 60.8693 21.6081 60.9258 21.6007C60.9823 21.5933 61.0368 21.5746 61.0859 21.5457C61.1351 21.5169 61.178 21.4783 61.212 21.4325L67.953 12.8975C68.3155 12.4277 68.8443 12.116 69.4299 12.0268C70.0154 11.9377 70.6127 12.078 71.0978 12.4188C71.3367 12.5967 71.5376 12.8211 71.6883 13.0785C71.8391 13.3359 71.9367 13.6211 71.9753 13.9171C72.014 14.2131 71.9929 14.5139 71.9133 14.8015C71.8338 15.0892 71.6973 15.3579 71.5122 15.5916Z" fill="#E8C8A1"/>
<path d="M66.5697 3.46092C66.7273 3.31578 66.8517 3.13808 66.9343 2.94006C67.0168 2.74205 67.0556 2.52844 67.0479 2.31395C67.0402 2.09946 66.9862 1.8892 66.8896 1.69766C66.7931 1.50612 66.6563 1.33787 66.4886 1.20449C66.321 1.07111 66.1265 0.975778 65.9185 0.925074C65.7106 0.874369 65.4942 0.869494 65.2842 0.910785C65.0742 0.952076 64.8757 1.03855 64.7022 1.16425C64.5288 1.28994 64.3846 1.45187 64.2795 1.63887L63.954 2.05078L66.2256 3.8654L66.5697 3.46092Z" fill="#F7E8D7"/>
<path d="M59.8724 3.34571C60.1237 3.04267 60.2489 2.65418 60.222 2.26097C60.1951 1.86775 60.0183 1.50004 59.7281 1.23421L59.6911 1.20453C59.3859 0.968702 59.001 0.86158 58.6182 0.90593C58.2355 0.95028 57.8851 1.1426 57.6415 1.44202L57.2715 1.93186L59.5394 3.76133L59.8724 3.34571Z" fill="#F7E8D7"/>
<path d="M69.6583 8.11751C69.9091 7.81568 70.034 7.42841 70.0072 7.03643C69.9803 6.64444 69.8036 6.27799 69.514 6.01344L69.4807 5.98375C69.1752 5.74679 68.7895 5.63899 68.4058 5.68336C68.0222 5.72773 67.671 5.92076 67.4273 6.22125L67.0573 6.66655L69.3512 8.49231L69.6583 8.11751Z" fill="#F7E8D7"/>
<path d="M70.9059 15.1127C71.0249 14.962 71.113 14.7892 71.1654 14.6042C71.2177 14.4192 71.2331 14.2257 71.2108 14.0348C71.1884 13.8438 71.1288 13.6591 71.0352 13.4913C70.9416 13.3235 70.8159 13.1759 70.6654 13.0569L70.6284 13.0272C70.3054 12.8054 69.9097 12.7168 69.5233 12.7796C69.1369 12.8425 68.7894 13.052 68.5528 13.3649L68.2938 13.6952L70.5803 15.5135L70.9059 15.1127Z" fill="#F7E8D7"/>
<path d="M9.0491 91.4722L-4.94341 80.3358L35.3063 29.3334L49.2988 40.4735L9.0491 91.4722Z" fill="#F9F8F7"/>
<path d="M11.1136 93.1161L-5.50574 79.8868L31.9803 32.38L48.5996 45.6056L11.1136 93.1161Z" fill="#2862E6"/>
<path d="M41.6739 46.2623C41.4994 46.4831 41.3941 46.7508 41.3713 47.0316C41.3485 47.3124 41.4091 47.5936 41.5456 47.8399C41.6821 48.0861 41.8883 48.2862 42.1382 48.4149C42.388 48.5436 42.6703 48.5952 42.9494 48.563C43.2284 48.5309 43.4917 48.4165 43.7059 48.2344C43.9202 48.0522 44.0758 47.8104 44.1531 47.5396C44.2304 47.2687 44.226 46.981 44.1403 46.7127C44.0546 46.4444 43.8916 46.2076 43.6717 46.0322C43.3762 45.7976 42.9999 45.6901 42.6254 45.7332C42.2509 45.7763 41.9088 45.9666 41.6739 46.2623Z" fill="#4880FF"/>
<path d="M37.3155 51.7695C37.141 51.9903 37.0357 52.258 37.0129 52.5388C36.9901 52.8196 37.0507 53.1009 37.1872 53.3471C37.3237 53.5933 37.5299 53.7934 37.7798 53.9221C38.0296 54.0508 38.3119 54.1024 38.591 54.0703C38.87 54.0381 39.1333 53.9238 39.3476 53.7416C39.5618 53.5594 39.7174 53.3176 39.7947 53.0468C39.872 52.776 39.8676 52.4882 39.7819 52.2199C39.6962 51.9516 39.5332 51.7148 39.3134 51.5394C39.1672 51.4228 38.9995 51.3362 38.8199 51.2847C38.6404 51.2331 38.4524 51.2175 38.2668 51.2389C38.0813 51.2603 37.9017 51.3181 37.7385 51.4092C37.5752 51.5002 37.4315 51.6227 37.3155 51.7695Z" fill="#4880FF"/>
<g style="mix-blend-mode:multiply">
<path d="M36.8754 29.5419L49.0986 39.2729L48.5949 39.9095L36.3717 30.1784L36.8754 29.5419Z" fill="#E6E7E8"/>
</g>
<g style="mix-blend-mode:multiply">
<path d="M33.348 31.8002L47.3418 42.9409L46.5345 43.9611L32.5406 32.8204L33.348 31.8002Z" fill="#F5F6FA"/>
</g>
<path d="M36.187 14.7007L35.9724 13.6431C35.7653 12.6634 35.5692 11.8618 35.4878 11.3238C35.4842 11.2954 35.4842 11.2667 35.4878 11.2384C35.7727 11.2384 36.5977 11.3163 36.816 12.4704C36.8968 12.8655 36.8818 13.2743 36.7723 13.6624C36.6629 14.0505 36.4622 14.4065 36.187 14.7007Z" fill="#F7E8D7"/>
</svg>
