<svg width="55" height="55" viewBox="0 0 55 55" fill="none" xmlns="http://www.w3.org/2000/svg">
<circle cx="27.5" cy="27.5" r="27.5" fill="#F5F6FA"/>
<circle cx="27.5" cy="27.5" r="23.913" fill="#33C093"/>
<g clip-path="url(#clip0)">
<path d="M38.9322 17.5524C37.8532 16.9966 36.6496 18.0685 35.944 18.7037C34.3255 20.2122 32.9559 21.9589 31.4202 23.5469C29.7186 25.2936 28.1415 27.0404 26.3984 28.7475C25.4023 29.7002 24.3232 30.7324 23.6592 31.9233C22.1651 30.5338 20.8785 29.0253 19.2183 27.7947C18.0148 26.9213 16.0226 26.2861 16.0641 28.3902C16.1471 31.1294 18.6788 34.0671 20.5464 35.9329C21.335 36.7268 22.3726 37.5605 23.5762 37.6002C25.0288 37.6796 26.5229 36.0123 27.3944 35.0992C28.9301 33.5113 30.1752 31.7248 31.5862 30.0972C33.4124 27.9535 35.28 25.8494 37.0646 23.666C38.1852 22.3162 41.7129 18.9815 38.9322 17.5524ZM17.8902 28.2314C17.8487 28.2314 17.8072 28.2314 17.7242 28.271C17.5582 28.2314 17.4336 28.1916 17.2676 28.1122C17.3921 28.0328 17.5997 28.0725 17.8902 28.2314Z" fill="white"/>
</g>
<defs>
<clipPath id="clip0">
<rect x="16.0635" y="16.0637" width="23.913" height="22.8733" fill="white"/>
</clipPath>
</defs>
</svg>
