<svg width="55" height="56" viewBox="0 0 55 56" fill="none" xmlns="http://www.w3.org/2000/svg">
<circle cx="27.5" cy="28.4421" r="27.5" fill="#F5F6FA"/>
<circle cx="27.5" cy="28.4421" r="23.913" fill="url(#paint0_linear)"/>
<g clip-path="url(#clip0)">
<path d="M27.0227 19.9443C22.7766 19.9443 19.3076 23.4133 19.3076 27.6594C19.3076 29.8796 20.2789 32.0165 21.9163 33.4596C23.1374 34.6807 23.0264 37.2894 22.9986 37.3171C22.9986 37.4559 23.0264 37.5669 23.1374 37.6779C23.2207 37.7612 23.3594 37.8167 23.4704 37.8167H30.5472C30.686 37.8167 30.797 37.7612 30.8802 37.6779C30.9635 37.5947 31.019 37.4559 31.019 37.3171C31.019 37.2894 30.8802 34.6807 32.1013 33.4596C32.1291 33.4318 32.1568 33.4041 32.1846 33.3763C33.7942 31.9055 34.7378 29.8241 34.7378 27.6594C34.7378 23.4133 31.2688 19.9443 27.0227 19.9443ZM31.463 32.738C31.4353 32.7658 31.3798 32.8213 31.3798 32.8491C30.2974 34.0146 30.1032 35.9295 30.0754 36.8454H23.9422C23.9145 35.9295 23.7202 33.9314 22.5546 32.738C21.0838 31.4614 20.2234 29.6021 20.2234 27.6317C20.2234 23.8851 23.2484 20.8602 26.9949 20.8602C30.7415 20.8602 33.7665 23.8851 33.7665 27.6317C33.7665 29.6021 32.9339 31.4614 31.463 32.738Z" fill="white"/>
<path d="M26.9942 21.9146C26.7445 21.9146 26.5225 22.1366 26.5225 22.3863C26.5225 22.6361 26.7445 22.8581 26.9942 22.8581C29.7972 22.8581 32.0451 25.1338 32.0451 27.909C32.0451 28.1588 32.2671 28.3808 32.5169 28.3808C32.7667 28.3808 32.9887 28.1588 32.9887 27.909C33.0164 24.6065 30.3245 21.9146 26.9942 21.9146Z" fill="white"/>
<path d="M30.0756 38.344H23.9146C23.2763 38.344 22.749 38.8713 22.749 39.5096C22.749 40.1479 23.2763 40.6752 23.9146 40.6752H30.0478C30.7139 40.6474 31.2412 40.1479 31.2412 39.5096C31.2412 38.8713 30.7139 38.344 30.0756 38.344ZM30.0756 39.7038H23.9146C23.8036 39.7038 23.6926 39.6206 23.6926 39.4818C23.6926 39.3431 23.7758 39.2598 23.9146 39.2598H30.0478C30.1588 39.2598 30.2698 39.3431 30.2698 39.4818C30.2698 39.6206 30.1866 39.7038 30.0756 39.7038Z" fill="white"/>
<path d="M29.1599 41.1467H24.8306C24.1923 41.1467 23.665 41.674 23.665 42.3123C23.665 42.9506 24.1923 43.4779 24.8306 43.4779H29.1599C29.7982 43.4779 30.3255 42.9506 30.3255 42.3123C30.3255 41.6463 29.7982 41.1467 29.1599 41.1467ZM29.1599 42.5066H24.8306C24.7196 42.5066 24.6086 42.4233 24.6086 42.2846C24.6086 42.1458 24.6919 42.0625 24.8306 42.0625H29.1599C29.271 42.0625 29.382 42.1458 29.382 42.2846C29.382 42.4233 29.271 42.5066 29.1599 42.5066Z" fill="white"/>
<path d="M26.9942 17.6408C27.2718 17.6408 27.466 17.4188 27.466 17.1691V13.9498C27.466 13.7 27.244 13.478 26.9942 13.478C26.7445 13.478 26.5225 13.7 26.5225 13.9498V17.1691C26.5225 17.4188 26.7445 17.6408 26.9942 17.6408Z" fill="white"/>
<path d="M34.8491 15.8647C34.6271 15.6982 34.3496 15.7814 34.2108 15.9757L32.4347 18.6399C32.2682 18.8619 32.3237 19.1672 32.5457 19.3059C32.629 19.3614 32.7122 19.3892 32.7955 19.3892C32.962 19.3892 33.1008 19.3059 33.184 19.1672L34.9602 16.503C35.1267 16.3087 35.0712 16.0034 34.8491 15.8647Z" fill="white"/>
<path d="M21.361 19.2782C21.4443 19.2782 21.5275 19.2505 21.6108 19.195C21.8328 19.0562 21.8883 18.7509 21.7495 18.5289L20.0289 15.837C19.8901 15.615 19.5849 15.5594 19.3628 15.6982C19.1408 15.837 19.0853 16.1422 19.2241 16.3643L20.9447 19.0562C21.0557 19.2227 21.1945 19.2782 21.361 19.2782Z" fill="white"/>
<path d="M18.0032 22.2199L15.2003 20.6935C14.9782 20.5825 14.673 20.6657 14.562 20.8878C14.4232 21.1098 14.5065 21.415 14.7562 21.5261L17.5592 23.0524C17.6424 23.0802 17.6979 23.1079 17.7812 23.1079C17.9477 23.1079 18.1142 23.0247 18.1975 22.8582C18.3085 22.6361 18.2252 22.3309 18.0032 22.2199Z" fill="white"/>
<path d="M39.4554 20.8878C39.3444 20.6657 39.0391 20.5825 38.8171 20.6935L35.9864 22.2199C35.7644 22.3309 35.6811 22.6361 35.7921 22.8582C35.8754 23.0247 36.0419 23.1079 36.2084 23.1079C36.2917 23.1079 36.3749 23.0802 36.4304 23.0524L39.2611 21.5261C39.4831 21.415 39.5664 21.1098 39.4554 20.8878Z" fill="white"/>
</g>
<defs>
<linearGradient id="paint0_linear" x1="3.58691" y1="5.58123" x2="55.6815" y2="10.9519" gradientUnits="userSpaceOnUse">
<stop stop-color="#4880FF"/>
<stop offset="1" stop-color="#6694FE"/>
</linearGradient>
<clipPath id="clip0">
<rect x="12" y="13.478" width="30" height="30" fill="white"/>
</clipPath>
</defs>
</svg>
