<svg width="40" height="90" viewBox="0 0 40 90" fill="none" xmlns="http://www.w3.org/2000/svg">
<path d="M18.7671 90C16.9863 90 15.2254 89.4474 13.8476 88.3218C10.401 85.5068 10.5373 80.6076 11.8804 76.3465C12.7491 73.5925 15.1466 72.1387 18.1313 72.0518C20.4138 71.9849 22.6979 71.9828 24.9834 72.0455C28.8699 72.1457 31.8185 75.0877 31.9754 78.9525C32.0042 79.6538 31.9998 80.3551 31.9998 81.0564C31.9998 85.5952 31.0825 87.5861 27.7662 89.2174C26.6943 89.7379 25.5067 90.0058 24.3033 89.9986L18.7671 90Z" fill="#F5F6FA"/>
<path d="M2.36915 25.484C1.26301 22.016 0.149008 18.5029 0.0127072 14.8896C-0.123594 11.2763 0.825272 7.49259 3.40801 4.77817C7.71111 0.257919 15.0722 -0.135392 21.5815 0.0293622C27.086 0.169081 33.1959 0.727147 36.8516 4.53104C41.0455 8.89219 40.2032 15.5421 39.1067 21.2908L31.6101 60.5904C31.1069 63.2257 30.4463 66.1113 28.1493 67.7403C25.4303 69.6689 19.0294 69.3006 16.3977 67.1976C13.441 64.8345 12.7875 58.149 11.7023 54.7433C8.59066 44.9904 5.47961 35.2373 2.36915 25.484Z" fill="#F5F6FA"/>
<path d="M7.71763 31.836C6.91568 29.2727 6.10803 26.676 6.00921 24.0053C5.91039 21.3347 6.59832 18.538 8.4708 16.5317C11.5906 13.1906 16.9274 12.8999 21.6466 13.0217C25.6373 13.125 30.0671 13.5375 32.7174 16.349C35.758 19.5725 35.1473 24.4877 34.3524 28.7367L28.9173 57.7842C28.5525 59.732 28.0736 61.8649 26.4082 63.0689C24.4369 64.4944 19.7963 64.2222 17.8883 62.6678C15.7447 60.9211 15.2709 55.9797 14.4842 53.4624C12.2282 46.2538 9.97272 39.045 7.71763 31.836Z" fill="#FF855F"/>
<path d="M19.8082 87C18.7058 87 17.6157 86.6623 16.7628 85.9744C14.6292 84.2542 14.7136 81.2602 15.545 78.6562C16.0828 76.9732 17.5669 76.0848 19.4146 76.0316C20.8276 75.9908 22.2415 75.9895 23.6564 76.0278C26.0623 76.0891 27.8876 77.8869 27.9848 80.2488C28.0026 80.6773 27.9998 81.1059 27.9998 81.5345C27.9998 84.3082 27.432 85.5249 25.3791 86.5217C24.7155 86.8398 23.9803 87.0036 23.2354 86.9991L19.8082 87Z" fill="#FF855F"/>
</svg>
