<svg width="56" height="56" viewBox="0 0 56 56" fill="none" xmlns="http://www.w3.org/2000/svg">
<circle cx="28.2793" cy="27.6582" r="27.5" fill="#F5F6FA"/>
<circle cx="28.2793" cy="27.6582" r="23.913" fill="#4880FF"/>
<g clip-path="url(#clip0)">
<path d="M37.4506 36.4654C37.2079 36.4654 37.0112 36.6622 37.0112 36.9049V41.0365C37.0112 41.1703 36.9023 41.2792 36.7685 41.2792H34.4062V32.6251C34.4062 32.3824 34.2094 32.1856 33.9667 32.1856C33.724 32.1856 33.5273 32.3824 33.5273 32.6251V41.2792H28.7704L30.1498 39.7617C30.3005 39.5958 30.3716 39.3596 30.3399 39.1296C30.3393 39.1252 30.3386 39.1207 30.3379 39.1163L29.024 31.3545L29.378 30.8217C29.5737 30.9606 29.7244 31.0945 30.0071 31.0945C30.2947 31.0945 30.5636 30.9335 30.6959 30.6686V30.6685L32.0817 27.8912L35.2385 29.1137C35.3527 29.1627 37.011 29.9095 37.011 31.8816V34.854C37.011 35.0967 37.2077 35.2935 37.4505 35.2935C37.6932 35.2935 37.8899 35.0967 37.8899 34.854V31.8816C37.8899 29.2833 35.6652 28.3388 35.5705 28.2998C35.5678 28.2987 35.5649 28.2976 35.5621 28.2965L30.3081 26.2618V25.0296C31.1426 24.3806 31.7213 23.4185 31.8665 22.3209C32.2826 22.2916 32.6687 22.1362 32.9839 21.8651C33.3957 21.5111 33.6319 20.9957 33.6319 20.4515C33.6319 19.9999 33.469 19.5686 33.1786 19.2326V17.6047C33.1785 14.6015 30.7353 12.1582 27.7321 12.1582C24.729 12.1582 22.2857 14.6015 22.2857 17.6047V19.2752C21.9922 19.6079 21.8326 20.0173 21.8326 20.4514C21.8326 20.9958 22.0687 21.5111 22.4806 21.8653C22.7957 22.1363 23.1815 22.2915 23.5975 22.3208C23.7439 23.439 24.3394 24.4369 25.2449 25.0946V26.2618L19.9966 28.2964C19.9939 28.2975 19.9911 28.2986 19.9884 28.2997C19.8936 28.3387 17.6689 29.2832 17.6689 31.8814V41.0364C17.6689 41.6549 18.1721 42.158 18.7905 42.158H22.9775C23.2202 42.158 23.4169 41.9613 23.4169 41.7186C23.4169 41.4759 23.2202 41.2791 22.9775 41.2791H22.032V32.6251C22.032 32.3824 21.8352 32.1856 21.5925 32.1856C21.3498 32.1856 21.153 32.3824 21.153 32.6251V41.2792H18.7906C18.6568 41.2792 18.548 41.1704 18.548 41.0366V31.8815C18.548 29.9029 20.2175 29.1577 20.32 29.1139L23.4744 27.891L24.8602 30.6685C24.9928 30.9341 25.2621 31.0945 25.549 31.0945C25.8304 31.0945 25.9796 30.9627 26.1782 30.8217L26.5322 31.3545L25.2185 39.1163C25.2177 39.1207 25.2171 39.1251 25.2164 39.1296C25.1846 39.3595 25.2557 39.5958 25.4065 39.7617L26.786 41.2793H25.0284C24.7857 41.2793 24.589 41.4761 24.589 41.7188C24.589 41.9614 24.7857 42.1582 25.0284 42.1582H36.7686C37.387 42.1582 37.8902 41.655 37.8902 41.0366V36.9049C37.8901 36.6622 37.6933 36.4654 37.4506 36.4654ZM31.2585 27.5724L29.9665 30.1617C29.9344 30.1389 29.2498 29.6524 28.4128 29.0581C28.776 28.6098 28.3511 29.1342 30.0086 27.0884L31.2585 27.5724ZM28.6609 30.3125L28.3259 30.8168H27.23L26.8949 30.3125L27.7779 29.6854L28.6609 30.3125ZM26.1238 26.4036V25.5812C26.6577 25.7964 27.2283 25.8962 27.7855 25.8962C28.3617 25.8962 28.9267 25.7733 29.4292 25.5536V26.4071L27.7779 28.4453L26.1238 26.4036ZM32.753 20.4515C32.7529 20.7394 32.6282 21.0118 32.4108 21.1988C32.2671 21.3224 32.0935 21.4014 31.9034 21.4324V19.4708C32.4084 19.5529 32.753 19.9718 32.753 20.4515ZM23.5611 21.4324C23.0503 21.3495 22.7115 20.9271 22.7115 20.4514C22.7115 19.9816 23.101 19.5993 23.5611 19.4929V21.4324ZM23.5847 18.5974C23.4448 18.6135 23.2843 18.6514 23.1647 18.6921V17.6047C23.1647 15.0861 25.2137 13.0372 27.7322 13.0372C30.2507 13.0372 32.2996 15.0861 32.2996 17.6047V18.6619C32.1719 18.623 32.0394 18.5974 31.9034 18.5853C31.9034 18.1613 31.9071 18.243 30.5199 16.7517C30.2648 16.4776 29.8428 16.4201 29.5216 16.63C27.9906 17.6301 26.1229 18.1325 24.3997 18.0088C24.0217 17.9805 23.6774 18.2295 23.5847 18.5974ZM24.4401 21.7784V19.0366V18.8922C26.3371 19.0033 28.3259 18.4397 29.9326 17.4108C30.5688 18.0939 30.9134 18.4522 31.0245 18.5885C31.0245 18.9332 31.0245 21.3837 31.0245 21.7783C31.0245 23.5623 29.5698 25.0171 27.7856 25.0171C25.782 25.0172 24.4401 23.4629 24.4401 21.7784ZM25.5894 30.1617L24.2975 27.5724L25.5451 27.0892L27.1413 29.0594C26.3296 29.6358 25.6631 30.1093 25.5894 30.1617ZM26.0936 39.2111L27.3656 31.6956H28.1901L29.4621 39.2111L27.7779 41.064L26.0936 39.2111Z" fill="white"/>
</g>
<defs>
<clipPath id="clip0">
<rect x="12.7793" y="12.1582" width="30" height="30" fill="white"/>
</clipPath>
</defs>
</svg>
