<svg width="83" height="80" viewBox="0 0 83 80" fill="none" xmlns="http://www.w3.org/2000/svg">
<path d="M59.2804 38.6147L81.9461 79.5254L49.2051 49.643L59.2804 38.6147Z" fill="#FF855F"/>
<path d="M39.0596 60.7642L49.2052 49.6422L81.9462 79.5246L82.0399 79.6886L39.0596 60.7642Z" fill="#E95B2F"/>
<path d="M51.4462 38.5594L39.3167 5.92774C39.2344 5.64524 39.2628 5.34197 39.3963 5.07975C39.5298 4.81752 39.7583 4.61607 40.0352 4.51647C40.3121 4.41687 40.6165 4.42662 40.8865 4.54372C41.1564 4.66083 41.3715 4.87647 41.488 5.1467C41.4846 5.17262 41.4846 5.19888 41.488 5.2248L51.4462 38.5594Z" fill="#4880FF"/>
<path d="M45.5811 46.3389L28.4452 29.6794C28.2437 29.4623 28.1334 29.1761 28.1368 28.8799C28.1402 28.5838 28.2572 28.3002 28.4636 28.0878C28.67 27.8754 28.9501 27.7503 29.2461 27.7384C29.542 27.7264 29.8312 27.8285 30.0541 28.0237L30.1322 28.1096L45.5811 46.3389Z" fill="#FFC501"/>
<path d="M40.7775 50.2516L0.827588 38.5361C0.53448 38.4501 0.287527 38.2512 0.141054 37.9832C-0.00541836 37.7151 -0.0394114 37.3999 0.0465531 37.1068C0.132518 36.8137 0.331398 36.5667 0.599442 36.4202C0.867487 36.2738 1.18274 36.2398 1.47585 36.3257H1.53833L40.7775 50.2516Z" fill="#FF855F"/>
<path d="M37.1144 55.6953L25.9144 57.0153C25.7605 57.0327 25.6047 57.0197 25.4559 56.9769C25.3071 56.9341 25.1682 56.8625 25.0471 56.766C24.9259 56.6696 24.825 56.5502 24.75 56.4147C24.675 56.2793 24.6275 56.1303 24.61 55.9765C24.5926 55.8226 24.6056 55.6669 24.6484 55.5181C24.6912 55.3692 24.7628 55.2303 24.8593 55.1092C24.9558 54.9881 25.0751 54.8871 25.2106 54.8122C25.3461 54.7372 25.495 54.6896 25.6488 54.6722C25.7265 54.6604 25.8055 54.6604 25.8831 54.6722L37.1144 55.6953Z" fill="#33C093"/>
<path d="M57.0156 34.4824L60.3741 18.5571C60.4383 18.2567 60.6192 17.9942 60.877 17.8272C61.1348 17.6602 61.4483 17.6025 61.7487 17.6667C62.0491 17.7309 62.3116 17.9118 62.4786 18.1696C62.6456 18.4274 62.7033 18.741 62.6391 19.0413L62.5922 19.1975L57.0156 34.4824Z" fill="#FFC501"/>
<path d="M27.7188 12.9498L30.0775 14.3088L30.304 17.0268L32.3269 15.1992L34.9746 15.824L33.8655 13.3325L35.2792 11.005L32.569 11.3018L30.796 9.23206L30.2337 11.8954L27.7188 12.9498Z" fill="#FFC501"/>
<path d="M6.81811 51.806L8.33332 51.0249L9.84071 51.8216L9.55954 50.1424L10.7936 48.9552L9.10654 48.6975L8.35675 47.1588L7.59133 48.6896L5.9043 48.9161L7.1149 50.1267L6.81811 51.806Z" fill="#4880FF"/>
<path d="M49.3691 4.03014L51.4623 4.10824L52.587 5.87338L53.3056 3.90517L55.3362 3.38969L53.6883 2.08536L53.8132 0L52.0793 1.17155L50.1267 0.398328L50.7047 2.4134L49.3691 4.03014Z" fill="#33C093"/>
<path d="M30.8894 43.1208L32.4124 42.3398L33.9198 43.1442L33.6386 41.4572L34.8727 40.27L33.1856 40.0201L32.4358 38.4736L31.6782 40.0045L29.9834 40.2388L31.194 41.4416L30.8894 43.1208Z" fill="#6C7185"/>
<path d="M17.9635 38.2705C18.3349 38.6104 18.7987 38.8325 19.2962 38.9089C19.7938 38.9853 20.3028 38.9125 20.759 38.6997C21.2152 38.4869 21.5981 38.1436 21.8593 37.7133C22.1205 37.2829 22.2482 36.7848 22.2264 36.2819C22.2046 35.779 22.0342 35.2938 21.7367 34.8877C21.4392 34.4816 21.0281 34.1728 20.5551 34.0002C20.0822 33.8277 19.5688 33.7993 19.0797 33.9185C18.5906 34.0377 18.1479 34.2992 17.8073 34.6699C17.352 35.1688 17.1128 35.8277 17.1421 36.5025C17.1713 37.1772 17.4667 37.813 17.9635 38.2705Z" fill="#4880FF"/>
<path d="M51.0949 13.3714C51.3629 13.6163 51.6975 13.7762 52.0564 13.8308C52.4152 13.8855 52.7823 13.8325 53.111 13.6786C53.4398 13.5247 53.7155 13.2768 53.9034 12.9661C54.0912 12.6555 54.1828 12.2961 54.1664 11.9335C54.15 11.5709 54.0264 11.2212 53.8113 10.9288C53.5962 10.6364 53.2993 10.4143 52.958 10.2906C52.6166 10.167 52.2463 10.1474 51.8939 10.2342C51.5414 10.321 51.2226 10.5104 50.9777 10.7784C50.8142 10.9559 50.6874 11.164 50.6047 11.3907C50.5221 11.6174 50.4851 11.8583 50.496 12.0993C50.5069 12.3404 50.5654 12.5769 50.6682 12.7953C50.771 13.0136 50.916 13.2094 51.0949 13.3714Z" fill="#FF855F"/>
<path d="M48.1424 43.5267C48.4104 43.7716 48.745 43.9314 49.1039 43.9861C49.4628 44.0408 49.8298 43.9878 50.1586 43.8339C50.4873 43.68 50.7631 43.432 50.9509 43.1214C51.1388 42.8108 51.2303 42.4514 51.2139 42.0888C51.1975 41.7261 51.074 41.3765 50.8589 41.0841C50.6438 40.7916 50.3468 40.5696 50.0055 40.4459C49.6642 40.3223 49.2939 40.3026 48.9414 40.3894C48.5889 40.4763 48.2701 40.6657 48.0252 40.9337C47.6969 41.2931 47.5248 41.7682 47.5468 42.2545C47.5688 42.7407 47.783 43.1984 48.1424 43.5267Z" fill="#FF855F"/>
<path d="M17.5031 54.7977C17.7719 55.0417 18.107 55.2005 18.466 55.254C18.825 55.3076 19.1918 55.2535 19.5201 55.0986C19.8484 54.9437 20.1234 54.6949 20.3103 54.3837C20.4971 54.0725 20.5876 53.7129 20.5701 53.3504C20.5526 52.9878 20.428 52.6385 20.2121 52.3468C19.9961 52.055 19.6985 51.8338 19.3569 51.7112C19.0152 51.5885 18.6449 51.57 18.2927 51.6578C17.9405 51.7457 17.6222 51.9359 17.3782 52.2046C17.2161 52.3831 17.0907 52.5917 17.0093 52.8186C16.9278 53.0455 16.8919 53.2863 16.9035 53.5271C16.9151 53.7678 16.974 54.004 17.0769 54.222C17.1798 54.44 17.3246 54.6357 17.5031 54.7977Z" fill="#FFC501"/>
<path d="M63.0682 34.4591C63.3365 34.7029 63.6711 34.8617 64.0296 34.9155C64.3881 34.9694 64.7546 34.9158 65.0827 34.7617C65.4108 34.6075 65.686 34.3596 65.8734 34.0493C66.0608 33.7389 66.1521 33.38 66.1358 33.0179C66.1195 32.6557 65.9963 32.3064 65.7817 32.0142C65.5672 31.722 65.2709 31.4998 64.9302 31.3758C64.5895 31.2517 64.2198 31.2314 63.8675 31.3172C63.5153 31.4031 63.1964 31.5914 62.951 31.8583C62.7873 32.0364 62.6603 32.2451 62.5776 32.4725C62.4948 32.6998 62.4578 32.9413 62.4687 33.183C62.4795 33.4248 62.5381 33.6619 62.641 33.8809C62.7439 34.0999 62.8891 34.2964 63.0682 34.4591Z" fill="#9FB603"/>
<path d="M19.0887 22.0489C19.3559 22.2946 19.69 22.4556 20.0488 22.5114C20.4075 22.5672 20.7747 22.5153 21.104 22.3624C21.4332 22.2095 21.7097 21.9624 21.8985 21.6523C22.0874 21.3422 22.18 20.9831 22.1647 20.6204C22.1494 20.2577 22.0269 19.9077 21.8126 19.6146C21.5984 19.3215 21.302 19.0985 20.9611 18.9739C20.6201 18.8492 20.2498 18.8285 19.8971 18.9143C19.5443 19.0001 19.2249 19.1886 18.9793 19.4559C18.8153 19.6329 18.688 19.8406 18.6046 20.067C18.5213 20.2934 18.4836 20.5341 18.4938 20.7752C18.504 21.0163 18.5618 21.2529 18.6639 21.4716C18.766 21.6902 18.9103 21.8864 19.0887 22.0489Z" fill="#33C093"/>
<path d="M62.5837 44.5739L64.1223 47.3465L50.751 47.9557L53.4534 44.9956L62.5837 44.5739Z" fill="#F5F6FA"/>
<path d="M39.6922 61.0457L39.0596 60.7645L41.4652 58.1246L69.3872 56.8516L70.918 59.6242L39.6922 61.0457Z" fill="#F5F6FA"/>
<path d="M44.7529 54.5243L47.4553 51.5564L65.9893 50.7207L67.5201 53.4856L44.7529 54.5243Z" fill="#F5F6FA"/>
<path d="M65.599 72.4565L59.749 69.8791L76.182 69.1293L77.7206 71.8941L65.599 72.4565Z" fill="#F5F6FA"/>
<path d="M52.641 66.7475L46.7988 64.1701L72.7839 62.9907L74.3225 65.7634L52.641 66.7475Z" fill="#F5F6FA"/>
</svg>
