<svg width="80" height="83" viewBox="0 0 80 83" fill="none" xmlns="http://www.w3.org/2000/svg">
<path d="M41.0742 60.1045L0.163607 82.7702L30.046 50.0292L41.0742 60.1045Z" fill="#FF855F"/>
<path d="M18.924 39.8834L30.0459 50.0291L0.163502 82.77L-0.000514956 82.8638L18.924 39.8834Z" fill="#E95B2F"/>
<path d="M41.1291 52.2707L73.7607 40.1412C74.0432 40.0588 74.3465 40.0873 74.6087 40.2208C74.871 40.3543 75.0724 40.5828 75.172 40.8596C75.2716 41.1365 75.2619 41.441 75.1448 41.7109C75.0277 41.9809 74.812 42.196 74.5418 42.3125C74.5159 42.309 74.4896 42.309 74.4637 42.3125L41.1291 52.2707Z" fill="#4880FF"/>
<path d="M33.3497 46.405L50.0092 29.2691C50.2263 29.0677 50.5125 28.9573 50.8087 28.9608C51.1048 28.9642 51.3884 29.0812 51.6008 29.2876C51.8132 29.494 51.9383 29.7741 51.9502 30.07C51.9622 30.366 51.86 30.6552 51.6649 30.8781L51.579 30.9562L33.3497 46.405Z" fill="#FFC501"/>
<path d="M29.4368 41.6017L41.1523 1.65181C41.2383 1.3587 41.4371 1.11175 41.7052 0.965273C41.9732 0.8188 42.2885 0.784807 42.5816 0.870772C42.8747 0.956736 43.1217 1.15562 43.2681 1.42366C43.4146 1.69171 43.4486 2.00696 43.3626 2.30007L43.3626 2.36255L29.4368 41.6017Z" fill="#FF855F"/>
<path d="M23.9934 37.9386L22.6734 26.7386C22.656 26.5847 22.6691 26.429 22.7118 26.2801C22.7546 26.1313 22.8262 25.9924 22.9227 25.8713C23.0192 25.7502 23.1385 25.6492 23.274 25.5742C23.4095 25.4993 23.5584 25.4517 23.7122 25.4343C23.8661 25.4168 24.0219 25.4299 24.1707 25.4726C24.3195 25.5154 24.4584 25.5871 24.5795 25.6835C24.7006 25.78 24.8016 25.8993 24.8766 26.0348C24.9515 26.1703 24.9991 26.3192 25.0166 26.473C25.0283 26.5507 25.0283 26.6297 25.0166 26.7073L23.9934 37.9386Z" fill="#33C093"/>
<path d="M45.2056 57.8395L61.1309 61.1979C61.4313 61.2621 61.6938 61.443 61.8608 61.7008C62.0278 61.9586 62.0855 62.2722 62.0213 62.5725C61.9571 62.8729 61.7762 63.1355 61.5184 63.3024C61.2606 63.4694 60.947 63.5271 60.6467 63.4629L60.4904 63.4161L45.2056 57.8395Z" fill="#FFC501"/>
<path d="M66.7383 28.5428L65.3793 30.9016L62.6613 31.1281L64.4889 33.151L63.8641 35.7987L66.3556 34.6896L68.6831 36.1033L68.3863 33.3931L70.4561 31.6201L67.7927 31.0578L66.7383 28.5428Z" fill="#FFC501"/>
<path d="M27.8821 7.64233L28.6632 9.15753L27.8665 10.6649L29.5457 10.3838L30.7329 11.6178L30.9907 9.93076L32.5293 9.18097L30.9985 8.41555L30.772 6.72852L29.5614 7.93912L27.8821 7.64233Z" fill="#4880FF"/>
<path d="M75.6583 50.1931L75.5802 52.2863L73.8151 53.411L75.7833 54.1295L76.2988 56.1602L77.6031 54.5122L79.6885 54.6372L78.5169 52.9033L79.2901 50.9507L77.2751 51.5287L75.6583 50.1931Z" fill="#33C093"/>
<path d="M36.5677 31.7139L37.3487 33.2369L36.5443 34.7443L38.2313 34.4631L39.4185 35.6971L39.6684 34.0101L41.2148 33.2603L39.684 32.5027L39.4497 30.8079L38.2469 32.0185L36.5677 31.7139Z" fill="#6C7185"/>
<path d="M41.4183 18.7876C41.0785 19.159 40.8563 19.6227 40.7799 20.1203C40.7035 20.6179 40.7763 21.1269 40.9892 21.5831C41.202 22.0393 41.5452 22.4222 41.9756 22.6834C42.4059 22.9446 42.904 23.0723 43.407 23.0505C43.9099 23.0287 44.3951 22.8583 44.8012 22.5608C45.2073 22.2633 45.5161 21.8522 45.6886 21.3792C45.8611 20.9063 45.8896 20.3929 45.7704 19.9038C45.6512 19.4147 45.3897 18.972 45.0189 18.6314C44.5201 18.1761 43.8612 17.9369 43.1864 17.9661C42.5116 17.9954 41.8759 18.2908 41.4183 18.7876Z" fill="#4880FF"/>
<path d="M66.3173 51.9192C66.0724 52.1872 65.9126 52.5218 65.8579 52.8807C65.8032 53.2396 65.8562 53.6066 66.0101 53.9354C66.164 54.2641 66.412 54.5399 66.7226 54.7277C67.0332 54.9156 67.3926 55.0071 67.7552 54.9907C68.1179 54.9743 68.4675 54.8508 68.7599 54.6357C69.0524 54.4206 69.2744 54.1236 69.3981 53.7823C69.5217 53.441 69.5414 53.0707 69.4545 52.7182C69.3677 52.3657 69.1783 52.0469 68.9103 51.802C68.7328 51.6385 68.5248 51.5118 68.298 51.4291C68.0713 51.3464 67.8305 51.3095 67.5894 51.3203C67.3483 51.3312 67.1118 51.3898 66.8934 51.4925C66.6751 51.5953 66.4793 51.7403 66.3173 51.9192Z" fill="#FF855F"/>
<path d="M36.162 48.9669C35.9172 49.2349 35.7573 49.5695 35.7026 49.9284C35.6479 50.2872 35.7009 50.6543 35.8548 50.983C36.0087 51.3118 36.2567 51.5875 36.5673 51.7754C36.8779 51.9632 37.2373 52.0548 37.5999 52.0384C37.9626 52.022 38.3122 51.8984 38.6047 51.6833C38.8971 51.4682 39.1192 51.1713 39.2428 50.83C39.3664 50.4886 39.3861 50.1183 39.2993 49.7659C39.2125 49.4134 39.0231 49.0946 38.755 48.8497C38.3957 48.5214 37.9206 48.3493 37.4343 48.3713C36.948 48.3932 36.4903 48.6075 36.162 48.9669Z" fill="#FF855F"/>
<path d="M24.8905 18.3268C24.6466 18.5956 24.4877 18.9307 24.4342 19.2897C24.3806 19.6487 24.4347 20.0156 24.5896 20.3438C24.7446 20.6721 24.9933 20.9471 25.3045 21.134C25.6157 21.3209 25.9753 21.4113 26.3379 21.3938C26.7005 21.3764 27.0497 21.2518 27.3415 21.0358C27.6332 20.8199 27.8544 20.5222 27.9771 20.1806C28.0997 19.8389 28.1182 19.4686 28.0304 19.1164C27.9426 18.7642 27.7523 18.4459 27.4836 18.2019C27.3051 18.0398 27.0965 17.9145 26.8696 17.833C26.6427 17.7516 26.402 17.7156 26.1612 17.7272C25.9204 17.7388 25.6842 17.7978 25.4662 17.9006C25.2482 18.0035 25.0526 18.1484 24.8905 18.3268Z" fill="#FFC501"/>
<path d="M45.2297 63.8925C44.986 64.1609 44.8272 64.4954 44.7733 64.854C44.7195 65.2125 44.773 65.5789 44.9272 65.9071C45.0813 66.2352 45.3292 66.5103 45.6396 66.6977C45.9499 66.8851 46.3088 66.9765 46.671 66.9601C47.0332 66.9438 47.3824 66.8206 47.6746 66.6061C47.9669 66.3915 48.189 66.0952 48.3131 65.7545C48.4371 65.4139 48.4575 65.0441 48.3716 64.6919C48.2857 64.3396 48.0975 64.0207 47.8306 63.7754C47.6525 63.6116 47.4437 63.4847 47.2164 63.4019C46.989 63.3191 46.7475 63.2821 46.5058 63.293C46.2641 63.3039 46.0269 63.3625 45.8079 63.4653C45.5889 63.5682 45.3924 63.7134 45.2297 63.8925Z" fill="#9FB603"/>
<path d="M57.6395 19.9124C57.3938 20.1797 57.2329 20.5138 57.1771 20.8725C57.1213 21.2312 57.1732 21.5984 57.3261 21.9277C57.479 22.257 57.7261 22.5335 58.0362 22.7223C58.3463 22.9111 58.7054 23.0037 59.0681 22.9884C59.4308 22.9731 59.7808 22.8506 60.0739 22.6363C60.367 22.4221 60.5899 22.1258 60.7146 21.7848C60.8392 21.4438 60.86 21.0736 60.7742 20.7208C60.6884 20.3681 60.4999 20.0487 60.2326 19.8031C60.0556 19.639 59.8479 19.5117 59.6215 19.4284C59.395 19.345 59.1543 19.3074 58.9133 19.3175C58.6722 19.3277 58.4355 19.3855 58.2169 19.4876C57.9983 19.5897 57.8021 19.7341 57.6395 19.9124Z" fill="#33C093"/>
<path d="M35.1143 63.4082L32.3416 64.9469L31.7324 51.5756L34.6925 54.2779L35.1143 63.4082Z" fill="#F5F6FA"/>
<path d="M18.6428 40.5161L18.9239 39.8834L21.5638 42.289L22.8369 70.211L20.0642 71.7418L18.6428 40.5161Z" fill="#F5F6FA"/>
<path d="M25.1641 45.5773L28.1321 48.2797L28.9678 66.8136L26.2029 68.3444L25.1641 45.5773Z" fill="#F5F6FA"/>
<path d="M7.23237 66.4231L9.80978 60.5731L10.5596 77.0061L7.79471 78.5447L7.23237 66.4231Z" fill="#F5F6FA"/>
<path d="M12.9405 53.4657L15.5179 47.6235L16.6973 73.6086L13.9246 75.1472L12.9405 53.4657Z" fill="#F5F6FA"/>
</svg>
