<svg width="71" height="57" viewBox="0 0 71 57" fill="none" xmlns="http://www.w3.org/2000/svg">
<path d="M2.86268 25.2329L12.8896 30.6252L25.5805 37.4462C26.0421 37.6941 26.5638 37.8072 27.0864 37.7727L30.8566 37.4981C31.3789 37.4605 31.9012 37.5724 32.3625 37.821L90.6407 69.2465L98.011 55.4524L39.8771 24.1048C39.6093 23.9593 39.3731 23.7615 39.1825 23.5232C38.9919 23.2848 38.8507 23.0107 38.7672 22.7168L35.1412 11.1605C35.1005 11.0046 35.0635 10.8525 35.0339 10.704C34.9155 10.2067 34.8156 9.73913 34.7268 9.30123C34.5344 8.3215 34.3938 7.50877 34.2569 6.98179C34.2522 6.95229 34.2435 6.92357 34.231 6.89644C34.1496 6.57728 34.0608 6.38059 33.9535 6.32864C32.6067 5.66435 30.4496 7.1525 29.9612 8.81878C29.8513 9.14355 29.7999 9.48536 29.8095 9.8282L30.0463 15.1796C30.0528 15.3282 30.0199 15.4759 29.9511 15.6076C29.8822 15.7393 29.7798 15.8504 29.6543 15.9296C29.5288 16.0087 29.3846 16.0532 29.2364 16.0583C29.0882 16.0635 28.9412 16.0292 28.8105 15.9589L22.528 12.5893L10.3514 6.0466C10.0882 5.90348 9.79884 5.81524 9.50074 5.7872C9.20265 5.75915 8.90198 5.79188 8.61682 5.8834C8.33166 5.97493 8.06791 6.12336 7.84143 6.31978C7.61494 6.51619 7.43041 6.75653 7.29894 7.02633C7.05043 7.5644 7.01827 8.17784 7.20915 8.73909C7.40004 9.30033 7.79927 9.76617 8.32383 10.0397L20.0342 16.3486C20.0834 16.3743 20.1269 16.4096 20.1623 16.4524C20.1977 16.4952 20.2243 16.5447 20.2404 16.5978C20.2566 16.651 20.2621 16.7069 20.2566 16.7622C20.251 16.8175 20.2345 16.8712 20.2081 16.9201C20.1817 16.9701 20.1457 17.0143 20.1021 17.0504C20.0586 17.0864 20.0084 17.1134 19.9545 17.13C19.9005 17.1465 19.8439 17.1522 19.7877 17.1468C19.7316 17.1413 19.677 17.1248 19.6272 17.0982L4.33896 8.85589C4.08047 8.717 3.79724 8.63053 3.50543 8.60143C3.21362 8.57233 2.91895 8.60116 2.63825 8.68627C2.35755 8.77139 2.09632 8.91113 1.86946 9.09751C1.6426 9.28389 1.45457 9.51326 1.31609 9.77253C1.17761 10.0318 1.0914 10.3159 1.06239 10.6086C1.03337 10.9013 1.06212 11.1968 1.14698 11.4784C1.23184 11.7599 1.37116 12.0219 1.55698 12.2495C1.74281 12.477 1.97149 12.6656 2.22998 12.8045L16.3935 20.4197C16.448 20.4421 16.4973 20.4759 16.5381 20.5186C16.5789 20.5614 16.6102 20.6123 16.6302 20.668C16.6501 20.7236 16.6582 20.7829 16.6539 20.8419C16.6496 20.901 16.633 20.9584 16.6052 21.0106C16.5773 21.0628 16.5389 21.1085 16.4923 21.1449C16.4458 21.1812 16.3921 21.2074 16.3349 21.2216C16.2776 21.2359 16.218 21.2379 16.1599 21.2276C16.1018 21.2173 16.0465 21.1949 15.9976 21.1619L3.26967 14.3223C3.00595 14.1811 2.7167 14.0943 2.41899 14.067C2.12127 14.0398 1.82113 14.0726 1.53627 14.1636C1.2514 14.2545 0.987596 14.4018 0.76041 14.5967C0.533224 14.7916 0.347263 15.0302 0.2135 15.2984C-0.0358526 15.8373 -0.0680631 16.452 0.123591 17.0141C0.315245 17.5763 0.715955 18.0425 1.24209 18.3155L15.0208 25.7377C15.0786 25.7583 15.1313 25.7912 15.1752 25.8342C15.2192 25.8772 15.2533 25.9292 15.2754 25.9866C15.2974 26.0441 15.3067 26.1057 15.3028 26.1671C15.2989 26.2285 15.2818 26.2884 15.2526 26.3425C15.2234 26.3967 15.1829 26.4439 15.1339 26.4809C15.0848 26.5179 15.0283 26.5438 14.9684 26.5568C14.9084 26.5699 14.8463 26.5698 14.7864 26.5565C14.7264 26.5432 14.6701 26.5171 14.6212 26.4799L5.05306 21.3326C4.53463 21.0452 3.92545 20.97 3.35304 21.1229C2.78063 21.2758 2.28936 21.6448 1.98208 22.1527C1.83293 22.4117 1.73731 22.6981 1.70093 22.9949C1.66455 23.2918 1.68816 23.5929 1.77034 23.8804C1.85253 24.1678 1.99161 24.4358 2.17928 24.6682C2.36695 24.9005 2.59937 25.0926 2.86268 25.2329Z" fill="#D1AE88"/>
<path d="M90.2119 70.0373L98.6552 54.2466L41.5351 23.4408L33.0918 39.2352L90.2119 70.0373Z" fill="#F9F8F7"/>
<path d="M88.9684 72.368L98.9916 53.6085L45.7898 24.9143L35.7666 43.6702L88.9684 72.368Z" fill="#4880FF"/>
<path d="M42.3815 41.5177C42.6291 41.6509 42.8318 41.8548 42.9639 42.1035C43.0959 42.3523 43.1515 42.6347 43.1236 42.9151C43.0957 43.1955 42.9854 43.4614 42.8069 43.679C42.6284 43.8966 42.3895 44.0562 42.1205 44.1377C41.8515 44.2191 41.5645 44.2187 41.2957 44.1366C41.0269 44.0545 40.7885 43.8942 40.6105 43.6762C40.4325 43.4581 40.323 43.192 40.2957 42.9115C40.2685 42.631 40.3248 42.3487 40.4575 42.1003C40.5453 41.935 40.6648 41.7886 40.8092 41.6698C40.9536 41.5509 41.1199 41.4619 41.2987 41.4077C41.4775 41.3536 41.6653 41.3354 41.8511 41.3543C42.0369 41.3731 42.2172 41.4287 42.3815 41.5177Z" fill="#4E6975"/>
<path d="M48.5612 44.8389C48.8088 44.9721 49.0115 45.176 49.1436 45.4247C49.2756 45.6734 49.3312 45.9559 49.3033 46.2363C49.2754 46.5167 49.1651 46.7826 48.9866 47.0002C48.8081 47.2178 48.5692 47.3774 48.3002 47.4589C48.0312 47.5403 47.7442 47.5399 47.4754 47.4578C47.2066 47.3757 46.9682 47.2154 46.7902 46.9974C46.6122 46.7793 46.5027 46.5132 46.4754 46.2327C46.4482 45.9522 46.5045 45.6699 46.6372 45.4215C46.7254 45.2565 46.8451 45.1105 46.9895 44.992C47.1339 44.8734 47.3002 44.7845 47.4789 44.7304C47.6576 44.6763 47.8451 44.658 48.0308 44.6766C48.2165 44.6952 48.3968 44.7504 48.5612 44.8389Z" fill="#4E6975"/>
<g style="mix-blend-mode:multiply">
<path d="M40.1722 24.2553L32.7998 38.052L33.514 38.4359L40.8864 24.6393L40.1722 24.2553Z" fill="#E6E7E8"/>
</g>
<g style="mix-blend-mode:multiply">
<path d="M44.3046 24.9284L35.8643 40.7236L37.0089 41.339L45.4493 25.5438L44.3046 24.9284Z" fill="#F5F6FA"/>
</g>
<path d="M34.938 10.3593L34.7124 9.30164C34.52 8.32191 34.3794 7.50918 34.2425 6.98221C34.2378 6.9527 34.229 6.92398 34.2166 6.89685C33.9613 7.02303 33.2435 7.40527 33.4766 8.55942C33.5582 8.95509 33.7336 9.32522 33.988 9.63851C34.2424 9.9518 34.5683 10.199 34.938 10.3593Z" fill="#F7E8D7"/>
<path d="M2.47419 16.4713L9.54483 25.4113L18.4913 36.7228C18.8162 37.1352 19.2512 37.4466 19.7456 37.6208L23.3235 38.8529C23.8184 39.0262 24.2536 39.3378 24.5778 39.751L65.6474 91.7842L77.8573 82.0538L36.8987 30.1653C36.5235 29.6821 36.3533 29.07 36.4251 28.4619L37.6609 16.4082C37.6868 16.2487 37.709 16.0965 37.7386 15.9443C37.8311 15.4433 37.9236 14.972 38.0161 14.5378C38.2233 13.5581 38.4194 12.7565 38.5008 12.2184C38.5043 12.1901 38.5043 12.1614 38.5008 12.1331C38.5526 11.8065 38.5489 11.5875 38.4712 11.5022C37.4981 10.3517 34.9303 10.8639 33.8203 12.1961C33.5977 12.4477 33.4189 12.735 33.2912 13.046L31.3931 18.0708C31.3406 18.21 31.2523 18.3329 31.1371 18.4267C31.0219 18.5206 30.8839 18.5821 30.7373 18.6052C30.5907 18.6282 30.4406 18.6118 30.3023 18.5577C30.164 18.5036 30.0425 18.4137 29.9501 18.2972L25.5213 12.6897L16.9485 1.8459C16.7635 1.6098 16.5328 1.41367 16.2702 1.2693C16.0077 1.12494 15.7188 1.03533 15.4209 1.00586C15.1229 0.976397 14.8221 1.00768 14.5365 1.09783C14.2509 1.18798 13.9865 1.33514 13.7591 1.53046C13.3162 1.92566 13.0428 2.47724 12.9959 3.06993C12.949 3.66262 13.1323 4.25056 13.5075 4.71086L21.7695 15.139C21.804 15.1831 21.8295 15.2336 21.8446 15.2876C21.8596 15.3416 21.8639 15.398 21.8572 15.4537C21.8505 15.5093 21.8329 15.5631 21.8055 15.612C21.7781 15.6608 21.7413 15.7038 21.6974 15.7384C21.6534 15.773 21.6031 15.7986 21.5492 15.8136C21.4954 15.8287 21.4391 15.833 21.3837 15.8263C21.3282 15.8196 21.2745 15.802 21.2258 15.7745C21.1771 15.747 21.1343 15.7101 21.0998 15.666L10.3107 2.02774C10.1285 1.79747 9.90287 1.60545 9.64668 1.46265C9.39048 1.31984 9.10875 1.22905 8.81757 1.19545C8.52639 1.16185 8.23147 1.1861 7.94963 1.26682C7.6678 1.34755 7.40458 1.48316 7.175 1.66591C6.94542 1.84867 6.75397 2.07499 6.61159 2.33195C6.46922 2.58892 6.37869 2.8715 6.3452 3.16355C6.3117 3.4556 6.33588 3.75142 6.41636 4.0341C6.49684 4.31678 6.63204 4.58079 6.81425 4.81106L16.8042 17.4288C16.863 17.5177 16.8865 17.6254 16.87 17.7308C16.8535 17.8362 16.7983 17.9316 16.7152 17.9982C16.6321 18.0648 16.5272 18.0977 16.421 18.0906C16.3149 18.0834 16.2153 18.0366 16.1419 17.9595L7.16575 6.62208C6.9794 6.3875 6.74816 6.19267 6.48562 6.04907C6.22308 5.90547 5.93456 5.816 5.63703 5.78591C5.3395 5.75583 5.03898 5.78574 4.75315 5.87389C4.46732 5.96205 4.20195 6.10666 3.97268 6.29921C3.53117 6.69543 3.25901 7.24715 3.21283 7.83955C3.16666 8.43195 3.35003 9.0194 3.72478 9.47962L13.4409 21.7819C13.4777 21.8255 13.5054 21.8761 13.5224 21.9307C13.5393 21.9853 13.5452 22.0427 13.5395 22.0996C13.5339 22.1565 13.517 22.2117 13.4897 22.2618C13.4625 22.312 13.4254 22.3562 13.3808 22.3918C13.3362 22.4273 13.2849 22.4535 13.23 22.4688C13.1751 22.4841 13.1176 22.4882 13.0611 22.4808C13.0046 22.4734 12.9502 22.4547 12.901 22.4258C12.8518 22.3969 12.8089 22.3584 12.7749 22.3126L6.03356 13.7771C5.67104 13.3073 5.14216 12.9955 4.5566 12.9064C3.97104 12.8173 3.37374 12.9576 2.88859 13.2983C2.64963 13.4763 2.44879 13.7007 2.29803 13.9581C2.14727 14.2155 2.04965 14.5007 2.01099 14.7967C1.97233 15.0928 1.99342 15.3935 2.07299 15.6812C2.15256 15.9689 2.289 16.2376 2.47419 16.4713Z" fill="#E8C8A1"/>
<path d="M7.41764 4.33996C7.26 4.19482 7.13561 4.01711 7.05305 3.81908C6.97049 3.62106 6.93173 3.40743 6.93944 3.19293C6.94714 2.97843 7.00114 2.76816 7.09769 2.57661C7.19425 2.38507 7.33107 2.2168 7.49873 2.08341C7.66638 1.95002 7.86089 1.85469 8.06882 1.80398C8.27676 1.75327 8.49319 1.7484 8.70319 1.78969C8.91319 1.83099 9.11176 1.91746 9.28522 2.04317C9.45868 2.16887 9.60289 2.33081 9.70792 2.51782L10.0335 2.92975L7.76174 4.74447L7.41764 4.33996Z" fill="#F7E8D7"/>
<path d="M14.1139 4.22463C13.8627 3.92157 13.7374 3.53306 13.7643 3.13983C13.7912 2.74659 13.9681 2.37885 14.2582 2.11302L14.2952 2.08333C14.6005 1.84749 14.9854 1.74036 15.3682 1.78471C15.751 1.82907 16.1014 2.0214 16.345 2.32084L16.715 2.8107L14.4469 4.64027L14.1139 4.22463Z" fill="#F7E8D7"/>
<path d="M4.32808 8.99728C4.07728 8.69543 3.95229 8.30814 3.97917 7.91614C4.00606 7.52414 4.18273 7.15766 4.47238 6.89309L4.50568 6.86341C4.81118 6.62643 5.19694 6.51862 5.58061 6.563C5.96427 6.60738 6.31544 6.80042 6.55916 7.10092L6.92915 7.54625L4.63517 9.3721L4.32808 8.99728Z" fill="#F7E8D7"/>
<path d="M3.08145 15.9926C2.96246 15.8418 2.87427 15.669 2.82195 15.4841C2.76963 15.2991 2.75419 15.1056 2.77653 14.9146C2.79887 14.7236 2.85855 14.5389 2.95214 14.3711C3.04573 14.2033 3.1714 14.0557 3.32195 13.9367L3.35895 13.907C3.68199 13.6852 4.07772 13.5965 4.46414 13.6594C4.85057 13.7223 5.19807 13.9318 5.43463 14.2447L5.69363 14.575L3.40705 16.3934L3.08145 15.9926Z" fill="#F7E8D7"/>
<path d="M64.9404 92.3559L78.9337 81.2189L38.6817 30.2136L24.6885 41.3543L64.9404 92.3559Z" fill="#F9F8F7"/>
<path d="M62.8758 93.9998L79.496 80.7698L42.0079 33.2604L25.3877 46.4867L62.8758 93.9998Z" fill="#2862E6"/>
<path d="M32.3145 47.1438C32.489 47.3646 32.5943 47.6323 32.6172 47.9131C32.64 48.1939 32.5793 48.4752 32.4428 48.7214C32.3063 48.9677 32.1001 49.1678 31.8502 49.2965C31.6004 49.4253 31.3181 49.4768 31.039 49.4447C30.7599 49.4125 30.4966 49.2982 30.2824 49.116C30.0681 48.9338 29.9125 48.692 29.8351 48.4211C29.7578 48.1503 29.7623 47.8625 29.848 47.5942C29.9337 47.3259 30.0967 47.0891 30.3166 46.9137C30.6122 46.6791 30.9885 46.5715 31.363 46.6147C31.7375 46.6578 32.0796 46.8481 32.3145 47.1438Z" fill="#4880FF"/>
<path d="M36.6729 52.651C36.8474 52.8718 36.9527 53.1395 36.9755 53.4203C36.9984 53.7011 36.9377 53.9824 36.8012 54.2287C36.6647 54.4749 36.4585 54.675 36.2086 54.8037C35.9588 54.9325 35.6765 54.984 35.3974 54.9519C35.1183 54.9198 34.855 54.8054 34.6408 54.6232C34.4265 54.441 34.2709 54.1992 34.1935 53.9284C34.1162 53.6575 34.1207 53.3697 34.2064 53.1014C34.2921 52.8331 34.4551 52.5963 34.675 52.4209C34.8211 52.3043 34.9888 52.2177 35.1684 52.1661C35.348 52.1146 35.5359 52.099 35.7215 52.1204C35.9071 52.1418 36.0867 52.1996 36.2499 52.2907C36.4132 52.3817 36.5569 52.5042 36.6729 52.651Z" fill="#4880FF"/>
<g style="mix-blend-mode:multiply">
<path d="M37.1126 30.4228L24.8887 40.1544L25.3924 40.791L37.6163 31.0594L37.1126 30.4228Z" fill="#E6E7E8"/>
</g>
<g style="mix-blend-mode:multiply">
<path d="M40.6401 32.681L26.6455 43.8223L27.4529 44.8425L41.4475 33.7012L40.6401 32.681Z" fill="#F5F6FA"/>
</g>
<path d="M37.8013 15.5806L38.0159 14.523C38.2231 13.5432 38.4192 12.7416 38.5006 12.2035C38.5041 12.1752 38.5041 12.1465 38.5006 12.1182C38.2157 12.1182 37.3906 12.1961 37.1723 13.3502C37.0915 13.7454 37.1065 14.1542 37.2159 14.5423C37.3254 14.9304 37.5261 15.2865 37.8013 15.5806Z" fill="#F7E8D7"/>
</svg>
