<svg width="114" height="105" viewBox="0 0 114 105" fill="none" xmlns="http://www.w3.org/2000/svg">
<g clip-path="url(#clip0)">
<path d="M56.4197 85.7336L81.1996 64.8334L34.5653 9.52655L56.4197 85.7336Z" fill="#578AFF"/>
<path d="M34.5654 9.52657L81.1998 64.8335L105.975 43.942L34.5654 9.52657Z" fill="#4880FF"/>
<path d="M38.6616 6.07181C39.3436 6.88287 39.7699 7.87788 39.8866 8.93112C40.0033 9.98436 39.8052 11.0486 39.3173 11.9893C38.8294 12.9299 38.0736 13.7049 37.1455 14.2162C36.2173 14.7275 35.1584 14.9522 34.1026 14.862C33.0467 14.7717 32.0413 14.3704 31.2134 13.709C30.3856 13.0475 29.7723 12.1555 29.4512 11.1456C29.1301 10.1358 29.1155 9.05338 29.4094 8.03525C29.7032 7.01711 30.2922 6.10891 31.102 5.42541C31.64 4.96962 32.2627 4.62467 32.9345 4.41038C33.6062 4.19609 34.3137 4.1167 35.0162 4.17677C35.7187 4.23685 36.4025 4.43519 37.0281 4.76041C37.6537 5.08563 38.2088 5.5313 38.6616 6.07181Z" fill="#FF855F"/>
<path d="M31.1023 5.42538C30.0861 6.28566 29.4272 7.49395 29.2543 8.81414C29.0814 10.1343 29.4071 11.4715 30.1675 12.5645C31.1167 13.4938 32.3782 14.036 33.7057 14.0852C35.0332 14.1344 36.3313 13.6871 37.3467 12.8306C38.362 11.974 39.0217 10.7698 39.1968 9.45297C39.372 8.13618 39.0501 6.80137 38.2939 5.7092C37.3452 4.77592 36.0827 4.22973 34.753 4.17725C33.4232 4.12477 32.1216 4.56977 31.1023 5.42538Z" fill="#FDA014"/>
<path d="M87.0261 50.2418C87.5453 49.8027 87.9226 49.2196 88.1106 48.5661C88.2985 47.9126 88.2886 47.2181 88.082 46.5703C87.8755 45.9224 87.4816 45.3504 86.9501 44.9263C86.4185 44.5022 85.7733 44.2452 85.0957 44.1876C84.4182 44.1301 83.7389 44.2746 83.1434 44.6029C82.548 44.9313 82.0632 45.4287 81.7504 46.0324C81.4375 46.6361 81.3106 47.319 81.3856 47.9948C81.4606 48.6706 81.7343 49.3091 82.1719 49.8294C82.4632 50.1758 82.82 50.4613 83.2218 50.6695C83.6236 50.8777 84.0625 51.0046 84.5134 51.0429C84.9644 51.0812 85.4184 51.0302 85.8496 50.8927C86.2808 50.7552 86.6806 50.534 87.0261 50.2418Z" fill="#FDC63A"/>
<path d="M72.9163 32.3612C72.2479 31.5693 71.3598 30.9933 70.3641 30.7061C69.3685 30.4189 68.31 30.4334 67.3226 30.7477C66.3352 31.062 65.4631 31.662 64.8166 32.4718C64.1701 33.2817 63.7783 34.2651 63.6907 35.2976C63.603 36.3301 63.8235 37.3655 64.3242 38.2727C64.8249 39.18 65.5833 39.9184 66.5036 40.3947C67.424 40.8709 68.4648 41.0636 69.4947 40.9483C70.5245 40.8331 71.497 40.4151 72.2893 39.7472C72.8156 39.3035 73.2493 38.7605 73.5657 38.1491C73.8821 37.5377 74.0749 36.87 74.1331 36.1841C74.1913 35.4982 74.1138 34.8075 73.9051 34.1516C73.6963 33.4956 73.3603 32.8872 72.9163 32.3612Z" fill="#FDC63A"/>
<path d="M51.919 18.3905C51.4663 18.7757 51.1212 19.2716 50.9172 19.8299C50.7133 20.3881 50.6574 20.9897 50.7552 21.576C50.8529 22.1622 51.1008 22.7132 51.4749 23.1751C51.8489 23.637 52.3362 23.9941 52.8893 24.2117C53.4424 24.4292 54.0424 24.4997 54.6309 24.4163C55.2194 24.3329 55.7762 24.0985 56.2471 23.7359C56.718 23.3733 57.087 22.8948 57.318 22.3472C57.5489 21.7996 57.6341 21.2014 57.5651 20.6111L52.3618 18.1035C52.2082 18.1895 52.0602 18.2854 51.919 18.3905Z" fill="#FDC63A"/>
<path d="M82.6889 34.4352L80.248 37.1829L83.9145 37.4522L85.7808 40.6197L87.1592 37.2124L90.4915 36.4805L82.2101 32.4844L82.6889 34.4352Z" fill="#FDC63A"/>
<path d="M101.47 42.7846C101.712 42.5844 101.909 42.3371 102.052 42.0578L97.8286 40.0123C97.6002 40.4969 97.5451 41.0453 97.6723 41.5657C97.7996 42.0861 98.1017 42.5471 98.528 42.8716C98.9543 43.1962 99.479 43.3646 100.015 43.3487C100.55 43.3329 101.064 43.1337 101.47 42.7846Z" fill="#FDC63A"/>
<path d="M82.0485 60.4042L78.6738 58.9293L79.5572 62.4992L77.1163 65.2469L80.4171 65.4898L81.2002 64.8335L84.8432 61.7637L85.1667 58.4633L82.0485 60.4042Z" fill="#FDC63A"/>
<path d="M63.3586 46.4153L59.9839 44.9404L60.8673 48.5104L58.4264 51.258L62.098 51.5187L63.9592 54.6949L65.3376 51.2876L68.9332 50.4998L66.1181 48.1356L66.4818 44.4657L63.3586 46.4153Z" fill="#FDC63A"/>
<path d="M46.4878 40.5774L43.6778 38.2045L44.0314 34.552L42.0861 35.7614L43.6458 41.1999L46.4878 40.5774Z" fill="#FDC63A"/>
<path d="M51.7036 54.7433C52.4013 54.1554 52.8369 53.3144 52.9146 52.4054C52.9922 51.4963 52.7056 50.5937 52.1177 49.8959C51.5299 49.1982 50.6889 48.7626 49.7798 48.6849C48.8708 48.6073 47.9681 48.8939 47.2704 49.4818C46.8834 49.8089 46.5754 50.2192 46.3695 50.6822L47.6044 54.9632C48.2195 55.3751 48.9515 55.5763 49.6907 55.5366C50.4298 55.497 51.1361 55.2186 51.7036 54.7433Z" fill="#FDC63A"/>
<path d="M58.9824 79.3149C59.9873 78.4074 60.6019 77.146 60.6973 75.7953C60.7927 74.4445 60.3615 73.1093 59.4941 72.0695C58.6267 71.0297 57.3904 70.366 56.0445 70.2176C54.6985 70.0693 53.3474 70.4477 52.2743 71.2736L54.9199 80.4913C55.6417 80.5914 56.3765 80.5384 57.0764 80.3357C57.7763 80.133 58.4257 79.7852 58.9824 79.3149Z" fill="#FDC63A"/>
<path d="M67.477 62.2222C67.7763 62.5785 68.1746 62.8379 68.6214 62.9677C69.0683 63.0974 69.5436 63.0915 69.9871 62.9508C70.4306 62.8101 70.8224 62.5409 71.1128 62.1774C71.4032 61.8138 71.5791 61.3722 71.6182 60.9085C71.6574 60.4449 71.558 59.9801 71.3327 59.5729C71.1074 59.1658 70.7663 58.8348 70.3527 58.6217C69.939 58.4086 69.4714 58.3231 69.0091 58.3761C68.5469 58.429 68.1107 58.618 67.756 58.9191C67.2824 59.321 66.9872 59.8941 66.9349 60.5131C66.8826 61.1321 67.0776 61.7465 67.477 62.2222Z" fill="#FDC63A"/>
<path d="M41.5452 26.697C41.9774 26.2816 42.2354 25.7174 42.2668 25.1188C42.2982 24.5201 42.1006 23.932 41.7142 23.4738C41.3277 23.0155 40.7814 22.7215 40.186 22.6514C39.5907 22.5813 38.991 22.7404 38.5087 23.0963L39.6377 27.2007C39.9732 27.2587 40.3172 27.2437 40.6464 27.1568C40.9755 27.0698 41.2821 26.913 41.5452 26.697Z" fill="#FDC63A"/>
<path d="M50.0891 33.1997C49.7341 33.5002 49.4764 33.8993 49.3484 34.3464C49.2204 34.7935 49.2279 35.2685 49.37 35.7113C49.5121 36.1541 49.7824 36.5448 50.1467 36.8339C50.5109 37.123 50.9528 37.2975 51.4163 37.3354C51.8798 37.3732 52.3441 37.2727 52.7504 37.0466C53.1568 36.8204 53.4869 36.4788 53.699 36.0649C53.9111 35.651 53.9956 35.1836 53.9419 34.7216C53.8881 34.2597 53.6986 33.8241 53.3971 33.47C52.9938 32.9962 52.4191 32.7016 51.799 32.651C51.1788 32.6003 50.5639 32.7977 50.0891 33.1997Z" fill="#FDC63A"/>
<path d="M111.171 44.9214C109.707 43.1983 107.264 42.85 104.319 45.33L58.0723 84.3319C55.1278 86.8119 55.0597 89.2898 56.5157 91.008C56.5705 91.0462 56.6284 91.0797 56.6889 91.108L111.277 45.098L111.171 44.9214Z" fill="#FDC63A"/>
<path d="M56.6642 91.1513C58.1319 92.7492 60.4998 93.0079 63.3497 90.6118L109.597 51.6099C112.456 49.1965 112.595 46.8169 111.273 45.1067L56.6642 91.1513Z" fill="#FF855F"/>
<g style="mix-blend-mode:multiply">
<g style="mix-blend-mode:multiply">
<path d="M55.6535 83.0622L56.4205 85.7336L81.2005 64.8335L105.975 43.942L103.472 42.7389L55.6535 83.0622Z" fill="#D1D1D1"/>
</g>
</g>
</g>
<defs>
<clipPath id="clip0">
<rect y="58.6559" width="67.73" height="91.94" transform="rotate(-60 0 58.6559)" fill="white"/>
</clipPath>
</defs>
</svg>
