<svg width="222" height="214" viewBox="0 0 222 214" fill="none" xmlns="http://www.w3.org/2000/svg">
<mask id="mask0" mask-type="alpha" maskUnits="userSpaceOnUse" x="34" y="0" width="159" height="184">
<path d="M34.6719 0.30957H192V178.66C192 181.421 189.762 183.66 187 183.66H39.6719C36.9104 183.66 34.6719 181.421 34.6719 178.66V0.30957Z" fill="white"/>
</mask>
<g mask="url(#mask0)">
<circle opacity="0.3" cx="154.427" cy="123.194" r="104.209" fill="url(#paint0_linear)"/>
</g>
<g filter="url(#filter0_d)">
<path d="M137.821 141.092C161.33 117.582 161.33 79.4655 137.821 55.9558C114.311 32.4461 76.194 32.4461 52.6843 55.9558C29.1746 79.4655 29.1746 117.582 52.6843 141.092C76.194 164.602 114.311 164.602 137.821 141.092Z" fill="url(#paint1_linear)"/>
</g>
<path opacity="0.73" d="M144.415 112.996V133.233C142.208 136.364 139.709 139.278 136.95 141.935V112.996V112.928C136.95 112.773 133.276 109.766 130.491 107.474V106.217L133.866 105.338C135.246 104.979 136.707 105.095 138.014 105.666C138.604 105.918 139.213 106.159 139.822 106.353V108.992C141.423 110.221 142.956 111.534 144.415 112.928V112.996Z" fill="#596868"/>
<path d="M9.5752 21.293L27.2408 62.7351L40.1492 53.9071L47.6331 64.7753L48.9868 46.4425L64.6122 36.9184L9.5752 21.293Z" fill="#E6E6E8"/>
<path d="M43.0134 51.9442L27.243 62.735L40.1513 53.907L47.6353 64.7752L48.989 46.4424L24.0908 31.6099L43.0134 51.9442Z" fill="#E6E6E8"/>
<path d="M48.6602 50.9386L24.0908 31.6099L48.989 46.4424L48.6602 50.9386Z" fill="#C4C4C4"/>
<path d="M47.9537 69.948C47.8086 69.1358 47.6346 68.3332 47.4219 67.55L48.6402 67.231C48.8529 68.0432 49.0366 68.8941 49.1913 69.7353L47.9537 69.948Z" fill="#00C8B7"/>
<path d="M33.3242 98.1043C31.5281 97.9866 29.7929 97.4071 28.2865 96.4219L28.9827 95.3776C30.3076 96.2409 31.833 96.7472 33.4112 96.8473L33.3242 98.1043ZM38.5359 97.0794L37.9847 95.9481C39.408 95.2116 40.6779 94.2107 41.7267 92.999L42.6936 93.8402C41.536 95.1689 40.1387 96.2677 38.5745 97.0794H38.5359ZM24.7959 92.3898C24.0922 90.9747 23.7248 89.4161 23.7227 87.8356V87.4489V87.1781L24.97 87.2748V87.5552C24.97 87.6713 24.97 87.7776 24.97 87.8936C24.9798 89.2816 25.3107 90.6484 25.9369 91.887L24.7959 92.3898ZM73.3159 92.0997V90.8428C74.95 90.8428 76.6325 90.7751 78.3149 90.6494L78.4019 91.8967C76.6905 92.0514 74.979 92.1191 73.3159 92.1288V92.0997ZM68.2299 91.9354L67.4274 91.8774C65.89 91.742 64.5266 91.5679 63.1536 91.3455L63.3663 90.1079C64.662 90.3303 66.0254 90.5043 67.5338 90.6204L68.317 90.688L68.2299 91.9354ZM83.4492 91.3649L83.2752 90.1272C84.8899 89.9048 86.5531 89.6244 88.2161 89.3053L88.4579 90.543C86.7658 90.8911 85.0833 91.1715 83.4492 91.4229V91.3649ZM58.174 90.0982C56.752 89.6178 55.3766 89.0094 54.0646 88.2804L53.4844 87.9323L54.1323 86.859L54.6834 87.1878C55.9171 87.8789 57.2118 88.4551 58.5511 88.9089L58.174 90.0982ZM45.6621 89.5954L44.5694 88.9766C45.389 87.5478 46.0814 86.0498 46.6386 84.4998L47.8183 84.9252C47.2437 86.5538 46.5219 88.1267 45.6621 89.6244V89.5954ZM93.4085 89.4601L93.1184 88.2417C94.6848 87.8646 96.3189 87.4295 97.953 86.9557L98.3011 88.1644C96.6477 88.6672 94.9943 89.1023 93.4085 89.4891V89.4601ZM103.155 86.685L102.768 85.486C104.367 84.9703 105.953 84.4321 107.526 83.8713L107.941 85.0509C106.356 85.644 104.76 86.1983 103.155 86.714V86.685ZM49.2977 85.0316C48.1055 84.1366 46.859 83.3164 45.5654 82.5756L45.1399 82.3532L45.7201 81.2412L46.1649 81.4733C47.5049 82.241 48.7966 83.0902 50.0325 84.0163L49.2977 85.0316ZM26.7491 83.0977L25.8692 82.1985C27.1822 81.005 28.77 80.1546 30.4911 79.7232L30.9069 80.9028C29.3554 81.3075 27.9275 82.0878 26.7491 83.1751V83.0977ZM40.5664 80.6514C39.1381 80.3316 37.6789 80.1695 36.2152 80.168H35.6738V78.911C37.4089 78.8702 39.1425 79.039 40.8371 79.4138L40.5664 80.6514ZM49.143 79.9069L47.915 79.6942C48.1977 78.0718 48.3465 76.429 48.3597 74.7822H49.6071C49.6018 76.5263 49.4465 78.2668 49.143 79.9842V79.9069Z" fill="#00C8B7"/>
<path d="M112.748 83.3109L112.303 82.1409L114.643 81.2417L115.097 82.4117C114.314 82.7211 113.531 83.0208 112.748 83.3109Z" fill="#00C8B7"/>
<path d="M152.226 113.876C151.908 113.869 151.605 113.742 151.377 113.52C151.149 113.299 151.014 112.999 150.998 112.682C150.982 112.365 151.087 112.053 151.291 111.81C151.496 111.567 151.785 111.41 152.1 111.371C159.707 110.623 166.735 106.978 171.728 101.19C171.946 100.933 172.257 100.774 172.593 100.747C172.928 100.72 173.261 100.827 173.517 101.045C173.774 101.263 173.933 101.574 173.96 101.909C173.987 102.245 173.88 102.577 173.662 102.834C168.252 109.107 160.635 113.058 152.39 113.866L152.226 113.876Z" fill="#BAF4EE"/>
<path d="M136.939 112.995L93.2534 138.802L49.568 113.043C49.5633 113.021 49.5633 112.998 49.568 112.976C49.568 112.811 52.0143 110.8 55.6886 107.812L55.7853 107.725C67.8524 97.9304 93.2437 77.8765 93.2437 77.8765C93.2437 77.8765 118.635 97.9304 130.702 107.725C134.434 110.752 136.89 112.802 136.919 112.976C136.926 112.982 136.933 112.988 136.939 112.995Z" fill="#E6E6E8"/>
<path d="M111.22 56.4883H64.0823C62.141 56.4883 60.2792 57.2594 58.9066 58.6321C57.5339 60.0048 56.7627 61.8666 56.7627 63.8079V135.07C56.7614 136.032 56.9498 136.985 57.3171 137.874C57.6844 138.763 58.2233 139.571 58.9031 140.252C59.583 140.932 60.3903 141.472 61.279 141.841C62.1676 142.209 63.1203 142.399 64.0823 142.399H123.151C124.113 142.399 125.066 142.209 125.955 141.841C126.843 141.472 127.651 140.932 128.331 140.252C129.01 139.571 129.549 138.763 129.917 137.874C130.284 136.985 130.472 136.032 130.471 135.07V75.7396L111.22 56.4883Z" fill="white"/>
<path d="M111.22 68.4201C111.22 70.3613 111.991 72.2231 113.364 73.5958C114.736 74.9685 116.598 75.7396 118.539 75.7396H130.432L111.22 56.4883V68.4201Z" fill="#E6E8E8"/>
<path d="M86.7767 68.5366H70.5228C69.0809 68.5366 67.9121 69.7055 67.9121 71.1473V87.4012C67.9121 88.843 69.0809 90.0119 70.5228 90.0119H86.7767C88.2185 90.0119 89.3874 88.843 89.3874 87.4012V71.1473C89.3874 69.7055 88.2185 68.5366 86.7767 68.5366Z" fill="#0C98E6"/>
<path d="M109.064 95.9771H70.0396C69.4823 95.9796 68.9486 96.2028 68.5554 96.5978C68.1622 96.9929 67.9414 97.5276 67.9414 98.0849C67.9414 98.6414 68.1625 99.1751 68.556 99.5686C68.9495 99.9621 69.4831 100.183 70.0396 100.183H109.064C109.621 100.183 110.155 99.9621 110.548 99.5686C110.942 99.1751 111.163 98.6414 111.163 98.0849C111.163 97.5276 110.942 96.9929 110.549 96.5978C110.156 96.2028 109.622 95.9796 109.064 95.9771Z" fill="#D9DBDB"/>
<path d="M109.064 106.45H70.0396C69.4831 106.45 68.9495 106.671 68.556 107.064C68.1625 107.458 67.9414 107.991 67.9414 108.548C67.9414 109.104 68.1625 109.638 68.556 110.032C68.9495 110.425 69.4831 110.646 70.0396 110.646H109.064C109.621 110.646 110.155 110.425 110.548 110.032C110.942 109.638 111.163 109.104 111.163 108.548C111.163 107.991 110.942 107.458 110.548 107.064C110.155 106.671 109.621 106.45 109.064 106.45Z" fill="#D9DBDB"/>
<path d="M91.3402 116.563H70.068C69.5115 116.563 68.9778 116.784 68.5843 117.178C68.1908 117.571 67.9697 118.105 67.9697 118.661C67.9697 119.218 68.1908 119.751 68.5843 120.145C68.9778 120.538 69.5115 120.759 70.068 120.759H91.3402C91.8967 120.759 92.4303 120.538 92.8238 120.145C93.2173 119.751 93.4384 119.218 93.4384 118.661C93.4384 118.105 93.2173 117.571 92.8238 117.178C92.4303 116.784 91.8967 116.563 91.3402 116.563Z" fill="#D9DBDB"/>
<path d="M136.949 112.996V154.902C136.944 156.314 136.381 157.666 135.383 158.664C134.385 159.662 133.033 160.225 131.621 160.23H54.8865C53.4769 160.225 52.1267 159.661 51.1317 158.663C50.1368 157.664 49.5781 156.312 49.5781 154.902V112.996L93.2635 138.803L136.949 112.996Z" fill="#C4C4C4"/>
<path d="M135.471 158.557L107.353 130.439L93.2646 138.803L79.1863 130.439L51.0586 158.557C51.5542 159.086 52.1533 159.508 52.8186 159.796C53.484 160.083 54.2014 160.231 54.9263 160.23H131.661C132.376 160.222 133.082 160.07 133.737 159.783C134.391 159.495 134.981 159.078 135.471 158.557Z" fill="#E6E6E8"/>
<path d="M145.767 55.4633C141.227 55.9193 136.885 57.5523 133.17 60.2007C129.455 62.8492 126.496 66.4214 124.585 70.5643C122.673 74.7071 121.877 79.277 122.273 83.8222C122.669 88.3674 124.245 92.7305 126.844 96.48C127.448 97.3578 127.82 98.3735 127.926 99.4332C128.032 100.493 127.87 101.562 127.454 102.543L125.384 107.542L133.855 105.337C135.238 104.979 136.702 105.095 138.012 105.666C141.693 107.254 145.689 107.977 149.693 107.781C153.697 107.585 157.603 106.473 161.111 104.533C164.619 102.592 167.635 99.8738 169.929 96.5861C172.223 93.2983 173.733 89.5287 174.344 85.5666C174.954 81.6045 174.649 77.5552 173.451 73.7295C172.253 69.9037 170.195 66.4032 167.434 63.4967C164.673 60.5902 161.283 58.3549 157.523 56.9623C153.764 55.5697 149.736 55.0569 145.748 55.4633H145.767Z" fill="#FB8676"/>
<path d="M149.074 94.8368L150.515 93.3961C150.515 93.3961 149.364 90.6984 154.17 86.1442C157.071 83.4369 157.67 80.8068 157.438 78.6603C157.241 76.9847 156.485 75.4245 155.292 74.2315C154.099 73.0385 152.539 72.2824 150.863 72.0852C148.717 71.8532 146.096 72.501 143.379 75.3534C138.835 80.188 136.127 79.0084 136.127 79.0084L134.687 80.4588L149.074 94.8368Z" fill="white"/>
<path d="M137.945 86.0283C137.382 86.7933 137.113 87.7343 137.184 88.681C137.256 89.6277 137.664 90.5176 138.334 91.1895C139.005 91.8614 139.894 92.2709 140.841 92.3441C141.787 92.4172 142.729 92.149 143.495 91.5881L137.945 86.0283Z" fill="white"/>
<path d="M158.474 73.8352L157.575 74.7345C156.877 73.6179 155.931 72.6781 154.81 71.9884L155.718 71.0795C155.899 70.8986 156.114 70.755 156.351 70.6571C156.587 70.5592 156.84 70.5088 157.096 70.5088C157.352 70.5088 157.606 70.5592 157.842 70.6571C158.078 70.755 158.293 70.8986 158.474 71.0795C158.655 71.2605 158.799 71.4753 158.897 71.7117C158.995 71.9481 159.045 72.2015 159.045 72.4574C159.045 72.7133 158.995 72.9667 158.897 73.2031C158.799 73.4395 158.655 73.6543 158.474 73.8352Z" fill="white"/>
<path d="M147.712 55.3481C151.049 56.3543 154.109 58.1166 156.655 60.4981C159.2 62.8795 161.162 65.816 162.387 69.0791C163.613 72.3422 164.069 75.844 163.721 79.3123C163.373 82.7805 162.229 86.1217 160.38 89.076C158.53 92.0303 156.023 94.5182 153.055 96.3461C150.088 98.174 146.738 99.2928 143.267 99.6153C139.797 99.9379 136.298 99.4556 133.044 98.206C129.79 96.9563 126.868 94.973 124.506 92.4101C125.156 93.8298 125.926 95.1916 126.807 96.4809C127.41 97.3587 127.782 98.3744 127.889 99.4341C127.995 100.494 127.833 101.563 127.416 102.543L125.347 107.542L133.817 105.338C135.201 104.98 136.665 105.096 137.975 105.667C141.583 107.241 145.498 107.984 149.431 107.841C153.365 107.697 157.216 106.67 160.699 104.836C164.182 103.003 167.208 100.409 169.552 97.2473C171.897 94.0856 173.5 90.437 174.243 86.5717C174.987 82.7063 174.851 78.7233 173.846 74.9175C172.842 71.1118 170.994 67.5808 168.439 64.586C165.885 61.5913 162.69 59.2095 159.09 57.6171C155.49 56.0247 151.578 55.2625 147.644 55.3868L147.712 55.3481Z" fill="#FF4B32"/>
<path d="M11.0769 33.5822L16.8107 46.7323C16.8794 46.8922 16.9159 47.0642 16.9181 47.2383C16.9202 47.4124 16.8881 47.5852 16.8234 47.7468C16.7588 47.9085 16.6629 48.0558 16.5412 48.1803C16.4196 48.3049 16.2746 48.4042 16.1146 48.4727L15.9115 48.5597C15.7509 48.6281 15.5784 48.6641 15.4039 48.6656C15.2294 48.6672 15.0563 48.6342 14.8946 48.5686C14.7328 48.503 14.5857 48.4061 14.4615 48.2834C14.3373 48.1608 14.2386 48.0148 14.1711 47.8539L8.64995 34.6264C8.57982 34.4618 8.54376 34.2847 8.54395 34.1058C8.54414 33.9269 8.58057 33.7499 8.65105 33.5854C8.72153 33.421 8.8246 33.2725 8.95403 33.149C9.08347 33.0254 9.23658 32.9294 9.40414 32.8667C9.72176 32.7522 10.071 32.7623 10.3814 32.8951C10.6918 33.0279 10.9403 33.2734 11.0769 33.5822Z" fill="#4880FF"/>
<path d="M33.5195 126.116C32.6853 126.116 31.8698 126.364 31.1763 126.827C30.4828 127.291 29.9425 127.95 29.6237 128.721C29.3049 129.492 29.222 130.34 29.3854 131.158C29.5489 131.976 29.9514 132.727 30.5419 133.316C31.1325 133.906 31.8845 134.306 32.703 134.468C33.5214 134.629 34.3693 134.545 35.1395 134.224C35.9096 133.904 36.5674 133.362 37.0295 132.667C37.4915 131.973 37.7372 131.157 37.7352 130.322C37.7352 129.769 37.6261 129.221 37.4141 128.71C37.2022 128.2 36.8915 127.735 36.4999 127.345C36.1083 126.954 35.6435 126.644 35.132 126.434C34.6206 126.223 34.0726 126.115 33.5195 126.116ZM33.5195 132.034C33.181 132.034 32.8501 131.933 32.5686 131.745C32.2872 131.557 32.0678 131.29 31.9383 130.977C31.8088 130.665 31.7749 130.32 31.8409 129.988C31.9069 129.656 32.0699 129.351 32.3093 129.112C32.5486 128.873 32.8536 128.71 33.1856 128.644C33.5176 128.578 33.8617 128.612 34.1744 128.741C34.4871 128.871 34.7544 129.09 34.9425 129.371C35.1305 129.653 35.2309 129.984 35.2309 130.322C35.2322 130.547 35.1888 130.771 35.1033 130.979C35.0177 131.187 34.8917 131.376 34.7325 131.535C34.5733 131.695 34.3841 131.821 34.1759 131.906C33.9677 131.992 33.7446 132.035 33.5195 132.034Z" fill="#BAF4EE"/>
<path d="M146.405 143.164C145.571 143.164 144.756 143.411 144.062 143.875C143.369 144.338 142.828 144.997 142.509 145.768C142.191 146.539 142.108 147.387 142.271 148.205C142.435 149.023 142.837 149.775 143.428 150.364C144.018 150.953 144.77 151.354 145.589 151.515C146.407 151.677 147.255 151.592 148.025 151.271C148.795 150.951 149.453 150.409 149.915 149.714C150.377 149.02 150.623 148.204 150.621 147.37C150.618 146.253 150.173 145.183 149.383 144.395C148.592 143.606 147.522 143.164 146.405 143.164ZM146.405 149.081C146.066 149.083 145.734 148.984 145.452 148.797C145.169 148.611 144.948 148.344 144.817 148.031C144.686 147.719 144.651 147.374 144.716 147.042C144.781 146.709 144.943 146.403 145.182 146.163C145.421 145.923 145.726 145.759 146.058 145.692C146.39 145.625 146.735 145.658 147.048 145.788C147.362 145.917 147.629 146.136 147.818 146.418C148.006 146.7 148.107 147.031 148.107 147.37C148.108 147.594 148.065 147.816 147.98 148.024C147.895 148.231 147.77 148.42 147.612 148.579C147.454 148.738 147.266 148.865 147.059 148.951C146.852 149.037 146.629 149.081 146.405 149.081Z" fill="#BAF4EE"/>
<path d="M180.866 77.7329C180.227 77.7329 179.603 77.9223 179.072 78.2772C178.541 78.6321 178.127 79.1364 177.883 79.7266C177.638 80.3167 177.574 80.966 177.699 81.5925C177.823 82.2189 178.131 82.7944 178.583 83.246C179.034 83.6977 179.61 84.0053 180.236 84.1299C180.863 84.2545 181.512 84.1905 182.102 83.9461C182.692 83.7017 183.197 83.2877 183.551 82.7567C183.906 82.2256 184.096 81.6012 184.096 80.9624C184.097 80.538 184.014 80.1174 183.852 79.725C183.691 79.3326 183.453 78.9761 183.153 78.676C182.853 78.3758 182.496 78.138 182.104 77.9762C181.711 77.8143 181.291 77.7316 180.866 77.7329ZM180.866 82.2678C180.605 82.2697 180.35 82.1939 180.132 82.0502C179.914 81.9064 179.744 81.7012 179.644 81.4605C179.543 81.2198 179.516 80.9546 179.566 80.6986C179.617 80.4426 179.742 80.2074 179.927 80.023C180.111 79.8385 180.346 79.713 180.602 79.6626C180.858 79.6122 181.124 79.639 181.364 79.7397C181.605 79.8405 181.81 80.0105 181.954 80.2282C182.098 80.446 182.173 80.7015 182.172 80.9624C182.169 81.3079 182.031 81.6384 181.786 81.8827C181.542 82.1269 181.212 82.2652 180.866 82.2678Z" fill="#ECF7FA"/>
<path d="M124.08 26.1369C123.406 26.1446 122.749 26.3515 122.193 26.7316C121.637 27.1117 121.205 27.6479 120.953 28.2728C120.701 28.8977 120.639 29.5832 120.776 30.243C120.913 30.9028 121.242 31.5073 121.722 31.9804C122.202 32.4535 122.811 32.774 123.472 32.9015C124.134 33.029 124.819 32.9578 125.44 32.6969C126.061 32.436 126.591 31.997 126.964 31.4353C127.336 30.8736 127.533 30.2143 127.532 29.5405C127.53 29.0898 127.44 28.6438 127.265 28.2283C127.091 27.8128 126.836 27.4359 126.515 27.1195C126.194 26.803 125.813 26.5533 125.395 26.3847C124.977 26.216 124.53 26.1318 124.08 26.1369ZM124.08 30.9715C123.808 30.9733 123.542 30.8949 123.314 30.7461C123.087 30.5974 122.908 30.3849 122.801 30.1352C122.693 29.8856 122.662 29.6098 122.71 29.3424C122.759 29.0749 122.885 28.8277 123.073 28.6316C123.261 28.4355 123.503 28.2992 123.768 28.2397C124.033 28.1802 124.31 28.2002 124.564 28.2972C124.818 28.3942 125.038 28.5638 125.196 28.785C125.354 29.0061 125.443 29.2689 125.453 29.5405C125.453 29.9055 125.308 30.2558 125.051 30.5148C124.794 30.7738 124.445 30.9206 124.08 30.9232V30.9715Z" fill="#ECF7FA"/>
<path d="M14.9906 105.599C14.2807 105.599 13.5867 105.81 12.9966 106.204C12.4065 106.599 11.9467 107.16 11.6755 107.816C11.4042 108.472 11.3338 109.194 11.473 109.89C11.6122 110.586 11.9548 111.225 12.4574 111.726C12.9601 112.228 13.6002 112.569 14.2967 112.706C14.9932 112.843 15.7148 112.771 16.3701 112.498C17.0254 112.225 17.585 111.764 17.978 111.172C18.371 110.581 18.5798 109.887 18.5778 109.177C18.5753 108.227 18.1962 107.317 17.5237 106.646C16.8513 105.976 15.9403 105.599 14.9906 105.599Z" fill="#ECF7FA"/>
<path d="M158.841 117.462C158.325 117.462 157.82 117.616 157.391 117.902C156.961 118.189 156.627 118.597 156.429 119.074C156.232 119.551 156.18 120.076 156.281 120.582C156.381 121.089 156.63 121.554 156.995 121.919C157.36 122.284 157.825 122.533 158.332 122.634C158.838 122.734 159.363 122.683 159.84 122.485C160.317 122.287 160.725 121.953 161.012 121.524C161.299 121.094 161.452 120.589 161.452 120.073C161.453 119.73 161.386 119.39 161.256 119.073C161.125 118.755 160.933 118.467 160.69 118.224C160.447 117.982 160.159 117.789 159.842 117.659C159.524 117.528 159.184 117.461 158.841 117.462Z" fill="#BAF4EE"/>
<path d="M72.4854 27.2109C71.7315 27.209 70.994 27.4308 70.3662 27.8483C69.7384 28.2657 69.2486 28.8601 68.9588 29.556C68.669 30.252 68.5921 31.0183 68.738 31.7579C68.8839 32.4975 69.246 33.1773 69.7784 33.711C70.3108 34.2448 70.9896 34.6086 71.7289 34.7563C72.4682 34.9041 73.2346 34.8293 73.9313 34.5412C74.628 34.2531 75.2236 33.7648 75.6426 33.1381C76.0617 32.5114 76.2853 31.7745 76.2853 31.0206C76.2866 30.5208 76.1893 30.0256 75.9989 29.5634C75.8085 29.1013 75.5288 28.6812 75.1758 28.3274C74.8228 27.9735 74.4035 27.6927 73.9418 27.5011C73.4801 27.3096 72.9852 27.2109 72.4854 27.2109Z" fill="#ECF7FA"/>
<path d="M146.647 41.9077C146.003 41.9077 145.373 42.0988 144.837 42.4569C144.301 42.8149 143.883 43.3238 143.637 43.9192C143.39 44.5147 143.326 45.1698 143.451 45.8019C143.577 46.434 143.887 47.0146 144.343 47.4704C144.799 47.9261 145.379 48.2364 146.011 48.3621C146.644 48.4879 147.299 48.4233 147.894 48.1767C148.49 47.9301 148.998 47.5124 149.357 46.9766C149.715 46.4407 149.906 45.8107 149.906 45.1662C149.906 44.302 149.562 43.4732 148.951 42.8621C148.34 42.251 147.511 41.9077 146.647 41.9077Z" fill="#ECF7FA"/>
<path d="M31.1788 70.9635C32.2041 70.9635 33.0352 70.1323 33.0352 69.107C33.0352 68.0817 32.2041 67.2505 31.1788 67.2505C30.1535 67.2505 29.3223 68.0817 29.3223 69.107C29.3223 70.1323 30.1535 70.9635 31.1788 70.9635Z" fill="#ECF7FA"/>
<path d="M181.999 61.4483C181.373 61.4483 180.762 61.6337 180.242 61.9811C179.722 62.3285 179.317 62.8224 179.078 63.4001C178.838 63.9779 178.776 64.6136 178.898 65.2269C179.02 65.8403 179.321 66.4036 179.763 66.8458C180.205 67.288 180.769 67.5892 181.382 67.7112C181.995 67.8332 182.631 67.7705 183.209 67.5312C183.786 67.2919 184.28 66.8867 184.628 66.3667C184.975 65.8467 185.161 65.2354 185.161 64.6101C185.162 64.1945 185.081 63.7828 184.923 63.3986C184.764 63.0144 184.531 62.6653 184.237 62.3715C183.943 62.0776 183.594 61.8448 183.21 61.6863C182.826 61.5279 182.414 61.447 181.999 61.4483Z" fill="#ECF7FA"/>
<path d="M13.2113 82.2668C14.3274 82.2668 15.2322 81.3621 15.2322 80.246C15.2322 79.1299 14.3274 78.2251 13.2113 78.2251C12.0952 78.2251 11.1904 79.1299 11.1904 80.246C11.1904 81.3621 12.0952 82.2668 13.2113 82.2668Z" fill="#ECF7FA"/>
<path d="M98.1265 20.4327L99.3932 19.1661C99.5793 18.9498 99.6768 18.6711 99.6661 18.3859C99.6555 18.1007 99.5374 17.83 99.3356 17.6282C99.1338 17.4264 98.8632 17.3083 98.578 17.2977C98.2928 17.287 98.0141 17.3845 97.7977 17.5707L96.5214 18.8373L95.2547 17.5707C95.0354 17.4133 94.767 17.3396 94.498 17.3628C94.229 17.386 93.9772 17.5047 93.788 17.6973C93.5989 17.89 93.4849 18.1439 93.4666 18.4133C93.4483 18.6826 93.527 18.9496 93.6883 19.1661L94.955 20.4327L93.6883 21.6994C93.5829 21.8042 93.4992 21.9287 93.4419 22.0658C93.3847 22.2029 93.3549 22.3499 93.3545 22.4985C93.354 22.6471 93.3829 22.7944 93.4393 22.9318C93.4958 23.0693 93.5787 23.1943 93.6835 23.2997C93.7883 23.405 93.9128 23.4888 94.0499 23.5461C94.187 23.6033 94.334 23.633 94.4826 23.6335C94.6312 23.6339 94.7785 23.6051 94.9159 23.5487C95.0534 23.4922 95.1784 23.4092 95.2837 23.3045L96.5504 22.0378L97.8267 23.3045C98.0396 23.5161 98.3278 23.6344 98.6279 23.6335C98.928 23.6326 99.2154 23.5125 99.427 23.2997C99.6386 23.0868 99.7569 22.7986 99.756 22.4985C99.7551 22.1984 99.635 21.911 99.4222 21.6994L98.1265 20.4327Z" fill="#ECF7FA"/>
<path d="M11.772 58.7706L13.0387 57.504C13.1434 57.3986 13.2264 57.2736 13.2828 57.1361C13.3393 56.9987 13.3681 56.8514 13.3677 56.7028C13.3672 56.5542 13.3375 56.4072 13.2802 56.2701C13.2229 56.133 13.1392 56.0085 13.0338 55.9037C12.9284 55.799 12.8034 55.716 12.666 55.6595C12.5285 55.6031 12.3813 55.5743 12.2327 55.5747C12.0841 55.5752 11.937 55.6049 11.7999 55.6622C11.6628 55.7194 11.5383 55.8032 11.4336 55.9086L10.1669 57.1752L8.90025 55.9086C8.68392 55.7224 8.40523 55.6249 8.12003 55.6356C7.83483 55.6462 7.5642 55.7643 7.36239 55.9661C7.16059 56.1679 7.04251 56.4385 7.03184 56.7237C7.02116 57.0089 7.11868 57.2876 7.30484 57.504L8.60051 58.7706L7.33384 60.0373C7.121 60.2489 7.00091 60.5363 7.00001 60.8364C6.9991 61.1365 7.11744 61.4247 7.329 61.6375C7.54057 61.8504 7.82803 61.9705 8.12813 61.9714C8.42824 61.9723 8.71641 61.8539 8.92925 61.6424L10.1959 60.3757L11.4626 61.6424C11.6754 61.8552 11.9641 61.9748 12.2651 61.9748C12.5661 61.9748 12.8548 61.8552 13.0677 61.6424C13.2805 61.4295 13.4001 61.1409 13.4001 60.8398C13.4001 60.5388 13.2805 60.2501 13.0677 60.0373L11.772 58.7706Z" fill="#ECF7FA"/>
<path d="M161.373 136.24L162.446 135.167C162.586 134.981 162.653 134.75 162.637 134.518C162.62 134.286 162.521 134.067 162.356 133.903C162.192 133.738 161.973 133.639 161.741 133.622C161.509 133.606 161.278 133.673 161.092 133.813L160.038 134.935L158.965 133.861C158.784 133.684 158.541 133.585 158.288 133.585C158.035 133.585 157.792 133.684 157.611 133.861C157.434 134.042 157.335 134.285 157.335 134.538C157.335 134.791 157.434 135.034 157.611 135.215L158.685 136.288L157.611 137.362C157.434 137.542 157.335 137.785 157.335 138.038C157.335 138.292 157.434 138.535 157.611 138.715C157.792 138.892 158.035 138.992 158.288 138.992C158.541 138.992 158.784 138.892 158.965 138.715L160.038 137.642L161.112 138.715C161.195 138.826 161.301 138.918 161.422 138.984C161.544 139.05 161.678 139.09 161.817 139.1C161.955 139.109 162.093 139.089 162.223 139.041C162.353 138.993 162.471 138.917 162.569 138.819C162.667 138.721 162.743 138.603 162.791 138.473C162.839 138.343 162.859 138.205 162.85 138.067C162.84 137.928 162.8 137.794 162.734 137.672C162.668 137.551 162.576 137.445 162.465 137.362L161.373 136.24Z" fill="#BAF4EE"/>
<defs>
<filter id="filter0_d" x="0.116211" y="3.3877" width="190.272" height="190.272" filterUnits="userSpaceOnUse" color-interpolation-filters="sRGB">
<feFlood flood-opacity="0" result="BackgroundImageFix"/>
<feColorMatrix in="SourceAlpha" type="matrix" values="0 0 0 0 0 0 0 0 0 0 0 0 0 0 0 0 0 0 127 0"/>
<feOffset/>
<feGaussianBlur stdDeviation="5"/>
<feColorMatrix type="matrix" values="0 0 0 0 0 0 0 0 0 0 0 0 0 0 0 0 0 0 0.15 0"/>
<feBlend mode="normal" in2="BackgroundImageFix" result="effect1_dropShadow"/>
<feBlend mode="normal" in="SourceGraphic" in2="effect1_dropShadow" result="shape"/>
</filter>
<linearGradient id="paint0_linear" x1="50.2178" y1="23.5696" x2="277.238" y2="46.9742" gradientUnits="userSpaceOnUse">
<stop stop-color="#4880FF"/>
<stop offset="1" stop-color="#6694FE"/>
</linearGradient>
<linearGradient id="paint1_linear" x1="11.9892" y1="100.397" x2="114.284" y2="17.2228" gradientUnits="userSpaceOnUse">
<stop stop-color="#4880FF"/>
<stop offset="1" stop-color="#6694FE"/>
</linearGradient>
</defs>
</svg>
