<svg width="151" height="71" viewBox="0 0 151 71" fill="none" xmlns="http://www.w3.org/2000/svg">
<path d="M109.605 44.8135C117.679 44.8135 124.223 38.2687 124.223 30.1952C124.223 22.1217 117.679 15.5769 109.605 15.5769C101.532 15.5769 94.9868 22.1217 94.9868 30.1952C94.9868 38.2687 101.532 44.8135 109.605 44.8135Z" fill="#FFC501"/>
<g filter="url(#filter0_d)">
<path d="M109.605 40.8689C115.5 40.8689 120.279 36.0901 120.279 30.1952C120.279 24.3002 115.5 19.5214 109.605 19.5214C103.71 19.5214 98.9312 24.3002 98.9312 30.1952C98.9312 36.0901 103.71 40.8689 109.605 40.8689Z" fill="white"/>
</g>
<path d="M109.605 37.1796C113.462 37.1796 116.589 34.0526 116.589 30.1952C116.589 26.3378 113.462 23.2108 109.605 23.2108C105.748 23.2108 102.621 26.3378 102.621 30.1952C102.621 34.0526 105.748 37.1796 109.605 37.1796Z" fill="#FF822E"/>
<path d="M109.605 34.4861C111.975 34.4861 113.896 32.565 113.896 30.1952C113.896 27.8254 111.975 25.9043 109.605 25.9043C107.235 25.9043 105.314 27.8254 105.314 30.1952C105.314 32.565 107.235 34.4861 109.605 34.4861Z" fill="white"/>
<path d="M5.32173 44.3646H2.3411V26.8842H0.14209V24.0813H7.54353V26.8842H5.33313L5.32173 44.3646Z" fill="#4880FF"/>
<path d="M15.7059 44.3737H12.6227L12.167 36.8675H10.4419L9.99984 44.3737H6.86426L8.57333 25.1478C8.62499 24.4459 8.96832 24.095 9.60334 24.095H12.9189C13.5707 24.095 13.9376 24.4482 14.0242 25.15L15.7059 44.3737ZM11.2463 26.891C11.1096 26.891 11.0412 26.9503 11.0412 27.071L10.5992 34.1649H12.012L11.6064 27.071C11.6064 26.9503 11.538 26.891 11.4013 26.891H11.2463Z" fill="#4880FF"/>
<path d="M24.9806 44.3783H21.902L20.8788 27.0779C20.8788 26.9571 20.8105 26.8979 20.6737 26.8979H20.5188C20.3821 26.8979 20.3137 26.9571 20.3137 27.0779L19.2837 44.376H16.1436L17.8526 25.1478C17.9043 24.4459 18.2476 24.095 18.8826 24.095H22.1982C22.8819 24.095 23.251 24.4459 23.3034 25.1478L24.9806 44.3783Z" fill="#4880FF"/>
<path d="M34.2645 44.3851H31.1813L30.7255 36.8789H29.0028L28.5584 44.3806H25.4229L27.1319 25.1478C27.1843 24.4436 27.5262 24.0927 28.1619 24.095H31.4775C32.127 24.095 32.4962 24.4482 32.5805 25.1501L34.2645 44.3851ZM29.8049 26.9047C29.6659 26.9047 29.5998 26.964 29.5998 27.0824L29.1578 34.1785H30.5706L30.165 27.0847C30.165 26.964 30.0966 26.9047 29.9576 26.9047H29.8049Z" fill="#4880FF"/>
<path d="M42.9534 44.3919H40.048V35.4728H37.9971V44.3919H35.062L35.0757 24.1109H38.0062V32.7702H40.0571V24.1109H42.9625L42.9534 44.3919Z" fill="#4880FF"/>
<path d="M48.9669 44.3942H45.9863V26.9161H43.7759V24.1109H51.1773V26.9138H48.9669V44.3942Z" fill="#4880FF"/>
<path d="M59.7662 41.0855C59.7662 43.2989 58.9254 44.4041 57.2436 44.4011H53.1578C52.3845 44.4011 51.9994 44.0061 52.0025 43.2161V24.1201H54.933V31.7038H57.2459C58.9261 31.7038 59.7617 32.8006 59.7526 34.9943L59.7662 41.0855ZM56.3207 41.6233C56.7491 41.6233 56.9633 41.3065 56.9633 40.673V35.3521C56.9633 34.7004 56.7491 34.3768 56.3207 34.3745H54.933V41.3407C54.933 41.5299 55.0173 41.6233 55.1905 41.6233H56.3207ZM63.7199 44.4057H60.7917L60.8053 24.1246H63.7358L63.7199 44.4057Z" fill="#4880FF"/>
<path d="M72.7939 44.4102H69.8133L69.8247 26.9321H67.6143V24.1269H75.0157V26.9298H72.8053L72.7939 44.4102Z" fill="#4880FF"/>
<path d="M83.7978 41.0262C83.7978 43.2868 82.9577 44.4171 81.2775 44.4171H76.5217V41.637H80.1973C80.6417 41.637 80.865 41.3225 80.865 40.6867V38.8888H78.3242C76.6637 38.8888 75.8335 37.757 75.8335 35.4934V24.1337H78.764V35.1607C78.764 35.8124 78.9782 36.1383 79.4066 36.1383H80.8445V24.1337H83.8069L83.7978 41.0262Z" fill="#4880FF"/>
<path d="M89.8092 44.4215H86.8286V26.9411H84.6182V24.1382H92.0196V26.9411H89.8092V44.4215Z" fill="#4880FF"/>
<path d="M109.605 32.6632C110.968 32.6632 112.073 31.5583 112.073 30.1953C112.073 28.8323 110.968 27.7274 109.605 27.7274C108.242 27.7274 107.137 28.8323 107.137 30.1953C107.137 31.5583 108.242 32.6632 109.605 32.6632Z" fill="#FF855F"/>
<path d="M114.227 21.046C114.414 21.046 114.498 21.2397 114.63 21.2738C114.763 21.308 114.81 21.2397 115.116 21.2875C115.421 21.3354 115.464 21.3285 115.546 21.4197C115.628 21.5108 115.667 21.3331 115.774 21.4698C115.863 21.5675 115.946 21.6703 116.023 21.7775C116.132 21.9415 116.294 22.2127 116.358 22.2833C116.474 22.4132 116.695 22.3426 116.882 22.4907C117.005 22.591 117.064 22.6092 117.11 22.7049C117.225 22.6915 117.342 22.7022 117.453 22.7363C117.564 22.7705 117.667 22.8273 117.755 22.9032L117.996 23.1037C118.05 23.4298 118.126 23.7519 118.224 24.0676C118.329 24.373 118.415 24.7285 118.29 24.8789C118.099 25.0373 117.88 25.1593 117.645 25.2389C117.488 25.3004 117.338 25.4668 117.153 25.4144C116.968 25.362 116.754 25.1181 116.54 25.1067C116.524 25.1432 116.44 24.8789 116.125 25.0748C115.932 25.1911 115.485 28.2195 115.442 28.2104C115.469 28.4634 115.622 29.1014 115.608 29.204C115.625 29.4475 115.658 29.6897 115.708 29.9286C115.81 30.6073 115.835 31.2953 115.781 31.9795C115.663 33.0824 115.667 35.5959 115.553 36.3798C115.439 37.1637 114.94 41.9605 114.815 42.4482C114.665 43.0615 114.569 43.6867 114.528 44.3168C114.528 44.3168 115.405 44.7497 115.462 44.7725C115.69 44.8249 115.795 44.9503 115.738 45.0323C115.793 45.087 115.799 45.1303 115.758 45.1576C115.398 45.2345 115.031 45.2743 114.662 45.2761C114.434 45.2556 114.124 45.0779 113.801 44.9958C113.477 44.9138 113.117 44.9047 113.04 44.7019C113.028 44.7019 113.04 44.2097 113.04 44.2097L112.68 44.0661C112.68 44.0661 112.933 40.5363 113.158 38.8659C113.028 37.2708 113.489 34.6024 113.489 34.6024C113.489 34.6024 111.987 44.7087 111.987 44.7201C112.235 44.9139 112.494 45.092 112.764 45.2533C112.807 45.283 112.734 45.3832 112.734 45.3832C112.734 45.3832 112.814 45.4516 112.762 45.4767C112.534 45.5883 112.156 45.5701 111.791 45.5769C111.4 45.5525 111.021 45.4311 110.688 45.2237C110.527 45.1772 110.368 45.1201 110.214 45.0528C110.166 45.0528 110.301 44.5492 110.355 44.2849C110.355 44.2028 110.205 44.2849 110.048 44.1527C110.221 42.7558 110.44 38.8523 110.601 37.4258C110.852 35.2176 110.396 32.7794 110.563 30.9404C110.729 29.1014 111.508 29.6939 111.003 26.2666C110.943 25.8678 110.672 25.2845 110.458 24.6191C110.164 23.7076 109.578 22.035 109.822 21.0596C110.05 20.1481 111.545 20.3236 111.616 20.2894C111.699 19.9972 111.757 19.6984 111.789 19.3961C111.789 19.3483 111.718 19.3483 111.647 19.3004C111.577 19.2526 111.586 19.2343 111.549 19.0407C111.5 18.8673 111.432 18.6993 111.349 18.5393C111.243 18.279 111.173 18.0053 111.142 17.7258C111.142 17.523 111.032 17.1721 111.123 16.8439C111.214 16.5158 111.445 16.3016 111.764 15.9324C112.033 15.6157 112.172 15.6795 112.823 15.5974C113.259 15.5427 113.532 15.5974 113.578 15.7888C113.997 15.9301 113.685 16.3198 113.776 16.4725C113.944 16.6115 113.963 16.8553 114.024 17.0148C114.065 17.1197 114.252 17.1721 114.079 17.4546C113.949 17.6825 114.109 17.9924 114.118 18.038C114.137 18.0968 114.159 18.1546 114.184 18.2112C114.203 18.4413 114.18 18.673 114.115 18.8948C114.089 19.0995 114.016 19.2954 113.901 19.4668C113.872 19.5184 113.83 19.5611 113.778 19.5904C113.727 19.6197 113.669 19.6345 113.609 19.6331C113.523 19.8969 113.481 20.1735 113.486 20.4512C113.684 20.6024 113.858 20.783 114.001 20.9867C114.017 21.0779 114.042 21.046 114.227 21.046Z" fill="#00365C"/>
<path d="M109.872 25.4372C109.729 24.8059 109.143 21.3354 107.839 21.1326C107.668 21.1145 107.505 21.052 107.365 20.9513C107.226 20.8505 107.115 20.7151 107.044 20.5583C106.898 20.18 106.999 20.1026 106.978 19.7699C107.056 19.8496 107.236 19.9772 107.322 20.0615C107.794 20.2575 107.935 19.9795 108.07 19.5693C108.108 19.3877 108.106 19.1997 108.062 19.0191C108.019 18.8386 107.936 18.67 107.819 18.5257C108.156 18.0699 108.163 17.3863 107.705 16.7482C107.247 16.1102 106.684 16.158 106.288 16.1648C106.08 16.1493 105.871 16.1872 105.682 16.275C105.493 16.3627 105.33 16.4974 105.207 16.6662C104.765 17.2062 104.729 18.6647 104.847 19.0543C104.927 19.3141 105.194 19.5671 105.492 19.8428C105.513 19.9977 105.492 20.0319 105.556 20.7042C104.417 21.0414 103.765 20.9708 103.029 21.8116C102.601 22.297 101.45 23.8785 101.195 24.1724C100.994 24.3616 100.876 24.4413 100.864 24.5576C100.848 24.7307 101.35 26.2211 101.81 27.1531C102.215 27.9712 102.297 28.3996 102.53 28.6388C102.809 28.8194 103.109 28.9649 103.423 29.0718C103.423 30.4801 103.471 35.2997 103.574 35.9605C103.699 36.7672 104.029 41.5572 104.143 42.0494C104.205 42.3274 104.357 43.6445 104.371 43.9248C104.385 44.2051 103.847 44.3578 103.808 44.3692C103.621 44.4307 103.58 44.6723 103.615 44.6928C103.853 44.7431 104.096 44.7607 104.339 44.7452C105.034 44.6426 104.991 44.1869 105.217 44.1573L105.255 44.5538L105.515 44.4991C105.532 44.2875 105.532 44.0749 105.515 43.8633L105.613 43.7516C105.613 43.7516 105.613 40.2742 105.479 38.6244C105.661 36.9928 105.335 34.2492 105.335 34.2492C105.335 34.2492 106.52 39.659 106.554 44.4034C106.41 44.6054 106.23 44.7793 106.023 44.9161C105.98 44.948 106.023 45.144 106.023 45.144C106.023 45.144 106.372 45.1645 106.734 45.1759C107.213 45.1918 107.295 44.4922 107.694 44.4444C107.694 44.6335 107.714 44.8546 107.714 44.8546L107.978 44.8044C107.977 44.5461 107.959 44.2881 107.926 44.0319C107.94 43.9499 107.967 44.0182 108.01 43.9658C108.067 42.5234 107.867 38.6062 107.871 37.1705C107.89 32.948 108.735 30.2089 107.826 28.7687C108.578 28.1899 109.457 27.5177 109.811 26.9229C110.1 26.4307 110.02 26.0775 109.872 25.4372ZM102.423 25.9772C102.156 25.2936 102.072 25.084 102.268 24.8128C102.573 24.3866 102.965 23.9742 103.407 23.4455C103.271 23.7987 103.232 24.5029 103.635 24.9358C104.216 25.5557 103.852 27.504 103.733 28.0988C103.694 28.3039 103.343 28.2423 103.309 28.1785C103.275 28.1147 102.762 26.8363 102.423 25.9772ZM108.803 26.5332C108.785 26.6814 108.277 27.4448 107.493 28.1671C107.359 25.3141 108.48 25.0475 108.083 23.9104C108.509 24.6578 108.822 26.1026 108.854 26.2142C108.853 26.3222 108.838 26.4295 108.808 26.5332H108.803Z" fill="#00365C"/>
<defs>
<filter id="filter0_d" x="68.9312" y="-10.4786" width="81.3475" height="81.3475" filterUnits="userSpaceOnUse" color-interpolation-filters="sRGB">
<feFlood flood-opacity="0" result="BackgroundImageFix"/>
<feColorMatrix in="SourceAlpha" type="matrix" values="0 0 0 0 0 0 0 0 0 0 0 0 0 0 0 0 0 0 127 0"/>
<feOffset/>
<feGaussianBlur stdDeviation="15"/>
<feColorMatrix type="matrix" values="0 0 0 0 0 0 0 0 0 0 0 0 0 0 0 0 0 0 0.1 0"/>
<feBlend mode="normal" in2="BackgroundImageFix" result="effect1_dropShadow"/>
<feBlend mode="normal" in="SourceGraphic" in2="effect1_dropShadow" result="shape"/>
</filter>
</defs>
</svg>
