<svg width="16" height="16" viewBox="0 0 16 16" fill="none" xmlns="http://www.w3.org/2000/svg">
<path d="M15.01 14.2621L11.3648 10.6169C12.3426 9.49273 12.9346 8.02599 12.9346 6.42289C12.9346 2.89406 10.0644 0.0270996 6.53885 0.0270996C3.01003 0.0270996 0.143066 2.89739 0.143066 6.42289C0.143066 9.94839 3.01335 12.8187 6.53885 12.8187C8.14196 12.8187 9.6087 12.2267 10.7329 11.2488L14.3781 14.8941C14.4646 14.9805 14.581 15.0271 14.6941 15.0271C14.8071 15.0271 14.9236 14.9839 15.01 14.8941C15.183 14.7211 15.183 14.4351 15.01 14.2621ZM1.03774 6.42289C1.03774 3.38963 3.50559 0.925104 6.53553 0.925104C9.56879 0.925104 12.0333 3.39295 12.0333 6.42289C12.0333 9.45282 9.56879 11.924 6.53553 11.924C3.50559 11.924 1.03774 9.45615 1.03774 6.42289Z" fill="white"/>
</svg>
