<svg width="13" height="13" viewBox="0 0 13 13" fill="none" xmlns="http://www.w3.org/2000/svg">
<path d="M12.8882 11.888L9.97201 8.97184C10.7543 8.07251 11.2279 6.89911 11.2279 5.61663C11.2279 2.79357 8.93166 0.5 6.11126 0.5C3.2882 0.5 0.994629 2.79623 0.994629 5.61663C0.994629 8.43703 3.29086 10.7333 6.11126 10.7333C7.39374 10.7333 8.56714 10.2596 9.46647 9.47738L12.3827 12.3936C12.4518 12.4627 12.545 12.5 12.6354 12.5C12.7259 12.5 12.819 12.4654 12.8882 12.3936C13.0266 12.2552 13.0266 12.0264 12.8882 11.888ZM1.71037 5.61663C1.71037 3.19002 3.68465 1.2184 6.1086 1.2184C8.53521 1.2184 10.5068 3.19268 10.5068 5.61663C10.5068 8.04058 8.53521 10.0175 6.1086 10.0175C3.68465 10.0175 1.71037 8.04324 1.71037 5.61663Z" fill="#3D404C"/>
</svg>
