<svg width="341" height="183" fill="none" xmlns="http://www.w3.org/2000/svg"><g opacity=".15"><path d="M176.083 5.1a3.709 3.709 0 00-.324-.526 15.18 15.18 0 00-1.421-1.627c-.44-.52-.98-.948-1.588-1.258a5.684 5.684 0 00-2.394-.772 13.187 13.187 0 00-2.281.079 2.212 2.212 0 00-.727.285 3.171 3.171 0 01-.816.285 4.355 4.355 0 01-.732-.04 4.233 4.233 0 00-.566-.206 8.1 8.1 0 00-1.017.044c-.202 0-.285.325-.285.448v.81c.024.294.092.582.201.856a.319.319 0 00.285.201c.163 0 .934-.083 1.101-.083.112-.029.221-.068.325-.118.185-.114.393-.185.609-.207.267-.063.538-.104.811-.122.286 0 .571 0 .694.162.103.208.184.428.24.654 0 .363.084.732.084.894 0 .162.201.202.201.202v.894c0 .325.163 1.544.163 1.967 0 .422.044 1.18.044 1.705 0 .448-.123 2.95-.123 3.579 0 0-.162 0-.162.201.004.3-.011.598-.044.895 0 .325-.079 1.627-.118 2.075-.04.447-.045 1.745-.045 2.315 0 .57.163 3.008.163 3.372 0 .364-.079 1.868-.079 2.315 0 .447-.207 2.458-.246 2.723-.039.266.04.408.207.492.191.085.399.127.609.123.241 0 .403.044.89.044.353.014.706-.001 1.057-.044a3.45 3.45 0 00.368-.162c.04-.123.123-.163.079-.286 0-.201-.201-2.393-.241-2.762-.039-.369-.123-1.745-.083-2.458.039-.713.123-2.723.162-3.293V16.44c0-.649-.079-1.828-.079-2.236a5.966 5.966 0 01-.083-.811c0-.202-.123-.202-.123-.202s-.162-3.17-.118-3.578c.044-.408 0-1.259.039-1.706.039-.531.162-1.544.162-1.868 0-.324.04-.816.079-1.018a.254.254 0 00.159-.06.254.254 0 00.087-.146c.005-.41.047-.817.123-1.22.078-.324.245-.727.688-.727.394.07.778.193 1.14.364.246.123.526.325 1.018.649.526.408 1.175.983 1.297 1.101.123.118.369.202.448.24.078.04.201 0 .162-.122z" fill="#727270"/><path fill-rule="evenodd" clip-rule="evenodd" d="M15.79 122.883a4.847 4.847 0 01-6.528-1.912 4.807 4.807 0 01.458-5.317 4.806 4.806 0 016.751-.748 4.81 4.81 0 011.206 1.434 4.842 4.842 0 01-1.873 6.543h-.014zm5.446-11.95a9.45 9.45 0 00-1.966-1.627l.324-1.868a1.291 1.291 0 00-.894-1.421l-2.802-.816a1.212 1.212 0 00-1.475.733l-.772 1.75a9.605 9.605 0 00-2.64.241l-1.1-1.544a1.261 1.261 0 00-1.623-.364l-2.521 1.382a1.268 1.268 0 00-.57 1.543l.693 1.75a11.736 11.736 0 00-1.75 2.192l-1.829-.324a1.198 1.198 0 00-1.406.855l-.85 2.802a1.192 1.192 0 00.727 1.475l1.667.727c-.027.944.069 1.888.285 2.807l-1.42.983a1.326 1.326 0 00-.37 1.623l1.387 2.561a1.265 1.265 0 001.543.526l1.622-.649a9.76 9.76 0 002.114 1.75l-.23 1.656a1.184 1.184 0 00.85 1.381l2.767.851a1.296 1.296 0 001.504-.728l.649-1.548a9.772 9.772 0 002.885-.285l.984 1.386a1.216 1.216 0 001.587.364l2.561-1.381a1.306 1.306 0 00.526-1.588l-.634-1.549a9.446 9.446 0 001.868-2.354l1.71.285a1.231 1.231 0 001.421-.855l.772-2.802a1.186 1.186 0 00-.693-1.475l-1.666-.693a12.349 12.349 0 00-.325-2.763l1.475-1.017a1.328 1.328 0 00.364-1.622l-1.421-2.561a1.173 1.173 0 00-1.544-.531l-1.784.742zm98.843-44.461a2.322 2.322 0 00-2.761-2.322 2.317 2.317 0 00-1.836 1.836 2.321 2.321 0 002.321 2.761 2.344 2.344 0 002.276-2.275zm10.569-2.316l-3.215-.57a7.505 7.505 0 00-.85-1.966l1.907-2.763a.623.623 0 00-.079-.81l-2.276-2.277a.682.682 0 00-.855-.083l-2.723 1.912a9.133 9.133 0 00-1.967-.855l-.565-3.21a.789.789 0 00-.693-.531h-3.249a.702.702 0 00-.654.53l-.609 3.29a7.603 7.603 0 00-1.868.776l-2.724-1.829a.592.592 0 00-.855.079l-2.276 2.276a.627.627 0 00-.079.81l1.829 2.685c-.318.63-.577 1.288-.772 1.966l-3.21.57a.63.63 0 00-.53.65v3.293a.575.575 0 00.53.565l3.21.654a6 6 0 00.856 1.868l-1.834 2.683a.588.588 0 00.084.85l2.276 2.321a.682.682 0 00.855.079l2.64-1.829a6.97 6.97 0 001.868.732l.609 3.294a.66.66 0 00.654.526h3.288a.735.735 0 00.694-.526l.565-3.215c.654-.24 1.342-.442 1.966-.727l2.684 1.784a.658.658 0 00.811-.04l2.276-2.315a.588.588 0 00.224-.41.595.595 0 00-.14-.445l-1.868-2.767a6.1 6.1 0 00.85-1.868l3.215-.654a.57.57 0 00.526-.565V64.79a.625.625 0 00-.526-.649v.015zm-12.845 7.865a5.608 5.608 0 115.57-5.57 5.619 5.619 0 01-5.57 5.57z" fill="#727270"/><path d="M338.368 120.361l-1.966-.811c.075-.511.09-1.029.044-1.543l1.966-.772a2.499 2.499 0 001.426-3.215l-.448-1.096a2.456 2.456 0 00-3.17-1.421l-1.966.772a9.53 9.53 0 00-1.097-1.14l.856-1.908a2.532 2.532 0 00-1.264-3.254l-1.096-.491a2.461 2.461 0 00-2.707.501 2.468 2.468 0 00-.542.801l-.855 1.868a10.202 10.202 0 00-1.544 0l-.772-1.966a2.451 2.451 0 00-1.291-1.366 2.453 2.453 0 00-1.879-.054l-1.141.447a2.524 2.524 0 00-1.42 3.21l.772 1.966a6.65 6.65 0 00-1.097 1.057l-1.912-.855a2.453 2.453 0 00-2.699.473c-.233.225-.42.493-.55.79l-.477 1.101a2.425 2.425 0 001.259 3.249l1.907.855c-.039.526-.039 1.018-.039 1.544l-1.967.732a2.465 2.465 0 00-1.381 3.21l.408 1.141a2.492 2.492 0 003.21 1.381l1.966-.732a8.9 8.9 0 001.057 1.096l-.855 1.912a2.554 2.554 0 001.258 3.288l1.141.448a2.393 2.393 0 003.209-1.259l.856-1.912a18.6 18.6 0 001.543.044l.772 1.967a2.496 2.496 0 003.21 1.42l1.101-.447a2.453 2.453 0 001.56-2.261 2.448 2.448 0 00-.179-.949l-.732-1.966c.393-.322.76-.676 1.096-1.057l1.966.811a2.453 2.453 0 001.886.046 2.457 2.457 0 001.363-1.304l.492-1.097a2.532 2.532 0 00-1.263-3.254h-.015zm-5.933.777a6.387 6.387 0 01-5.989 3.795 6.397 6.397 0 01-5.806-4.069 6.392 6.392 0 018.501-8.181 6.382 6.382 0 013.408 3.542 6.383 6.383 0 01-.114 4.913zm-3.574-1.588a2.488 2.488 0 01-2.367 1.527 2.523 2.523 0 01-.845-4.873 2.477 2.477 0 011.91.053 2.45 2.45 0 011.523 2.336 2.47 2.47 0 01-.221.957zm-163.14-6.704c.26.29.406.666.408 1.056a2.411 2.411 0 01-.083.566 1.616 1.616 0 01-2.087.873 1.585 1.585 0 01-.523-.338c-.04-.083-.123-.162-.163-.245a1.428 1.428 0 01-.285-.851 1.56 1.56 0 01.982-1.434c.191-.076.395-.113.601-.109.43.007.84.184 1.141.491l.009-.009zm2.355 1.219a3.518 3.518 0 01-3.48 3.323 3.486 3.486 0 01-2.802-1.426.758.758 0 01-.162-.241 3.47 3.47 0 01-.097-3.532 3.47 3.47 0 013.046-1.791 3.528 3.528 0 012.684 1.258c.517.631.803 1.42.811 2.237v.172zm4.473.526v-1.382a1.025 1.025 0 00-.811-.983l-1.504-.285c-.084-.246-.207-.447-.285-.649l.85-1.302a.942.942 0 00-.118-1.259l-.939-.939a.968.968 0 00-.727-.28 1.161 1.161 0 00-.531.118l-1.298.909a3.618 3.618 0 00-.654-.285l-.324-1.499a.952.952 0 00-.934-.816h-1.381a.983.983 0 00-.983.816l-.281 1.499a3.64 3.64 0 00-.653.285l-1.313-.899a1.334 1.334 0 00-.57-.118.886.886 0 00-.377.065.888.888 0 00-.316.215l-.983.939a1.037 1.037 0 00-.123 1.258l.855 1.303c-.083.202-.162.403-.246.649l-1.543.285a1.031 1.031 0 00-.811.983v1.381a1.028 1.028 0 00.811.983l1.543.286c.084.24.163.442.246.648l-.855 1.298a1.053 1.053 0 00.123 1.263l.983.934a.938.938 0 00.693.325.98.98 0 00.57-.202l1.298-.855c.206.121.425.216.654.285l.28 1.504a.982.982 0 00.983.816h1.381a.954.954 0 00.934-.816l.325-1.504c.228-.069.448-.164.653-.285l1.298.855c.155.129.349.2.551.202a1.007 1.007 0 00.727-.325l.939-.934a.946.946 0 00.118-1.263l-.85-1.298c.078-.206.201-.408.285-.648l1.504-.286a1.028 1.028 0 00.811-.983l-.005-.009z" fill="#67CDFD"/><path d="M167.711 126.825a.858.858 0 01-.408.856.672.672 0 01-.609.078.32.32 0 01-.163-.039.903.903 0 01-.363-.325.89.89 0 01.285-1.14.817.817 0 01.688-.079c.183.072.34.199.447.364.084.084.084.202.123.285zm.123 1.706a1.73 1.73 0 01-1.666.123c-.04 0-.084-.039-.123-.039a1.711 1.711 0 01-.733-.694 1.81 1.81 0 011.037-2.737c.368-.1.759-.082 1.116.054.418.133.777.405 1.018.771 0 .045.039.045.039.084a1.835 1.835 0 01-.688 2.458v-.02zm2.949-1.504l-.771-.364a.91.91 0 00-.04-.324l.61-.571a.493.493 0 00.123-.648l-.408-.61a.496.496 0 00-.61-.246l-.772.285a1.9 1.9 0 01-.285-.245l.045-.811a.534.534 0 00-.448-.531l-.693-.202a.576.576 0 00-.364.084c-.123.039-.167.118-.245.241l-.325.732a1.237 1.237 0 00-.369.084l-.55-.615a.493.493 0 00-.654-.118l-.609.364a.526.526 0 00-.241.654l.285.771c-.084.079-.162.202-.246.281l-.811-.04a.682.682 0 00-.285.084.411.411 0 00-.246.324l-.162.688a.493.493 0 00.285.61l.732.329c0 .118.04.241.04.403l-.61.531a.555.555 0 00-.083.649l.368.649a.562.562 0 00.659.211l.772-.285c.083.079.201.162.285.241l-.039.816a.52.52 0 00.408.526l.688.207a.662.662 0 00.408-.084.417.417 0 00.201-.246l.369-.727c.118 0 .241-.045.364-.045l.526.61a.626.626 0 00.693.084l.609-.364a.521.521 0 00.202-.61l-.241-.776c.052-.117.12-.226.201-.325l.816.044a.798.798 0 00.325-.083c.079-.084.201-.162.201-.325l.202-.693a.591.591 0 00-.285-.609l-.025-.005zm8.066-5.447a1.3 1.3 0 01-.531 1.141 1.192 1.192 0 01-.895.123c-.039-.045-.123-.045-.162-.084a.944.944 0 01-.492-.403 1.133 1.133 0 01.364-1.548 1.15 1.15 0 01.895-.118c.271.074.503.25.649.491.079.124.135.26.167.403l.005-.005zm.162 2.321a2.326 2.326 0 01-2.237.162.191.191 0 01-.091-.022.202.202 0 01-.071-.062 2.462 2.462 0 01-1.435-2.145 2.45 2.45 0 011.273-2.244 2.488 2.488 0 012.069-.202c.58.182 1.073.573 1.382 1.096a.138.138 0 00.007.067c.007.021.02.041.037.056a2.51 2.51 0 01-.934 3.294zm4.021-2.031l-1.018-.491c-.039-.162-.039-.325-.078-.492l.811-.771a.698.698 0 00.162-.895l-.526-.85a.705.705 0 00-.855-.286l-1.057.369a2.868 2.868 0 00-.408-.285l.044-1.14a.71.71 0 00-.531-.733l-.934-.201a1.339 1.339 0 00-.57.039.656.656 0 00-.241.329l-.492 1.013a2.102 2.102 0 00-.491.083l-.772-.811a.694.694 0 00-.894-.167l-.851.531a.697.697 0 00-.285.855l.364 1.057a2.127 2.127 0 00-.285.364l-1.136-.039a.559.559 0 00-.368.123.57.57 0 00-.364.442l-.202.939a.683.683 0 00.364.811l1.018.492c.006.166.032.331.078.491l-.811.733a.742.742 0 00-.162.933l.526.816a.719.719 0 00.855.325l1.057-.369c.131.083.252.178.364.285l-.04 1.141a.652.652 0 00.571.688l.934.246a.782.782 0 00.53-.084.64.64 0 00.281-.28l.491-1.062c.165.007.33-.006.492-.039l.732.816a.737.737 0 00.934.118l.811-.492a.708.708 0 00.325-.85l-.364-1.057c.084-.123.162-.246.285-.408l1.136.039a.423.423 0 00.368-.078.73.73 0 00.325-.448l.241-.934a.705.705 0 00-.364-.811v-.005z" fill="#727270"/><path fill-rule="evenodd" clip-rule="evenodd" d="M69.724 165.599a4.642 4.642 0 014.977 1.372 4.634 4.634 0 11-7.926 4.439 4.631 4.631 0 012.949-5.811zm-4.675.281a1.652 1.652 0 01.162 1.302c-.122.246-.525.325-.933.246-.409-.079-.856.28-.984.895a.948.948 0 00.492 1.175c.447.083.772.815.772 1.056 0 .241-.246.531-.65.654a.982.982 0 00-.447 1.259c.202.57.689.894 1.097.771.408-.123.81-.083.934.162a1.273 1.273 0 01-.04 1.259 1.063 1.063 0 00.285 1.303c.448.363 1.057.447 1.298.122a1.474 1.474 0 011.303-.122c.246.083.324.491.246.894-.08.403.28.895.89 1.013a.986.986 0 001.18-.526c.083-.408.81-.772 1.056-.772s.526.285.649.649a.982.982 0 001.263.408c.565-.162.89-.61.772-1.018-.118-.408.324-1.056.526-1.219.201-.162.61 0 .894.246.325.325.895.202 1.303-.246.408-.447.447-1.012.118-1.297a1.479 1.479 0 01-.118-1.303c.079-.202.492-.324.895-.246.403.079.89-.28 1.012-.85.123-.57-.123-1.141-.526-1.219-.403-.079-.732-.772-.771-1.018-.04-.246.285-.526.648-.693.448-.118.61-.688.448-1.219-.162-.531-.65-.89-1.057-.772a1.699 1.699 0 01-1.22-.526c-.122-.206 0-.609.286-.934.285-.324.162-.894-.285-1.302-.447-.408-1.018-.448-1.303-.123a1.572 1.572 0 01-1.258.162.865.865 0 01-.285-.934c.123-.403-.285-.85-.85-1.013-.57-.083-1.102.118-1.22.566-.118.447-.776.732-1.017.771-.241.04-.531-.28-.693-.727a.927.927 0 00-1.22-.369c-.57.163-.933.61-.771 1.057a1.477 1.477 0 01-.57 1.18c-.163.123-.566.039-.89-.285a1.053 1.053 0 00-1.303.285c-.368.447-.447 1.057-.123 1.298h.005z" fill="#67CDFD"/><path fill-rule="evenodd" clip-rule="evenodd" d="M56.943 172.708a3.389 3.389 0 014.267 2.158 3.44 3.44 0 01-2.197 4.266 3.377 3.377 0 11-2.07-6.424zm-3.44.206c.245.202.2.772.122.934a.686.686 0 01-.693.202c-.285-.079-.61.206-.688.609a.708.708 0 00.364.895.98.98 0 01.57.771c0 .163-.202.369-.492.492a.7.7 0 00-.33.895c.163.447.492.693.777.57a.727.727 0 01.727.123 1.08 1.08 0 01-.038.934.751.751 0 00.201.983.818.818 0 00.983.078.977.977 0 01.934-.122.612.612 0 01.163.693c-.04.285.201.609.648.732.448.123.816-.083.856-.408a1.149 1.149 0 01.772-.57c.201 0 .407.206.491.531a.716.716 0 00.895.285c.408-.123.693-.492.61-.777-.084-.285.206-.767.368-.889.162-.123.447 0 .649.201a.687.687 0 00.934-.201.642.642 0 00.269-.44.635.635 0 00-.146-.494c-.202-.207-.163-.777-.123-.984a.636.636 0 01.693-.162c.324.079.649-.201.727-.609.079-.408-.078-.856-.364-.934-.324 0-.57-.571-.609-.733-.04-.162.246-.408.53-.491.286-.084.404-.492.281-.934a.678.678 0 00-.772-.531c-.28.083-.727-.246-.89-.408-.083-.118 0-.447.202-.649s.123-.649-.201-.983a.66.66 0 00-.711-.209.664.664 0 00-.228.125c-.202.246-.811.163-.934.084s-.241-.369-.162-.649a.73.73 0 00-.65-.732c-.447-.084-.815.078-.894.403-.079.324-.57.531-.772.57-.201.039-.368-.241-.491-.526a.646.646 0 00-.387-.332.647.647 0 00-.508.047.705.705 0 00-.57.772 1.118 1.118 0 01-.369.85c-.162.123-.447.044-.688-.162a.675.675 0 00-.934.162.77.77 0 00-.123.983v.005zm4.68-11.217a2.732 2.732 0 11-.89 4.745 2.73 2.73 0 01-.9-1.304 2.71 2.71 0 011.79-3.441zm-2.807.162c.206.162.162.649.083.772-.078.123-.285.201-.53.162-.246-.039-.526.162-.61.531a.6.6 0 00.324.688.9.9 0 01.448.61c0 .162-.163.324-.403.408a.529.529 0 00-.207.732.6.6 0 00.61.491c.206-.083.491-.083.53.084.04.167.163.565 0 .728a.59.59 0 00.163.771c.285.246.61.285.772.084.162-.202.648-.123.771-.084.123.04.207.33.123.571-.083.24.202.491.531.57.33.078.649-.04.728-.325.078-.285.447-.447.61-.447.161 0 .323.162.407.403.084.241.408.369.733.246.324-.123.525-.408.447-.649-.079-.241.201-.57.324-.693s.325 0 .526.162a.569.569 0 00.777-.162c.24-.285.28-.61.079-.772-.202-.162-.123-.649-.08-.772a.497.497 0 01.527-.123c.246.04.526-.201.61-.525.083-.325-.084-.649-.325-.694a.953.953 0 01-.447-.648c0-.163.162-.325.408-.408.245-.084.324-.404.24-.733a.564.564 0 00-.648-.447c-.246.083-.61-.202-.693-.28a.538.538 0 01.122-.571c.207-.206.123-.53-.122-.771-.246-.241-.61-.285-.772-.084-.162.202-.65.123-.772.084-.123-.04-.201-.285-.123-.531.079-.246-.201-.526-.526-.61-.324-.083-.654.084-.693.325a.938.938 0 01-.649.447c-.123 0-.324-.162-.408-.403a.564.564 0 00-.727-.207c-.33.084-.531.369-.448.61.084.241-.206.61-.329.693a.491.491 0 01-.526-.123c-.201-.201-.53-.123-.772.123-.24.246-.285.61-.083.772v-.005z" fill="#727270"/><path d="M58.87 7.214a2.399 2.399 0 01-.038 4.797 2.428 2.428 0 01-2.355-2.457 2.394 2.394 0 012.394-2.36v.02zm-5.2 6.587l.855.85a.796.796 0 001.013.084l.531-.448c.417.254.87.446 1.342.57l.079.733a.708.708 0 00.693.649h1.219a.788.788 0 00.771-.649l.08-.732c.476-.113.93-.305 1.341-.57l.61.49a.743.743 0 00.934-.038l.894-.895a.748.748 0 00.044-.983l-.491-.61c.236-.392.415-.815.53-1.258l.773-.079a.753.753 0 00.648-.732l.045-1.22a.742.742 0 00-.654-.732l-.85-.123a3.096 3.096 0 00-.492-1.135l.53-.654a.742.742 0 00-.038-1.012l-.856-.856a.733.733 0 00-.983-.04l-.654.492a4.434 4.434 0 00-1.219-.491l-.079-.855a.752.752 0 00-.732-.65l-1.219-.039a.742.742 0 00-.732.65l-.07.81a4.561 4.561 0 00-1.302.531l-.649-.53a.752.752 0 00-.983.083l-.85.85a.747.747 0 00-.084.983l.492.61a5.024 5.024 0 00-.526 1.258l-.772.084a.772.772 0 00-.654.732v1.22a.713.713 0 00.654.727l.733.123c.112.443.289.867.526 1.258l-.492.57a.742.742 0 00.04.983l.004-.01z" fill="#67CDFD"/><path d="M70.535 20.55a2.916 2.916 0 01-1.601-5.147 2.917 2.917 0 111.601 5.147zm6.788-4.183a6.881 6.881 0 00-.447-1.475l.816-.855a.747.747 0 000-.983l-1.14-1.342a.742.742 0 00-.983-.162l-.984.648a5.927 5.927 0 00-1.38-.771l-.04-1.18a.777.777 0 00-.654-.728l-1.784-.123a.713.713 0 00-.777.566l-.24 1.1a7.172 7.172 0 00-1.628.527l-.816-.797a.742.742 0 00-.983 0l-1.381 1.136a.703.703 0 00-.123.983l.57.895c-.314.47-.573.975-.772 1.504l-1.056.04a.718.718 0 00-.733.648l-.162 1.75a.81.81 0 00.57.811l1.057.202c.079.552.245 1.087.491 1.587l-.732.772a.748.748 0 000 .983l1.101 1.342a.747.747 0 001.013.162l.816-.57c.471.357.99.645 1.543.855l.04 1.018a.678.678 0 00.648.688l1.75.163a.723.723 0 00.811-.566l.207-.983a7.406 7.406 0 001.706-.57l.771.732a.732.732 0 00.983 0l1.382-1.135a.737.737 0 00.123-.983l-.61-.89c.312-.471.571-.976.772-1.504l1.101-.044a.742.742 0 00.728-.65l.162-1.744a.796.796 0 00-.61-.816l-1.126-.241zM26.722 57.653a1.233 1.233 0 01-.447-.246c-.162-.123-.728-.649-1.298-1.096a5.13 5.13 0 00-1.018-.61 3.602 3.602 0 00-1.056-.363c-.448 0-.61.403-.689.727a6.639 6.639 0 00-.122 1.18.25.25 0 01-.246.202c.005.328-.008.656-.04.983 0 .324-.162 1.342-.162 1.828a11.944 11.944 0 00-.083 1.706c0 .408.122 3.495.122 3.495s.163 0 .163.206c0 .207.044.448.044.811 0 .364.118 1.544.118 2.114 0 .57 0 1.79-.04 2.315a78.758 78.758 0 00-.122 3.21c-.018.8.01 1.602.083 2.4.04.323.202 2.56.202 2.683a.257.257 0 01-.079.285.801.801 0 01-.369.162 6.55 6.55 0 01-1.017.04c-.492 0-.649-.04-.85-.04a1.436 1.436 0 01-.61-.123c-.162-.083-.246-.162-.206-.447.039-.285.206-2.192.245-2.684.04-.491.084-1.966.084-2.315s-.123-2.684-.167-3.25c-.044-.564 0-1.872.044-2.275.044-.403.079-1.75.123-2.035v-.895a.21.21 0 01.201-.162c0-.61.123-3.048.123-3.534 0-.487-.044-1.259-.044-1.627 0-.448-.162-1.583-.201-1.967v-.894s-.163-.04-.163-.163c-.059-.28-.1-.564-.123-.85a1.057 1.057 0 00-.201-.61c-.123-.206-.408-.162-.693-.162a5.79 5.79 0 00-.772.079 3.61 3.61 0 00-.61.162c-.122.084-.201.162-.324.162-.35.049-.703.077-1.057.084a.315.315 0 01-.304-.197 6.792 6.792 0 01-.202-.855v-.767c0-.162.079-.447.285-.447a9.08 9.08 0 011.013-.04c.187.036.367.104.53.202.243.033.488.046.733.04.202-.04.57-.202.772-.242.199-.164.435-.277.688-.329a20.098 20.098 0 012.276-.078c.828.08 1.631.329 2.36.732a6.33 6.33 0 011.543 1.258c.57.57 1.258 1.475 1.381 1.588.127.156.223.335.285.526.04.123-.04.162-.123.123h.02zM2.87 75.33h-1.1v-.895h1.1v.895zM2.3 60.583a.491.491 0 01.531.447v11.99a.53.53 0 01-.53.49.492.492 0 01-.492-.49V61.024a.463.463 0 01.491-.447v.005zm1.75-6.666l-.368 1.381c-.118.531-.241.733-.772.772a1.724 1.724 0 01-1.298-.324.703.703 0 01-.324-.895l.526-1.583a.698.698 0 00-.408.04c-.61.53-1.475 1.705-1.381 2.762.048.327.206.629.447.855.369.895.855 1.991.855 3.048V74.77a8.774 8.774 0 01-.368 2.114A1.661 1.661 0 012.3 76.23a1.73 1.73 0 011.382.654 7.517 7.517 0 01-.403-2.114V59.973c-.03-.94.27-1.86.85-2.6-.04.04-.079.04-.118.079a1.44 1.44 0 00.443-.566 3.102 3.102 0 00-.118-2.762c-.045-.123-.123-.168-.286-.207zm-.447 24.51a.491.491 0 00-.324.609.452.452 0 00-.61.364.491.491 0 00-.693 0 .491.491 0 00-.649-.364.457.457 0 00-.324-.61.521.521 0 000-.732.492.492 0 00.364-.57.492.492 0 00.61-.364.491.491 0 00.692 0 .492.492 0 00.61.364.442.442 0 00.363.57.52.52 0 00-.039.732zM2.3 76.312a1.76 1.76 0 00-1.62 2.42 1.736 1.736 0 001.616 1.08 1.769 1.769 0 001.789-1.75 1.794 1.794 0 00-1.79-1.745l.005-.005z" fill="#727270"/><path d="M12.011 55.824c0 .079-.04.325-.079.325s-.324.078-.408.162c-.083.084-.201.202-.24.202-.04 0-.33-.08-.409-.04-.078.04-.285.04-.324.04-.04 0-.162-.123-.285-.202-.123-.079-.162-.162-.246-.162-.083 0-.162 0-.201-.04-.04-.039-.084-.285-.123-.368a1.555 1.555 0 00-.202-.241.86.86 0 00.079-.285c.044-.162-.04-.408 0-.408s.206-.202.206-.285c.057-.115.097-.238.118-.364.084-.084.369-.123.408-.162.04-.04.202-.207.285-.207.084 0 .246.084.364.084.104-.046.216-.075.33-.084.078 0 .117.163.324.246.118.084.285.084.324.123.023.114.065.224.123.324.079.163.202.202.202.241.008.152-.005.304-.04.453l.08.363-.286.285zm-.565 21.54c0 .04.078.241.078.286 0 .044.123.162.123.201 0 .04-.04.202-.04.246l.04.403c0 .044-.162.162-.201.207-.04.044-.084.24-.123.285a.983.983 0 01-.325.078c-.044 0-.122.202-.206.202a.433.433 0 01-.202-.079c-.083-.044-.285 0-.368 0-.084 0-.118.04-.162 0a.392.392 0 00-.202-.246.883.883 0 01-.285-.123.604.604 0 00-.04-.24c0-.084-.201-.246-.201-.246s.079-.123.079-.202c0-.078-.079-.285-.04-.324.04-.04.202-.162.202-.246.052-.09.094-.185.123-.285a.985.985 0 00.324-.123c.04 0 .202-.162.246-.162.044 0 .285.083.324.083a1.05 1.05 0 01.325-.039c.04 0 .162.202.201.24a.811.811 0 01.33.085zm.61-23.88a3.566 3.566 0 00-.571-.363 1.925 1.925 0 00-.324-.079 1.563 1.563 0 00-.772.118 3.522 3.522 0 00-.634.325c-.337.342-.586.76-.728 1.219-.031.313-.018.629.04.938.145.361.337.701.57 1.013a.744.744 0 01.118.285c.037.147.065.297.083.448.04.122.202.162.202.206.046.2.06.405.04.61 0 .28-.04 1.42-.04 1.828 0 .408-.04 2.232-.04 2.6 0 .37 0 1.908-.039 2.276-.04.369-.044 1.967-.044 1.991v.688c0 .33 0 2.158-.04 2.645v3.898c0 .123-.039.447-.078.772-.04.324-.084.53-.123.693-.04.162-.201.408-.246.57a.56.56 0 00-.039.202c-.15.235-.287.48-.408.732a2.997 2.997 0 00-.162.57c-.044.452.055.906.285 1.298.212.343.524.612.895.772.315.117.658.132.983.044a2.07 2.07 0 00.894-.693 2.055 2.055 0 00.246-2.075c-.084-.201-.246-.403-.324-.609a.644.644 0 01-.123-.285c0-.079-.123-.241-.123-.403a4.214 4.214 0 01-.123-.895 8.508 8.508 0 010-1.017c0-.241-.04-.934 0-1.79-.015-.595 0-1.19.044-1.784v-1.607c0-.408.04-1.421.04-1.79 0-.368.039-1.543.039-1.99v-3.441c0-.409.04-1.018.04-1.387.036-.418.05-.838.043-1.258.04-.364.079-1.096.079-1.136 0-.039.04-.044.123-.083.083-.04.083-.162.083-.246a1.8 1.8 0 01.118-.364c.045-.083.286-.363.492-.648a2.138 2.138 0 00-.447-2.768l-.03-.03z" fill="#67CDFD"/><path d="M209.533 59.28l.162-.044.123-.079-.04.162-.044.123.162-.044.123-.04-.039.084-.039.162.162-.044.078-.04v.124l-.039.162.123-.079.118-.044-.039.123v.162l.122-.079h.123l-.044.08-.039.161.162-.039.123-.04-.039.119-.045.167.163-.084.127-.04-.044.124-.039.162.118-.044.128-.079-.045.123v.162l.123-.044.123-.04-.039.123-.044.123.162-.044.123-.04-.04.124-.039.162.162-.084.118-.039-.039.123-.039.162.162-.078h.078l-.039.078v.162l.123-.039.123-.04-.039.124-.045.118.163-.04.122-.04-.039.119-.039.123.162-.04.118-.039-.039.123-.04.162.163-.044.083-.079v.163l-.039.122.118-.039.123-.044v.123l-.04.123.123-.04.118-.044-.039.123-.039.162.162-.078.123-.045-.045.123-.039.162.162-.039.123-.04-.039.124-.044.118.122-.04.123-.039-.039.123v.162l.123-.084.118-.039-.039.123-.04.162.162-.044.123-.079-.044.123-.039.163.162-.045.123-.039-.039.084-.045.162.167-.04.079-.044v.123l-.039.162.123-.078.123-.045-.045.123-.039.163.162-.04.123-.04-.039.08-.044.162.162-.04.123-.039-.04.123-.039.162.162-.083.079-.04v.123l-.039.162.122-.083.123-.04-.044.123v.163l.123-.04.123-.044-.039.123-.045.123.163-.04.122-.044-.039.123-.039.162.162-.078.123-.044-.044.122-.04.163.123-.08h.133l-.044.08v.162l.123-.04.122-.039-.039.123-.044.162.167-.083.118-.04-.039.123-.04.118.163-.04.122-.038-.039.122-.044.163.162-.04.084-.083v.162l-.04.123.118-.04.133-.049v.123l-.079.123.163-.04.123-.038-.045.117-.039.163.162-.079.123-.04-.039.119-.045.167.163-.044.083-.04v.123l-.083.123.162-.044.123-.04-.04.123v.168l.123-.084.123-.04-.044.124-.039.162.162-.04.083-.083v.162l-.039.123.162-.04.118-.044-.039.123-.039.123.123-.04.118-.038-.04.117v.163l.123-.04.123-.078v.118l-.084.162.163-.04.123-.039-.04.123-.039.123.162-.044.118-.04-.039.123-.04.163.163-.084.078-.04v.124l-.039.162.123-.079.123-.044v.123l-.084.162.167-.04.118-.044-.039.084-.044.162.167-.04.123-.038-.045.118-.039.162.162-.079.084-.04v.119l-.044.167.123-.084h.123l-.04.084v.162l.118-.044.123-.04-.039.123-.04.163.163-.084.122-.04-.044.124-.039.162.123-.084h.162l-.039.084-.045.162.163-.04.083-.039-.039.08v.186l.118-.04.123-.039-.04.118-.039.123.162-.04.123-.038-.039.117-.044.163.162-.079.123-.04-.04.119-.039.167.162-.044.079-.04v.123l-.039.123.123-.044.118-.04-.04.123-.039.123.162-.044.123-.04-.044.123-.04.163.163-.04.123-.083-.04.162-.039.123.162-.04.079-.039v.123l-.04.118.123-.04.118-.038-.039.122v.163l.128-.113.123-.04-.045.123-.039.162.167-.044.118-.04-.039.124-.044.123.127-.045.163-.039-.045.123-.039.162.123-.084.123-.039-.044.123v.162l.123-.039.122-.084v.123l-.083.163.162-.04.123-.04-.039.08-.04.162.163-.04.122-.039-.044.118-.039.167.162-.083.084-.04v.123l-.045.162.123-.083h.123l-.039.083-.044.163.162-.045.123-.039-.04.123-.039.162.162-.079.123-.044-.044.123-.039.162.162-.078h.083v.078l-.039.163.118-.04.123-.04-.039.124v.118l.122-.04.118-.039-.039.123-.039.162.162-.083.123-.04-.039.123-.045.163.163-.084h.122l-.039.084-.039.162.118-.04.162-.044v-.04l1.426-1.503c.363.61.525 1.474 1.056 1.75.811.491 1.421.61 2.355 1.622.934 1.012 1.342.083 1.057-.325-.285-.408-.364-.894 0-1.705.364-.812 1.18-2.4 1.381-2.724a1.016 1.016 0 01.569-.587 1.023 1.023 0 01.817.017c.728.285.811-.491.364-.772a7.624 7.624 0 00-2.192-.688c-.693-.206-1.588-1.504-2.601-1.71-1.012-.207-1.179-.984-2.949-1.829l-.246.61-17.15-9.429-1.391 1.632-.04.163-.039.162.162-.084.118-.04-.039.124-.04.162.163-.04.122-.044-.044.123-.039.123.167-.02.079-.039-.04.118v.167l.123-.083.118-.04-.039.123-.034.143zm19.264 13.085c.118-.368.526-.855.811-1.587.285-.733.324-1.475.447-1.868a.762.762 0 01.895-.526l.285.078a.666.666 0 01.364.855 22.026 22.026 0 01-.492 2.154 13.757 13.757 0 01-.772 1.504c-.201.324-.531.57-.855.447l-.241-.084a.868.868 0 01-.447-.983l.005.01z" fill="#727270"/><path fill-rule="evenodd" clip-rule="evenodd" d="M122.316 171.41l-1.017-.856 4.389-5.161 1.018.855-4.39 5.162zm-1.38-1.18l-1.018-.85 4.39-5.167 1.017.856-4.389 5.161zm-1.381-1.18l-1.018-.85 4.39-5.161 1.012.85-4.384 5.161zm-1.427-1.174l-.974-.856 4.39-5.161 1.013.85-4.429 5.167zm-1.381-1.18l-.974-.855 4.39-5.162 1.013.856-4.429 5.161zm-1.383-1.18l-.973-.85 4.384-5.167 1.018.856-4.429 5.161zm8.333 7.074l-1.017-.856 4.389-5.161 1.018.855-4.39 5.162z" fill="#67CDFD"/><path fill-rule="evenodd" clip-rule="evenodd" d="M110.164 169.296a1.114 1.114 0 00-.124 1.251c.072.13.169.245.286.337l2.315 1.966-.408.443-4.267 5.048a2.11 2.11 0 00.202 2.949 2.07 2.07 0 001.525.496 2.079 2.079 0 001.424-.736l4.321-5.005.408-.447 2.315 1.991c.231.187.52.286.816.28a1.113 1.113 0 00.772-.403l3.657-4.311-9.59-8.165-3.652 4.306zM230.626 9.613l-2.458-2.886a.916.916 0 00-.492-.24.724.724 0 00-.654.402l-.85 1.79a.98.98 0 00.118 1.057l.167.162-6.951 5.81-1.179-1.42a.854.854 0 00-.592-.303.845.845 0 00-.627.219l-3.21 2.684a.857.857 0 00-.123 1.258l3.087 3.702a.953.953 0 001.263.123l3.21-2.724a.885.885 0 00.118-1.219l-1.175-1.425 6.946-5.771.128.123c.173.205.42.336.688.363.122.007.245-.006.364-.039l1.872-.61a.67.67 0 00.492-.447.68.68 0 00-.162-.61h.02zm-2.458.81a.139.139 0 01-.084-.039l-.526-.61-.536-.609s-.039-.078 0-.078l.693-1.504 2.031 2.354-1.578.487zm38.1 115.385h16.216l.61.609v2.847l-.61.609h-16.216l-.61-.609v-2.847l.61-.609z" fill="#727270"/><path fill-rule="evenodd" clip-rule="evenodd" d="M268.952 120.199h10.687l.811 3.864h-12.112l.614-3.864z" fill="#67CDFD"/><path fill-rule="evenodd" clip-rule="evenodd" d="M271.107 113.696h6.464l.487 3.863h-7.359l.408-3.863z" fill="#727270"/><path fill-rule="evenodd" clip-rule="evenodd" d="M273.504 108.048s.851-1.868 1.745 0l1.219 3.78h-4.183l1.219-3.78zm-54.704-.285a.404.404 0 01.57-.571l.934.895a.39.39 0 01.122.285.395.395 0 01-.122.285.366.366 0 01-.325.162.353.353 0 01-.285-.162l-.894-.894zm5.322.978a.444.444 0 010-.61l.894-.894a.392.392 0 01.571 0 .44.44 0 010 .609l-.895.895a.488.488 0 01-.285.123.378.378 0 01-.285-.123z" fill="#67CDFD"/><path fill-rule="evenodd" clip-rule="evenodd" d="M222.741 114.998h-3.372l-3.824 6.42h3.377l3.819-6.42zm4.351 0h-3.377l-3.859 6.42h3.372l3.864-6.42zm4.67 0h-3.372l-3.859 6.42h3.372l3.859-6.42zm-17.274 0l-1.966 3.249v3.171h1.504l3.824-6.42h-3.362zm14.634 10.972v-3.898h-13.616v3.898h13.616zm-16.846-11.621h7.374v-3.092h.894a1.872 1.872 0 01-.201-.811v-.162a1.856 1.856 0 011.868-1.828 1.839 1.839 0 011.828 1.828v.162a1.811 1.811 0 01-.201.811h.934v3.092h7.683v7.723h-1.908v7.801h1.259a.584.584 0 01.491.246.686.686 0 01.202.491.77.77 0 01-.202.492.651.651 0 01-.225.151.656.656 0 01-.266.05h-4.267a.675.675 0 01-.491-.201.742.742 0 01-.202-.492.662.662 0 01.202-.491.582.582 0 01.491-.246h1.583v-2.522h-13.616v2.522h1.342a.59.59 0 01.491.246.658.658 0 01.207.491.748.748 0 01-.207.492.66.66 0 01-.491.201h-4.267a.656.656 0 01-.492-.201.747.747 0 01-.206-.492.655.655 0 01.206-.491.576.576 0 01.492-.246h1.475v-7.801h-2.114v-7.723h.334z" fill="#727270"/><path fill-rule="evenodd" clip-rule="evenodd" d="M221.809 107.477v-1.258a.42.42 0 01.102-.317.401.401 0 01.47-.1.41.41 0 01.222.248.402.402 0 01.017.169v1.258a.409.409 0 11-.811 0zm-97.216-92.826a.764.764 0 001.013-.201l2.276-3.294a.718.718 0 00.035-.807.704.704 0 00-.197-.205l-.688-.531-3.132 4.547.693.491z" fill="#67CDFD"/><path fill-rule="evenodd" clip-rule="evenodd" d="M123.536 13.068c.067.07.122.152.162.241a.328.328 0 01.079.167c.061.114.103.237.123.364 3.008-4.306 4.266-4.065-1.475-8.17-3.898-2.723-7.639-3.293-10.849-2.399-1.828.492-1.966 1.22.04 1.102 9.388-.37 3.372 7.314 3.416 7.373 0 0 .201.123.491.324l-8.046 11.587 3.008 2.069 8.052-11.566c.241.201.403.324.403.324-.118.162.285-.364.408-.492.57-.693 1.789-1.868 3.293-1.543a1.4 1.4 0 01.61.285 1.1 1.1 0 01.201.24c.04.045.084.045.084.084v.01zm198.45-6.665l.531.408-5.161 6.05a34.47 34.47 0 00-.61 4.76l1.175 1.017a.491.491 0 00.408.118.692.692 0 00.364-.163l3.578-4.227 12.358 10.652a.7.7 0 00.983-.044l.649-.772a.696.696 0 00-.079-.983l-12.357-10.647 2.28-2.684.526.447c.649.526 3.087-2.315 2.458-2.885l-4.635-3.933c-.649-.57-3.087 2.316-2.458 2.886h-.01z" fill="#727270"/><path fill-rule="evenodd" clip-rule="evenodd" d="M323.129 59.197a1.47 1.47 0 00-.894.53l-3.982 5.201a1.421 1.421 0 00-.246 1.258l5.122-6.99z" fill="#67CDFD"/><path fill-rule="evenodd" clip-rule="evenodd" d="M324.918 58.666l-.61.776a1.513 1.513 0 00-.531-.245l-5.525 7.52a.956.956 0 00.28.28l.855.654a1.483 1.483 0 001.097.29 1.467 1.467 0 00.978-.575l3.981-5.2a1.47 1.47 0 00.1-1.643 1.46 1.46 0 00-.385-.432h-.039l.285-.364 1.706 1.298-1.966 5.609a.491.491 0 00.162.57l1.263.983-.324.492a.417.417 0 00-.097.322.41.41 0 00.175.287l6.951 5.083a.197.197 0 00.151.04.204.204 0 00.134-.08l1.544-2.113a.26.26 0 00.057-.194.25.25 0 00-.102-.175l-6.931-5.092a.387.387 0 00-.531.078l-.403.531-.934-.732 1.967-5.648a.491.491 0 00-.163-.57l-2.398-1.829a.654.654 0 00-.403-.123.868.868 0 00-.325.202h-.019zM20.873 170.599l.162-2.32a.526.526 0 00-.083-.241.593.593 0 00-.241-.084H6.116a.315.315 0 00-.201.084.302.302 0 00-.079.241l.118 2.32-.447.039c-1.475.202-.162 2.192.246 3.441 0 .079.083.123.162.123.246.175.42.434.491.727.286 1.141 1.264 4.026 2.276 5.324 2.522 3.333 6.951 3.333 9.512 0 .983-1.298 1.966-4.183 2.276-5.324a.98.98 0 01.492-.727c.083 0 .122-.044.162-.123.693-2.32 1.833-3.254-.241-3.495l-.01.015z" fill="#727270"/><path fill-rule="evenodd" clip-rule="evenodd" d="M13.436 158.565c-5.977 0-8.848 7.236-7.767 8.819a.226.226 0 00.207.123h15.12c.079 0 .118-.039.202-.123 1.057-1.583-1.79-8.819-7.762-8.819z" fill="#67CDFD"/><path fill-rule="evenodd" clip-rule="evenodd" d="M170.026 165.315c2.482 0 4.837 1.828 1.912 4.507a2.4 2.4 0 01-3.864 0c-2.925-2.679-.565-4.507 1.966-4.507h-.014zm-.448-.816a.534.534 0 01-.526-.526.543.543 0 01.136-.408.529.529 0 01.897.189.542.542 0 01.024.219.532.532 0 01-.531.526zm0-.984a.448.448 0 110 .895.448.448 0 010-.895zm0-.039a.495.495 0 01.592.244.491.491 0 01-.592.69.45.45 0 01-.34-.119.47.47 0 01-.151-.328.492.492 0 01.491-.492v.005zm1.264-.123a.275.275 0 01-.203-.082.275.275 0 01-.082-.203.316.316 0 01.285-.324.344.344 0 01.324.324.31.31 0 01-.106.207.312.312 0 01-.218.078zm0-.531c.162 0 .285.084.285.246a.274.274 0 01-.285.246.263.263 0 01-.246-.246.242.242 0 01.15-.23.24.24 0 01.096-.016zm0-.039a.278.278 0 01.285.285.274.274 0 01-.285.246.263.263 0 01-.246-.246.275.275 0 01.246-.285zm.526.324v-.122h-.079c0-.04 0-.04-.044-.079l.123-.039-.079-.123-.084.039c-.039 0-.039-.039-.078-.039l.039-.123-.084-.04-.078.079a.156.156 0 00-.084-.039v-.079h-.123v.069a.138.138 0 00-.078.039l-.084-.078-.142.039.083.123c-.039 0-.039.039-.083.039l-.079-.039-.079.123.118.039c-.039.039-.039.039-.039.079h-.123v.127h.123a.162.162 0 00.005.066.15.15 0 00.034.057l-.118.04.079.123.079-.079c.044.039.044.079.083.079l-.083.083.123.079.083-.079h.079v.123h.123v-.123h.083l.079.079.083-.079-.039-.083c.039 0 .039-.04.079-.079l.083.079.079-.123-.123-.04a.14.14 0 00.038-.055.143.143 0 00.006-.068l.099.005zm-.408 1.141a.188.188 0 01-.202-.162.206.206 0 01.361-.166.206.206 0 01.047.166.195.195 0 01-.071.122.193.193 0 01-.135.04zm0-.325a.16.16 0 01.065.008c.021.007.04.019.056.035a.156.156 0 01.046.12.17.17 0 01-.057.099.17.17 0 01-.216 0 .17.17 0 01-.057-.099.16.16 0 01.008-.065.133.133 0 01.035-.055.133.133 0 01.055-.035.16.16 0 01.065-.008zm0-.044a.192.192 0 01.167.207.17.17 0 01-.057.099.17.17 0 01-.216 0 .17.17 0 01-.057-.099.192.192 0 01.163-.207zm.329.246v-.084h-.044c0-.039-.04-.039-.04-.078l.084-.04-.044-.083-.079.039-.039-.039.039-.039-.084-.04-.039.04h-.059v-.084h-.083v.084h-.079v-.04l-.084.04.04.039-.04.039-.078-.039-.044.083.044.04v.078h-.084v.084h.084v.039l-.044.04.044.083.078-.039c0 .01.005.02.012.028a.04.04 0 00.028.011l-.04.039.084.04v-.04h.079v.084h.083v-.084h.039l.04.04.083-.04-.039-.039a.04.04 0 00.028-.011.043.043 0 00.011-.028l.079.039.044-.083-.083-.04.039-.039h.064zm-.796-.039v-.246h-.158a.291.291 0 01-.044-.162l.202-.084-.118-.246-.167.123-.118-.123.078-.162-.201-.123-.084.162c-.079 0-.123-.039-.162-.039v-.206h-.246v.206c-.039 0-.118.039-.162.039l-.079-.162-.201.123.078.162-.123.123-.162-.123-.118.246.162.079c0 .039-.044.083-.044.162h-.162v.246h.162c0 .039.044.078.044.162l-.162.079.118.201.162-.079c.045.04.084.079.123.079l-.078.167.201.123.079-.162a.25.25 0 00.162.039v.202h.246v-.202a.304.304 0 00.162-.039l.084.162.201-.123-.078-.167c.039 0 .078-.039.118-.079l.167.079.118-.201-.163-.079c0-.084 0-.123.045-.162l.118.005zm-.492 7.23c1.101 0 3.78-1.337 3.78-4.63 0-.447 0-.895-.039-1.303a4.34 4.34 0 00-.654-2.113c-.526-.728-1.475-1.219-3.087-1.219s-2.6.491-3.126 1.219a4.34 4.34 0 00-.654 2.113c-.039.408-.039.856-.039 1.303 0 3.293 2.684 4.63 3.819 4.63z" fill="#727270"/><path fill-rule="evenodd" clip-rule="evenodd" d="M174.012 175.431l-.531-.531.04-.04.531.526-.04.045zm-.123.167l-.57-.57.084-.045.526.531-.04.084zm-.368-.9a.04.04 0 00-.04-.039c-.039 0-.039 0-.039.039l-.084.045a1.008 1.008 0 01-.285-.286l.33-.285.118-.123a.45.45 0 00.531-.118.487.487 0 00.122-.491v-.015l-.368.325-.241-.241.324-.369h-.044a.5.5 0 00-.263-.007.497.497 0 00-.228.13.456.456 0 00-.148.245.453.453 0 00.025.286l-.123.118-.325.329a7.292 7.292 0 00-.604-.614l-.123-.241-.246-.162h-.039l-.084.118v.044l.162.201.207.163c.285.245.491.447.649.609l-.325.285-.123.123a.562.562 0 00-.526.123.53.53 0 00-.123.492v.009l.325-.324.285.285-.324.324h.039a.536.536 0 00.491-.122.607.607 0 00.123-.526l.123-.123.28-.325.286.285-.04.079c-.039 0-.039 0-.039.039 0 .04 0 .045.039.045l.693.732h.079l.246-.246c.039-.039.039-.039.039-.083a.04.04 0 00-.011-.028.044.044 0 00-.028-.012l-.693-.693zm3.539 1.141c-.207-1.219-.61-2.763-1.386-3.294-.566-.403-2.458-1.42-3.289-1.828v-.04a.253.253 0 00-.285.04 3.29 3.29 0 01-1.381.653c-.856.202-.531.202-1.426 0a3.29 3.29 0 01-1.381-.653.253.253 0 00-.285-.04c-.811.448-2.723 1.475-3.289 1.829-.894.649-1.302 2.885-1.381 3.333v.123c1.622 4.551 12.599 4.188 14.103 0v-.123z" fill="#67CDFD"/><path fill-rule="evenodd" clip-rule="evenodd" d="M280.249 169.866l-3.21-1.356v-.369h2.949l.261 1.725zm-.241 2.031l-2.95-1.421v-.895l2.95 1.382v.934zm0 1.828l-2.95-1.42v-.733l2.95 1.421v.732zm0 1.75l-2.95-1.425v-.625l2.95 1.421v.629zm-1.475 1.175l-1.504-.28v-1.224l2.723 1.263-1.219.241zm4.036-12.962h-8.052a.494.494 0 00-.348.143.495.495 0 00-.144.348v3.441a.495.495 0 00.492.492h1.504v8.656a.522.522 0 00.408.491l1.966.369h.241l1.966-.369a.487.487 0 00.408-.491v-8.652h1.559a.491.491 0 00.491-.491v-3.441a.495.495 0 00-.491-.492v-.004z" fill="#727270"/><path fill-rule="evenodd" clip-rule="evenodd" d="M269.601 168.51a1.808 1.808 0 00-1.296.532 1.813 1.813 0 00-.533 1.296 1.829 1.829 0 003.657 0 1.812 1.812 0 00-1.127-1.692 1.812 1.812 0 00-.701-.136zm2.114-1.342a.491.491 0 00-.408-.285h-3.412a.602.602 0 00-.447.285l-1.667 2.924a.373.373 0 000 .492l1.667 2.949a.558.558 0 00.447.246h3.412a.45.45 0 00.408-.246l1.705-2.949a.367.367 0 000-.492l-1.705-2.924z" fill="#67CDFD"/><path fill-rule="evenodd" clip-rule="evenodd" d="M116.949 122.637v-7.761a2.102 2.102 0 01-1.257-1.809 2.099 2.099 0 011.056-1.932l.201-.079v1.991h1.627v-1.991l.202.079a2.09 2.09 0 011.055 1.932 2.092 2.092 0 01-1.257 1.809v7.761a1.8 1.8 0 01.984 1.627 1.799 1.799 0 01-.937 1.539 1.793 1.793 0 01-1.8-.056 1.789 1.789 0 01.131-3.11h-.005zm.816.408a1.194 1.194 0 011.12.723 1.195 1.195 0 01-.238 1.311 1.202 1.202 0 01-1.848-.152 1.198 1.198 0 01-.213-.663 1.175 1.175 0 01.332-.858 1.2 1.2 0 01.847-.361zm101.968 50.316a.3.3 0 00-.083-.206.34.34 0 00-.109-.083.336.336 0 00-.132-.035h-.408v-7.197l.285-1.135v-.039l-.201-1.18a.133.133 0 00-.123-.123h-1.141c-.078 0-.118.039-.118.123l-.245 1.18v.039l.324 1.135v7.197h-.364a.258.258 0 00-.14.022.258.258 0 00-.106.096c-.078.044-.078.123-.078.206v4.39c0 .079 0 .162.078.201.079.04.123.084.246.084h1.991a.287.287 0 00.241-.084.296.296 0 00.083-.201v-4.39zm4.39-5.122v-.855a2.27 2.27 0 01-1.381-2.07 2.229 2.229 0 011.18-1.99l.201-.123v2.192h1.829v-2.192l.201.123a2.275 2.275 0 011.141 1.99 2.215 2.215 0 01-1.382 2.07v6.533c.415.175.767.469 1.013.846.247.376.375.818.369 1.267a2.342 2.342 0 01-1.141 1.967l-.201.078v-2.192h-1.829v2.192l-.201-.078a2.292 2.292 0 01-1.18-1.967 2.315 2.315 0 011.381-2.113v-5.693.015zm-6.543 8.981v-3.372h.325v3.372h-.325zm1.298 0v-3.372h.369v3.372h-.369zm111.373-4.714a.984.984 0 00.04-.895.794.794 0 00-.202-.285 1.108 1.108 0 00-.447-.28.889.889 0 00-.084-.855c0-.084-.083-.123-.118-.162-.368-.408-.653-.286-.653-.286a1.238 1.238 0 00-.325-1.056c-.447-.448-.855-.286-1.219.122l-.924.895c-.772-1.14-1.666-2.522-3.087-4.758l-.492-1.421c0-.039 0-.039-.039-.083l-1.057-1.136a.134.134 0 00-.201 0l-.693.408a.256.256 0 00-.04.241l.57 1.421c.04 0 .04.044.04.044l1.096 1.017h.044c1.475 2.271 2.355 3.697 3.166 4.916l-.28.285a2.55 2.55 0 00-1.101-.285 1.16 1.16 0 00-1.057 1.017c-.241.984-.163 2.399-.448 2.925-.25.475-.583.901-.983 1.259l2.561 2.6a7.44 7.44 0 012.846-1.666c.364-.163.689-.325 1.013-.492l1.829 2.886a.63.63 0 00.285.162.346.346 0 00.285-.04l1.627-1.056a.46.46 0 00.201-.286.405.405 0 00-.078-.285l-1.996-3.165a1.384 1.384 0 00-.118-1.711l.039.005zm-1.504 3.171c.139-.07.263-.167.364-.286l1.504 2.36-.364.241-1.504-2.315zm.811-.649c.129-.087.252-.182.369-.285l1.583 2.457-.408.246-1.544-2.418z" fill="#727270"/><path d="M286.916 15.59h-.61c-.039 0-.123 0-.123-.083V10.02a7.522 7.522 0 01-2.458 1.868c.325-.08.163.245.163.363a18.422 18.422 0 01-.04 3.338h-5.628c.983-1.263 1.829-2.645 2.885-3.78a4.215 4.215 0 005.078-4.532 1.068 1.068 0 00-.324-.733c-1.18.408-1.382 1.79-2.36 2.36-.649-.207-1.474-.285-2.153-.448a13.372 13.372 0 00-.894-2.074c.324-.408.693-.811 1.056-1.258.286-.369.856-.816.694-1.426-3.132-.526-5.245 2.95-3.903 5.855-1.175 1.504-2.517 2.885-3.658 4.424.325.526 1.141.934 1.18 1.587-.324-.083-.531-.447-.732-.693-1.259-1.38-2.763-2.762-4.105-4.065-.162-.162-.364-.688-.732-.491-.162.525.368.408.531.526.648.491.363.938.201 1.587a10.848 10.848 0 01-.447 1.907c.201.531.894.856.983 1.224h-1.73c.241-1.14.894-2.236.855-3.5.772-.648-.285-1.219-.855-1.336.693-2.237 1.42-4.513 2.03-6.828.654-.57.732-1.627.816-2.768-.325-.078-.61-.162-.983-.24-.123.565-.492.983-.649 1.504-.158.52 0 1.012-.123 1.504-.447 2.231-1.504 4.468-2.03 6.621-.57-.364-1.667-.24-1.381.61-.856 1.18-.984 3.047-1.628 4.424h-.732c-.079 0-.162 0-.202-.084a26.798 26.798 0 01.04-3.618h1.381c.102-.498.281-.977.531-1.42-.816-.772-1.544-1.627-2.458-2.36-.206.855-1.588 1.18-1.789 2.114-.207.772 0 1.829 0 2.684v2.684h-.816v12.151h25.158V15.59h-.039z" fill="#727270"/><path d="M266.963 13.639c.162-.57.324-1.549.85-1.549.895-.079.324 1.18.201 1.588-.28.811-.324 1.298-.525 1.912h-1.057c.162-.654.285-1.224.531-1.966v.015zm2.276-.954a.59.59 0 01.69.022c.066.05.12.112.16.184.246.689-.732 1.991-.732 2.684h-1.043c.448-.614.369-2.457.939-2.89h-.014z" fill="#67CDFD"/><path d="M25.974 15.546h-.57c-.04 0-.118 0-.118-.04v-5.485a7.442 7.442 0 01-2.458 1.828c.33-.039.167.285.167.403a22.24 22.24 0 01-.044 3.294h-5.658c.983-1.22 1.79-2.6 2.846-3.78 3.048.57 5.447-1.868 5.122-4.468a1.115 1.115 0 00-.324-.733c-1.18.408-1.386 1.79-2.36 2.36-.649-.207-1.474-.285-2.153-.448a16.55 16.55 0 00-.934-2.113c.39-.379.75-.786 1.077-1.22.324-.407.85-.855.727-1.425-3.165-.526-5.24 2.885-3.932 5.854-1.175 1.505-2.458 2.886-3.613 4.425.324.526 1.135.934 1.175 1.543-.364-.04-.526-.403-.728-.61-1.302-1.42-2.806-2.801-4.11-4.143-.2-.163-.402-.65-.727-.448-.206.526.364.408.526.526.61.492.364.895.202 1.544a14.62 14.62 0 01-.443 1.995c.163.492.85.772.984 1.136h-1.83c.286-1.136.935-2.237.856-3.495.772-.649-.285-1.18-.855-1.298.732-2.276 1.42-4.512 2.035-6.882.688-.526.772-1.582.85-2.723a7.042 7.042 0 00-.983-.24c-.123.525-.53.982-.654 1.504-.117.447-.039.983-.162 1.474-.403 2.276-1.504 4.473-1.99 6.666-.61-.403-1.667-.285-1.421.61-.855 1.14-.934 3.047-1.583 4.389h-.723c-.083 0-.206 0-.245-.04.039-1.18-.084-2.56.039-3.657h1.367c.094-.475.274-.93.53-1.342-.81-.81-1.543-1.705-2.398-2.457-.241.894-1.583 1.219-1.829 2.153-.202.732 0 1.828 0 2.684v2.64H.875v12.195h25.158V15.546h-.059z" fill="#727270"/><path d="M5.998 13.639c.162-.57.363-1.549.85-1.588.939-.04.325 1.18.207 1.627-.246.81-.325 1.258-.531 1.868H5.467c.201-.61.324-1.18.53-1.907zm2.28-.954a.536.536 0 01.85.207c.286.688-.732 1.99-.687 2.64H7.379c.447-.571.324-2.4.895-2.847h.004z" fill="#67CDFD"/><path d="M287.648 57.653a1.586 1.586 0 01-.448-.246 42.283 42.283 0 00-1.258-1.096 5.203 5.203 0 00-1.057-.61 3.604 3.604 0 00-1.057-.364c-.447 0-.609.404-.653.728-.045.325-.118.983-.163 1.18a.249.249 0 01-.24.201c.005.329-.008.657-.04.983 0 .325-.123 1.342-.162 1.83a26.231 26.231 0 00-.044 1.705c0 .408.083 3.495.083 3.495s.163 0 .163.206c0 .207.039.447.039.811 0 .364.123 1.544.123 2.114 0 .57 0 1.79-.044 2.315a69.447 69.447 0 00-.118 3.21c-.019.8.007 1.602.078 2.399.039.324.246 2.561.246 2.684a.363.363 0 01-.123.285.777.777 0 01-.364.162c-.337.04-.678.053-1.017.04-.448 0-.61-.04-.856-.04a1.476 1.476 0 01-.624-.108c-.162-.084-.201-.162-.162-.447.039-.285.202-2.193.202-2.684 0-.492.083-1.966.083-2.315 0-.35-.123-2.684-.123-3.25v-2.276c0-.403.123-1.75.123-2.035a7.42 7.42 0 00.039-.894.162.162 0 01.046-.116.156.156 0 01.117-.046c0-.61.122-3.048.122-3.535 0-.486-.039-1.258-.039-1.627 0-.447-.162-1.583-.162-1.966a6.36 6.36 0 010-.895.318.318 0 01-.206-.162c0-.118-.04-.492-.079-.85a1.06 1.06 0 00-.202-.61c-.123-.206-.447-.162-.693-.162a5.667 5.667 0 00-.811.078c-.206.041-.41.096-.609.163a.495.495 0 01-.286.162c-.363.047-.729.075-1.096.084a.309.309 0 01-.285-.202 7.61 7.61 0 01-.206-.855v-.777c0-.162.083-.447.285-.447a9.187 9.187 0 011.017-.04c.188.037.367.105.531.202.241.032.485.045.728.04.206-.04.57-.202.776-.242a1.55 1.55 0 01.728-.329c.743-.07 1.49-.096 2.237-.079a6.05 6.05 0 012.354.733 6.46 6.46 0 011.549 1.258c.489.504.95 1.034 1.381 1.588.137.155.247.333.324.526.04.123-.039.162-.162.123h.015zM263.792 75.33h-1.101v-.895h1.101v.894zm-.531-14.747a.435.435 0 01.459.262.42.42 0 01.033.185v11.99a.492.492 0 01-.492.49.539.539 0 01-.53-.49V61.024a.489.489 0 01.53-.447v.005zm1.706-6.666l-.364 1.381c-.122.531-.245.733-.771.772a1.78 1.78 0 01-1.303-.324.662.662 0 01-.358-.646.641.641 0 01.073-.249l.491-1.583a.519.519 0 00-.363.04c-.649.53-1.504 1.705-1.382 2.762.049.32.191.617.408.855.503.945.807 1.982.895 3.048V74.77a7.368 7.368 0 01-.408 2.114 1.73 1.73 0 011.381-.654 1.706 1.706 0 011.342.654 9.03 9.03 0 01-.368-2.114V59.973a3.974 3.974 0 01.816-2.6c-.04.04-.084.04-.123.079a2.11 2.11 0 00.491-.566 3.405 3.405 0 00-.118-2.762.388.388 0 00-.329-.207h-.01zm-.403 24.51a.501.501 0 00-.315.225.496.496 0 00-.054.384.454.454 0 00-.537.175.457.457 0 00-.072.189.493.493 0 00-.688 0 .464.464 0 00-.41-.39.458.458 0 00-.2.026.489.489 0 00-.329-.61.494.494 0 00-.04-.732.447.447 0 00.369-.57.494.494 0 00.61-.364.491.491 0 00.688 0 .496.496 0 00.413.377.489.489 0 00.196-.013.493.493 0 00.369.57.496.496 0 00-.121.567c.028.063.07.12.121.165zm-1.303-2.114a1.8 1.8 0 00-1.789 1.745 1.783 1.783 0 00.532 1.245 1.768 1.768 0 001.257.505 1.741 1.741 0 001.75-1.75 1.765 1.765 0 00-1.75-1.745z" fill="#727270"/><path d="M272.974 55.824c-.04.079-.079.325-.123.325s-.325.078-.403.162c-.079.084-.207.201-.246.201a1.172 1.172 0 00-.408-.039c-.079 0-.285.04-.324.04-.04 0-.163-.123-.285-.202-.123-.079-.163-.162-.202-.162-.039 0-.202 0-.202-.04 0-.039-.122-.285-.162-.368a1.826 1.826 0 00-.206-.241.813.813 0 00.083-.285c.04-.163-.039-.408 0-.408.04 0 .202-.202.202-.285.083-.04.123-.325.162-.364.039-.04.325-.123.369-.162.044-.04.201-.207.28-.207.079 0 .246.084.408.084a1.15 1.15 0 01.285-.084c.123 0 .162.162.325.246.162.084.285.084.324.123.025.113.067.223.123.324.083.163.246.202.246.241 0 .04-.084.408-.084.452l.084.364c0 .04-.246.246-.246.285zm-.61 21.54c0 .04.084.241.084.286 0 .044.118.162.118.201 0 .04-.039.202-.039.246l.039.403c0 .044-.162.162-.202.206-.039.045-.078.241-.078.285a1.28 1.28 0 01-.369.08c-.039 0-.123.2-.202.2a.445.445 0 01-.206-.078c-.079-.044-.28 0-.324 0-.045 0-.163.04-.202 0-.039-.04-.084-.201-.162-.246a.796.796 0 01-.325-.123.6.6 0 00-.039-.24c0-.084-.206-.246-.162-.246.017-.067.03-.134.039-.202 0-.083-.083-.285-.039-.324.044-.04.201-.162.201-.246.051-.09.092-.186.123-.285.126-.028.248-.069.364-.123a1.17 1.17 0 01.246-.162c.039 0 .241.083.28.083.105-.03.215-.043.324-.039.045 0 .207.202.246.24.04.04.285.045.285.084zm.61-23.88a3.42 3.42 0 00-.57-.363 1.623 1.623 0 00-.281-.079 1.674 1.674 0 00-.816.118 5.762 5.762 0 00-.648.324 1.697 1.697 0 00-.286.33 2.342 2.342 0 00-.408.89 2.39 2.39 0 00.04.938c.134.359.312.699.531 1.013a.695.695 0 01.123.285c.039.044.039.325.122.447 0 .123.202.163.202.207v.61c0 .28-.039 1.42-.039 1.828v2.6c-.045.364-.045 1.908-.045 2.276 0 .369-.039 1.966-.039 1.991v.688c0 .33-.039 2.158-.039 2.645 0 .487-.04 1.745-.04 2.276v1.622c0 .123-.044.447-.083.772a6.256 6.256 0 01-.123.693c-.09.186-.17.376-.241.57a.556.556 0 00-.039.202c0 .039-.246.408-.369.732a.986.986 0 00-.162.57 1.88 1.88 0 00.285 1.298c.177.354.481.63.85.772.328.114.682.129 1.018.044a2.01 2.01 0 00.855-.693 1.71 1.71 0 00.403-1.018 1.96 1.96 0 00-.162-1.057c-.078-.201-.241-.403-.324-.61a.698.698 0 01-.123-.284 4.034 4.034 0 00-.118-.403 4.973 4.973 0 01-.084-.895c-.039-.53-.039-.732-.039-1.017v-1.79c.039-.85.039-1.474.039-1.784 0-.31.04-1.14.04-1.588v-1.79c0-.363.044-1.543.044-1.99 0-.447.039-1.381.039-1.745v-3.092c.04-.364.04-.89.04-1.258 0-.369.083-1.096.083-1.136 0-.04.039-.044.118-.083.079-.04.084-.163.084-.246a1.56 1.56 0 01.123-.364c.078-.084.285-.364.491-.649.126-.187.222-.393.285-.61a2.033 2.033 0 00-.083-1.218 2.065 2.065 0 00-.649-.94l-.005-.039z" fill="#67CDFD"/><path d="M78.135 119.796h-.546c-.123 0-.162 0-.162-.044v-5.486a7.913 7.913 0 01-2.482 1.789c.33 0 .167.285.167.408a22.693 22.693 0 01-.044 3.333h-5.59c.984-1.219 1.79-2.645 2.847-3.78a4.235 4.235 0 004.843-2.576c.245-.62.34-1.288.279-1.951a1.052 1.052 0 00-.369-.733c-1.175.408-1.337 1.789-2.315 2.355-.649-.202-1.475-.28-2.153-.443a13.99 13.99 0 00-.934-2.074c.364-.408.688-.811 1.057-1.258.285-.325.85-.816.732-1.426-3.131-.526-5.284 2.949-3.932 5.899-1.18 1.504-2.483 2.885-3.618 4.424.324.491 1.135.939 1.135 1.548-.324-.044-.491-.408-.688-.654-1.302-1.42-2.807-2.801-4.104-4.104-.207-.162-.408-.688-.733-.447-.206.491.364.368.526.491.61.492.325.934.207 1.622a9.387 9.387 0 01-.492 1.912c.206.492.895.812.983 1.18H61c.285-1.14.94-2.236.856-3.5.771-.688-.285-1.214-.856-1.337.733-2.236 1.426-4.473 2.035-6.827.65-.571.772-1.628.85-2.768-.324-.039-.609-.202-.982-.241-.123.57-.531.983-.65 1.504-.117.521-.044 1.013-.162 1.505-.447 2.275-1.504 4.424-1.995 6.66-.61-.442-1.667-.28-1.42.57-.856 1.18-.984 3.048-1.584 4.424h-.737a.411.411 0 01-.246-.044 36.257 36.257 0 01.084-3.696h1.342c.108-.471.285-.924.526-1.342-.811-.811-1.544-1.667-2.4-2.399-.24.895-1.582 1.219-1.828 2.153-.24.732 0 1.789 0 2.684v2.644h-.772v12.191H78.22v-12.166h-.084z" fill="#727270"/><path d="M58.183 117.845c.162-.571.325-1.549.85-1.549.94-.039.325 1.18.207 1.588-.246.811-.324 1.302-.53 1.912h-1.058c.207-.61.33-1.18.531-1.966v.015zm2.313-.949a.535.535 0 01.674.043c.06.055.107.122.137.198.246.649-.727 1.966-.688 2.644h-1.056c.447-.609.324-2.399.933-2.885z" fill="#67CDFD"/><path fill-rule="evenodd" clip-rule="evenodd" d="M69.191 67.813a.353.353 0 00-.28-.123.447.447 0 00-.325.123l-.368.403c-.693-.727-1.22-1.219-1.745-1.744l2.762-2.724a2.62 2.62 0 002.842-.57 2.67 2.67 0 00.693-2.6l-.084-.285-1.784 1.828-1.504-1.504 1.789-1.829-.246-.039a2.625 2.625 0 00-3.185 3.534l-2.763 2.724c-.732-.728-1.705-1.667-3.17-3.17l-.812-1.382-.044-.04-1.342-.934c-.078-.039-.201-.039-.24.04l-.61.57a.153.153 0 000 .246l.895 1.337.078.083 1.342.772h.04c1.425 1.475 2.398 2.399 3.17 3.17l-3.574 3.619a2.31 2.31 0 00-2.36.526 2.355 2.355 0 000 3.293 2.31 2.31 0 003.255 0 2.265 2.265 0 00.565-2.36l2.36-2.354 1.219-1.258 1.745 1.745-.364.363a.55.55 0 00-.162.285c.01.125.069.241.162.325l4.228 4.227a.36.36 0 00.285.123.452.452 0 00.324-.123l1.42-1.474a.365.365 0 00.124-.285.448.448 0 00-.123-.325l-4.213-4.213z" fill="#727270"/><path fill-rule="evenodd" clip-rule="evenodd" d="M72.123 72.405L68.87 69.11l.369-.324 3.249 3.254-.364.364zm-.771.772l-3.254-3.29.324-.328 3.294 3.254-.364.364zm-10.246-2.763a1.568 1.568 0 010 2.153 1.524 1.524 0 110-2.153z" fill="#67CDFD"/><path fill-rule="evenodd" clip-rule="evenodd" d="M163.524 76.022c0 1.018 2.949 1.83 6.548 1.83 3.598 0 6.498-.812 6.498-1.83a54.312 54.312 0 01.693-9.757.144.144 0 01.123-.044c5.363-2.458-3.78-11.503-7.113-11.173-3.534-.285-13.085 8.612-7.683 11.133.084.04.123.04.162.084a53.65 53.65 0 01.772 9.753v.004z" fill="#727270"/><path fill-rule="evenodd" clip-rule="evenodd" d="M176.166 65.331c-.983.492-3.377.855-6.139.855-2.763 0-5.162-.363-6.135-.855-.324-.162-.492-.324-.492-.526 0-.732 2.95-1.342 6.622-1.342 3.672 0 6.587.61 6.587 1.342 0 .202-.163.364-.448.526h.005z" fill="#67CDFD"/><path fill-rule="evenodd" clip-rule="evenodd" d="M177.101 62.893l-.04-.04c-2.197-.85-10.283-1.627-14.024-.24 4.798-8.332 9.512-7.767 14.064.28z" fill="#FEFEFE"/></g></svg>