<svg width="11" height="11" viewBox="0 0 11 11" fill="none" xmlns="http://www.w3.org/2000/svg">
<path d="M6.50001 3.62283C6.50001 3.67449 6.51994 3.72013 6.55965 3.75992L7.2392 4.4394C7.2789 4.47919 7.32449 4.49902 7.3762 4.49902C7.42791 4.49902 7.4735 4.47913 7.51321 4.4394L9.49221 2.46061L10.3503 3.31885C10.4257 3.39436 10.5153 3.43213 10.6186 3.43213C10.7219 3.43213 10.8112 3.39436 10.8868 3.31886C10.9623 3.24337 11 3.15398 11 3.05066L11 0.380531C11 0.277155 10.9623 0.187786 10.8868 0.112257C10.8112 0.0367913 10.7219 -0.000972772 10.6186 -0.000972781L7.94849 -0.000973015C7.84518 -0.000973024 7.7556 0.036791 7.68015 0.112257C7.60473 0.187764 7.56686 0.277134 7.56686 0.380531C7.56686 0.483824 7.60471 0.573235 7.68015 0.648722L8.53844 1.50701L6.55954 3.48576C6.51994 3.52546 6.50001 3.57118 6.50001 3.62283Z" fill="white"/>
<path d="M0.381515 10.999L3.05166 10.999C3.15496 10.999 3.24437 10.9613 3.31985 10.8858C3.39536 10.8103 3.43313 10.7208 3.43313 10.6176C3.43313 10.5143 3.39536 10.4248 3.31985 10.3494L2.46161 9.49111L4.44036 7.51236C4.48019 7.47264 4.5 7.4269 4.5 7.37533C4.5 7.3236 4.48019 7.27791 4.44036 7.23818L3.761 6.55876C3.72121 6.51905 3.67556 6.49933 3.62391 6.49933C3.57226 6.49933 3.52652 6.51903 3.48682 6.55876L1.50803 8.53759L0.649789 7.67939C0.574323 7.60394 0.484912 7.56608 0.381598 7.56608C0.278222 7.56608 0.188853 7.60392 0.113345 7.67939C0.0378588 7.75475 0.00011567 7.84427 0.000115661 7.94758L0.000115428 10.6177C0.000115419 10.721 0.0378795 10.8105 0.113283 10.8858C0.188769 10.9613 0.278159 10.999 0.381515 10.999Z" fill="white"/>
</svg>
