<svg width="18" height="17" viewBox="0 0 18 17" fill="none" xmlns="http://www.w3.org/2000/svg">
<g clip-path="url(#clip0)">
<path d="M17.4988 8.4999C17.4988 11.3063 15.2322 13.5999 12.3988 13.5999C9.59248 13.5999 7.29883 11.3063 7.29883 8.4999C7.29883 5.69355 9.56549 3.3999 12.3718 3.3999C15.2322 3.3999 17.4988 5.69355 17.4988 8.4999Z" fill="#FFB600"/>
<path d="M12.3988 3.3999C15.2052 3.3999 17.4988 5.69355 17.4988 8.4999C17.4988 11.3063 15.2322 13.5999 12.3988 13.5999C9.59248 13.5999 7.29883 11.3063 7.29883 8.4999" fill="#F7981D"/>
<path d="M12.4004 3.3999C15.2067 3.3999 17.5004 5.69355 17.5004 8.4999C17.5004 11.3063 15.2337 13.5999 12.4004 13.5999" fill="#FF8500"/>
<path d="M5.54603 3.3999C2.76667 3.42689 0.5 5.69355 0.5 8.4999C0.5 11.3063 2.76667 13.5999 5.6 13.5999C6.92222 13.5999 8.10952 13.0872 9.02698 12.2777C9.21587 12.1158 9.37778 11.9269 9.53968 11.738H8.4873C8.35238 11.5761 8.21746 11.3872 8.10952 11.2253H9.91746C10.0254 11.0634 10.1333 10.8745 10.2143 10.6856H7.8127C7.73175 10.5237 7.65079 10.3348 7.59683 10.1459H10.4032C10.5651 9.63323 10.673 9.09355 10.673 8.52689C10.673 8.14911 10.619 7.79831 10.5651 7.44752H7.43492C7.46191 7.25863 7.51587 7.09673 7.56984 6.90784H10.3762C10.3222 6.71895 10.2413 6.53006 10.1603 6.36816H7.78571C7.86667 6.17927 7.9746 6.01736 8.08254 5.82847H9.89048C9.78254 5.63958 9.64762 5.4507 9.48571 5.28879H8.4873C8.64921 5.0999 8.81111 4.938 9 4.77609C8.10952 3.93958 6.89524 3.45387 5.57302 3.45387C5.57302 3.3999 5.57302 3.3999 5.54603 3.3999Z" fill="#FF5050"/>
<path d="M0.5 8.50013C0.5 11.3065 2.76667 13.6001 5.6 13.6001C6.92222 13.6001 8.10952 13.0874 9.02698 12.2779C9.21587 12.116 9.37778 11.9271 9.53968 11.7382H8.4873C8.35238 11.5763 8.21746 11.3874 8.10952 11.2255H9.91746C10.0254 11.0636 10.1333 10.8747 10.2143 10.6858H7.8127C7.73175 10.5239 7.65079 10.3351 7.59683 10.1462H10.4032C10.5651 9.63347 10.673 9.09378 10.673 8.52712C10.673 8.14934 10.619 7.79855 10.5651 7.44775H7.43492C7.46191 7.25886 7.51587 7.09696 7.56984 6.90807H10.3762C10.3222 6.71918 10.2413 6.53029 10.1603 6.36839H7.78571C7.86667 6.1795 7.9746 6.01759 8.08254 5.8287H9.89048C9.78254 5.63982 9.64762 5.45093 9.48571 5.28902H8.4873C8.64921 5.10013 8.81111 4.93823 9 4.77632C8.10952 3.93982 6.89524 3.4541 5.57302 3.4541H5.54603" fill="#E52836"/>
<path d="M5.60084 13.6001C6.92306 13.6001 8.11037 13.0874 9.02783 12.2779C9.21672 12.116 9.37862 11.9271 9.54052 11.7382H8.48814C8.35322 11.5763 8.2183 11.3874 8.11037 11.2255H9.9183C10.0262 11.0636 10.1342 10.8747 10.2151 10.6858H7.81354C7.73259 10.5239 7.65164 10.3351 7.59767 10.1462H10.404C10.5659 9.63347 10.6739 9.09378 10.6739 8.52712C10.6739 8.14934 10.6199 7.79855 10.5659 7.44775H7.43576C7.46275 7.25886 7.51672 7.09696 7.57068 6.90807H10.377C10.3231 6.71918 10.2421 6.53029 10.1612 6.36839H7.78656C7.86751 6.1795 7.97545 6.01759 8.08338 5.8287H9.89132C9.78338 5.63982 9.64846 5.45093 9.48656 5.28902H8.48814C8.65005 5.10013 8.81195 4.93823 9.00084 4.77632C8.11037 3.93982 6.89608 3.4541 5.57386 3.4541H5.54688" fill="#CB2026"/>
<path d="M7.40949 9.79501L7.49044 9.33628C7.46346 9.33628 7.40949 9.36327 7.35552 9.36327C7.16664 9.36327 7.13965 9.25533 7.16664 9.20136L7.32854 8.25692H7.62537L7.70632 7.74422H7.43648L7.49044 7.42041H6.95076C6.95076 7.42041 6.62695 9.20136 6.62695 9.41723C6.62695 9.74104 6.81584 9.87596 7.0587 9.87596C7.2206 9.87596 7.35552 9.822 7.40949 9.79501Z" fill="white"/>
<path d="M7.59766 8.93157C7.59766 9.68712 8.11036 9.87601 8.5421 9.87601C8.94686 9.87601 9.10877 9.79506 9.10877 9.79506L9.21671 9.28236C9.21671 9.28236 8.91988 9.41728 8.65004 9.41728C8.05639 9.41728 8.16432 8.98554 8.16432 8.98554H9.27067C9.27067 8.98554 9.35163 8.63474 9.35163 8.49982C9.35163 8.14903 9.16274 7.71728 8.56909 7.71728C8.00242 7.66331 7.59766 8.25696 7.59766 8.93157ZM8.5421 8.14903C8.83893 8.14903 8.78496 8.49982 8.78496 8.52681H8.19131C8.19131 8.49982 8.24528 8.14903 8.5421 8.14903Z" fill="white"/>
<path d="M11.9685 9.79519L12.0764 9.20154C12.0764 9.20154 11.8066 9.33646 11.6177 9.33646C11.2399 9.33646 11.078 9.03964 11.078 8.71583C11.078 8.06821 11.4018 7.71742 11.7796 7.71742C12.0495 7.71742 12.2653 7.87932 12.2653 7.87932L12.3463 7.31266C12.3463 7.31266 12.0225 7.17773 11.7256 7.17773C11.105 7.17773 10.4844 7.71742 10.4844 8.74281C10.4844 9.41742 10.8082 9.87615 11.4558 9.87615C11.6717 9.87615 11.9685 9.79519 11.9685 9.79519Z" fill="white"/>
<path d="M4.43946 7.66357C4.06168 7.66357 3.79184 7.77151 3.79184 7.77151L3.71089 8.23024C3.71089 8.23024 3.95375 8.1223 4.30454 8.1223C4.49343 8.1223 4.65533 8.14929 4.65533 8.31119C4.65533 8.41913 4.62835 8.44611 4.62835 8.44611C4.62835 8.44611 4.46644 8.44611 4.38549 8.44611C3.92676 8.44611 3.41406 8.635 3.41406 9.25564C3.41406 9.74135 3.73787 9.84929 3.92676 9.84929C4.30454 9.84929 4.46644 9.60643 4.49343 9.60643L4.46644 9.8223H4.95216L5.16803 8.33818C5.16803 7.69056 4.62835 7.66357 4.43946 7.66357ZM4.5474 8.87786C4.5474 8.95881 4.49343 9.39056 4.16962 9.39056C4.00771 9.39056 3.95375 9.25564 3.95375 9.17468C3.95375 9.03976 4.0347 8.85087 4.43946 8.85087C4.52041 8.87786 4.5474 8.87786 4.5474 8.87786Z" fill="white"/>
<path d="M5.68118 9.84941C5.8161 9.84941 6.49071 9.8764 6.49071 9.14783C6.49071 8.47323 5.84309 8.60815 5.84309 8.3383C5.84309 8.20338 5.95102 8.14942 6.13991 8.14942C6.22086 8.14942 6.51769 8.1764 6.51769 8.1764L6.59864 7.69069C6.59864 7.69069 6.40975 7.63672 6.08594 7.63672C5.68118 7.63672 5.27642 7.79862 5.27642 8.3383C5.27642 8.95894 5.95102 8.90497 5.95102 9.14783C5.95102 9.30973 5.76213 9.33672 5.62721 9.33672C5.38436 9.33672 5.1415 9.25576 5.1415 9.25576L5.06055 9.74148C5.08753 9.79544 5.22245 9.84941 5.68118 9.84941Z" fill="white"/>
<path d="M16.4483 7.23193L16.3403 7.96051C16.3403 7.96051 16.1244 7.69066 15.8276 7.69066C15.3419 7.69066 14.9102 8.28431 14.9102 8.9859C14.9102 9.41765 15.126 9.87638 15.5848 9.87638C15.9086 9.87638 16.0975 9.6605 16.0975 9.6605L16.0705 9.84939H16.6102L17.0149 7.25892L16.4483 7.23193ZM16.2054 8.66209C16.2054 8.95892 16.0705 9.3367 15.7736 9.3367C15.5848 9.3367 15.4768 9.17479 15.4768 8.90495C15.4768 8.4732 15.6657 8.20336 15.9086 8.20336C16.0975 8.20336 16.2054 8.33828 16.2054 8.66209Z" fill="white"/>
<path d="M1.49903 9.82241L1.82284 7.87955L1.8768 9.82241H2.25458L2.95617 7.87955L2.65934 9.82241H3.22601L3.65776 7.23193H2.76728L2.2276 8.824L2.20061 7.23193H1.41807L0.986328 9.82241H1.49903Z" fill="white"/>
<path d="M9.86318 9.82205C10.0251 8.93157 10.0521 8.203 10.4298 8.33792C10.4838 7.98713 10.5648 7.85221 10.6187 7.71729C10.6187 7.71729 10.5918 7.71729 10.5108 7.71729C10.2679 7.71729 10.0791 8.04109 10.0791 8.04109L10.133 7.74427H9.62032L9.26953 9.84903H9.86318V9.82205Z" fill="white"/>
<path d="M13.2109 7.66357C12.8332 7.66357 12.5633 7.77151 12.5633 7.77151L12.4824 8.23024C12.4824 8.23024 12.7252 8.1223 13.076 8.1223C13.2649 8.1223 13.4268 8.14929 13.4268 8.31119C13.4268 8.41913 13.3998 8.44611 13.3998 8.44611C13.3998 8.44611 13.2379 8.44611 13.157 8.44611C12.6982 8.44611 12.1855 8.635 12.1855 9.25564C12.1855 9.74135 12.5094 9.84929 12.6982 9.84929C13.076 9.84929 13.2379 9.60643 13.2649 9.60643L13.2379 9.8223H13.7236L13.9395 8.33818C13.9665 7.69056 13.3998 7.66357 13.2109 7.66357ZM13.3459 8.87786C13.3459 8.95881 13.2919 9.39056 12.9681 9.39056C12.8062 9.39056 12.7522 9.25564 12.7522 9.17468C12.7522 9.03976 12.8332 8.85087 13.2379 8.85087C13.3189 8.87786 13.3189 8.87786 13.3459 8.87786Z" fill="white"/>
<path d="M14.3964 9.82205C14.5583 8.93157 14.5853 8.203 14.9631 8.33792C15.017 7.98713 15.098 7.85221 15.1519 7.71729C15.1519 7.71729 15.125 7.71729 15.044 7.71729C14.8011 7.71729 14.6123 8.04109 14.6123 8.04109L14.6662 7.74427H14.1535L13.8027 9.84903H14.3964V9.82205Z" fill="white"/>
<path d="M6.57227 9.41723C6.57227 9.74104 6.76115 9.87596 7.00401 9.87596C7.1929 9.87596 7.35481 9.822 7.40877 9.79501L7.48973 9.33628C7.46274 9.33628 7.40877 9.36327 7.3548 9.36327C7.16592 9.36327 7.13893 9.25533 7.16592 9.20136L7.32782 8.25692H7.62465L7.7056 7.74422H7.43576L7.48973 7.42041" fill="#DCE5E5"/>
<path d="M7.86719 8.93157C7.86719 9.68712 8.11004 9.87601 8.54179 9.87601C8.94655 9.87601 9.10846 9.79506 9.10846 9.79506L9.21639 9.28236C9.21639 9.28236 8.91957 9.41728 8.64973 9.41728C8.05608 9.41728 8.16401 8.98554 8.16401 8.98554H9.27036C9.27036 8.98554 9.35132 8.63474 9.35132 8.49982C9.35132 8.14903 9.16243 7.71728 8.56878 7.71728C8.00211 7.66331 7.86719 8.25696 7.86719 8.93157ZM8.54179 8.14903C8.83862 8.14903 8.89259 8.49982 8.89259 8.52681H8.191C8.191 8.49982 8.24497 8.14903 8.54179 8.14903Z" fill="#DCE5E5"/>
<path d="M11.9701 9.79519L12.0781 9.20154C12.0781 9.20154 11.8082 9.33646 11.6194 9.33646C11.2416 9.33646 11.0797 9.03964 11.0797 8.71583C11.0797 8.06821 11.4035 7.71742 11.7813 7.71742C12.0511 7.71742 12.267 7.87932 12.267 7.87932L12.3479 7.31266C12.3479 7.31266 12.0241 7.17773 11.7273 7.17773C11.1067 7.17773 10.7559 7.71742 10.7559 8.74281C10.7559 9.41742 10.8098 9.87615 11.4574 9.87615C11.6733 9.87615 11.9701 9.79519 11.9701 9.79519Z" fill="#DCE5E5"/>
<path d="M3.71089 8.25697C3.71089 8.25697 3.95375 8.14903 4.30454 8.14903C4.49343 8.14903 4.65533 8.17601 4.65533 8.33792C4.65533 8.44586 4.62835 8.47284 4.62835 8.47284C4.62835 8.47284 4.46644 8.47284 4.38549 8.47284C3.92676 8.47284 3.41406 8.66173 3.41406 9.28236C3.41406 9.76808 3.73787 9.87601 3.92676 9.87601C4.30454 9.87601 4.46644 9.63316 4.49343 9.63316L4.46644 9.84903H4.95216L5.16803 8.3649C5.16803 7.74427 4.62835 7.71729 4.41248 7.71729L3.71089 8.25697ZM4.81724 8.8776C4.81724 8.95855 4.49343 9.3903 4.16962 9.3903C4.00771 9.3903 3.95375 9.25538 3.95375 9.17443C3.95375 9.03951 4.0347 8.85062 4.43946 8.85062C4.52041 8.8776 4.81724 8.8776 4.81724 8.8776Z" fill="#DCE5E5"/>
<path d="M5.08789 9.79544C5.08789 9.79544 5.2498 9.84941 5.70853 9.84941C5.84345 9.84941 6.51805 9.8764 6.51805 9.14783C6.51805 8.47323 5.87043 8.60815 5.87043 8.3383C5.87043 8.20338 5.97837 8.14942 6.16726 8.14942C6.24821 8.14942 6.54503 8.1764 6.54503 8.1764L6.62599 7.69069C6.62599 7.69069 6.4371 7.63672 6.11329 7.63672C5.70853 7.63672 5.5736 7.79862 5.5736 8.3383C5.5736 8.95894 5.97837 8.90497 5.97837 9.14783C5.97837 9.30973 5.78948 9.33672 5.65456 9.33672" fill="#DCE5E5"/>
<path d="M16.34 7.96038C16.34 7.96038 16.1241 7.69053 15.8273 7.69053C15.3416 7.69053 15.1797 8.28418 15.1797 8.98577C15.1797 9.41752 15.1257 9.87625 15.5845 9.87625C15.9083 9.87625 16.0972 9.66037 16.0972 9.66037L16.0702 9.84926H16.6098L17.0146 7.25879L16.34 7.96038ZM16.313 8.66196C16.313 8.95879 16.0702 9.33656 15.7733 9.33656C15.5845 9.33656 15.4765 9.17466 15.4765 8.90482C15.4765 8.47307 15.6654 8.20323 15.9083 8.20323C16.0972 8.20323 16.313 8.33815 16.313 8.66196Z" fill="#DCE5E5"/>
<path d="M1.49903 9.82241L1.82284 7.87955L1.8768 9.82241H2.25458L2.95617 7.87955L2.65934 9.82241H3.22601L3.65776 7.23193H2.98315L2.2276 8.824L2.20061 7.23193H1.90379L0.986328 9.82241H1.49903Z" fill="#DCE5E5"/>
<path d="M9.29688 9.82205H9.86354C10.0254 8.93157 10.0524 8.203 10.4302 8.33792C10.4842 7.98713 10.5651 7.85221 10.6191 7.71729C10.6191 7.71729 10.5921 7.71729 10.5112 7.71729C10.2683 7.71729 10.0794 8.04109 10.0794 8.04109L10.1334 7.74427" fill="#DCE5E5"/>
<path d="M12.4824 8.25697C12.4824 8.25697 12.7252 8.14903 13.076 8.14903C13.2649 8.14903 13.4268 8.17601 13.4268 8.33792C13.4268 8.44586 13.3998 8.47284 13.3998 8.47284C13.3998 8.47284 13.2379 8.47284 13.157 8.47284C12.6982 8.47284 12.1855 8.66173 12.1855 9.28236C12.1855 9.76808 12.5094 9.87601 12.6982 9.87601C13.076 9.87601 13.2379 9.63316 13.2649 9.63316L13.2379 9.84903H13.7236L13.9395 8.3649C13.9395 7.74427 13.3998 7.71729 13.184 7.71729L12.4824 8.25697ZM13.5887 8.8776C13.5887 8.95855 13.2649 9.3903 12.9411 9.3903C12.7792 9.3903 12.7252 9.25538 12.7252 9.17443C12.7252 9.03951 12.8062 8.85062 13.2109 8.85062C13.3189 8.8776 13.5887 8.8776 13.5887 8.8776Z" fill="#DCE5E5"/>
<path d="M13.8301 9.82205H14.3967C14.5586 8.93157 14.5856 8.203 14.9634 8.33792C15.0174 7.98713 15.0983 7.85221 15.1523 7.71729C15.1523 7.71729 15.1253 7.71729 15.0444 7.71729C14.8015 7.71729 14.6126 8.04109 14.6126 8.04109L14.6666 7.74427" fill="#DCE5E5"/>
</g>
<defs>
<clipPath id="clip0">
<rect x="0.5" width="17" height="17" fill="white"/>
</clipPath>
</defs>
</svg>
