<svg width="90" height="90" viewBox="0 0 90 90" fill="none" xmlns="http://www.w3.org/2000/svg">
<path d="M44.9208 71.4685C64.6563 71.4685 80.655 55.4697 80.655 35.7343C80.655 15.9988 64.6563 0 44.9208 0C25.1853 0 9.18652 15.9988 9.18652 35.7343C9.18652 55.4697 25.1853 71.4685 44.9208 71.4685Z" fill="#FFC501"/>
<path d="M15.9701 56.6392L3.6748 77.9521L18.0252 77.1903L24.5449 89.9994L35.9189 70.2809C27.7693 68.1726 20.7713 63.2651 15.9701 56.6392Z" fill="#FBCF3A"/>
<path d="M73.9396 56.5334C69.1739 63.1771 62.1758 68.1023 54.0439 70.246L65.4534 89.9999L71.9731 77.1909L86.3235 77.9527L73.9396 56.5334Z" fill="#FBCF3A"/>
<path d="M44.9192 61.6354C59.2242 61.6354 70.8207 50.0389 70.8207 35.7338C70.8207 21.4288 59.2242 9.83228 44.9192 9.83228C30.6141 9.83228 19.0176 21.4288 19.0176 35.7338C19.0176 50.0389 30.6141 61.6354 44.9192 61.6354Z" fill="#FFC501"/>
<path d="M62.675 32.9351C63.4722 32.1555 63.0293 30.7913 61.9309 30.6319L51.7085 29.1437C51.2656 29.0728 50.8935 28.8071 50.6986 28.3996L46.1278 19.1338C45.6317 18.124 44.1967 18.124 43.7006 19.1338L39.1474 28.3996C38.9526 28.7894 38.5628 29.0728 38.1376 29.1437L27.9152 30.6319C26.8167 30.7913 26.3738 32.1555 27.1711 32.9351L34.5589 40.1457C34.8778 40.4646 35.0195 40.9075 34.9486 41.3327L33.2124 51.502C33.0175 52.6004 34.1868 53.4508 35.1789 52.9193L44.3207 48.1182C44.7104 47.9056 45.1888 47.9056 45.5785 48.1182L54.7203 52.9193C55.7124 53.4331 56.864 52.6004 56.6868 51.502L54.9329 41.3327C54.862 40.8898 55.0037 40.4469 55.3226 40.1457L62.675 32.9351Z" fill="white"/>
</svg>
