<svg width="36" height="36" viewBox="0 0 36 36" fill="none" xmlns="http://www.w3.org/2000/svg">
<g clip-path="url(#clip0)">
<path d="M33.1164 12.6088L32.181 12.0243L33.1851 10.4175C33.9175 9.24533 33.5617 7.7039 32.3894 6.97136C31.2173 6.23896 29.6758 6.59477 28.9433 7.76706C28.306 8.78698 18.4902 24.4961 17.8523 25.5169C17.7327 25.7083 17.7072 25.9318 17.7619 26.1343L16.913 28.1361C16.4092 28.5087 15.5557 29.0463 15.0951 29.1145C14.7164 29.1707 14.4369 29.4911 14.4306 29.8763L14.3576 34.342H4.53936C4.26838 34.342 4.04785 34.1215 4.04785 33.8505V4.34978C4.04785 4.0788 4.26838 3.85827 4.53936 3.85827H5.56051V4.37712C5.56051 5.39868 6.39162 6.22979 7.41318 6.22979C8.43475 6.22979 9.26586 5.39868 9.26586 4.37712V3.85827H11.2803V4.37712C11.2803 5.39868 12.1115 6.22979 13.133 6.22979C14.1546 6.22979 14.9857 5.39868 14.9857 4.37712V3.85827H17.0002V4.37712C17.0002 5.39868 17.8313 6.22979 18.8529 6.22979C19.8744 6.22979 20.7055 5.39868 20.7055 4.37712V3.85827H22.72V4.37712C22.72 5.39868 23.5511 6.22979 24.5727 6.22979C25.5942 6.22979 26.4254 5.39868 26.4254 4.37712V3.85827H27.4465C27.7175 3.85827 27.938 4.0788 27.938 4.34978V6.67933C27.938 6.96247 28.1676 7.19202 28.4507 7.19202C28.7339 7.19202 28.9634 6.96247 28.9634 6.67933V4.34978C28.9634 3.5134 28.2829 2.83288 27.4465 2.83288H26.4254V2.22011C26.4252 1.19854 25.5941 0.367432 24.5725 0.367432C23.551 0.367432 22.7199 1.19854 22.7199 2.22011V2.83288H20.7054V2.22011C20.7055 1.19854 19.8743 0.367432 18.8528 0.367432C17.8312 0.367432 17.0001 1.19854 17.0001 2.22011V2.83288H14.9856V2.22011C14.9856 1.19854 14.1546 0.367432 13.133 0.367432C12.1115 0.367432 11.2803 1.19854 11.2803 2.22011V2.83288H9.26586V2.22011C9.26586 1.19854 8.43475 0.367432 7.41318 0.367432C6.39162 0.367432 5.56051 1.19854 5.56051 2.22011V2.83288H4.53936C3.70298 2.83288 3.02246 3.5134 3.02246 4.34978V33.8505C3.02246 34.687 3.70298 35.3674 4.53936 35.3674H27.4464C28.2828 35.3674 28.9633 34.687 28.9633 33.8505V19.8669C28.9633 19.5838 28.7337 19.3542 28.4506 19.3542C28.1674 19.3542 27.9379 19.5838 27.9379 19.8669V33.8505C27.9379 34.1215 27.7174 34.342 27.4464 34.342H17.3381L19.6762 33.154C20.0195 32.9794 20.185 32.5878 20.0694 32.2226C19.9288 31.7788 20.0379 30.7759 20.1519 30.1599L21.5796 28.5186C21.7851 28.4788 21.9746 28.3585 22.0941 28.1674L23.0798 26.5899C23.2298 26.3497 23.1568 26.0334 22.9167 25.8835C22.6765 25.7334 22.3602 25.8065 22.2103 26.0466L21.3541 27.4168L18.8515 25.8531L25.9362 14.5145L28.4388 16.0783L23.4839 24.0082C23.3338 24.2484 23.4069 24.5647 23.647 24.7146C23.887 24.8647 24.2033 24.7917 24.3534 24.5515C25.0853 23.3802 30.8254 14.1937 31.6376 12.8939L32.573 13.4783C32.6362 13.5178 32.6549 13.6004 32.6157 13.6634L29.7746 18.2102C29.6246 18.4503 29.6977 18.7666 29.9377 18.9166C30.1769 19.066 30.4936 18.9946 30.6442 18.7535L33.4852 14.2067C33.825 13.6633 33.66 12.9484 33.1164 12.6088ZM23.7453 2.22011C23.7453 1.76395 24.1164 1.39282 24.5725 1.39282C25.0287 1.39282 25.3998 1.76395 25.3998 2.22011V4.37712C25.3998 4.83328 25.0287 5.2044 24.5725 5.2044C24.1164 5.2044 23.7453 4.83328 23.7453 4.37712V2.22011ZM18.0255 2.22011C18.0255 1.76395 18.3966 1.39282 18.8528 1.39282C19.3089 1.39282 19.6801 1.76395 19.6801 2.22011V4.37712C19.6801 4.83328 19.3089 5.2044 18.8528 5.2044C18.3966 5.2044 18.0255 4.83328 18.0255 4.37712V2.22011ZM12.3057 2.22011C12.3057 1.76395 12.6769 1.39282 13.133 1.39282C13.5892 1.39282 13.9603 1.76395 13.9603 2.22011V4.37712C13.9603 4.83328 13.5892 5.2044 13.133 5.2044C12.6769 5.2044 12.3057 4.83328 12.3057 4.37712V2.22011ZM6.5859 2.22011C6.5859 1.76395 6.95702 1.39282 7.41318 1.39282C7.86935 1.39282 8.24047 1.76395 8.24047 2.22011V4.37712C8.24047 4.83328 7.86935 5.2044 7.41318 5.2044C6.95702 5.2044 6.5859 4.83328 6.5859 4.37712V2.22011ZM16.2715 33.7338L17.6534 31.5223C17.8035 31.2821 17.7305 30.9658 17.4903 30.8159C17.2502 30.6658 16.9339 30.7389 16.7839 30.979L15.402 33.1905L15.4527 30.0857C16.1194 29.9111 16.9255 29.3855 17.3546 29.0817L19.1084 30.1776C19.0234 30.6964 18.9044 31.6514 19.0397 32.3271L16.2715 33.7338ZM20.5592 28.1293L19.5753 29.2603L17.9742 28.2599L18.5595 26.8797L20.5592 28.1293ZM26.4796 13.6449L29.8129 8.31038C30.244 7.62036 31.1562 7.40981 31.8461 7.84096C32.5361 8.2721 32.7466 9.18415 32.3155 9.87417L28.9823 15.2087L26.4796 13.6449Z" fill="#6C7185"/>
<path d="M25.0851 9.22852C25.0851 8.94537 24.8556 8.71582 24.5725 8.71582H7.41309C7.12994 8.71582 6.90039 8.94537 6.90039 9.22852C6.90039 9.51166 7.12994 9.74121 7.41309 9.74121H24.5725C24.8556 9.74121 25.0851 9.51166 25.0851 9.22852Z" fill="#6C7185"/>
<path d="M23.3278 13.8633C23.3278 13.5801 23.0982 13.3506 22.8151 13.3506H7.41309C7.12994 13.3506 6.90039 13.5801 6.90039 13.8633C6.90039 14.1464 7.12994 14.376 7.41309 14.376H22.8151C23.0983 14.376 23.3278 14.1464 23.3278 13.8633Z" fill="#6C7185"/>
<path d="M20.4318 18.498C20.4318 18.2149 20.2022 17.9854 19.9191 17.9854H7.41309C7.12994 17.9854 6.90039 18.2149 6.90039 18.498C6.90039 18.7812 7.12994 19.0107 7.41309 19.0107H19.919C20.2022 19.0107 20.4318 18.7812 20.4318 18.498Z" fill="#6C7185"/>
<path d="M7.41309 22.6204C7.12994 22.6204 6.90039 22.8499 6.90039 23.1331C6.90039 23.4162 7.12994 23.6458 7.41309 23.6458H17.023C17.3062 23.6458 17.5357 23.4162 17.5357 23.1331C17.5357 22.8499 17.3062 22.6204 17.023 22.6204H7.41309Z" fill="#6C7185"/>
</g>
<defs>
<clipPath id="clip0">
<rect x="0.842285" y="0.367432" width="35" height="35" fill="white"/>
</clipPath>
</defs>
</svg>
