<svg width="14" height="18" viewBox="0 0 14 18" fill="none" xmlns="http://www.w3.org/2000/svg">
<path d="M5.50018 4.20007H8.50018C8.66608 4.20007 8.80017 4.06567 8.80017 3.90009C8.80017 3.7345 8.66608 3.6001 8.50018 3.6001H5.50018C5.3346 3.6001 5.2002 3.7345 5.2002 3.90009C5.2002 4.06567 5.3346 4.20007 5.50018 4.20007Z" fill="white"/>
<path d="M4.29999 5.40003H9.69998C9.86589 5.40003 9.99997 5.26562 9.99997 5.10004C9.99997 4.93445 9.86589 4.80005 9.69998 4.80005H4.29999C4.1344 4.80005 4 4.93445 4 5.10004C4 5.26562 4.1344 5.40003 4.29999 5.40003Z" fill="white"/>
<path d="M7.00079 7.19995C4.6848 7.19995 2.80078 9.08394 2.80078 11.4C2.80078 13.716 4.6848 15.5999 7.00079 15.5999C9.31678 15.5999 11.2008 13.716 11.2008 11.3999C11.2008 9.08391 9.31678 7.19995 7.00079 7.19995ZM8.079 10.142C7.76189 10.1774 7.40699 10.1999 7.00079 10.1999C6.59428 10.1999 6.23938 10.1774 5.92258 10.142C6.1659 8.94265 6.71128 8.22623 7.00079 7.91633C7.29058 8.22687 7.83568 8.94296 8.079 10.142ZM8.16478 10.737C8.18608 10.9473 8.20078 11.1657 8.20078 11.4C8.20078 11.6343 8.18608 11.8524 8.16506 12.0624C7.82155 12.0243 7.44024 12 7.00557 12C6.56728 12 6.18239 12.0246 5.83677 12.0633C5.81546 11.853 5.80077 11.6346 5.80077 11.4C5.80077 11.1657 5.81546 10.9473 5.83677 10.737C6.18116 10.7753 6.56425 10.8 7.00075 10.8C7.43725 10.8 7.82011 10.7753 8.16478 10.737ZM6.25861 7.87766C5.92529 8.33184 5.5308 9.04798 5.33129 10.0524C4.5588 9.89967 4.13099 9.66504 3.9333 9.52526C4.44268 8.69515 5.27578 8.08466 6.25861 7.87766ZM3.40079 11.4C3.40079 10.9296 3.4941 10.4811 3.65909 10.0689C3.94529 10.2582 4.44208 10.4979 5.24308 10.6503C5.21819 10.8882 5.20079 11.1351 5.20079 11.4C5.20079 11.6652 5.21819 11.9124 5.2434 12.1503C4.4424 12.303 3.94561 12.543 3.65909 12.732C3.49438 12.3194 3.40079 11.8706 3.40079 11.4ZM3.9339 13.2756C4.13369 13.1343 4.56271 12.9009 5.33129 12.7485C5.53108 13.7523 5.92561 14.4681 6.25861 14.9223C5.2761 14.7153 4.44328 14.1053 3.9339 13.2756ZM5.9229 12.6585C6.24089 12.6228 6.5973 12.6 7.00561 12.6C7.40969 12.6 7.7634 12.6225 8.079 12.6573C7.83568 13.8573 7.2903 14.5737 7.00079 14.8836C6.71128 14.5733 6.1659 13.857 5.9229 12.6585ZM7.74329 14.9223C8.07629 14.4681 8.47078 13.7514 8.67061 12.7467C9.4413 12.8985 9.87031 13.1319 10.0695 13.2723C9.56037 14.1039 8.72668 14.715 7.74329 14.9223ZM10.6008 11.4C10.6008 11.8695 10.5075 12.3171 10.3437 12.7287C10.056 12.5393 9.5589 12.3002 8.7585 12.1488C8.78339 11.9112 8.80079 11.6646 8.80079 11.4C8.80079 11.1351 8.78311 10.8882 8.75818 10.6506C9.55798 10.4988 10.0557 10.2597 10.3434 10.0707C10.5075 10.4822 10.6008 10.9301 10.6008 11.4ZM8.67029 10.0524C8.47078 9.04826 8.07629 8.33184 7.74329 7.87766C8.7264 8.08466 9.55978 8.69574 10.0695 9.52677C9.8676 9.66866 9.4374 9.90087 8.67029 10.0524Z" fill="white"/>
<path d="M12.1004 1.19999H11.8004V0.9C11.8004 0.403805 11.3966 0 10.9004 0H1.30039C0.804195 0 0.400391 0.403805 0.400391 0.9V17.7C0.400391 17.8656 0.534793 18 0.700379 18H12.1004C12.9416 18 13.6004 17.3412 13.6004 16.5V2.7C13.6004 1.87291 12.9275 1.19999 12.1004 1.19999ZM13.0004 16.5C13.0004 17.0046 12.6053 17.4 12.1004 17.4H1.00037V0.9C1.00037 0.734695 1.13505 0.600012 1.30036 0.600012H10.9004C11.066 0.600012 11.2004 0.734695 11.2004 0.9V1.19999H1.90037C1.73478 1.19999 1.60038 1.33439 1.60038 1.49998C1.60038 1.66556 1.73478 1.79996 1.90037 1.79996H12.1004C12.5881 1.79996 13.0004 2.21217 13.0004 2.69997V16.5H13.0004Z" fill="white"/>
</svg>
