<svg width="15" height="13" viewBox="0 0 15 13" fill="none" xmlns="http://www.w3.org/2000/svg">
<path d="M14.6327 0.367214C14.388 0.122446 14.0938 -6.10352e-05 13.7499 -6.10352e-05H1.25C0.906258 -6.10352e-05 0.612071 0.122446 0.367138 0.367214C0.122343 0.612064 0 0.906224 0 1.24999V9.75006C0 10.0939 0.122343 10.388 0.367138 10.6329C0.612071 10.8777 0.906258 11 1.25 11H5.50007C5.50007 11.1979 5.45837 11.4012 5.37502 11.6094C5.29172 11.8177 5.20837 11.9999 5.12502 12.1561C5.04178 12.3125 5.00011 12.4269 5.00011 12.4998C5.00011 12.6352 5.04956 12.7526 5.14853 12.8513C5.24745 12.9504 5.36465 13.0001 5.50007 13.0001H9.50007C9.63549 13.0001 9.75272 12.9505 9.85163 12.8513C9.95069 12.7527 10.0001 12.6352 10.0001 12.4998C10.0001 12.4323 9.95838 12.3189 9.87506 12.1601C9.79171 12.0013 9.70836 11.8162 9.62512 11.6055C9.54177 11.3945 9.50009 11.1927 9.50009 11H13.7502C14.0939 11 14.388 10.8777 14.6328 10.6329C14.8776 10.3881 15 10.0939 15 9.75006V1.24999C15.0001 0.906224 14.8776 0.612064 14.6327 0.367214ZM14 7.75002C14 7.81774 13.9753 7.87625 13.9258 7.9258C13.8763 7.97516 13.8177 7.99987 13.7499 7.99987H1.25C1.18233 7.99987 1.12372 7.97516 1.07424 7.9258C1.0248 7.87608 1.00003 7.81774 1.00003 7.75002V1.24999C1.00003 1.18227 1.02471 1.12371 1.07424 1.07424C1.12374 1.02485 1.18236 1.00003 1.25 1.00003H13.7501C13.8178 1.00003 13.8765 1.02476 13.9258 1.07424C13.9753 1.12374 14 1.1823 14 1.24999V7.75002Z" fill="#3D404C"/>
</svg>
