<svg width="9" height="15" viewBox="0 0 9 15" fill="none" xmlns="http://www.w3.org/2000/svg">
<path d="M6.88278 15C6.88278 15 8.24432 15 8.24432 13.6364V1.36358C8.2443 0 6.88278 0 6.88278 0H2.1174C2.1174 0 0.755859 0 0.755859 1.36358V13.6364C0.755878 15 2.1174 15 2.1174 15H6.88278ZM4.50009 14.4322C4.12431 14.4322 3.81933 14.1272 3.81933 13.7515C3.81933 13.3757 4.12431 13.0707 4.50009 13.0707C4.87588 13.0707 5.18085 13.3757 5.18085 13.7515C5.18085 14.1273 4.87588 14.4322 4.50009 14.4322ZM3.47893 0.831212C3.47893 0.746799 3.5191 0.680758 3.56946 0.680758H5.43068C5.48037 0.680758 5.52123 0.748163 5.52123 0.831212V0.871383C5.52123 0.955795 5.48037 1.02184 5.43068 1.02184H3.56946C3.51977 1.02184 3.47893 0.954432 3.47893 0.871383V0.831212ZM1.43664 1.70191H7.56354V12.5942H1.43664V1.70191Z" fill="#3D404C"/>
</svg>
