<svg width="35" height="36" viewBox="0 0 35 36" fill="none" xmlns="http://www.w3.org/2000/svg">
<g clip-path="url(#clip0)">
<path d="M25.9683 9.13257C24.0257 9.13257 22.4453 10.713 22.4453 12.6556C22.4453 14.5982 24.0257 16.1786 25.9683 16.1786C27.9109 16.1786 29.4914 14.5982 29.4914 12.6556C29.4914 10.7129 27.911 9.13257 25.9683 9.13257ZM25.9683 14.8115C24.7796 14.8115 23.8125 13.8444 23.8125 12.6556C23.8125 11.4668 24.7796 10.4998 25.9683 10.4998C27.157 10.4998 28.1242 11.4668 28.1242 12.6556C28.1242 13.8442 27.1571 14.8115 25.9683 14.8115Z" fill="#6C7185"/>
<path d="M25.9923 31.0156C25.9752 30.9739 25.954 30.9343 25.9294 30.8974C25.9048 30.8598 25.8761 30.8249 25.8446 30.7935C25.8132 30.762 25.7783 30.7333 25.7407 30.7087C25.7038 30.6841 25.6642 30.6629 25.6225 30.6458C25.5814 30.6287 25.5384 30.615 25.4946 30.6068C25.4064 30.5891 25.3162 30.5891 25.228 30.6068C25.1843 30.615 25.1412 30.6287 25.1002 30.6458C25.0585 30.6629 25.0188 30.6841 24.9819 30.7087C24.9443 30.7333 24.9095 30.762 24.878 30.7935C24.8466 30.8249 24.8179 30.8598 24.7933 30.8974C24.7687 30.9343 24.7475 30.9739 24.7304 31.0156C24.7133 31.0566 24.6996 31.0997 24.6914 31.1435C24.6825 31.1872 24.6777 31.2323 24.6777 31.2768C24.6777 31.3212 24.6825 31.3663 24.6914 31.4101C24.6996 31.4538 24.7133 31.4969 24.7304 31.5379C24.7475 31.5796 24.7687 31.6192 24.7933 31.6561C24.8179 31.6937 24.8466 31.7286 24.878 31.7601C24.8937 31.7757 24.9102 31.7907 24.9275 31.8048C24.9449 31.819 24.9631 31.8325 24.9819 31.8448C25.0188 31.8694 25.0585 31.8906 25.1002 31.9077C25.1412 31.9248 25.1843 31.9385 25.228 31.9467C25.2718 31.9556 25.3169 31.9603 25.3613 31.9603C25.4058 31.9603 25.4509 31.9556 25.4946 31.9467C25.5384 31.9385 25.5814 31.9248 25.6225 31.9077C25.6642 31.8906 25.7038 31.8694 25.7407 31.8448C25.7596 31.8324 25.7778 31.819 25.7952 31.8048C25.8125 31.7907 25.829 31.7757 25.8446 31.7601C25.8761 31.7286 25.9048 31.6937 25.9294 31.6561C25.954 31.6192 25.9752 31.5796 25.9923 31.5379C26.0094 31.4969 26.023 31.4538 26.0319 31.4101C26.0408 31.3663 26.0449 31.3212 26.0449 31.2768C26.0449 31.2323 26.0408 31.1872 26.0319 31.1435C26.023 31.0996 26.0094 31.0566 25.9923 31.0156Z" fill="#6C7185"/>
<path d="M15.2335 3.96375C15.2164 3.92273 15.1952 3.88308 15.1706 3.84548C15.146 3.80857 15.1173 3.77302 15.0858 3.74158C15.0544 3.71013 15.0195 3.68142 14.9819 3.65681C14.945 3.6322 14.9054 3.61101 14.8637 3.59392C14.8227 3.57683 14.7796 3.56384 14.7358 3.55496C14.6477 3.53718 14.5574 3.53718 14.4692 3.55496C14.4255 3.56384 14.3824 3.57683 14.3407 3.59392C14.2997 3.61101 14.2601 3.6322 14.2231 3.65681C14.1855 3.68142 14.1507 3.71013 14.1192 3.74158C14.0878 3.77302 14.0591 3.80857 14.0338 3.84548C14.0092 3.88308 13.9887 3.92273 13.9716 3.96375C13.9545 4.00476 13.9408 4.04783 13.9326 4.09158C13.9237 4.13601 13.9189 4.18044 13.9189 4.22556C13.9189 4.27 13.9237 4.31443 13.9326 4.35886C13.9408 4.40261 13.9545 4.44568 13.9716 4.48669C13.9887 4.52771 14.0092 4.56736 14.0338 4.60496C14.0591 4.64187 14.0878 4.67742 14.1192 4.70886C14.1507 4.74031 14.1855 4.76902 14.2231 4.79363C14.2601 4.81824 14.2997 4.83943 14.3407 4.85652C14.3824 4.87361 14.4255 4.8866 14.4692 4.89548C14.513 4.90437 14.5581 4.90916 14.6025 4.90916C14.647 4.90916 14.6921 4.90437 14.7358 4.89548C14.7796 4.8866 14.8227 4.87361 14.8637 4.85652C14.9054 4.83943 14.945 4.81824 14.9819 4.79363C15.0195 4.76902 15.0544 4.74031 15.0858 4.70886C15.1173 4.67742 15.146 4.64187 15.1706 4.60496C15.1952 4.56736 15.2164 4.52771 15.2335 4.48669C15.2506 4.44568 15.2643 4.40261 15.2725 4.35886C15.2813 4.31443 15.2861 4.27 15.2861 4.22556C15.2861 4.18044 15.2813 4.13601 15.2725 4.09158C15.2643 4.04783 15.2506 4.00476 15.2335 3.96375Z" fill="#6C7185"/>
<path d="M31.1806 3.54449C30.7707 1.81165 29.2119 0.517944 27.3555 0.517944H5.90741C2.65009 0.517876 0 3.16796 0 6.42529V27.8734C0 30.0035 1.70331 31.7422 3.81938 31.8019C4.22926 33.5347 5.78813 34.8284 7.64449 34.8284H31.0687C33.2364 34.8284 35 33.0648 35 30.8971V25.7388V7.4729C35 5.34282 33.2967 3.60417 31.1806 3.54449ZM33.6328 30.8972C33.6328 32.3111 32.4825 33.4614 31.0687 33.4614H7.64449C6.55006 33.4614 5.61408 32.7719 5.24679 31.8048C5.13953 31.5225 5.08033 31.2167 5.08033 30.8972V30.4376V27.2706L12.9229 13.9731C13.1616 13.5682 13.5875 13.3318 14.0546 13.3394C14.5246 13.3474 14.9393 13.5986 15.1641 14.0114L18.5408 20.2117L23.449 29.2244C23.573 29.4522 23.8077 29.5812 24.05 29.5812C24.1605 29.5812 24.2725 29.5543 24.3763 29.4978C24.7079 29.3172 24.8303 28.9021 24.6498 28.5705L23.057 25.6458C23.7563 25.678 24.4442 25.4515 24.9919 24.9972L28.0661 22.4469C28.5591 22.038 29.2871 22.0559 29.7593 22.4889L29.9198 22.636L31.287 23.8892L33.6328 26.0396V30.8972ZM33.6328 24.1848L31.2869 22.0344L29.9197 20.9934C29.0289 20.6208 27.9698 20.7504 27.1932 21.3946L24.119 23.9448C23.7809 24.2254 23.3394 24.3387 22.9079 24.2558C22.4764 24.173 22.1084 23.904 21.8983 23.5182L19.7414 19.5577L18.5371 17.3462V17.3462L16.3648 13.3574C15.9015 12.5067 15.0466 11.9889 14.078 11.9723C13.1097 11.9571 12.2374 12.4441 11.7452 13.2785L5.08026 24.5793V7.4729C5.08026 6.05902 6.23055 4.90874 7.64442 4.90874H11.8685C12.246 4.90874 12.5521 4.60269 12.5521 4.22514C12.5521 3.84759 12.246 3.54155 11.8685 3.54155H7.64442C5.47668 3.54155 3.71308 5.30515 3.71308 7.4729V27.084V30.4276C2.40105 30.3163 1.36719 29.2137 1.36719 27.8734V6.42529C1.36719 3.92176 3.40395 1.88506 5.90741 1.88506H27.3555C28.4499 1.88506 29.3859 2.57447 29.7532 3.54162H17.3372C16.9597 3.54162 16.6536 3.84766 16.6536 4.22521C16.6536 4.60276 16.9597 4.9088 17.3372 4.9088H29.9197L31.2869 4.91878C32.5989 5.02994 33.6328 6.13257 33.6328 7.4729V24.1848Z" fill="#6C7185"/>
</g>
<defs>
<clipPath id="clip0">
<rect y="0.173096" width="35" height="35" fill="white"/>
</clipPath>
</defs>
</svg>
