<svg width="26" height="26" viewBox="0 0 26 26" fill="none" xmlns="http://www.w3.org/2000/svg">
<g clip-path="url(#clip0)">
<path d="M20.7727 13.8811C20.5718 13.8811 20.4089 14.044 20.4089 14.2449C20.4089 14.4997 20.2017 14.7069 19.9469 14.7069C19.6922 14.7069 19.485 14.4997 19.485 14.2449C19.485 14.0439 19.3221 13.8811 19.1211 13.8811C18.9202 13.8811 18.7573 14.044 18.7573 14.2449C18.7573 14.9009 19.291 15.4345 19.9469 15.4345C20.6028 15.4345 21.1365 14.9008 21.1365 14.2449C21.1365 14.0439 20.9736 13.8811 20.7727 13.8811Z" fill="white"/>
<path d="M24.1877 13.9404L23.1637 13.6124C23.0325 13.5704 22.9291 13.4657 22.8872 13.3323C22.6714 12.6461 22.3457 12.002 21.9192 11.4176C21.7248 11.1512 21.5086 10.8969 21.2725 10.6547C21.4236 9.99199 21.5057 9.24194 21.4951 8.59395C21.4798 7.66694 21.2946 7.12324 20.9288 6.93164C20.7317 6.82832 20.1321 6.51445 16.8867 8.0001C16.8098 8.03525 16.738 8.07856 16.6716 8.12817C16.4528 8.06938 16.2292 8.01499 16.0042 7.96616C15.9771 7.96025 15.9491 7.95503 15.9218 7.94927C16.1848 7.37476 16.3384 6.75078 16.3672 6.10664C16.3762 5.90586 16.2208 5.73584 16.02 5.7269C15.8198 5.71694 15.6492 5.87329 15.6403 6.07407C15.5929 7.1332 15.1535 8.12974 14.4032 8.88008C13.9549 9.32837 13.43 9.654 12.8706 9.85908C11.9004 9.72295 10.9123 9.72295 9.94209 9.85908C9.38262 9.654 8.85776 9.32837 8.40947 8.88008C7.60898 8.07959 7.16812 7.01528 7.16812 5.8832C7.16812 4.75107 7.60898 3.68682 8.40947 2.88633C9.20996 2.08579 10.2743 1.64492 11.4063 1.64492C12.5384 1.64492 13.6027 2.08579 14.4032 2.88633C14.7249 3.20801 14.9907 3.5751 15.1933 3.9773C15.2837 4.15679 15.5025 4.22905 15.6819 4.13862C15.8614 4.04829 15.9336 3.82949 15.8433 3.65005C15.6058 3.17842 15.2944 2.74839 14.9178 2.37173C13.9799 1.43379 12.7328 0.917236 11.4064 0.917236C10.08 0.917236 8.83291 1.43379 7.89497 2.37173C6.95703 3.30972 6.44048 4.55674 6.44048 5.88315C6.44048 7.20957 6.95703 8.45664 7.89497 9.39458C8.16553 9.66514 8.45986 9.8978 8.77119 10.0927C8.77129 10.0927 8.77139 10.0927 8.77148 10.0927C8.54526 10.1515 8.32075 10.2175 8.09873 10.2917C7.90815 10.3554 7.80532 10.5615 7.86904 10.7521C7.93271 10.9427 8.13892 11.0456 8.32944 10.9819C10.3136 10.3186 12.4992 10.3186 14.4833 10.9819C14.5216 10.9947 14.5605 11.0007 14.5987 11.0007C14.7509 11.0007 14.8928 10.9044 14.9437 10.7521C15.0075 10.5616 14.9046 10.3554 14.7141 10.2917C14.492 10.2175 14.2675 10.1514 14.0413 10.0927C14.0414 10.0927 14.0415 10.0927 14.0416 10.0927C14.353 9.8978 14.6473 9.66514 14.9178 9.39458C15.1572 9.15522 15.3685 8.89385 15.5519 8.61606C15.6522 8.63555 15.7518 8.65596 15.8499 8.67725C15.9805 8.70561 16.1106 8.73608 16.2395 8.76807C16.2354 8.78389 16.2313 8.79966 16.2279 8.81572C16.0505 9.65776 16.062 10.4025 16.2622 11.0291C16.442 11.5923 16.7667 12.0486 17.227 12.3854C17.7695 12.7823 18.4245 12.9537 19.0178 12.9537C19.4644 12.9537 19.876 12.8565 20.1784 12.6853C20.5204 12.4916 20.8069 12.0834 21.0337 11.4707C21.1385 11.593 21.2379 11.7184 21.3315 11.8467C21.7113 12.3669 22.0012 12.9402 22.1932 13.5507C22.3059 13.9092 22.5858 14.1914 22.9418 14.3055L23.9658 14.6335C24.2345 14.7196 24.415 14.9669 24.415 15.249V16.947C24.415 17.2292 24.2345 17.4765 23.9658 17.5625L22.316 18.091C22.052 18.1756 21.8286 18.357 21.687 18.6019C21.0388 19.7221 20.0197 20.6491 18.6578 21.3571C18.5005 21.439 18.3915 21.5855 18.3587 21.759L17.8303 24.557C17.8157 24.6341 17.7481 24.69 17.6697 24.69H15.9516C15.8731 24.69 15.8056 24.634 15.791 24.557L15.4983 23.0106C15.4407 22.7064 15.1553 22.5043 14.8482 22.5508C14.1081 22.6627 13.3455 22.7194 12.5817 22.7194C12.0134 22.7194 11.4524 22.6877 10.9142 22.6252C10.6166 22.591 10.3394 22.7938 10.2837 23.0877L10.0056 24.557C9.99102 24.6341 9.92349 24.69 9.84502 24.69H8.1269C8.04844 24.69 7.98091 24.634 7.96611 24.5558L7.45732 21.9131C7.42456 21.7429 7.31763 21.5981 7.16377 21.5159C4.84229 20.2766 3.61523 18.2061 3.61523 15.5284C3.61523 14.1754 3.91123 12.9791 4.49497 11.9725C5.0397 11.0331 5.8353 10.2563 6.85967 9.66382C7.03359 9.56318 7.09302 9.34062 6.99243 9.16665C6.89185 8.99272 6.66929 8.9334 6.49531 9.03389C4.50903 10.1829 3.31104 11.9556 2.9812 14.207V14.207C2.94619 14.2038 2.91113 14.2008 2.87622 14.1972C2.88257 13.9542 2.83862 13.7091 2.74292 13.4712C2.53184 12.9465 2.09824 12.5678 1.63823 12.5064C1.27573 12.4579 0.930762 12.6118 0.691357 12.9281C0.344238 13.3868 0.40083 13.7498 0.509375 13.9735C0.692627 14.3511 1.16367 14.6182 1.94536 14.7861C1.92388 14.8183 1.90024 14.8506 1.87437 14.8831C1.4125 15.4624 0.868359 15.5904 0.515039 15.6025C0.308203 15.6095 0.142578 15.7755 0.142578 15.9825V15.9843C0.142578 16.1884 0.303662 16.3549 0.507617 16.3643C0.53374 16.3655 0.561035 16.3661 0.589453 16.3661C1.03652 16.3661 1.75405 16.2012 2.44341 15.3368C2.55225 15.2004 2.64092 15.0564 2.70908 14.9077C2.77773 14.9155 2.8437 14.9221 2.90688 14.928C2.90688 14.9278 2.90688 14.9277 2.90693 14.9276C2.89453 15.1248 2.88765 15.3248 2.88765 15.5284C2.88765 17.0434 3.24883 18.3942 3.96108 19.5435C4.61782 20.6031 5.5581 21.4707 6.75674 22.1231L7.25137 24.6922C7.33091 25.1125 7.69912 25.4176 8.1269 25.4176H9.84502C10.2728 25.4176 10.641 25.1125 10.7206 24.6922L10.972 23.3637C11.4943 23.419 12.035 23.4471 12.5816 23.4471C13.3316 23.4471 14.0808 23.3948 14.8108 23.2917L15.0759 24.6923C15.1555 25.1126 15.5237 25.4177 15.9515 25.4177H17.6696C18.0974 25.4177 18.4656 25.1126 18.5452 24.6921L19.0597 21.968C20.5132 21.1994 21.6088 20.1897 22.3167 18.9663C22.3677 18.8781 22.4463 18.8134 22.5379 18.784L24.1877 18.2556C24.7588 18.0725 25.1426 17.5467 25.1426 16.9469V15.2489C25.1426 14.6492 24.7588 14.1234 24.1877 13.9404ZM20.7128 9.61636C20.5728 10.8139 20.1971 11.8383 19.8197 12.0521C19.3907 12.2951 18.4002 12.342 17.6565 11.798C16.912 11.2534 16.6642 10.274 16.9398 8.96572C16.9398 8.96567 16.9398 8.96567 16.9398 8.96567C16.9675 8.83428 17.0609 8.72061 17.1896 8.66172C19.011 7.82793 20.0612 7.55522 20.4513 7.55522C20.5102 7.55522 20.5541 7.56143 20.5833 7.57285C20.7004 7.69775 20.8542 8.40776 20.7128 9.61636ZM1.16411 13.6558C1.12646 13.5782 1.21533 13.4417 1.27168 13.3672C1.36099 13.2492 1.44326 13.2251 1.50542 13.2251C1.51855 13.2251 1.53081 13.2262 1.54204 13.2277C1.70933 13.25 1.9437 13.4341 2.06787 13.7427C2.09712 13.8154 2.13511 13.9357 2.14399 14.0858C1.64033 13.9815 1.24902 13.8311 1.16411 13.6558Z" fill="white"/>
<path d="M11.7599 5.46621V4.16426C12.2089 4.19634 12.3757 4.40156 12.5296 4.40156C12.722 4.40156 12.8118 4.15786 12.8118 4.03599C12.8118 3.72168 12.196 3.58701 11.7599 3.57417V3.40093C11.7599 3.32397 11.6637 3.25342 11.5675 3.25342C11.4584 3.25342 11.3814 3.32397 11.3814 3.40093V3.58691C10.7721 3.65107 10.1628 3.97178 10.1628 4.77993C10.1628 5.60093 10.8042 5.83184 11.3814 6.03706V7.54434C10.7272 7.49302 10.5541 7.04404 10.3424 7.04404C10.182 7.04404 10.0474 7.25571 10.0474 7.40967C10.0474 7.72393 10.5861 8.15366 11.3814 8.1665V8.36533C11.3814 8.44229 11.4584 8.51284 11.5675 8.51284C11.6637 8.51284 11.7599 8.44229 11.7599 8.36533V8.14726C12.4526 8.05102 12.9272 7.61489 12.9272 6.82598C12.9272 5.95371 12.3179 5.67144 11.7599 5.46621ZM11.4199 5.34438C11.08 5.21611 10.8042 5.08145 10.8042 4.71587C10.8042 4.38232 11.0607 4.22197 11.4199 4.1771V5.34438ZM11.7214 7.53149V6.17817C12.0356 6.31284 12.2858 6.49243 12.2858 6.89648C12.2858 7.26216 12.0677 7.46738 11.7214 7.53149Z" fill="white"/>
</g>
<defs>
<clipPath id="clip0">
<rect x="0.142578" y="0.66748" width="25" height="25" fill="white"/>
</clipPath>
</defs>
</svg>
