<svg width="16" height="18" viewBox="0 0 16 18" fill="none" xmlns="http://www.w3.org/2000/svg">
<path d="M10.0359 13.2434C11.4879 10.8352 13.323 7.44961 13.323 5.70937C13.323 2.77383 10.9359 0.386719 8.00039 0.386719C5.06484 0.386719 2.67773 2.77383 2.67773 5.70937C2.67773 7.44961 4.51289 10.8352 5.96484 13.2434C4.24219 13.3734 0.322266 13.841 0.322266 15.3914C0.322266 16.9172 4.30195 17.6133 8.00391 17.6133C11.7023 17.6133 15.6855 16.9172 15.6855 15.3914C15.682 13.841 11.7586 13.3734 10.0359 13.2434ZM3.4125 5.70937C3.4125 3.17812 5.47266 1.11797 8.00039 1.11797C10.5316 1.11797 12.5918 3.17812 12.5918 5.70937C12.5918 7.9207 9.06914 13.4684 8.00039 15.0996C6.93164 13.4684 3.4125 7.9207 3.4125 5.70937ZM8.00039 16.8785C3.50391 16.8785 1.05352 15.8941 1.05352 15.3879C1.05352 14.9977 2.6707 14.1574 6.39727 13.943C7.09687 15.0715 7.62773 15.8695 7.69805 15.9645C7.79297 16.091 8.0707 16.2422 8.30625 15.9645C8.38008 15.8766 8.90742 15.0715 9.60703 13.943C13.3336 14.1574 14.9508 14.9941 14.9508 15.3879C14.9473 15.8977 12.4969 16.8785 8.00039 16.8785Z" fill="#6C7185"/>
<path d="M10.3172 5.70937C10.3172 4.42969 9.28008 3.39258 8.00039 3.39258C6.7207 3.39258 5.68359 4.42969 5.68359 5.70937C5.68359 6.98906 6.7207 8.02617 8.00039 8.02617C9.28008 8.02617 10.3172 6.98906 10.3172 5.70937ZM6.41484 5.70937C6.41484 4.83398 7.125 4.12383 8.00039 4.12383C8.87578 4.12383 9.58594 4.83398 9.58594 5.70937C9.58594 6.58476 8.87578 7.29492 8.00039 7.29492C7.125 7.29492 6.41484 6.58476 6.41484 5.70937Z" fill="#6C7185"/>
</svg>
