<svg width="51" height="51" viewBox="0 0 51 51" fill="none" xmlns="http://www.w3.org/2000/svg">
<g filter="url(#filter0_i)">
<circle cx="25.0713" cy="25.1675" r="25" fill="#FFC501"/>
</g>
<g clip-path="url(#clip0)">
<path d="M29.0492 31.8003C28.8854 31.7727 28.7175 31.7587 28.5502 31.7587H26.953V30.7398C27.8729 30.1259 28.4802 29.0789 28.4802 27.8924V26.0596C28.4802 25.4283 28.3069 24.8112 27.9788 24.2755L27.3536 24.6583C27.6111 25.0788 27.7472 25.5635 27.7472 26.0596V26.4439L27.6509 26.266C27.3578 25.7241 26.793 25.3874 26.1769 25.3874H23.9409C23.3249 25.3874 22.7601 25.7241 22.4669 26.266L22.3708 26.4439V26.0596C22.3708 24.5772 23.5766 23.3714 25.059 23.3714C25.7741 23.3714 26.4472 23.6491 26.9542 24.1532L27.4711 23.6332C26.8258 22.9916 25.9692 22.6382 25.059 22.6382C23.1725 22.6382 21.6376 24.173 21.6376 26.0596V27.8924C21.6376 29.0789 22.2451 30.1261 23.165 30.7398V31.7587H21.5678C19.922 31.7587 18.583 33.0977 18.583 34.7437V37.6675H19.3162V34.7437C19.3162 33.5021 20.3261 32.4919 21.5678 32.4919H23.1933C23.347 33.3828 24.1248 34.063 25.059 34.063C25.9932 34.063 26.7711 33.3828 26.9248 32.4919H28.5502C28.6769 32.4919 28.8037 32.5024 28.9275 32.5234L29.0492 31.8003ZM26.2198 32.169C26.2198 32.8091 25.6991 33.3298 25.059 33.3298C24.4189 33.3298 23.8982 32.8091 23.8982 32.169V31.1106C24.2608 31.2419 24.6516 31.3136 25.059 31.3136C25.4664 31.3136 25.8573 31.2419 26.2198 31.1106V32.169ZM25.059 30.5806C23.6064 30.5806 22.42 29.4222 22.3731 27.981L23.112 26.6148C23.2768 26.31 23.5946 26.1206 23.9409 26.1206H26.1769C26.5235 26.1206 26.8413 26.31 27.0061 26.6148L27.745 27.9809C27.6978 29.4222 26.5115 30.5806 25.059 30.5806Z" fill="#3D404C"/>
<path d="M29.8433 32.0527L29.5254 32.7132C30.3009 33.0865 30.8018 33.8836 30.8018 34.7436V37.6674H31.535V34.7436C31.535 33.6036 30.871 32.5475 29.8433 32.0527Z" fill="#3D404C"/>
<path d="M28.6025 35.908H29.3357V37.6675H28.6025V35.908Z" fill="#3D404C"/>
<path d="M20.7822 35.908H21.5154V37.6675H20.7822V35.908Z" fill="#3D404C"/>
<path d="M19.064 16.1225L18.2164 14.4053L17.3688 16.1225L15.4736 16.3979L16.845 17.7347L16.5213 19.6223L18.2164 18.7311L19.9115 19.6223L19.5878 17.7347L20.9592 16.3979L19.064 16.1225ZM18.9378 18.2822L18.2164 17.9028L17.495 18.2822L17.6328 17.4788L17.0491 16.9098L17.8557 16.7927L18.2164 16.0618L18.5771 16.7927L19.3837 16.9098L18.8 17.4788L18.9378 18.2822Z" fill="#3D404C"/>
<path d="M26.1509 16.1224L25.3033 14.405L24.4559 16.1224L22.5605 16.3978L23.9319 17.7347L23.6083 19.6222L25.3033 18.7311L26.9986 19.6222L26.6747 17.7345L28.0461 16.3978L26.1509 16.1224ZM26.0249 18.2821L25.3033 17.9027L24.582 18.2821L24.7197 17.4787L24.136 16.9098L24.9426 16.7926L25.3033 16.0618L25.664 16.7926L26.4706 16.9098L25.887 17.4787L26.0249 18.2821Z" fill="#3D404C"/>
<path d="M31.9015 14.405L31.0538 16.1224L29.1587 16.3978L30.5301 17.7345L30.2064 19.6222L31.9015 18.7311L33.5967 19.6222L33.2728 17.7345L34.6442 16.3978L32.7491 16.1224L31.9015 14.405ZM32.6228 18.2821L31.9015 17.9027L31.1799 18.2821L31.3178 17.4787L30.7342 16.9098L31.5408 16.7926L31.9015 16.0618L32.2621 16.7926L33.0688 16.9098L32.4851 17.4787L32.6228 18.2821Z" fill="#3D404C"/>
<path d="M36.2028 12.6675H31.7012V13.4007H36.2028C36.5396 13.4007 36.8137 13.6748 36.8137 14.0116V20.3653C36.8137 20.7024 36.5396 20.9765 36.2028 20.9765H19.5606V23.568L15.8889 20.9765H13.9154C13.5786 20.9765 13.3045 20.7024 13.3045 20.3653V17.1724H12.5713V20.3653C12.5713 21.1065 13.1742 21.7095 13.9154 21.7095H15.6564L20.2938 24.983V21.7095H36.2028C36.944 21.7095 37.5469 21.1065 37.5469 20.3653V14.0116C37.5469 13.2704 36.944 12.6675 36.2028 12.6675Z" fill="#3D404C"/>
<path d="M13.3045 14.0116C13.3045 13.6748 13.5786 13.4007 13.9154 13.4007H30.9682V12.6675H13.9154C13.1742 12.6675 12.5713 13.2704 12.5713 14.0116V16.4393H13.3045V14.0116Z" fill="#3D404C"/>
<path d="M20.0493 34.7437H20.7825C20.7825 34.3106 21.1348 33.9581 21.5679 33.9581V33.2251C20.7306 33.2251 20.0493 33.9064 20.0493 34.7437Z" fill="#3D404C"/>
<path d="M36.0315 15.9666V14.1338H34.1987V14.8668H35.2983V15.9666H36.0315Z" fill="#3D404C"/>
<path d="M14.0376 18.3616V20.1945H15.8704V19.4613H14.7706V18.3616H14.0376Z" fill="#3D404C"/>
<path d="M23.2261 36.0303H23.9591V36.7633H23.2261V36.0303Z" fill="#3D404C"/>
<path d="M24.6924 36.0303H25.4256V36.7633H24.6924V36.0303Z" fill="#3D404C"/>
<path d="M26.1592 36.0303H26.8922V36.7633H26.1592V36.0303Z" fill="#3D404C"/>
</g>
<defs>
<filter id="filter0_i" x="0.0712891" y="0.16748" width="50" height="50" filterUnits="userSpaceOnUse" color-interpolation-filters="sRGB">
<feFlood flood-opacity="0" result="BackgroundImageFix"/>
<feBlend mode="normal" in="SourceGraphic" in2="BackgroundImageFix" result="shape"/>
<feColorMatrix in="SourceAlpha" type="matrix" values="0 0 0 0 0 0 0 0 0 0 0 0 0 0 0 0 0 0 127 0" result="hardAlpha"/>
<feOffset/>
<feGaussianBlur stdDeviation="2.5"/>
<feComposite in2="hardAlpha" operator="arithmetic" k2="-1" k3="1"/>
<feColorMatrix type="matrix" values="0 0 0 0 0 0 0 0 0 0 0 0 0 0 0 0 0 0 0.25 0"/>
<feBlend mode="normal" in2="shape" result="effect1_innerShadow"/>
</filter>
<clipPath id="clip0">
<rect x="12.5713" y="12.6675" width="25" height="25" fill="white"/>
</clipPath>
</defs>
</svg>
