<svg width="19" height="19" viewBox="0 0 19 19" fill="none" xmlns="http://www.w3.org/2000/svg">
<path d="M9.00342 14.9983C9.48882 14.9983 9.88232 14.6048 9.88232 14.1194C9.88232 13.634 9.48882 13.2405 9.00342 13.2405C8.51801 13.2405 8.12451 13.634 8.12451 14.1194C8.12451 14.6048 8.51801 14.9983 9.00342 14.9983Z" fill="url(#paint0_linear)"/>
<path d="M9.00342 0.812744C4.02937 0.812744 0.00341797 4.83803 0.00341797 9.81274C0.00341797 14.7868 4.0287 18.8127 9.00342 18.8127C13.9775 18.8127 18.0034 14.7875 18.0034 9.81274C18.0034 4.8387 13.9781 0.812744 9.00342 0.812744ZM9.00342 17.4065C4.80657 17.4065 1.40967 14.0102 1.40967 9.81274C1.40967 5.6159 4.80601 2.21899 9.00342 2.21899C13.2003 2.21899 16.5972 5.61533 16.5972 9.81274C16.5972 14.0096 13.2008 17.4065 9.00342 17.4065Z" fill="url(#paint1_linear)"/>
<path d="M9.00342 5.33032C7.45261 5.33032 6.19092 6.59201 6.19092 8.14282C6.19092 8.53116 6.50571 8.84595 6.89404 8.84595C7.28238 8.84595 7.59717 8.53116 7.59717 8.14282C7.59717 7.36742 8.22801 6.73657 9.00342 6.73657C9.77882 6.73657 10.4097 7.36742 10.4097 8.14282C10.4097 8.91823 9.77882 9.54907 9.00342 9.54907C8.61508 9.54907 8.30029 9.86386 8.30029 10.2522V12.01C8.30029 12.3983 8.61508 12.7131 9.00342 12.7131C9.39175 12.7131 9.70654 12.3983 9.70654 12.01V10.8663C10.9182 10.5533 11.8159 9.45095 11.8159 8.14282C11.8159 6.59201 10.5542 5.33032 9.00342 5.33032Z" fill="url(#paint2_linear)"/>
<defs>
<linearGradient id="paint0_linear" x1="8.12451" y1="13.2792" x2="10.0392" y2="13.4765" gradientUnits="userSpaceOnUse">
<stop stop-color="#4880FF"/>
<stop offset="1" stop-color="#6694FE"/>
</linearGradient>
<linearGradient id="paint1_linear" x1="0.00341799" y1="1.20874" x2="19.6099" y2="3.23007" gradientUnits="userSpaceOnUse">
<stop stop-color="#4880FF"/>
<stop offset="1" stop-color="#6694FE"/>
</linearGradient>
<linearGradient id="paint2_linear" x1="6.19092" y1="5.49274" x2="12.3451" y2="5.97615" gradientUnits="userSpaceOnUse">
<stop stop-color="#4880FF"/>
<stop offset="1" stop-color="#6694FE"/>
</linearGradient>
</defs>
</svg>
