<svg width="16" height="10" viewBox="0 0 16 10" fill="none" xmlns="http://www.w3.org/2000/svg">
<path d="M11.7323 1.71288C11.9276 1.51762 11.9276 1.20104 11.7323 1.00577L11.478 0.751504C11.2828 0.556241 10.9662 0.556241 10.7709 0.751504L7.15185 4.37059C6.95658 4.56585 6.95659 4.88244 7.15185 5.0777L7.40612 5.33197C7.60138 5.52723 7.91796 5.52723 8.11322 5.33197L11.7323 1.71288ZM15.3248 0.729114C15.1271 0.544646 14.8187 0.550694 14.6284 0.742768L8.11319 7.32003C7.9182 7.51687 7.60033 7.51763 7.40441 7.32171L5.22907 5.14637C5.03381 4.95111 4.71723 4.95111 4.52196 5.14637L4.26769 5.40064C4.07243 5.5959 4.07243 5.91248 4.26769 6.10774L7.40609 9.24614C7.60135 9.44141 7.91793 9.44141 8.1132 9.24614L15.634 1.72528C15.8341 1.52524 15.8285 1.19923 15.6217 1.0062L15.3248 0.729114ZM0.353552 5.40064C0.15829 5.5959 0.158291 5.91248 0.353552 6.10774L3.49195 9.24614C3.68721 9.44141 4.00379 9.44141 4.19905 9.24614L4.45332 8.99187C4.64858 8.79661 4.64858 8.48003 4.45332 8.28477L1.31493 5.14637C1.11967 4.95111 0.803084 4.95111 0.607821 5.14637L0.353552 5.40064Z" fill="white"/>
</svg>
