<svg width="35" height="36" viewBox="0 0 35 36" fill="none" xmlns="http://www.w3.org/2000/svg">
<g clip-path="url(#clip0)">
<path d="M23.0692 26.9591C22.8398 26.9204 22.6048 26.9009 22.3706 26.9009H20.1345V25.4744C21.4224 24.6148 22.2726 23.1491 22.2726 21.4879V18.922C22.2726 18.0382 22.0299 17.1743 21.5706 16.4243L20.6953 16.9602C21.0558 17.549 21.2464 18.2275 21.2464 18.922V19.4601L21.1116 19.211C20.7012 18.4523 19.9105 17.981 19.048 17.981H15.9176C15.0551 17.981 14.2644 18.4523 13.854 19.211L13.7194 19.4601V18.922C13.7194 16.8467 15.4076 15.1585 17.4829 15.1585C18.484 15.1585 19.4264 15.5473 20.1361 16.2531L20.8598 15.5252C19.9564 14.6269 18.7572 14.1321 17.4829 14.1321C14.8418 14.1321 12.693 16.2809 12.693 18.922V21.4879C12.693 23.1491 13.5435 24.6151 14.8313 25.4744V26.9009H12.5952C10.291 26.9009 8.4165 28.7754 8.4165 31.0799V35.1731H9.44296V31.0799C9.44296 29.3415 10.8569 27.9273 12.5952 27.9273H14.8709C15.0861 29.1746 16.175 30.1268 17.4829 30.1268C18.7908 30.1268 19.8798 29.1746 20.095 27.9273H22.3706C22.5479 27.9273 22.7255 27.942 22.8988 27.9714L23.0692 26.9591ZM19.1081 27.4752C19.1081 28.3714 18.3791 29.1004 17.4829 29.1004C16.5868 29.1004 15.8578 28.3714 15.8578 27.4752V25.9935C16.3654 26.1772 16.9126 26.2776 17.4829 26.2776C18.0533 26.2776 18.6004 26.1772 19.1081 25.9935V27.4752ZM17.4829 25.2514C15.4492 25.2514 13.7883 23.6298 13.7226 21.6121L14.7571 19.6994C14.9878 19.2727 15.4327 19.0075 15.9176 19.0075H19.048C19.5332 19.0075 19.9781 19.2727 20.2088 19.6994L21.2432 21.6118C21.1773 23.6298 19.5164 25.2514 17.4829 25.2514Z" fill="#6C7185"/>
<path d="M24.181 27.3126L23.7358 28.2373C24.8216 28.7599 25.5228 29.8758 25.5228 31.0799V35.1731H26.5493V31.0799C26.5493 29.4838 25.6197 28.0053 24.181 27.3126Z" fill="#6C7185"/>
<path d="M22.4438 32.7097H23.4703V35.1731H22.4438V32.7097Z" fill="#6C7185"/>
<path d="M11.4956 32.7097H12.5221V35.1731H11.4956V32.7097Z" fill="#6C7185"/>
<path d="M9.09003 5.01002L7.90335 2.60596L6.71667 5.01002L4.06348 5.39561L5.98341 7.26721L5.53027 9.90973L7.90335 8.66217L10.2764 9.90973L9.82329 7.26721L11.7432 5.39561L9.09003 5.01002ZM8.91325 8.03358L7.90335 7.50246L6.89345 8.03358L7.08624 6.90886L6.26913 6.11231L7.3984 5.94836L7.90335 4.9251L8.4083 5.94836L9.53757 6.11231L8.72046 6.90886L8.91325 8.03358Z" fill="#6C7185"/>
<path d="M19.0114 5.01004L17.8247 2.60571L16.6383 5.01004L13.9849 5.39563L15.9048 7.26723L15.4517 9.90975L17.8247 8.66219L20.1981 9.90975L19.7447 7.26697L21.6646 5.39563L19.0114 5.01004ZM18.8349 8.03361L17.8247 7.50249L16.8148 8.03361L17.0076 6.90888L16.1905 6.11234L17.3198 5.94838L17.8247 4.92513L18.3297 5.94838L19.459 6.11234L18.6418 6.90888L18.8349 8.03361Z" fill="#6C7185"/>
<path d="M27.0625 2.60571L25.8759 5.01004L23.2227 5.39563L25.1426 7.26697L24.6894 9.90975L27.0625 8.66219L29.4359 9.90975L28.9825 7.26697L30.9024 5.39563L28.2492 5.01004L27.0625 2.60571ZM28.0724 8.03361L27.0625 7.50249L26.0524 8.03361L26.2454 6.90888L25.4283 6.11234L26.5576 5.94838L27.0625 4.92513L27.5675 5.94838L28.6967 6.11234L27.8796 6.90888L28.0724 8.03361Z" fill="#6C7185"/>
<path d="M33.0841 0.173096H26.7819V1.19955H33.0841C33.5556 1.19955 33.9394 1.58327 33.9394 2.05485V10.9501C33.9394 11.422 33.5556 11.8057 33.0841 11.8057H9.785V15.4338L4.6447 11.8057H1.88175C1.41018 11.8057 1.02646 11.422 1.02646 10.9501V6.48005H0V10.9501C0 11.9878 0.844078 12.8319 1.88175 12.8319H4.31919L10.8115 17.4149V12.8319H33.0841C34.1217 12.8319 34.9658 11.9878 34.9658 10.9501V2.05485C34.9658 1.01717 34.1217 0.173096 33.0841 0.173096Z" fill="#6C7185"/>
<path d="M1.02646 2.05485C1.02646 1.58327 1.41018 1.19955 1.88175 1.19955H25.7557V0.173096H1.88175C0.844078 0.173096 0 1.01717 0 2.05485V5.45359H1.02646V2.05485Z" fill="#6C7185"/>
<path d="M10.4692 31.0798H11.4957C11.4957 30.4734 11.9889 29.9799 12.5953 29.9799V28.9537C11.4231 28.9537 10.4692 29.9076 10.4692 31.0798Z" fill="#6C7185"/>
<path d="M32.8447 4.79195V2.22607H30.2788V3.25227H31.8182V4.79195H32.8447Z" fill="#6C7185"/>
<path d="M2.05273 8.14465V10.7108H4.61861V9.68434H3.07893V8.14465H2.05273Z" fill="#6C7185"/>
<path d="M14.917 32.8809H15.9432V33.9071H14.917V32.8809Z" fill="#6C7185"/>
<path d="M16.9697 32.8809H17.9962V33.9071H16.9697V32.8809Z" fill="#6C7185"/>
<path d="M19.0225 32.8809H20.0487V33.9071H19.0225V32.8809Z" fill="#6C7185"/>
</g>
<defs>
<clipPath id="clip0">
<rect y="0.173096" width="35" height="35" fill="white"/>
</clipPath>
</defs>
</svg>
