<svg width="18" height="18" viewBox="0 0 18 18" fill="none" xmlns="http://www.w3.org/2000/svg">
<path d="M15.9612 5.32692L16.9566 4.80024C16.7694 4.44649 16.559 4.10551 16.3268 3.77954L15.4092 4.43353C15.6129 4.7187 15.7973 5.01714 15.9612 5.32692Z" fill="#6C7185"/>
<path d="M14.7444 3.62065L15.5663 2.85061C15.2924 2.55864 14.9998 2.28484 14.6903 2.03101L13.9761 2.90243C14.2476 3.12483 14.5042 3.36473 14.7444 3.62065Z" fill="#6C7185"/>
<path d="M17.4475 5.89757H17.4464L16.3896 6.28568C17.8949 10.3754 15.7997 14.911 11.71 16.4162C7.62028 17.9214 3.08465 15.8263 1.57944 11.7366C0.0742284 7.64683 2.16936 3.11127 6.25906 1.60602C8.53103 0.769839 11.0611 1.02287 13.1225 2.29241L13.7145 1.33479C9.48114 -1.26868 3.93875 0.0526163 1.33528 4.286C-1.26819 8.51938 0.0531046 14.0617 4.28649 16.6652C8.51987 19.2687 14.0622 17.9474 16.6657 13.714C18.1098 11.3658 18.3979 8.48527 17.4475 5.89757Z" fill="#6C7185"/>
<path d="M11.2373 9.00762C12.4817 9.00762 13.4905 7.99882 13.4905 6.75442C13.4905 5.51002 12.4817 4.50122 11.2373 4.50122H7.29422V7.88102H5.04102V9.00762H7.29422V10.1342H5.04102V11.2608H7.29422V13.514H8.42082V11.2608H10.674V10.1342H8.42082V9.00762H11.2373ZM8.42082 5.62782H11.2373C11.8595 5.62782 12.3639 6.13222 12.3639 6.75442C12.3639 7.37662 11.8595 7.88102 11.2373 7.88102H8.42082V5.62782Z" fill="#6C7185"/>
</svg>
