<svg width="30" height="39" viewBox="0 0 30 39" fill="none" xmlns="http://www.w3.org/2000/svg">
<path d="M29.4565 7.04812C24.6657 5.5967 19.8468 3.33671 15.5206 0.512535C15.2908 0.362521 15.0057 0.362521 14.7759 0.512535C10.325 3.41785 5.76646 5.55557 0.839671 7.04812C0.521397 7.14445 0.300781 7.46433 0.300781 7.82925V16.1042C0.300781 24.6255 3.85614 30.266 6.8388 33.4973C10.0498 36.9762 13.7902 38.9 15.1483 38.9C16.5062 38.9 20.2466 36.9762 23.4576 33.4973C26.4402 30.2661 29.9954 24.6256 29.9954 16.1042V7.82917C29.9954 7.46432 29.7748 7.14445 29.4565 7.04812ZM28.5305 16.1041C28.5305 24.063 25.2144 29.3263 22.4323 32.3402C19.2747 35.7612 15.8986 37.2802 15.1483 37.2802C14.398 37.2802 11.0217 35.7612 7.86395 32.3402C5.08197 29.3262 1.76573 24.063 1.76573 16.1041V8.44397C6.47714 6.96488 10.8648 4.9007 15.1484 2.14833C19.325 4.82768 23.9316 6.99451 28.5305 8.44367V16.1041Z" fill="#4880FF"/>
<path d="M8.6566 8.35336C8.50834 7.93715 8.08309 7.7327 7.7066 7.8967C6.39814 8.46675 5.05513 8.99146 3.71491 9.45632C3.40949 9.56235 3.20166 9.87516 3.20166 10.229V13.3565C3.20166 13.8037 3.52966 14.1663 3.9341 14.1663C4.33854 14.1663 4.66654 13.8037 4.66654 13.3565V10.8209C5.86884 10.3908 7.06985 9.91501 8.24359 9.40361C8.62001 9.23976 8.80492 8.76956 8.6566 8.35336Z" fill="#4880FF"/>
<path d="M10.0481 8.50695C10.1463 8.50695 10.2461 8.48507 10.3418 8.4389L10.3553 8.43244C10.7258 8.25287 10.8927 7.77591 10.7303 7.36632C10.5678 6.95658 10.134 6.77122 9.76381 6.95064L9.75197 6.95628C9.3812 7.13532 9.21376 7.61191 9.37569 8.02172C9.49586 8.32596 9.76551 8.50695 10.0481 8.50695Z" fill="#4880FF"/>
<path d="M23.8752 26.514C23.5367 26.2694 23.0828 26.3746 22.8613 26.749C22.2578 27.7705 21.5497 28.7486 20.7564 29.656C20.1041 30.4021 19.3972 31.0975 18.6555 31.7227C18.3339 31.9939 18.272 32.5021 18.5172 32.8578C18.6614 33.0668 18.8795 33.1767 19.1001 33.1767C19.255 33.1767 19.4111 33.1226 19.5437 33.0108C20.3438 32.3362 21.1062 31.5863 21.8095 30.7818C22.6672 29.801 23.4336 28.7422 24.0877 27.635C24.3091 27.2605 24.2138 26.7586 23.8752 26.514Z" fill="#4880FF"/>
<path d="M16.9541 32.9927L16.912 33.02C16.562 33.2442 16.4424 33.7396 16.645 34.1266C16.7808 34.386 17.0267 34.5308 17.2796 34.5308C17.4041 34.5308 17.5304 34.4957 17.6458 34.4217L17.6943 34.3902C18.0434 34.1641 18.1606 33.6681 17.9562 33.2821C17.7516 32.8963 17.3029 32.7668 16.9541 32.9927Z" fill="#4880FF"/>
<path d="M10.1555 17.9971C9.70573 17.4998 9.10761 17.2261 8.47147 17.2261C7.83533 17.2261 7.23714 17.4999 6.7872 17.9971C5.85869 19.024 5.85869 20.6948 6.7872 21.7216L11.1122 26.5036C11.562 27.0008 12.1601 27.2746 12.7963 27.2746C13.4325 27.2746 14.0307 27.0008 14.4805 26.5034L23.5093 16.5204C24.4377 15.4933 24.4377 13.8227 23.5091 12.7962C23.0593 12.2989 22.4612 12.0251 21.8249 12.0251C21.1887 12.0251 20.5906 12.2989 20.1407 12.7962L12.7963 20.9169L10.1555 17.9971ZM21.1766 13.9416C21.3497 13.7502 21.58 13.6449 21.825 13.6449C22.0701 13.6449 22.3002 13.7502 22.4734 13.9416C22.8308 14.3367 22.8308 14.9799 22.4733 15.3752L13.4447 25.3582C13.2716 25.5495 13.0413 25.6549 12.7963 25.6549C12.5514 25.6549 12.321 25.5495 12.1479 25.3582L7.82302 20.5763C7.4655 20.181 7.4655 19.5378 7.82288 19.1427C7.99603 18.9513 8.22637 18.8458 8.4714 18.8458C8.71643 18.8458 8.94664 18.9511 9.11971 19.1425L12.2783 22.635C12.4158 22.7869 12.602 22.8722 12.7963 22.8722C12.9906 22.8722 13.1768 22.7869 13.3141 22.635L21.1766 13.9416Z" fill="#4880FF"/>
</svg>
