<svg width="73" height="13" viewBox="0 0 73 13" fill="none" xmlns="http://www.w3.org/2000/svg">
<path d="M7.32673 0.884277C2.44547 1.32001 0.803589 3.57646 0.803589 7.38909C0.803589 10.5948 1.95734 12.6178 4.30922 12.6178C6.14339 12.6178 7.50423 11.1862 7.50423 8.66516C7.50423 6.14415 6.24694 4.71247 4.26485 4.71247C3.34776 4.71247 2.40109 5.16376 1.83901 5.80179C2.19401 3.20298 4.20568 1.98916 7.25277 1.7713L7.32673 0.884277ZM4.26485 5.58393C5.69964 5.58393 6.55756 6.71994 6.55756 8.66516C6.55756 10.5326 5.71443 11.7619 4.30922 11.7619C2.80047 11.7619 1.72067 10.5326 1.72067 7.37353C1.72067 7.18679 1.73547 7.01561 1.73547 6.84443C2.3863 6.01966 3.31818 5.58393 4.26485 5.58393Z" fill="#6C7185"/>
<path d="M12.5305 11.7619C10.9182 11.7619 9.86801 10.5481 9.74968 8.78965H15.8587C15.8734 8.66516 15.8734 8.50954 15.8734 8.38505C15.8734 5.91073 14.3943 4.18337 12.3382 4.18337C10.2526 4.18337 8.78822 5.95741 8.78822 8.40061C8.78822 10.7504 10.2378 12.6178 12.5157 12.6178C13.8174 12.6178 14.7049 12.0421 15.4149 10.8905L14.838 10.4703C14.2907 11.2795 13.4772 11.7619 12.5305 11.7619ZM9.74968 7.96488C9.8828 6.2064 10.9182 5.05483 12.3382 5.05483C13.7434 5.05483 14.8528 6.2064 14.912 7.96488H9.74968Z" fill="#6C7185"/>
<path d="M22.8484 10.268C22.8484 9.20982 22.1236 8.47842 20.9551 8.1983C21.9461 7.91819 22.5674 7.21791 22.5674 6.26865C22.5674 4.9459 21.384 4.18337 19.757 4.18337C18.2038 4.18337 17.1388 5.07039 16.8726 6.43983H17.8192C18.0115 5.61505 18.6476 5.05483 19.7718 5.05483C20.8959 5.05483 21.6207 5.52168 21.6207 6.31533C21.6207 7.23347 20.6888 7.76257 19.3576 7.76257H18.544V8.61847H19.3724C20.7036 8.61847 21.9165 9.19426 21.9165 10.268C21.9165 11.1395 21.1474 11.7619 19.8753 11.7619C18.8842 11.7619 18.1299 11.3573 17.3459 10.6726L16.8726 11.2017C17.7453 12.1043 18.618 12.6178 19.8457 12.6178C21.6947 12.6178 22.8484 11.653 22.8484 10.268Z" fill="#6C7185"/>
<path d="M31.3761 8.40061C31.3761 5.97297 29.9561 4.18337 27.7669 4.18337C25.5777 4.18337 24.1577 5.97297 24.1577 8.40061C24.1577 10.8438 25.5777 12.6178 27.7669 12.6178C29.9561 12.6178 31.3761 10.8438 31.3761 8.40061ZM30.4442 8.40061C30.4442 10.4392 29.394 11.7619 27.7669 11.7619C26.1398 11.7619 25.1044 10.4392 25.1044 8.40061C25.1044 6.37758 26.1398 5.05483 27.7669 5.05483C29.394 5.05483 30.4442 6.37758 30.4442 8.40061Z" fill="#6C7185"/>
<path d="M33.1096 12.4311H34.0267V5.21045H38.2275V12.4311H39.1594V4.37011H33.1096V12.4311Z" fill="#6C7185"/>
<path d="M48.1481 11.7619C47.9706 11.7775 47.8375 11.7931 47.6748 11.7931C47.4085 11.7931 47.2163 11.5908 47.2163 11.2017V6.96893C47.2163 5.17932 46.1069 4.18337 44.184 4.18337C42.4385 4.18337 41.4031 5.17932 41.2404 6.57988H42.2019C42.335 5.6773 42.971 5.05483 44.1248 5.05483C45.6927 5.05483 46.2844 5.81735 46.2844 7.17123V8.35392C45.6187 7.84038 44.8052 7.54471 43.7402 7.54471C42.0096 7.54471 40.8706 8.61847 40.8706 10.0813C40.8706 11.5596 42.0096 12.6178 43.7402 12.6178C44.82 12.6178 45.6335 12.2444 46.3435 11.4818C46.4915 12.3533 47.0388 12.6178 47.586 12.6178C47.7192 12.6178 48.0002 12.5867 48.1481 12.54V11.7619ZM43.9325 11.7619C42.6604 11.7619 41.8173 11.2017 41.8173 10.0813C41.8173 8.97639 42.6604 8.41617 43.9325 8.41617C44.82 8.41617 45.604 8.66516 46.2844 9.2565V10.7037C45.6483 11.3418 44.82 11.7619 43.9325 11.7619Z" fill="#6C7185"/>
<path d="M48.8587 8.40061C48.8587 10.906 50.3675 12.6178 52.5418 12.6178C53.9175 12.6178 54.9677 11.9176 55.6333 10.5481L55.0121 10.1591C54.45 11.1706 53.5921 11.7619 52.601 11.7619C50.9443 11.7619 49.8054 10.4859 49.8054 8.40061C49.8054 6.31533 50.8556 5.03927 52.4531 5.03927C53.5625 5.03927 54.4796 5.77067 54.7606 6.9378H55.7073C55.3523 5.19488 54.0506 4.18337 52.3939 4.18337C50.2787 4.18337 48.8587 5.91073 48.8587 8.40061Z" fill="#6C7185"/>
<path d="M58.1358 7.62252V4.37011H57.2039V12.4311H58.1358V8.46285H62.6029V12.4311H63.5199V4.37011H62.6029V7.62252H58.1358Z" fill="#6C7185"/>
<path d="M72.4722 8.40061C72.4722 5.97297 71.0522 4.18337 68.863 4.18337C66.6738 4.18337 65.2538 5.97297 65.2538 8.40061C65.2538 10.8438 66.6738 12.6178 68.863 12.6178C71.0522 12.6178 72.4722 10.8438 72.4722 8.40061ZM71.5403 8.40061C71.5403 10.4392 70.4901 11.7619 68.863 11.7619C67.2359 11.7619 66.2005 10.4392 66.2005 8.40061C66.2005 6.37758 67.2359 5.05483 68.863 5.05483C70.4901 5.05483 71.5403 6.37758 71.5403 8.40061Z" fill="#6C7185"/>
</svg>
