<svg width="51" height="51" viewBox="0 0 51 51" fill="none" xmlns="http://www.w3.org/2000/svg">
<g clip-path="url(#clip0)">
<path d="M44.6384 33.9966C43.2944 37.6389 41.262 40.8058 38.5966 43.4086C35.5628 46.3711 31.5902 48.7252 26.789 50.4044C26.6314 50.4593 26.467 50.5043 26.3019 50.5375C26.0837 50.5806 25.8616 50.6039 25.6415 50.6069H25.5984C25.3638 50.6069 25.1281 50.5833 24.8942 50.5375C24.7291 50.5043 24.5669 50.4593 24.4101 50.4055C19.6032 48.729 15.6257 46.3761 12.5888 43.4136C9.92229 40.8108 7.8902 37.6457 6.54819 34.0035C4.10793 27.3811 4.24678 20.0859 4.35855 14.2235L4.36046 14.1335C4.38297 13.6494 4.39746 13.1409 4.40547 12.5793C4.44629 9.82246 6.63822 7.54165 9.39548 7.38792C15.1442 7.0671 19.5914 5.19218 23.3912 1.48848L23.4244 1.45797C24.0554 0.879276 24.8504 0.595463 25.6415 0.607288C26.4045 0.617207 27.1644 0.900639 27.7728 1.45797L27.8052 1.48848C31.6058 5.19218 36.053 7.0671 41.8017 7.38792C44.559 7.54165 46.7509 9.82246 46.7918 12.5793C46.7998 13.1447 46.8143 13.6524 46.8368 14.1335L46.8379 14.1716C46.9493 20.0451 47.0874 27.3548 44.6384 33.9966Z" fill="#66DAB5"/>
<path d="M44.6374 33.9966C43.2935 37.6389 41.261 40.8058 38.5957 43.4086C35.5619 46.3711 31.5893 48.7252 26.7881 50.4044C26.6305 50.4593 26.4661 50.5043 26.3009 50.5375C26.0827 50.5806 25.8607 50.6039 25.6406 50.607V0.6073C26.4036 0.617218 27.1634 0.90065 27.7719 1.45798L27.8043 1.4885C31.6049 5.19219 36.0521 7.06711 41.8008 7.38793C44.5581 7.54166 46.75 9.82247 46.7908 12.5794C46.7988 13.1447 46.8133 13.6524 46.8358 14.1335L46.837 14.1716C46.9483 20.0451 47.0864 27.3548 44.6374 33.9966Z" fill="#33C093"/>
<path d="M38.0593 25.6068C38.0593 32.463 32.4925 38.0439 25.6421 38.0683H25.5982C18.7275 38.0683 13.1367 32.4779 13.1367 25.6068C13.1367 18.7362 18.7275 13.1458 25.5982 13.1458H25.6421C32.4925 13.1702 38.0593 18.7511 38.0593 25.6068Z" fill="white"/>
<path d="M38.0579 25.6068C38.0579 32.463 32.4911 38.0439 25.6406 38.0683V13.1458C32.4911 13.1702 38.0579 18.7511 38.0579 25.6068Z" fill="#E1EBF0"/>
<path d="M31.2539 23.8126L25.6418 29.4255L24.4291 30.6382C24.1426 30.9247 23.7668 31.0677 23.3915 31.0677C23.0157 31.0677 22.6403 30.9247 22.3535 30.6382L19.7461 28.0297C19.1732 27.4567 19.1732 26.5286 19.7461 25.9553C20.3183 25.3823 21.2476 25.3823 21.8206 25.9553L23.3915 27.5262L29.1795 21.7381C29.7525 21.1648 30.6817 21.1648 31.2539 21.7381C31.8269 22.3111 31.8269 23.2403 31.2539 23.8126Z" fill="#B4D2D7"/>
<path d="M31.2528 23.8126L25.6406 29.4255V25.2755L29.1784 21.7381C29.7513 21.1648 30.6806 21.1648 31.2528 21.7381C31.8257 22.3111 31.8257 23.2403 31.2528 23.8126Z" fill="#6FA5AA"/>
</g>
<defs>
<clipPath id="clip0">
<rect x="0.5" y="0.606934" width="50" height="50" fill="white"/>
</clipPath>
</defs>
</svg>
