<svg width="20" height="18" viewBox="0 0 20 18" fill="none" xmlns="http://www.w3.org/2000/svg">
<path d="M18.809 7.21633L2.67252 0.520624C1.99272 0.238515 1.22471 0.362617 0.668264 0.844335C0.111818 1.32613 -0.120916 2.06848 0.0609589 2.78164L1.49725 8.41414H8.52951C8.85311 8.41414 9.11549 8.67648 9.11549 9.00012C9.11549 9.32371 8.85315 9.58609 8.52951 9.58609H1.49725L0.0609589 15.2186C-0.120916 15.9318 0.111779 16.6741 0.668264 17.1559C1.22584 17.6386 1.99393 17.7611 2.67256 17.4796L18.809 10.7839C19.5437 10.4791 20.0001 9.79555 20.0001 9.00012C20.0001 8.20469 19.5437 7.52113 18.809 7.21633Z" fill="white"/>
</svg>
