<svg width="15" height="15" viewBox="0 0 15 15" fill="none" xmlns="http://www.w3.org/2000/svg">
<path fill-rule="evenodd" clip-rule="evenodd" d="M14.953 6.66733C14.9293 6.45648 14.6835 6.29803 14.4709 6.29803C13.7836 6.29803 13.1737 5.89446 12.9179 5.27033C12.6566 4.63107 12.8251 3.88555 13.3373 3.41568C13.4986 3.26828 13.5181 3.02154 13.3829 2.85015C13.0311 2.40344 12.6313 1.99993 12.1948 1.65021C12.0238 1.51303 11.773 1.53212 11.6248 1.69626C11.1777 2.19136 10.3747 2.37537 9.75421 2.11646C9.10848 1.84483 8.70128 1.1905 8.74113 0.488121C8.75425 0.267501 8.59301 0.075679 8.37306 0.0500618C7.81283 -0.0147346 7.24769 -0.0167438 6.68579 0.045597C6.46835 0.0695956 6.30711 0.256897 6.31442 0.474727C6.33887 1.17019 5.92676 1.81307 5.28745 2.07494C4.67437 2.32536 3.877 2.14291 3.43085 1.65222C3.28339 1.4906 3.03665 1.47073 2.86487 1.60462C2.41537 1.95729 2.00655 2.36113 1.65154 2.80416C1.51307 2.97639 1.53345 3.22603 1.6963 3.37421C2.2183 3.84693 2.38685 4.59893 2.11566 5.24555C1.85676 5.86204 1.21661 6.25935 0.483755 6.25935C0.245945 6.25171 0.0765597 6.41133 0.0505518 6.62754C-0.0154166 7.191 -0.0161979 7.76513 0.0473148 8.33317C0.070867 8.54492 0.324192 8.70197 0.53912 8.70197C1.19222 8.68528 1.81925 9.08963 2.08229 9.72973C2.34449 10.369 2.17594 11.1141 1.66293 11.5843C1.50247 11.7317 1.4821 11.9781 1.61733 12.1495C1.96581 12.5933 2.3657 12.9972 2.80381 13.3498C2.97565 13.4883 3.22568 13.4688 3.37464 13.3046C3.82336 12.8083 4.62631 12.6246 5.24436 12.884C5.89171 13.1548 6.29891 13.8091 6.25906 14.5119C6.24605 14.7326 6.40807 14.9248 6.62713 14.95C6.91372 14.9834 7.20204 15.0001 7.49114 15.0001C7.76556 15.0001 8.04004 14.985 8.31446 14.9545C8.53195 14.9305 8.69308 14.7432 8.68577 14.525C8.6606 13.8299 9.07343 13.187 9.71191 12.9256C10.3291 12.6735 11.1231 12.858 11.5693 13.3482C11.7176 13.5095 11.9626 13.529 12.1354 13.3956C12.584 13.0437 12.992 12.6402 13.3487 12.196C13.4871 12.0241 13.4676 11.7741 13.3039 11.626C12.7819 11.1532 12.6125 10.4011 12.8837 9.75495C13.1386 9.14667 13.755 8.73825 14.418 8.73825L14.5107 8.74065C14.7258 8.75812 14.9236 8.59247 14.9497 8.37297C15.0158 7.809 15.0166 7.23537 14.953 6.66733ZM7.51207 10.0177C6.13254 10.0177 5.0104 8.89552 5.0104 7.51599C5.0104 6.13651 6.13254 5.01433 7.51207 5.01433C8.89154 5.01433 10.0137 6.13651 10.0137 7.51599C10.0137 8.89552 8.89154 10.0177 7.51207 10.0177Z" fill="#ADAEB6"/>
</svg>
