<svg width="26" height="26" viewBox="0 0 26 26" fill="none" xmlns="http://www.w3.org/2000/svg">
<g clip-path="url(#clip0)">
<path d="M21.5252 4.77878C20.7514 4.68093 19.9951 4.50927 19.2778 4.26875C19.0859 4.20447 18.8784 4.30785 18.8141 4.49954C18.7498 4.69142 18.8532 4.89894 19.0449 4.96322C19.808 5.21919 20.6116 5.40153 21.4334 5.50548C22.666 5.6615 23.5457 6.79905 23.3942 8.04111C23.1957 9.66999 22.8321 12.1013 22.2279 14.4336C21.5696 16.974 20.7972 18.7416 19.9318 19.6872C18.1547 21.6291 15.9267 23.3503 14.3707 24.4522C13.553 25.0312 12.4544 25.0312 11.6369 24.4522C10.0809 23.3503 7.85291 21.6291 6.07583 19.6872C5.21046 18.7416 4.43779 16.974 3.77976 14.4336C3.17551 12.1013 2.81197 9.66999 2.61322 8.04111C2.46197 6.79905 3.34145 5.6615 4.57417 5.50548C8.12738 5.05611 10.4824 3.27083 11.8324 1.85233C12.1401 1.52922 12.5561 1.35108 13.0037 1.35108C13.4514 1.35108 13.8674 1.52922 14.1752 1.85233C15.1478 2.87429 16.272 3.70761 17.5165 4.32922C17.6973 4.41962 17.9174 4.34619 18.0078 4.16518C18.0981 3.98418 18.0246 3.76426 17.8438 3.67404C16.6754 3.09039 15.6196 2.30761 14.7056 1.34745C14.2584 0.87748 13.6539 0.618652 13.0037 0.618652C12.3535 0.618652 11.7491 0.87748 11.3018 1.34745C10.0338 2.67974 7.82144 4.35649 4.48223 4.77878C2.85069 4.98515 1.68606 6.48853 1.88614 8.12981C2.22717 10.9271 3.26553 17.7013 5.53547 20.1818C7.35623 22.1714 9.62827 23.9273 11.2135 25.0499C11.7489 25.4291 12.3762 25.6187 13.0037 25.6187C13.631 25.6185 14.2586 25.4291 14.794 25.0499C16.3792 23.9273 18.6512 22.1714 20.472 20.1818C22.7421 17.7013 23.7803 10.9271 24.1213 8.12981C24.3214 6.48853 23.1567 4.98515 21.5252 4.77878Z" fill="white"/>
<path d="M12.1765 4.05863C10.3239 5.66176 8.16114 6.71099 5.74853 7.17715C5.01344 7.31925 4.51714 8.01429 4.61862 8.75968C4.78932 10.013 5.13837 12.3569 5.55703 13.9729C6.32016 16.919 7.05812 18.0407 7.43005 18.4469C8.65267 19.7828 10.9213 21.5679 12.1647 22.513C12.4115 22.7005 12.7071 22.7942 13.0028 22.7942C13.2984 22.7942 13.594 22.7005 13.8409 22.513C15.0843 21.5679 17.3529 19.7828 18.5755 18.4469C18.9474 18.0407 19.6854 16.919 20.4485 13.9729C20.8673 12.3566 21.2162 10.0128 21.3871 8.75968C21.4886 8.01429 20.9921 7.31925 20.257 7.17715C17.8444 6.71099 15.6816 5.66176 13.829 4.05863C13.3579 3.65103 12.6476 3.65103 12.1765 4.05863ZM20.6614 8.66069C20.4927 9.89799 20.1488 12.2093 19.7395 13.7892C18.968 16.7673 18.24 17.7286 18.0353 17.9525C16.8072 19.2944 14.3829 21.1809 13.3976 21.9298C13.1651 22.1066 12.8404 22.1066 12.6079 21.9298C11.6226 21.1809 9.19836 19.2942 7.97041 17.9525C7.76556 17.7286 7.03752 16.7673 6.266 13.7892C5.85687 12.2097 5.51297 9.89818 5.34436 8.66069C5.29515 8.30039 5.53376 7.9647 5.88739 7.89622C8.42779 7.40546 10.705 6.30072 12.6558 4.61253C12.7546 4.52689 12.8788 4.48397 13.0028 4.48397C13.1267 4.48397 13.2509 4.52689 13.3497 4.61253C15.3006 6.30072 17.5777 7.40546 20.1181 7.89622C20.4718 7.9647 20.7104 8.30039 20.6614 8.66069Z" fill="white"/>
<path d="M10.9724 12.0478C10.697 11.8235 9.76732 11.3604 9.10165 12.2398C8.43618 13.1191 9.0183 13.8863 9.29372 14.1106L10.3557 14.9746C10.5125 15.1022 10.7433 15.0787 10.8709 14.9218C10.9985 14.7648 10.9749 14.5342 10.8181 14.4064L9.75607 13.5424C9.63247 13.4417 9.36239 13.1138 9.66985 12.702C9.97732 12.2904 10.3864 12.5151 10.51 12.6158L12.709 14.4051C12.8542 14.5231 13.0649 14.5128 13.1979 14.381L16.4158 11.1933C16.6498 10.9613 17.0286 10.9632 17.2606 11.1973C17.4923 11.4311 17.4904 11.8101 17.2565 12.0418L13.4237 15.839C13.1203 16.1316 12.7861 16.0097 12.6264 15.8779L12.018 15.383C11.861 15.2554 11.6304 15.279 11.5026 15.4358C11.375 15.5926 11.3987 15.8234 11.5557 15.951L12.1641 16.4461C12.4004 16.6384 12.6984 16.7444 13.0031 16.7444C13.3562 16.7444 13.6887 16.6077 13.9393 16.3593L17.7719 12.5624C18.2928 12.0462 18.2968 11.2026 17.7807 10.6817C17.2648 10.161 16.4211 10.157 15.9002 10.6729L12.916 13.6293L10.9724 12.0478Z" fill="white"/>
</g>
<defs>
<clipPath id="clip0">
<rect x="0.447266" y="0.66748" width="25" height="25" fill="white"/>
</clipPath>
</defs>
</svg>
