<svg width="19" height="19" viewBox="0 0 19 19" fill="none" xmlns="http://www.w3.org/2000/svg">
<g clip-path="url(#clip0)">
<path d="M6.53964 12.332H6.54047C6.54115 12.332 6.54184 12.3319 6.54253 12.3319H16.1035C16.3389 12.3319 16.5459 12.1744 16.6105 11.9461L18.7199 4.49967C18.7654 4.33914 18.7335 4.16655 18.6339 4.0333C18.5342 3.90005 18.3784 3.82165 18.2129 3.82165H5.32346L4.94649 2.1106C4.89279 1.86723 4.67883 1.69409 4.43164 1.69409H1.26758C0.976303 1.69409 0.740234 1.9322 0.740234 2.22598C0.740234 2.51977 0.976303 2.75787 1.26758 2.75787H4.00867C4.07541 3.06108 5.81262 10.9461 5.9126 11.3997C5.35216 11.6454 4.95898 12.209 4.95898 12.8638C4.95898 13.7436 5.6687 14.4594 6.54102 14.4594H16.1035C16.3948 14.4594 16.6309 14.2213 16.6309 13.9276C16.6309 13.6338 16.3948 13.3957 16.1035 13.3957H6.54102C6.25029 13.3957 6.01367 13.157 6.01367 12.8638C6.01367 12.571 6.24947 12.3327 6.53964 12.332ZM17.5138 4.88543L15.7057 11.2681H6.96399L5.55774 4.88543H17.5138Z" fill="#FFC501"/>
<path d="M6.01367 16.0549C6.01367 16.9347 6.72339 17.6506 7.5957 17.6506C8.46802 17.6506 9.17773 16.9347 9.17773 16.0549C9.17773 15.1751 8.46802 14.4592 7.5957 14.4592C6.72339 14.4592 6.01367 15.1751 6.01367 16.0549ZM7.5957 15.523C7.88643 15.523 8.12305 15.7617 8.12305 16.0549C8.12305 16.3481 7.88643 16.5868 7.5957 16.5868C7.30498 16.5868 7.06836 16.3481 7.06836 16.0549C7.06836 15.7617 7.30498 15.523 7.5957 15.523Z" fill="#FFC501"/>
<path d="M13.4668 16.0549C13.4668 16.9347 14.1765 17.6506 15.0488 17.6506C15.9211 17.6506 16.6309 16.9347 16.6309 16.0549C16.6309 15.1751 15.9211 14.4592 15.0488 14.4592C14.1765 14.4592 13.4668 15.1751 13.4668 16.0549ZM15.0488 15.523C15.3396 15.523 15.5762 15.7617 15.5762 16.0549C15.5762 16.3481 15.3396 16.5868 15.0488 16.5868C14.7581 16.5868 14.5215 16.3481 14.5215 16.0549C14.5215 15.7617 14.7581 15.523 15.0488 15.523Z" fill="#FFC501"/>
</g>
<defs>
<clipPath id="clip0">
<rect x="0.740234" y="0.594727" width="18" height="18.1552" fill="white"/>
</clipPath>
</defs>
</svg>
