<?xml version="1.0" encoding="UTF-8"?><!DOCTYPE svg PUBLIC "-//W3C//DTD SVG 1.1//EN" "http://www.w3.org/Graphics/SVG/1.1/DTD/svg11.dtd"><svg xmlns="http://www.w3.org/2000/svg" xmlns:xlink="http://www.w3.org/1999/xlink"><defs>
        <clipPath id="clip0"/>
    
        <clipPath id="clip0"/>
    
        <clipPath id="clip0"/>
    
        <clipPath id="clip0"/>
    
        <clipPath id="clip0"/>
    
        <clipPath id="clip0"/>
    
        <clipPath id="clip0"/>
    
        <clipPath id="clip0"/>
    
        <clipPath id="clip0"/>
    
        <clipPath id="clip0"/>
    
        <clipPath id="clip0"/>
    
        <clipPath id="clip0"/>
    
        <clipPath id="clip0"/>
    
        <clipPath id="clip0"/>
    
        <clipPath id="clip0"/>
    
        <clipPath id="clip0"/>
    
        <clipPath id="clip0"/>
    
        <clipPath id="clip0"/>
    
        <clipPath id="clip0"/>
    
        <clipPath id="clip0"/>
    </defs><symbol id="ico-mono-air-conditioner" viewBox="0 0 21 21">
    <path d="M19.95 3.15H1.05C.471 3.15 0 3.621 0 4.2v7c0 .579.471 1.05 1.05 1.05h18.9c.579 0 1.05-.471 1.05-1.05v-7c0-.579-.471-1.05-1.05-1.05zM9.1 5.6h2.8a.35.35 0 110 .7H9.1a.35.35 0 110-.7zm10.15 5.25H1.75a.35.35 0 110-.7h17.5a.35.35 0 110 .7zm0-1.4H1.75a.35.35 0 110-.7h17.5a.35.35 0 110 .7z"/>
    <path d="M10.662 14.74c-.32-.167-.51-.377-.51-.565 0-.188.19-.399.51-.565a.35.35 0 10-.322-.62c-.573.296-.889.717-.889 1.185 0 .468.316.889.89 1.185.32.167.51.378.51.565 0 .188-.191.398-.51.564a.35.35 0 10.321.621c.573-.296.89-.717.89-1.185 0-.468-.316-.889-.89-1.186z"/>
    <path d="M6.81 15.44c-.32-.167-.51-.377-.51-.565 0-.187.19-.399.51-.564a.35.35 0 10-.321-.622c-.574.297-.89.719-.89 1.186 0 .468.316.889.89 1.186.32.166.51.377.51.564 0 .188-.19.398-.51.564a.35.35 0 10.322.622c.573-.297.889-.718.889-1.186 0-.468-.316-.889-.89-1.186z"/>
    <path d="M14.51 15.44c-.32-.167-.511-.377-.511-.565 0-.187.19-.399.51-.564a.35.35 0 10-.321-.622c-.574.297-.89.719-.89 1.186 0 .468.316.889.89 1.186.32.166.51.377.51.564 0 .188-.19.398-.51.564a.35.35 0 10.322.622c.573-.297.889-.718.889-1.186 0-.468-.316-.889-.89-1.186z"/>
</symbol><symbol id="ico-mono-android" viewBox="0 0 19 23">
    <path d="M1.69 7.994h-.055c-.704 0-1.278.59-1.278 1.311v5.71c0 .724.574 1.313 1.278 1.313h.056c.704 0 1.278-.591 1.278-1.313v-5.71c-.001-.72-.576-1.311-1.279-1.311z"/>
    <path d="M3.58 17.22c0 .663.528 1.203 1.174 1.203H6.01v3.084c0 .724.576 1.313 1.278 1.313h.055c.705 0 1.28-.59 1.28-1.313v-3.084h1.754v3.084c0 .724.577 1.313 1.28 1.313h.053c.705 0 1.28-.59 1.28-1.313v-3.084h1.255c.645 0 1.174-.54 1.174-1.204V8.203H3.58v9.016z"/>
    <path d="M12.447 2.736l.997-1.58a.22.22 0 00-.062-.3.207.207 0 00-.293.064l-1.033 1.634a6.588 6.588 0 00-2.556-.51c-.915 0-1.78.184-2.557.51L5.912.92a.209.209 0 00-.295-.064.22.22 0 00-.062.3l.998 1.58c-1.8.905-3.012 2.61-3.012 4.566 0 .12.007.238.017.356h11.885c.01-.118.016-.236.016-.356 0-1.956-1.214-3.661-3.011-4.566zM6.745 5.564a.579.579 0 01-.572-.587c0-.325.256-.585.572-.585.317 0 .572.26.572.585a.579.579 0 01-.572.587zm5.51 0a.579.579 0 01-.573-.587c0-.325.256-.585.572-.585.317 0 .572.26.572.585a.577.577 0 01-.572.587z"/>
    <path d="M17.362 7.994h-.053c-.704 0-1.28.59-1.28 1.311v5.71c0 .724.577 1.313 1.28 1.313h.054c.705 0 1.278-.591 1.278-1.313v-5.71c0-.72-.575-1.311-1.279-1.311z"/>
</symbol><symbol id="ico-mono-apple" viewBox="0 0 23 23">
    <g clip-path="url(#clip0)">
        <path d="M3.154 8.908c-1.86 3.227-.677 8.125 1.38 11.095C5.56 21.488 6.6 22.82 8.024 22.82l.08-.001c.67-.027 1.153-.233 1.62-.432.525-.224 1.067-.455 1.919-.455.81 0 1.326.224 1.826.44.492.213 1 .434 1.75.42 1.603-.03 2.588-1.468 3.456-2.737a12.13 12.13 0 001.515-3.102l.006-.02a.18.18 0 00-.096-.221l-.013-.006c-.282-.115-2.76-1.214-2.786-4.21-.024-2.433 1.859-3.721 2.236-3.955l.018-.01a.18.18 0 00.051-.254c-1.3-1.902-3.29-2.188-4.093-2.223a3.609 3.609 0 00-.357-.017c-.942 0-1.844.356-2.568.641-.5.198-.933.368-1.23.368-.336 0-.77-.172-1.274-.372-.673-.267-1.435-.57-2.243-.57h-.057c-1.877.028-3.652 1.102-4.63 2.804z"/>
        <path d="M15.515.82c-1.137.047-2.501.747-3.316 1.702-.693.802-1.37 2.14-1.192 3.49a.18.18 0 00.165.155c.077.006.155.01.233.01 1.112 0 2.311-.616 3.13-1.606.863-1.046 1.298-2.388 1.166-3.59a.181.181 0 00-.186-.16z"/>
    </g>
    
</symbol><symbol id="ico-mono-attach" viewBox="0 0 35 35">
    <path d="M25.968 8.96a3.527 3.527 0 00-3.523 3.522 3.527 3.527 0 003.523 3.524 3.527 3.527 0 003.523-3.524 3.527 3.527 0 00-3.523-3.523zm0 5.678a2.158 2.158 0 01-2.155-2.155c0-1.19.967-2.156 2.155-2.156 1.189 0 2.156.967 2.156 2.155a2.158 2.158 0 01-2.156 2.156z"/>
    <path d="M25.992 30.843a.675.675 0 00-.497-.41.676.676 0 00-.617.187.654.654 0 00-.148.223.64.64 0 00-.052.26.673.673 0 00.115.38.659.659 0 00.307.252.642.642 0 00.261.052.671.671 0 00.38-.115.652.652 0 00.251-.307.693.693 0 00.053-.261.67.67 0 00-.053-.261z"/>
    <path d="M15.235 3.79a.728.728 0 00-.148-.222.652.652 0 00-.222-.147.689.689 0 00-.523 0 .694.694 0 00-.307.251.717.717 0 00-.115.38.678.678 0 00.115.38.739.739 0 00.19.189.694.694 0 00.512.101.689.689 0 00.55-.67.68.68 0 00-.053-.261z"/>
    <path d="M31.18 3.371A3.937 3.937 0 0027.356.345H5.907A5.914 5.914 0 000 6.252V27.7a3.935 3.935 0 003.82 3.929 3.937 3.937 0 003.824 3.026H31.07A3.936 3.936 0 0035 30.724V7.3a3.935 3.935 0 00-3.82-3.929zm2.453 27.353a2.567 2.567 0 01-2.564 2.564H7.644a2.568 2.568 0 01-2.564-2.564v-3.626L12.923 13.8a1.278 1.278 0 011.132-.634c.47.008.884.26 1.11.672l3.376 6.2 4.908 9.013a.683.683 0 101.2-.654l-1.592-2.924a2.82 2.82 0 001.935-.649l3.074-2.55a1.293 1.293 0 011.693.042l.16.147 1.368 1.253 2.346 2.15v4.858zm0-6.712l-2.346-2.15-1.367-1.042a2.667 2.667 0 00-2.727.401l-3.074 2.55c-.338.281-.78.395-1.211.312a1.459 1.459 0 01-1.01-.738l-2.157-3.96-1.204-2.212-2.172-3.989a2.626 2.626 0 00-2.287-1.385 2.63 2.63 0 00-2.333 1.306L5.08 24.406V7.3a2.567 2.567 0 012.564-2.564h4.224a.684.684 0 000-1.368H7.644A3.936 3.936 0 003.714 7.3v22.955A2.567 2.567 0 011.366 27.7V6.252a4.545 4.545 0 014.54-4.54h21.448c1.095 0 2.03.69 2.398 1.657H17.337a.684.684 0 000 1.367H29.92l1.367.01A2.567 2.567 0 0133.633 7.3v16.712z"/>
</symbol><symbol id="ico-mono-auction" viewBox="0 0 35 36">
    <g clip-path="url(#clip0)">
        <path d="M8.052 12.245a.684.684 0 10-.967.968.684.684 0 00.967-.968z"/>
        <path d="M17.309 30.933a2.395 2.395 0 00-1.928-3.81H3.76c-.64 0-1.24.249-1.692.7a2.377 2.377 0 00-.7 1.692c0 .53.172 1.02.465 1.417A3.42 3.42 0 000 33.959v.683c0 .378.306.684.684.684h17.772a.684.684 0 00.684-.684v-.683a3.42 3.42 0 00-1.831-3.026zM3.034 28.79c.194-.193.452-.3.726-.3h11.62a1.027 1.027 0 010 2.05H3.76a1.026 1.026 0 01-.726-1.75zM1.367 33.96c0-1.131.92-2.051 2.05-2.051h12.305c1.13 0 2.05.92 2.05 2.05H1.368z"/>
        <path d="M34.921 29.046a4.307 4.307 0 00-.823-.946l-3.194-2.785a.688.688 0 00-.273-.238L28.7 23.393l-8.94-7.8c.365-.382.567-.882.567-1.414a2.038 2.038 0 00-1.168-1.85l.827-.828a2.726 2.726 0 002.64-.707 2.716 2.716 0 00.8-1.933c0-.73-.284-1.417-.8-1.933l-5.8-5.8a2.717 2.717 0 00-1.934-.801 2.735 2.735 0 00-2.64 3.44L3.999 12.02a2.753 2.753 0 00-.708-.092c-.73 0-1.417.284-1.933.8a2.738 2.738 0 000 3.867l5.8 5.8c.533.533 1.234.8 1.934.8s1.4-.267 1.933-.8a2.735 2.735 0 00.707-2.64l.825-.825a2.054 2.054 0 003.266.6l9.523 10.94a.69.69 0 00.093.116c.012.013.025.024.038.035l2.838 3.26a4.066 4.066 0 003.69 1.406c1.286-.178 2.398-.948 3.05-2.113a4.045 4.045 0 00-.134-4.128zM13.925 2.095c.258-.259.602-.401.967-.401s.709.142.967.4l5.8 5.8c.258.259.4.602.4.967a1.368 1.368 0 01-2.334.967l-5.8-5.8a1.368 1.368 0 010-1.933zM10.06 21.428c-.533.534-1.4.534-1.934 0l-5.8-5.8a1.369 1.369 0 01.966-2.333c.366 0 .709.142.967.4l5.8 5.8c.534.533.534 1.4 0 1.933zm2.878-4.81l-1.912 1.91-5.8-5.8 7.733-7.734 5.801 5.8-1.915 1.916-.019.018-3.865 3.865a.91.91 0 00-.023.024zm2.44 1.425a.153.153 0 01-.003.004l-.482.482c-.129.129-.3.2-.483.2a.68.68 0 01-.484-.2.68.68 0 01-.008-.959l3.883-3.883a.686.686 0 01.96.008.68.68 0 010 .967l-.48.478-.01.01-2.892 2.893zm1.416.518l1.998-1.998 8.459 7.379-3.087 3.086-7.37-8.467zm8.27 9.501l3.22-3.22 1.032.901-3.352 3.353-.9-1.034zm8.8 4.444c-.441.788-1.187 1.307-2.046 1.426a2.717 2.717 0 01-2.461-.937l-.007-.008-2.487-2.857 3.486-3.486 2.854 2.49.007.005c.213.182.403.4.564.649.516.799.553 1.891.09 2.718z"/>
        <path d="M12.884 7.411a.684.684 0 00-.967 0l-2.9 2.9a.684.684 0 10.966.967l2.9-2.9a.683.683 0 000-.967z"/>
    </g>
    
</symbol><symbol id="ico-mono-builder" viewBox="0 0 21 21">
    <g clip-path="url(#clip0)">
        <path d="M11.174 10.758a.812.812 0 00.883-1.206l.392-1.616.489.12a.341.341 0 00.418-.355l-.223-3.302a.182.182 0 00-.338-.083l-1.707 2.826a.342.342 0 00.21.51l.488.12-.332 1.368-1.708-.396L7.82 5.902c-.23-.34-.573-.364-.983-.364v6.44h.976v7.35H5.862V14.15H5.15v5.177H3.198v-7.35h.976V5.538c-.47 0-.856.053-1.052.486L.41 12.016a.822.822 0 00.402 1.086.81.81 0 001.078-.406L3.2 9.801v1.488h-.002a.685.685 0 00-.682.688v7.35c0 .38.305.689.682.689a.98.98 0 00.976.984.98.98 0 00.977-.984.68.68 0 00.355-.101c.104.064.225.1.356.1a.98.98 0 00.976.985.98.98 0 00.976-.984.685.685 0 00.682-.689v-7.35a.685.685 0 00-.682-.688h-.002V8.797l.77 1.137c.114.17.29.29.489.337l2.103.487z"/>
        <path d="M6.156 5.538H4.857v2.768h1.299V5.538z"/>
        <path d="M3.606 3.272a1.908 1.908 0 001.9 1.897c1.043 0 1.889-.847 1.9-1.897a.684.684 0 00.665-.685C8.071 1.16 6.92 0 5.506 0 4.09 0 2.939 1.16 2.939 2.587c0 .374.298.675.667.685zm.535-1.987v.195c0 .19.152.344.34.344.189 0 .341-.154.341-.344V.822c.11-.043.224-.077.342-.1v.758c0 .19.152.344.342.344a.343.343 0 00.34-.344V.723c.119.022.233.056.342.099v.658c0 .19.152.344.341.344a.343.343 0 00.342-.344v-.195c.318.34.517.796.517 1.302H3.622c0-.506.199-.962.519-1.302z"/>
        <path d="M14.686 18.678h-4.21a.342.342 0 00-.341.344v1.539c0 .19.152.344.341.344h4.21c.187 0 .34-.154.34-.344v-1.539a.343.343 0 00-.34-.344z"/>
        <path d="M20.145 18.678h-4.21a.342.342 0 00-.341.344v1.539c0 .19.152.344.341.344h4.21c.187 0 .34-.154.34-.344v-1.539a.343.343 0 00-.34-.344z"/>
        <path d="M20.145 13.171h-4.21a.343.343 0 00-.341.344v1.539c0 .19.152.344.341.344h4.21c.187 0 .34-.154.34-.344v-1.539a.343.343 0 00-.34-.344z"/>
        <path d="M14.686 13.171h-4.21a.343.343 0 00-.341.344v1.539c0 .19.152.344.341.344h4.21c.187 0 .34-.154.34-.344v-1.539a.343.343 0 00-.34-.344z"/>
        <path d="M12.863 16.269v1.538c0 .19.153.345.342.345h4.21a.343.343 0 00.34-.345V16.27a.343.343 0 00-.34-.345h-4.21a.343.343 0 00-.342.345z"/>
        <path d="M12.863 10.762v1.539c0 .19.153.344.342.344h4.21a.343.343 0 00.34-.344v-1.539a.343.343 0 00-.34-.344h-4.21a.343.343 0 00-.342.344z"/>
        <path d="M20.146 15.924h-1.594a.343.343 0 00-.341.345v1.538c0 .19.152.345.34.345h1.595c.187 0 .34-.155.34-.345V16.27a.343.343 0 00-.34-.345z"/>
        <path d="M20.146 10.418h-1.594a.342.342 0 00-.341.344v1.539c0 .19.152.344.34.344h1.595c.187 0 .34-.154.34-.344v-1.539a.343.343 0 00-.34-.344z"/>
    </g>
    
</symbol><symbol id="ico-mono-builder2" viewBox="0 0 41 41">
    <g clip-path="url(#clip0)">
        <path d="M31.88 27.24c1.392 1.011 2.05 3.995 2.186 5.061l1.038 7.832 1.085-.142-1.037-7.841c-.022-.174-.571-4.304-2.625-5.786a11.112 11.112 0 00-2.199-1.139.538.538 0 00-.152-.083l-.452-.16a33.644 33.644 0 00-2.08-.723l-.422-.148a.524.524 0 00-.13-.029 54.683 54.683 0 00-2.686-.77v-1.197a6.216 6.216 0 002.603-5.061v-.922c.182.067.375.102.567.104.914 0 1.654-.74 1.654-1.653V13.11c0-.4-.148-.787-.414-1.084.176-.281.266-.608.258-.938v-.63a1.877 1.877 0 00-.406-1.272 1.143 1.143 0 00-.549-.318c-.13-1.494-.838-5.879-4.62-7.592h-.033a8.24 8.24 0 00-3.113-.666h-.315a8.695 8.695 0 00-3.012.473H17c-4.187 1.54-4.942 6.22-5.06 7.77-.211.052-.403.163-.55.319-.3.356-.458.81-.439 1.273v.647c-.008.33.082.656.257.936-.264.3-.413.686-.413 1.086v1.478c0 .913.741 1.652 1.653 1.652a1.6 1.6 0 00.567-.104v.925a6.226 6.226 0 002.558 5.02v1.228a53.04 53.04 0 00-5.707 1.837h-.024c-.827.31-1.615.713-2.351 1.2-2.054 1.497-2.603 5.623-2.625 5.787l-1.038 7.846 1.085.14 1.037-7.845c.14-1.064.795-4.044 2.17-5.063.437-.291.9-.54 1.385-.742v4.7c-.8.293-1.807 1.116-1.807 2.85v6.043c0 .298.241.542.542.542h23.563c.3 0 .541-.244.541-.542v-6.032c0-1.736-1.014-2.557-1.807-2.85v-4.7c.472.209.92.462 1.342.757zM28.154 13.11v1.479a.567.567 0 01-1.132 0v-1.48a.567.567 0 111.131 0zm-7.376-11.39c.66.05 1.31.194 1.931.422v2.745a2.66 2.66 0 01-1.931 1.131V1.72zm-3.016.271a7.76 7.76 0 011.932-.296v4.338A2.658 2.658 0 0117.763 4.9V1.99zm-4.762 12.593a.568.568 0 01-1.13 0V13.11a.569.569 0 111.131 0v1.474zm-.567-3.13c-.103 0-.204.01-.303.028a.564.564 0 01-.11-.394v-.657a.869.869 0 01.127-.49.098.098 0 01.077-.02h.209c.3 0 .543-.243.543-.543 0-.253.071-5.063 3.699-6.95V5.03c0 .08.018.159.053.231.037.076.921 1.88 3.503 1.88s3.47-1.807 3.505-1.88a.515.515 0 00.05-.23V2.686c3.179 2.03 3.255 6.447 3.255 6.69 0 .3.243.544.541.544h.21c.054 0 .066 0 .076.02.092.15.135.324.127.5v.646a.54.54 0 01-.116.394 1.616 1.616 0 00-1.463.45H13.608a1.636 1.636 0 00-1.17-.475l-.004-.003zm1.652 5.611v-4.048h11.86v4.048a5.148 5.148 0 01-5.153 5.141h-1.562a5.147 5.147 0 01-5.145-5.141zm9.248 5.68v.803l-3.325 4.252-3.363-4.252v-.825a6.15 6.15 0 002.585.572h1.562c.877 0 1.744-.188 2.541-.55zm-9.822 2.283a62.5 62.5 0 012.385-.677l4.119 5.207 4.072-5.207a54.72 54.72 0 012.43.69v6.212H13.5l.011-6.225zm17.75 9.006v5.499H8.781v-5.5c0-1.636 1.211-1.871 1.34-1.894a.542.542 0 00.468-.537v-5.57a34.185 34.185 0 011.844-.65v6.414c0 .3.243.544.543.544h14.1c.3 0 .543-.244.543-.544V25.39l1.826.64v5.57c0 .27.201.502.47.537.055.007 1.345.2 1.345 1.895z"/>
        <path d="M10.035 33.35h2.928v.972h-2.928v-.972z"/>
        <path d="M27.063 33.35h2.93v.972h-2.93v-.972z"/>
    </g>
    
</symbol><symbol id="ico-mono-camera" viewBox="0 0 26 26">
    <g clip-path="url(#clip0)">
        <path d="M20.129 8.528a.488.488 0 100 .977.488.488 0 000-.977z"/>
        <path d="M24.035 6.574h-5.362l-1.548-3.096c-.25-.5-.752-.81-1.31-.81h-5.63c-.558 0-1.06.31-1.31.81L7.327 6.574H6.36v-.488c0-.808-.657-1.465-1.464-1.465h-.977c-.808 0-1.465.657-1.465 1.465v.488h-.488C1.157 6.574.5 7.232.5 8.04v13.672c0 .808.657 1.465 1.465 1.465h22.07c.808 0 1.465-.657 1.465-1.465V8.04c0-.807-.657-1.465-1.465-1.465zM9.75 3.914a.486.486 0 01.436-.27h5.63c.186 0 .353.104.436.27l1.33 2.66H8.42l1.33-2.66zm-6.32 2.172c0-.27.22-.488.489-.488h.977c.269 0 .488.219.488.488v.488H3.43v-.488zm-1.952 5.366H7.65a6.35 6.35 0 000 6.841H1.477v-6.84zM13 9.504c2.936 0 5.371 2.379 5.371 5.371A5.374 5.374 0 0113 20.246a5.374 5.374 0 01-5.371-5.37A5.374 5.374 0 0113 9.503zm11.523 12.207c0 .27-.219.489-.488.489H1.965a.489.489 0 01-.488-.489V19.27H8.42A6.352 6.352 0 0013 21.223c1.73 0 3.386-.71 4.579-1.953h6.944v2.441zm0-3.418H18.35a6.334 6.334 0 00.999-3.418c0-1.22-.35-2.404-.999-3.418h6.174v6.836zm0-7.812H17.58A6.352 6.352 0 0013 8.528c-1.73 0-3.386.71-4.579 1.953H1.477V8.039c0-.269.219-.488.488-.488h22.07c.27 0 .488.22.488.488v2.442z"/>
        <path d="M14.465 4.621h-2.93a.488.488 0 100 .977h2.93a.488.488 0 100-.977z"/>
        <path d="M13 10.48a4.4 4.4 0 00-4.395 4.395A4.4 4.4 0 0013 19.27a4.4 4.4 0 004.395-4.395A4.4 4.4 0 0013 10.481zm0 7.813a3.422 3.422 0 01-3.418-3.418A3.422 3.422 0 0113 11.457a3.422 3.422 0 013.418 3.418A3.422 3.422 0 0113 18.293z"/>
        <path d="M13 12.434a2.444 2.444 0 00-2.441 2.441.488.488 0 10.976 0c0-.807.657-1.465 1.465-1.465a.488.488 0 000-.976z"/>
        <path d="M23.059 8.528h-.977a.488.488 0 000 .976h.977a.488.488 0 000-.976z"/>
    </g>
    
</symbol><symbol id="ico-mono-checked" viewBox="0 0 23 20">
    <path d="M18.424 9.787a.477.477 0 01.952-.069c.016.222.024.448.024.675 0 5.183-4.217 9.4-9.4 9.4-5.183 0-9.4-4.217-9.4-9.4 0-5.183 4.217-9.4 9.4-9.4 2.053 0 4.002.65 5.639 1.879l.06-.08-.06.08c.21.158.253.457.095.668l.08.06-.08-.06a.477.477 0 01-.669.095A8.368 8.368 0 0010 1.947c-4.657 0-8.446 3.789-8.446 8.446S5.343 18.838 10 18.838s8.446-3.788 8.446-8.445c0-.204-.008-.408-.022-.606z" stroke-width=".2"/>
    <path d="M9.873 10.584l.07.07.072-.07 8.317-8.317a2.155 2.155 0 013.043 0 2.155 2.155 0 010 3.043L10.928 15.757a1.388 1.388 0 01-.984.407c-.357 0-.713-.136-.985-.407l-5.077-5.078a2.154 2.154 0 010-3.043 2.155 2.155 0 013.043 0l2.948 2.948zM20.7 4.636l-.07-.071.07.07a1.199 1.199 0 000-1.693l-.07.07.07-.07a1.199 1.199 0 00-1.694 0s0 0 0 0l-8.401 8.402a.928.928 0 01-.661.274.928.928 0 01-.661-.274s0 0 0 0L6.25 8.31a1.194 1.194 0 00-.847-.35 1.199 1.199 0 00-.847 2.044l5.078 5.077c.171.17.449.17.62 0L20.7 4.636z" stroke-width=".2"/>
</symbol><symbol id="ico-mono-checklist" viewBox="0 0 43 43">
    <g clip-path="url(#clip0)">
        <path d="M39.147.82h-29.4a3.504 3.504 0 00-3.5 3.5v32.9h-4.9a.7.7 0 00-.7.7v1.4a3.504 3.504 0 003.5 3.5h29.4a3.504 3.504 0 003.5-3.5V22.81l4.344-4.345a2.185 2.185 0 00-3.09-3.09l-1.255 1.255V6.42h4.9a.7.7 0 00.7-.7v-1.4a3.504 3.504 0 00-3.5-3.5zm-35 40.6a2.1 2.1 0 01-2.1-2.1v-.7h28v.7c.001.218.023.436.065.65.013.07.033.13.05.194.034.143.078.283.13.42a3.527 3.527 0 00.29.574c.036.06.07.119.11.175.02.028.035.06.056.087H4.146zm31.5-2.1a2.1 2.1 0 11-4.2 0v-1.4a.7.7 0 00-.7-.7h-23.1V4.32c0-1.16.94-2.1 2.1-2.1h26.6c-.022.027-.036.059-.056.088-.04.056-.075.115-.111.174-.075.12-.142.243-.202.37-.031.07-.06.135-.088.204a3.563 3.563 0 00-.13.42c-.016.065-.036.128-.05.194a3.48 3.48 0 00-.063.65v13.71l-8.895 8.895a.699.699 0 00-.184.326l-.7 2.8a.7.7 0 00.184.664.686.686 0 00.256.158.706.706 0 00.234.046h.005a.701.701 0 00.169-.02l2.8-.7a.7.7 0 00.325-.185l5.806-5.804v15.11zm3.644-22.955a.804.804 0 011.11 0 .786.786 0 010 1.11l-.555.555-1.11-1.11.555-.555zm-1.544 1.545l1.11 1.11-9.87 9.87-1.48.37.37-1.48 9.87-9.87zm3.5-12.89h-4.2v-.7a2.1 2.1 0 114.2 0v.7z"/>
        <path d="M29.347 5.02h-15.4v1.4h15.4v-1.4z"/>
        <path d="M16.25 8.025l-1.283 1.283a.68.68 0 00-.322-.088h-3.5a.7.7 0 00-.7.7v3.5a.7.7 0 00.7.7h3.5a.7.7 0 00.7-.7v-2.51l1.895-1.895-.99-.99zm-2.305 4.695h-2.1v-2.1h1.81l-.905.905.99.99.205-.205v.41z"/>
        <path d="M32.846 9.22h-14.7v1.4h14.7v-1.4z"/>
        <path d="M30.047 12.02h-11.9v1.4h11.9v-1.4z"/>
        <path d="M16.25 15.025l-1.283 1.283a.68.68 0 00-.322-.088h-3.5a.7.7 0 00-.7.7v3.5a.7.7 0 00.7.7h3.5a.7.7 0 00.7-.7v-2.51l1.895-1.895-.99-.99zm-2.305 4.695h-2.1v-2.1h1.81l-.905.905.99.99.205-.205v.41z"/>
        <path d="M32.846 16.22h-14.7v1.4h14.7v-1.4z"/>
        <path d="M30.047 19.02h-11.9v1.4h11.9v-1.4z"/>
        <path d="M16.25 22.025l-1.283 1.283a.678.678 0 00-.322-.088h-3.5a.7.7 0 00-.7.7v3.5a.7.7 0 00.7.7h3.5a.7.7 0 00.7-.7v-2.51l1.895-1.895-.99-.99zm-2.305 4.695h-2.1v-2.1h1.81l-.905.905.99.99.205-.205v.41z"/>
        <path d="M27.247 23.22h-9.1v1.4h9.1v-1.4z"/>
        <path d="M24.447 26.02h-6.3v1.4h6.3v-1.4z"/>
        <path d="M16.25 29.025l-1.283 1.283a.68.68 0 00-.322-.088h-3.5a.7.7 0 00-.7.7v3.5a.7.7 0 00.7.7h3.5a.7.7 0 00.7-.7v-2.51l1.895-1.895-.99-.99zm-2.305 4.695h-2.1v-2.1h1.81l-.905.905.99.99.205-.205v.41z"/>
        <path d="M24.447 30.22h-6.3v1.4h6.3v-1.4z"/>
        <path d="M30.047 33.02h-11.9v1.4h11.9v-1.4z"/>
    </g>
    
</symbol><symbol id="ico-mono-chevron-down" viewBox="0 0 24 24">
    <path fill-rule="evenodd" clip-rule="evenodd" d="M5.293 8.293a1 1 0 011.414 0L12 13.586l5.293-5.293a1 1 0 111.414 1.414l-6 6a1 1 0 01-1.414 0l-6-6a1 1 0 010-1.414z"/>
</symbol><symbol id="ico-mono-coin" viewBox="0 0 36 36">
    <path d="M11 7.327a1.167 1.167 0 10.002 2.334A1.167 1.167 0 0011 7.327z"/>
    <path d="M18 16.66a1.168 1.168 0 01-1.166-1.167c0-.643.523-1.166 1.166-1.166.414 0 .85.21 1.262.61a1.167 1.167 0 001.623-1.677c-.592-.573-1.185-.897-1.718-1.074v-1.36a1.167 1.167 0 00-2.333 0v1.368a3.505 3.505 0 00-2.334 3.3c0 1.93 1.57 3.5 3.5 3.5.644 0 1.167.523 1.167 1.166 0 .643-.523 1.167-1.167 1.167-.498 0-1.036-.314-1.515-.883a1.167 1.167 0 00-1.786 1.502c.624.742 1.357 1.259 2.135 1.52v1.36a1.167 1.167 0 002.333 0V23.46A3.506 3.506 0 0021.5 20.16c0-1.93-1.57-3.5-3.5-3.5z"/>
    <path d="M18 .327C8.35.327.5 8.177.5 17.827s7.85 17.5 17.5 17.5 17.5-7.85 17.5-17.5S27.65.327 18 .327zm0 32.667c-8.363 0-15.167-6.804-15.167-15.167S9.637 2.66 18 2.66s15.167 6.804 15.167 15.167S26.363 32.994 18 32.994z"/>
    <path d="M26.056 7.836c-3.036-2.45-7.01-3.375-10.9-2.536a1.167 1.167 0 10.492 2.28c3.198-.69 6.457.066 8.942 2.072a10.463 10.463 0 013.91 8.175c0 5.79-4.71 10.5-10.5 10.5s-10.5-4.71-10.5-10.5c0-1.73.429-3.444 1.24-4.958a1.167 1.167 0 00-2.055-1.103 12.86 12.86 0 00-1.519 6.06c0 7.077 5.757 12.834 12.833 12.834 7.077 0 12.834-5.757 12.834-12.833 0-3.898-1.741-7.54-4.777-9.99z"/>
</symbol><symbol id="ico-mono-competition" viewBox="0 0 32 44">
    <path d="M.646 16.359c0 8.392 6.804 15.196 15.197 15.196 8.392 0 15.195-6.804 15.195-15.196 0-8.393-6.803-15.196-15.196-15.196C7.45 1.163.646 7.966.646 16.359zm28.493 0c0 7.343-5.953 13.296-13.296 13.296-7.344 0-13.297-5.953-13.297-13.296 0-7.344 5.953-13.297 13.296-13.297 7.344 0 13.297 5.953 13.297 13.297z" stroke-width=".5"/>
    <path d="M15.842 12.56c.78.01 1.41.643 1.415 1.424a.95.95 0 001.9 0 3.334 3.334 0 00-2.366-3.181V9.71a.95.95 0 00-1.899 0v1.093a3.325 3.325 0 00.95 6.505 1.424 1.424 0 11-1.425 1.425.95.95 0 00-1.9 0 3.335 3.335 0 002.375 3.182v1.092a.95.95 0 101.9 0v-1.092a3.324 3.324 0 00-.95-6.506 1.425 1.425 0 010-2.85z" stroke-width=".5"/>
    <path d="M4.445 16.359c0 6.294 5.103 11.397 11.397 11.397 6.295 0 11.397-5.103 11.397-11.397a.95.95 0 00-1.9 0 9.497 9.497 0 11-2.782-6.715.954.954 0 101.349-1.349 11.398 11.398 0 00-19.46 8.064z" stroke-width=".5"/>
    <path d="M27.238 31.555h-3.799a.95.95 0 000 1.9h1.178l-8.776 7.312-8.775-7.313h1.177a.95.95 0 000-1.9H4.444a.95.95 0 00-.607 1.682l11.396 9.498a.95.95 0 001.216 0l11.397-9.498a.95.95 0 00-.608-1.681z" stroke-width=".5"/>
    <path d="M14.893 34.404v2.85a.95.95 0 101.9 0v-2.85a.95.95 0 00-1.9 0z" stroke-width=".5"/>
</symbol><symbol id="ico-mono-crane" viewBox="0 0 21 21">
    <g clip-path="url(#clip0)">
        <path d="M20.57 19.22v-1.36c0-.926-.536-1.467-1.453-1.467H9.988c-1.232 0-1.867.59-1.867 1.466v1.767c0 .916.61 1.374 1.867 1.374h9.13c.916 0 1.451-.615 1.451-1.78zm-1.66.105H9.78v-1.257h9.13v1.257z"/>
        <path d="M13.514 6.761v4.009l.528 1.436h-.89L4.473 0 2.56 1.164l.58 1.026v5.409h-.612l.411 2.931H3.14v.886c-.373.171-.788.54-.788 1.2 0 .443.171.767.422.983l-2.25 1.957h.635l1.993-1.733c.18.07.374.11.564.11.192 0 .383-.051.554-.145l2.161 1.768h.648l.004-.006-2.485-2.033c.168-.205.28-.48.28-.831a.417.417 0 00-.415-.419.417.417 0 00-.415.419c0 .15-.04.244-.093.305l-.114-.093a.206.206 0 00-.266.004l-.155.136c-.135-.063-.238-.186-.238-.422 0-.379.372-.47.442-.484a.419.419 0 00.346-.413V10.53H4.43L5.012 7.6h-.626v-3.04l4.98 9.672v.487h1.659v.838H17.248v-.838h2.49V6.761h-6.224zM9.924 8.94l.005.007-1.693 1.112.87-2.254.818 1.135zM3.97 7.599h-.415v-4.62l.415.79V7.6zm.36-4.27l-.715-1.372 1.116-.74-.4 2.113zm.972-1.258l.796 1.394-1.285.835.489-2.229zm.127 3.03l1.21-.795-.473 2.176L5.429 5.1zm1.722-.085l.893 1.314-1.342.867.45-2.18zm-.137 3.182l1.5-1.037-.855 2.309-.645-1.272zm2.22 3.982l-.724-1.288 1.795-1.294-1.072 2.582zm.563.915l1.227-2.67.998 1.375-2.225 1.295zm8.281-2.146h-2.905V8.436h2.905v2.513z"/>
        <path d="M.651 18.069H.236v.837h6.64v-.837h-.83v-1.257h.83v-.837H.235v.837h.83v1.257H.651z"/>
    </g>
    
</symbol><symbol id="ico-mono-customer-review" viewBox="0 0 35 35">
    <path d="M23.069 26.786a4.211 4.211 0 00-.699-.058h-2.236V25.3a4.789 4.789 0 002.138-3.986v-2.566a4.78 4.78 0 00-.702-2.498l-.875.536c.36.589.55 1.267.55 1.962v.538l-.134-.25a2.344 2.344 0 00-2.064-1.23h-3.13c-.862 0-1.653.472-2.063 1.23l-.135.25v-.538a3.768 3.768 0 013.763-3.764 3.74 3.74 0 012.654 1.095l.723-.728a4.76 4.76 0 00-3.377-1.393 4.795 4.795 0 00-4.79 4.79v2.566c0 1.661.851 3.127 2.139 3.986v1.427h-2.236a4.183 4.183 0 00-4.179 4.179V35h1.026v-4.093a3.156 3.156 0 013.153-3.153h2.275a2.655 2.655 0 002.612 2.2 2.655 2.655 0 002.613-2.2h2.275c.177 0 .355.015.528.044l.17-1.012zm-3.961.516c0 .896-.73 1.625-1.626 1.625a1.627 1.627 0 01-1.625-1.625V25.82a4.766 4.766 0 001.625.285c.57 0 1.118-.1 1.626-.285v1.482zm-1.626-2.224a3.767 3.767 0 01-3.76-3.639l1.035-1.913c.23-.426.675-.692 1.16-.692h3.13c.486 0 .93.266 1.161.692l1.035 1.913a3.767 3.767 0 01-3.76 3.64z"/>
    <path d="M24.181 27.14l-.445.924a3.172 3.172 0 011.787 2.843V35h1.027v-4.093c0-1.596-.93-3.075-2.369-3.767z"/>
    <path d="M22.443 32.537h1.027V35h-1.027v-2.463z"/>
    <path d="M11.496 32.537h1.027V35h-1.027v-2.463z"/>
    <path d="M9.09 4.837L7.901 2.433 6.716 4.837l-2.654.386 1.92 1.871-.453 2.643 2.373-1.248 2.373 1.248-.453-2.643 1.92-1.871-2.653-.386zM8.911 7.86l-1.01-.53-1.01.53.193-1.124-.817-.797 1.13-.164.504-1.023.505 1.023 1.13.164-.818.797.193 1.124z"/>
    <path d="M19.01 4.837l-1.186-2.404-1.186 2.404-2.654.386 1.92 1.871-.453 2.643 2.373-1.248 2.374 1.248-.454-2.643 1.92-1.871-2.653-.386zm-.176 3.024l-1.01-.532-1.01.532.193-1.125-.817-.797 1.13-.164.504-1.023.505 1.023 1.13.164-.818.797.193 1.125z"/>
    <path d="M27.063 2.433l-1.187 2.404-2.653.386 1.92 1.87-.454 2.644 2.373-1.248 2.374 1.248-.453-2.643 1.92-1.871-2.654-.386-1.186-2.404zm1.01 5.428l-1.01-.532-1.01.532.192-1.125-.817-.797 1.13-.164.505-1.023.505 1.023 1.129.164-.817.797.192 1.125z"/>
    <path d="M33.084 0h-6.302v1.026h6.302c.472 0 .855.384.855.856v8.895a.856.856 0 01-.855.856H9.785v3.628l-5.14-3.628H1.882a.856.856 0 01-.856-.856v-4.47H0v4.47c0 1.038.844 1.882 1.882 1.882h2.437l6.493 4.583v-4.583h22.272a1.884 1.884 0 001.882-1.882V1.882A1.884 1.884 0 0033.084 0z"/>
    <path d="M1.026 1.882c0-.472.384-.856.856-.856h23.874V0H1.882A1.884 1.884 0 000 1.882V5.28h1.026V1.882z"/>
    <path d="M10.469 30.907h1.026c0-.607.493-1.1 1.1-1.1V28.78a2.129 2.129 0 00-2.126 2.126z"/>
    <path d="M32.845 4.619V2.053H30.28v1.026h1.54v1.54h1.026z"/>
    <path d="M2.053 7.972v2.566h2.566V9.51h-1.54v-1.54H2.053z"/>
    <path d="M14.918 32.708h1.026v1.026h-1.026v-1.026z"/>
    <path d="M16.969 32.708h1.026v1.026H16.97v-1.026z"/>
    <path d="M19.023 32.708h1.027v1.026h-1.027v-1.026z"/>
</symbol><symbol id="ico-mono-delivery-truck-with-packages-behind" viewBox="0 0 21 21">
    <path d="M6.221 13.254a1.85 1.85 0 100 3.697 1.85 1.85 0 000-3.697zm0 2.774a.928.928 0 01-.926-.927c0-.508.415-.923.926-.923.508 0 .923.415.923.923 0 .51-.415.927-.923.927zm-1.592-2.773H.489a.297.297 0 00-.298.297v.9c0 .165.133.298.297.298h3.319c.087-.595.387-1.12.822-1.495zm11.258 0a1.849 1.849 0 000 3.696 1.848 1.848 0 000-3.697zm0 2.773a.925.925 0 010-1.85.925.925 0 010 1.85zm4.816-2.774h-.721V9.22c0-.472-.143-.936-.407-1.328l-1.809-2.678a2.373 2.373 0 00-1.968-1.045h-2.804a.594.594 0 00-.594.593v8.493H7.813c.433.377.733.9.82 1.497h4.842a2.441 2.441 0 012.412-2.09c1.226 0 2.242.91 2.414 2.09h2.402a.296.296 0 00.297-.297v-.903a.296.296 0 00-.297-.297zm-2.958-4.828h-3.7a.296.296 0 01-.296-.297V6.077c0-.163.133-.297.296-.297H16.3c.098 0 .19.048.244.125l1.446 2.055a.296.296 0 01-.244.466zm-6.758 4.234H.594A.594.594 0 010 12.066V9.394C0 9.066.266 8.8.594 8.8h10.393c.328 0 .594.266.594.594v2.672a.594.594 0 01-.594.594zM4.751 7.91H.594A.594.594 0 010 7.314V4.643c0-.328.266-.594.594-.594H4.75c.328 0 .594.266.594.594v2.672a.594.594 0 01-.594.594zm6.236 0H6.83a.594.594 0 01-.594-.595V4.643c0-.328.266-.594.594-.594h4.157c.328 0 .594.266.594.594v2.672a.594.594 0 01-.594.594z"/>
</symbol><symbol id="ico-mono-dialog" viewBox="0 0 26 26">
    <g clip-path="url(#clip0)">
        <path d="M3.415 14.594h1.666v2.915a.416.416 0 00.71.295l3.21-3.21h.661v-.833h-.833a.416.416 0 00-.294.122l-2.621 2.62v-2.325a.416.416 0 00-.416-.417H3.415a2.085 2.085 0 01-2.082-2.082v-8.33a2.085 2.085 0 012.082-2.082h13.327c1.15.002 2.08.933 2.082 2.083v6.247h.833V3.35A2.919 2.919 0 0016.742.435H3.415A2.918 2.918 0 00.5 3.35v8.329a2.919 2.919 0 002.915 2.915z"/>
        <path d="M22.573 10.43h-9.162a2.919 2.919 0 00-2.915 2.915v5.83a2.919 2.919 0 002.915 2.915h4.41l3.209 3.21a.417.417 0 00.71-.294V22.09h.834a2.919 2.919 0 002.915-2.915v-5.83a2.919 2.919 0 00-2.916-2.916zm2.083 8.745a2.085 2.085 0 01-2.082 2.082h-1.25a.417.417 0 00-.416.417V24l-2.621-2.62a.416.416 0 00-.294-.123H13.41a2.085 2.085 0 01-2.082-2.082v-5.83a2.085 2.085 0 012.082-2.083h9.162c1.15.002 2.081.933 2.083 2.083v5.83z"/>
        <path d="M3.832 3.766h8.33V4.6h-8.33v-.833z"/>
        <path d="M13.826 3.766h2.499V4.6h-2.499v-.833z"/>
        <path d="M3.832 6.265h12.494v.833H3.832v-.833z"/>
        <path d="M9.662 8.763h6.664v.833H9.662v-.833z"/>
        <path d="M3.832 8.763h4.165v.833H3.832v-.833z"/>
        <path d="M3.832 11.262h5.83v.833h-5.83v-.833z"/>
        <path d="M12.994 13.345h5.83v.832h-5.83v-.832z"/>
        <path d="M20.49 13.345h2.5v.832h-2.5v-.832z"/>
        <path d="M12.994 15.843h9.995v.833h-9.995v-.833z"/>
        <path d="M12.994 18.342h9.995v.833h-9.995v-.833z"/>
    </g>
    
</symbol><symbol id="ico-mono-discount" viewBox="0 0 36 36">
    <g clip-path="url(#clip0)">
        <path d="M32.754 18.542a1.025 1.025 0 010-.906l1.305-2.67a3.038 3.038 0 00-1.311-4.035l-2.626-1.394a1.026 1.026 0 01-.532-.733l-.514-2.928a3.038 3.038 0 00-3.432-2.494L22.7 3.8a1.026 1.026 0 01-.863-.28l-2.136-2.067a3.038 3.038 0 00-4.242 0l-2.137 2.067c-.23.223-.544.325-.862.28l-2.943-.416a3.038 3.038 0 00-3.432 2.493l-.514 2.928c-.055.316-.25.583-.532.733l-2.626 1.394a3.038 3.038 0 00-1.311 4.034l1.305 2.67c.141.289.141.62 0 .907l-1.305 2.67a3.038 3.038 0 001.31 4.036L5.04 26.64c.283.15.477.417.532.733l.514 2.928a3.037 3.037 0 003.432 2.493l2.943-.416c.318-.045.632.058.862.28l2.137 2.067a3.041 3.041 0 004.242 0l2.136-2.067c.231-.222.545-.324.863-.28l2.943.416a3.038 3.038 0 003.432-2.493l.514-2.928c.055-.316.25-.583.532-.733l2.626-1.393a3.038 3.038 0 001.311-4.035l-1.305-2.67zm-.952 4.922l-2.626 1.394a3.031 3.031 0 00-1.575 2.167l-.513 2.928a1.028 1.028 0 01-1.162.844l-2.943-.417a3.03 3.03 0 00-2.548.828l-2.136 2.067c-.403.39-1.033.39-1.436 0l-2.136-2.067a3.029 3.029 0 00-2.549-.828l-2.943.417a1.028 1.028 0 01-1.16-.844l-.514-2.928a3.031 3.031 0 00-1.575-2.168L3.36 23.464a1.028 1.028 0 01-.444-1.365l1.306-2.67a3.031 3.031 0 000-2.68l-1.306-2.67a1.028 1.028 0 01.444-1.365l2.626-1.394A3.031 3.031 0 007.56 9.153l.513-2.928a1.028 1.028 0 011.161-.844l2.943.417a3.031 3.031 0 002.549-.828l2.136-2.067a1.028 1.028 0 011.436 0l2.136 2.067c.681.659 1.61.96 2.548.828l2.943-.417a1.028 1.028 0 011.162.844l.513 2.928a3.031 3.031 0 001.575 2.167l2.626 1.394c.495.262.69.862.443 1.365l-1.305 2.67a3.032 3.032 0 000 2.68l1.305 2.67a1.028 1.028 0 01-.443 1.365z"/>
        <path d="M24.956 10.714a1.01 1.01 0 00-1.428 0L10.206 24.037a1.01 1.01 0 001.427 1.427l13.323-13.322a1.01 1.01 0 000-1.428z"/>
        <path d="M13.543 9.005c-2.041 0-3.701 1.66-3.701 3.701 0 2.04 1.66 3.7 3.7 3.7 2.041 0 3.702-1.66 3.702-3.7s-1.66-3.7-3.701-3.7zm0 5.383a1.684 1.684 0 01-1.682-1.682c0-.928.754-1.682 1.682-1.682.927 0 1.682.754 1.682 1.682 0 .928-.755 1.682-1.682 1.682z"/>
        <path d="M21.617 19.771c-2.04 0-3.701 1.66-3.701 3.701 0 2.04 1.66 3.701 3.7 3.701 2.042 0 3.702-1.66 3.702-3.7 0-2.041-1.66-3.702-3.701-3.702zm0 5.383a1.684 1.684 0 01-1.682-1.682c0-.927.754-1.682 1.682-1.682.927 0 1.682.755 1.682 1.682 0 .928-.755 1.682-1.682 1.682z"/>
    </g>
    
</symbol><symbol id="ico-mono-electrical-appliance" viewBox="0 0 21 21">
    <path d="M18.375 19.031v1.313h1.313V19.03"/>
    <path d="M6.234 18.703a3.285 3.285 0 003.282-3.281 3.285 3.285 0 00-3.282-3.281 3.285 3.285 0 00-3.28 3.28 3.285 3.285 0 003.28 3.282zm0-5.906a2.628 2.628 0 012.625 2.625 2.628 2.628 0 01-2.625 2.625 2.628 2.628 0 01-2.625-2.625 2.628 2.628 0 012.625-2.625z"/>
    <path d="M6.234 17.39c.942 0 1.73-.665 1.923-1.55l-.283-.282a.48.48 0 00-.656 0l-.192.192a1.112 1.112 0 01-.792.328c-.3 0-.581-.116-.792-.328l-.193-.192a.48.48 0 00-.656 0l-.282.282c.192.885.98 1.55 1.923 1.55z"/>
    <path d="M.984 20.016h10.5v-9.188H.984v9.188zm5.25-8.532a3.942 3.942 0 013.938 3.938 3.942 3.942 0 01-3.938 3.937 3.942 3.942 0 01-3.937-3.937 3.942 3.942 0 013.937-3.938z"/>
    <path d="M6.234 2.953H1.641v3.281h4.593v-3.28zM2.53 5.482l-.464-.464 1.312-1.312.464.463L2.53 5.482zm1.969 0l-.464-.464 1.312-1.312.464.463-1.312 1.313z"/>
    <path d="M2.297 8.203h3.937v.656H2.297v-.656z"/>
    <path d="M5.713 15.094l.192.192a.48.48 0 00.656 0l.193-.192c.363-.364.957-.413 1.386-.152a1.97 1.97 0 00-1.907-1.489 1.97 1.97 0 00-1.907 1.489c.429-.26 1.024-.212 1.387.152z"/>
    <path d="M12.14 18.703h7.876v-10.5H12.14v10.5zm5.25-8.86c0-.18.148-.327.329-.327h1.312c.181 0 .328.147.328.328v3.937a.328.328 0 01-.328.328H17.72a.328.328 0 01-.328-.328V9.844z"/>
    <path d="M18.047 10.172h.656v3.281h-.656v-3.281z"/>
    <path d="M.984 6.89v3.282h10.5V6.89H.984zm5.907 2.298a.328.328 0 01-.329.328H1.97a.328.328 0 01-.328-.329V7.875c0-.181.147-.328.328-.328h4.593c.182 0 .329.147.329.328v1.313zm3.937.328H7.875v-.657h2.953v.657zm0-1.313H7.875v-.656h2.953v.656z"/>
    <path d="M10.828 6.234h.985c.18 0 .328.147.328.329v.984h7.875v-5.25h-9.188v3.937z"/>
    <path d="M10.828.984h9.188v.657h-9.188V.984z"/>
    <path d="M8.86 2.953H6.89v3.281h1.97v-3.28zm-.657 2.625h-.656v-.656h.656v.656zm0-1.312h-.656v-.657h.656v.657z"/>
</symbol><symbol id="ico-mono-ellipse" viewBox="0 0 40 41">
    <path d="M39.838.82A39.837 39.837 0 010 40.658V.82h39.838z"/>
</symbol><symbol id="ico-mono-floor" viewBox="0 0 21 21">
    <g clip-path="url(#clip0)">
        <path d="M15.295 9.08L17 10.812l3.678 3.736v-2.97l-3.922-3.983-1.462 1.485z"/>
        <path d="M8.228 19.721l-4.143-4.207L2.623 17 4.33 18.73l1.646 1.671.588.598h2.925l-1.26-1.279z"/>
        <path d="M10.421 5.12l4.136-4.2.006-.009c.002-.003.006-.003.009-.006l.89-.905h-2.924L8.96 3.635l1.462 1.485z"/>
        <path d="M9.934 9.574L8.228 7.842 4.085 3.635 2.623 5.12 4.33 6.852l4.143 4.207 1.462-1.485z"/>
        <path d="M3.271 20.3H4.9l-.814-.826-.814.826z"/>
        <path d="M17.078 0h-.639l-1.142 1.16 1.706 1.733.001.002 3.677 3.734v-2.97L17.078 0z"/>
        <path d="M4.33 10.812l4.142 4.207 1.463-1.485-1.707-1.732-4.143-4.207L2.623 9.08l1.706 1.732z"/>
        <path d="M15.295 16.998L17 18.732 19.235 21h1.1c.19 0 .345-.157.345-.35v-1.153l-3.925-3.986-1.46 1.488z"/>
        <path d="M2.135 17.494L0 19.66v.989c0 .193.154.35.345.35h1.262l.588-.598 1.402-1.423-1.462-1.485z"/>
        <path d="M0 11.742v2.97l1.89-1.92 1.707-1.732-1.463-1.486L0 11.742z"/>
        <path d="M3.599 15.02l-1.463-1.486-2.134 2.168v2.97l1.89-1.92L3.6 15.018z"/>
        <path d="M9.933 5.615L8.227 3.882c-.023-.023-.037-.052-.052-.08-.028-.016-.057-.03-.08-.054L4.405 0H1.48l6.991 7.1 1.462-1.485z"/>
        <path d="M.505 0h-.16A.347.347 0 000 .35v2.483L1.647 1.16.505 0z"/>
        <path d="M3.599 3.14L2.136 1.655.002 3.822v2.97l1.89-1.92L3.6 3.14z"/>
        <path d="M3.597 7.1L2.135 5.613 0 7.782v2.97l1.891-1.92 1.706-1.733z"/>
        <path d="M16.998 14.768l3.681 3.739v-2.97l-3.922-3.983-1.462 1.485 1.702 1.728z"/>
        <path d="M15.254 21h3.005l-1.502-1.526L15.254 21z"/>
        <path d="M8.472 18.979l1.463-1.485-1.707-1.732-4.143-4.208-1.462 1.485 1.706 1.733 4.143 4.207z"/>
        <path d="M20.679.35a.347.347 0 00-.345-.35h-2.283l2.628 2.669V.35z"/>
        <path d="M17 6.852l3.68 3.736v-2.97l-3.923-3.983-1.462 1.485 1.702 1.729.004.003z"/>
        <path d="M16.267 15.016l-1.46-1.482-4.142 4.207-1.706 1.733 1.462 1.485 4.143-4.207 1.703-1.736z"/>
        <path d="M14.806 17.494L11.354 21h2.925l1.99-2.021-1.463-1.485z"/>
        <path d="M11.563 0H5.379L8.47 3.14 11.563 0z"/>
        <path d="M10.665 13.782l-1.706 1.732 1.462 1.485 5.85-5.94-1.463-1.485-4.143 4.208z"/>
        <path d="M14.808 5.615l-4.143 4.207-1.706 1.732 1.462 1.485 4.143-4.207 1.703-1.736-1.459-1.481z"/>
        <path d="M10.665 5.862L8.959 7.594l1.462 1.485 4.143-4.207h.001L16.27 3.14l-1.462-1.485-4.143 4.207z"/>
    </g>
    
</symbol><symbol id="ico-mono-garbage-truck" viewBox="0 0 21 21">
    <g clip-path="url(#clip0)">
        <path d="M4.568 4.823a.327.327 0 00-.326.328h.653a.327.327 0 00-.327-.328z"/>
        <path d="M6.85 4.823a.327.327 0 00-.327.328h.653a.327.327 0 00-.326-.328z"/>
        <path d="M9.135 4.823a.327.327 0 00-.326.328h.652a.327.327 0 00-.326-.328z"/>
        <path d="M11.418 4.823a.327.327 0 00-.326.328h.652a.327.327 0 00-.326-.328z"/>
        <path d="M14.026 11.384V5.807h2.284c.18 0 .326-.147.326-.328a.327.327 0 00-.326-.328h-4.567V10.4a.327.327 0 01-.326.328.327.327 0 01-.326-.328V5.151H9.46V10.4a.327.327 0 01-.327.328.327.327 0 01-.326-.328V5.151h-1.63V10.4a.327.327 0 01-.327.328.327.327 0 01-.326-.328V5.151H4.893V10.4a.327.327 0 01-.326.328.327.327 0 01-.327-.328V5.151H2.936c-.11 0-.211.056-.271.148L.708 8.251a.318.318 0 00-.056.18v5.25c0 .18.146.327.326.327h1.305a.33.33 0 00.31-.222l.343-2.074H13.7c.18 0 .326-.147.326-.328z"/>
        <path d="M19.894 9.41l-2.498-2.57a1.395 1.395 0 00-.89-.377h-1.828v5.905H3.262v1.312c0 .181.146.328.326.328h.978c0 .906.73 1.64 1.631 1.64s1.631-.734 1.631-1.64h.653c0 .906.73 1.64 1.63 1.64.901 0 1.632-.734 1.632-1.64h3.588c0 .906.73 1.64 1.63 1.64.901 0 1.632-.734 1.632-1.64h.652a.887.887 0 00.723-.257.9.9 0 00.256-.727V10.23c0-.306-.119-.6-.33-.82zM6.197 14.991a.981.981 0 01-.978-.984c0-.543.438-.984.978-.984s.979.44.979.984a.984.984 0 01-.979.985zm3.915 0a.981.981 0 01-.979-.984c0-.543.438-.984.979-.984a.984.984 0 010 1.968zm6.85 0a.981.981 0 01-.979-.984c0-.543.438-.984.979-.984a.984.984 0 010 1.968zm-.325-5.576a.325.325 0 01-.328-.328V7.12h.196a.759.759 0 01.424.18l2.058 2.116h-2.35z"/>
    </g>
    
</symbol><symbol id="ico-mono-hint-ico" viewBox="0 0 14 15">
    <path d="M7 .327a7 7 0 100 14 7 7 0 000-14zm1.457 10.849c-.36.142-.647.25-.862.324a2.276 2.276 0 01-.748.112c-.436 0-.776-.106-1.018-.319a1.03 1.03 0 01-.362-.81c0-.128.01-.258.027-.39.018-.133.047-.283.087-.45l.451-1.593c.04-.153.074-.298.101-.433a1.92 1.92 0 00.04-.376c0-.202-.041-.344-.125-.424-.085-.08-.244-.12-.482-.12-.116 0-.236.018-.358.054a5.088 5.088 0 00-.314.104l.12-.49c.294-.12.577-.224.847-.31s.524-.129.764-.129c.433 0 .768.106 1.003.315.234.209.352.48.352.815 0 .07-.008.191-.024.366a2.447 2.447 0 01-.09.48l-.45 1.588c-.036.128-.068.273-.098.436a2.306 2.306 0 00-.043.371c0 .211.046.355.141.432.094.076.258.115.49.115.11 0 .233-.02.371-.058.138-.038.237-.071.3-.1l-.12.49zm-.08-6.447a1.07 1.07 0 01-.755.292c-.294 0-.548-.097-.759-.292a.93.93 0 01-.315-.707.94.94 0 01.315-.708c.211-.197.465-.295.759-.295s.547.098.755.295c.21.196.315.433.315.708a.93.93 0 01-.315.707z"/>
</symbol><symbol id="ico-mono-lamp" viewBox="0 0 21 21">
    <path d="M4.941 0h11.116v2.586H4.94V0z"/>
    <path d="M8.012 18.537A2.49 2.49 0 0010.499 21a2.49 2.49 0 002.488-2.463H8.012z"/>
    <path d="M9.885 3.817v3.77H7.833v2.771a6.404 6.404 0 00-5.78 6.366v.583h16.895v-.583a6.404 6.404 0 00-5.78-6.366v-2.77h-2.052V3.817h-1.23z"/>
</symbol><symbol id="ico-mono-money-box" viewBox="0 0 41 41">
    <g clip-path="url(#clip0)">
        <path d="M30.256 15.455a11.2 11.2 0 00-4.565-5.696.586.586 0 00-.628.99 10.04 10.04 0 013.9 4.616h-2.77c-.062 0-.416-.626-.477-.706a7.656 7.656 0 00-1.916-1.777 7.577 7.577 0 00-3.648-1.205h-.006a7.686 7.686 0 00-1.156.017l-.02.001a7.864 7.864 0 00-1.14.194l-.012.005c-2.259.621-4.15 2.166-5.095 4.33a7.383 7.383 0 00-.598 2.342 7.694 7.694 0 00.197 2.531l.002.005c.585 2.257 2.186 4.163 4.327 5.1a7.557 7.557 0 001.968.552c.859.122 1.66.104 2.51-.06a7.671 7.671 0 005.065-3.564h2.764c-1.523 3.624-5.108 6.175-9.278 6.175-5.546 0-10.059-4.512-10.059-10.058S14.134 9.19 19.68 9.19c1.044 0 2.073.159 3.057.473a.586.586 0 10.356-1.117c-1.1-.35-2.248-.528-3.413-.528-6.193 0-11.23 5.038-11.23 11.23 0 6.193 5.037 11.23 11.23 11.23 4.862 0 9.011-3.105 10.57-7.437a3.889 3.889 0 003.056-3.793 3.889 3.889 0 00-3.05-3.792zm-4.589 1.499h-2.65a4.084 4.084 0 00-1.044-1.043V13.26c1.694.65 3.043 2 3.694 3.694zm-5.988 5.172a2.882 2.882 0 01-2.878-2.879 2.882 2.882 0 012.879-2.878 2.882 2.882 0 012.878 2.878 2.882 2.882 0 01-2.878 2.879zm-.39-9.279c.129-.008 1.512-.026 1.512.087v2.422a4.037 4.037 0 00-2.242 0v-2.422c.004-.046.686-.084.73-.087zm-1.902.412v2.651a4.086 4.086 0 00-1.044 1.044h-2.651a6.446 6.446 0 013.695-3.695zm-4.035 7.029a6.49 6.49 0 010-2.077l.014-.085h2.422a4.04 4.04 0 000 2.242h-2.422l-.014-.08zm.34 1.252h2.65c.282.409.636.763 1.045 1.044v2.651a6.446 6.446 0 01-3.695-3.695zm6.165 4.116a6.489 6.489 0 01-1.217-.081l-.081-.014v-2.422a4.035 4.035 0 002.242 0v2.421a6.72 6.72 0 01-.944.096zm2.116-.421v-2.651a4.082 4.082 0 001.044-1.044h2.65a6.445 6.445 0 01-3.694 3.695zm4.02-4.867h-2.421a4.035 4.035 0 000-2.242l2.42-.004c.15-.009.158 2.216 0 2.246zm3.43 1.59h-2.659c.106-.276.196-.558.27-.848 0-.004.003-.008.004-.013.18-.719.259-1.62.207-2.36a7.684 7.684 0 00-.207-1.34l-.005-.015a7.518 7.518 0 00-.27-.845h2.661a2.713 2.713 0 012.71 2.71 2.713 2.713 0 01-2.71 2.71z"/>
        <path d="M39.355 23.107a.586.586 0 00-.586.586v12.26c0 .42-.342.762-.762.762H17.145a.586.586 0 100 1.173H27.48v1.1c0 .892.726 1.619 1.62 1.619h3.782c.892 0 1.619-.727 1.619-1.62v-1.1h3.505a1.937 1.937 0 001.934-1.934v-12.26a.586.586 0 00-.586-.586zm-6.025 15.88c0 .247-.2.448-.447.448H29.1a.448.448 0 01-.447-.448v-1.1h4.677v1.1z"/>
        <path d="M38.005.607H2.059A1.937 1.937 0 00.125 2.54v33.412c0 1.067.868 1.935 1.934 1.935h3.505v1.1c0 .892.727 1.619 1.62 1.619h3.782c.893 0 1.62-.727 1.62-1.62v-1.1h1.807a.586.586 0 100-1.172H2.059a.763.763 0 01-.762-.762v-7.105h1.869v4.166a1.6 1.6 0 001.597 1.598H35.3a1.6 1.6 0 001.598-1.598V5.48A1.6 1.6 0 0035.3 3.883H4.763A1.6 1.6 0 003.166 5.48v4.166H1.297V2.541c0-.42.342-.762.762-.762h35.946c.42 0 .762.342.762.762v18.444a.586.586 0 101.172 0V2.54A1.937 1.937 0 0038.005.607zm-26.592 37.28v1.1c0 .247-.2.448-.447.448H7.184a.448.448 0 01-.447-.447v-1.1h4.677zM1.297 15.238h1.869v8.021H1.297v-8.022zm0 12.44V24.43h3.124c.895 0 1.623.727 1.623 1.622 0 .895-.728 1.623-1.623 1.623H1.297zM4.337 5.48c0-.234.191-.425.426-.425H35.3c.235 0 .426.191.426.425v27.534c0 .235-.191.425-.425.425H4.761a.426.426 0 01-.424-.425v-4.166h.083a2.798 2.798 0 002.795-2.795 2.798 2.798 0 00-2.795-2.795h-.083v-8.022h.083a2.798 2.798 0 002.795-2.795 2.798 2.798 0 00-2.795-2.795h-.083V5.48zm.084 5.338c.895 0 1.623.728 1.623 1.623s-.728 1.623-1.623 1.623H1.297V10.82h3.124z"/>
        <path d="M6.311 7.552a.663.663 0 100-1.325.663.663 0 000 1.325z"/>
        <path d="M33.749 7.552a.663.663 0 100-1.325.663.663 0 000 1.325z"/>
        <path d="M6.311 32.268a.663.663 0 100-1.326.663.663 0 000 1.326z"/>
        <path d="M33.749 32.268a.663.663 0 100-1.326.663.663 0 000 1.326z"/>
    </g>
    
</symbol><symbol id="ico-mono-paintbrush" viewBox="0 0 21 21">
    <g clip-path="url(#clip0)">
        <path d="M20.792 8.17a.708.708 0 000-1L19.73 6.106a.708.708 0 00-.899-.085L16.597 7.54l1.51-2.249a.708.708 0 00-.088-.895l-2.305-2.305a.708.708 0 00-.808-.137l-.398.192.19-.424a.708.708 0 00-.144-.791L13.83.207a.708.708 0 00-1.001 0l-5.62 5.62 7.963 7.964 5.62-5.62z"/>
        <path d="M6.163 6.874L4.536 8.5a.708.708 0 000 1l1.543 1.544c.297.297.442.708.396 1.126a1.374 1.374 0 01-.631 1.013C1.309 16.074.887 16.498.748 16.637a2.56 2.56 0 000 3.615 2.56 2.56 0 003.615 0c.14-.139.562-.561 3.453-5.096a1.373 1.373 0 011.013-.63c.419-.045.83.098 1.126.395l1.543 1.543a.708.708 0 001.001 0l1.627-1.627-7.963-7.963zM3.307 19.109a1 1 0 11-1.416-1.416 1 1 0 011.416 1.416z"/>
    </g>
    
</symbol><symbol id="ico-mono-pc-computer-with-monitor" viewBox="0 0 21 21">
    <g clip-path="url(#clip0)">
        <path d="M5.25 3.281H1.313C.587 3.281 0 3.87 0 4.594V19.03c0 .726.587 1.313 1.313 1.313H5.25c.726 0 1.313-.587 1.313-1.313V4.594c0-.724-.587-1.313-1.313-1.313zM1.969 16.406a.656.656 0 110-1.311.656.656 0 010 1.311zM5.25 8.531H1.313V7.22H5.25V8.53zm0-2.625H1.313V4.594H5.25v1.312z"/>
        <path d="M13.781 17.719v-1.313H9.844v1.313c-.726 0-1.313.587-1.313 1.313h6.563c0-.726-.587-1.313-1.313-1.313z"/>
        <path d="M19.688.656H3.938c-.726 0-1.313.589-1.313 1.313H19.688v10.5H7.875v2.625h11.813c.725 0 1.312-.587 1.312-1.313V1.969c0-.724-.587-1.313-1.312-1.313zm-7.875 13.782a.656.656 0 11-.001-1.312.656.656 0 010 1.312z"/>
    </g>
    
</symbol><symbol id="ico-mono-percentage" viewBox="0 0 41 41">
    <g clip-path="url(#clip0)">
        <path d="M34.267 6.465A19.868 19.868 0 0020.125.607 19.869 19.869 0 005.983 6.465 19.869 19.869 0 00.125 20.607c0 5.342 2.08 10.364 5.858 14.142a19.869 19.869 0 0014.142 5.858c5.342 0 10.365-2.08 14.142-5.858a19.868 19.868 0 005.858-14.142c0-5.342-2.08-10.365-5.858-14.142zM20.125 39.013c-10.15 0-18.406-8.257-18.406-18.406C1.719 10.457 9.976 2.2 20.125 2.2c10.15 0 18.406 8.257 18.406 18.406 0 10.15-8.257 18.406-18.406 18.406z"/>
        <path d="M30.41 10.313a2.792 2.792 0 00-3.945 0L9.85 26.929a2.786 2.786 0 00-.822 1.996c.004.754.302 1.46.84 1.989.544.534 1.255.8 1.965.8.721 0 1.442-.274 1.987-.822l16.59-16.635a2.792 2.792 0 000-3.944zm-1.128 2.818L12.69 29.767a1.214 1.214 0 01-1.708.01 1.203 1.203 0 01-.362-.86 1.202 1.202 0 01.355-.86L27.592 11.44a1.197 1.197 0 011.69 0 1.197 1.197 0 010 1.69z"/>
        <path d="M13.792 10.726a3.55 3.55 0 00-3.546 3.546 3.55 3.55 0 003.546 3.546 3.55 3.55 0 003.546-3.546 3.55 3.55 0 00-3.546-3.546zm0 5.498a1.954 1.954 0 01-1.952-1.952c0-1.076.876-1.952 1.952-1.952s1.952.876 1.952 1.952a1.954 1.954 0 01-1.952 1.952z"/>
        <path d="M26.46 23.396a3.55 3.55 0 00-3.546 3.546 3.55 3.55 0 003.546 3.545 3.55 3.55 0 003.546-3.545 3.55 3.55 0 00-3.546-3.546zm0 5.498a1.954 1.954 0 01-1.952-1.952c0-1.077.875-1.953 1.952-1.953 1.076 0 1.952.876 1.952 1.953a1.954 1.954 0 01-1.952 1.952z"/>
        <path d="M36.229 23.899a.797.797 0 00-.969.575 15.601 15.601 0 01-15.135 11.75.797.797 0 000 1.594 17.194 17.194 0 0016.68-12.95.797.797 0 00-.576-.97z"/>
        <path d="M36.539 19.81a.797.797 0 00-.797.797c0 .228-.005.457-.015.683a.797.797 0 101.592.068c.011-.248.017-.5.017-.751a.797.797 0 00-.797-.797z"/>
    </g>
    
</symbol><symbol id="ico-mono-pipe" viewBox="0 0 21 21">
    <path d="M10.5 13.875a.375.375 0 00.375-.375v-6a.362.362 0 00-.108-.26.366.366 0 00-.267-.115.375.375 0 00-.375.375v6c0 .207.168.375.375.375z"/>
    <path d="M13.5 17.25h5.25V21H13.5v-3.75z"/>
    <path d="M18.75 15v-3a4.13 4.13 0 00-4.125-4.125h-3v5.25h.75c.621 0 1.125.504 1.125 1.125V15h5.25z"/>
    <path d="M19.385 16.392a.366.366 0 00.115-.267.375.375 0 00-.375-.375h-6a.375.375 0 000 .75h6a.36.36 0 00.26-.108z"/>
    <path d="M6.375 13.125h3v-5.25h-.75A1.125 1.125 0 017.5 6.75V6H2.25v3a4.13 4.13 0 004.125 4.125z"/>
    <path d="M7.875 5.25a.375.375 0 000-.75h-6a.357.357 0 00-.26.108.366.366 0 00-.115.267c0 .207.168.375.375.375h6z"/>
    <path d="M2.25 0H7.5v3.75H2.25V0z"/>
</symbol><symbol id="ico-mono-play" viewBox="0 0 12 17">
    <path d="M11.391 7.41L1.947.545a1.139 1.139 0 00-1.808.919v13.725a1.135 1.135 0 001.808.917l9.444-6.859a1.13 1.13 0 000-1.837z"/>
</symbol><symbol id="ico-mono-plug" viewBox="0 0 21 21">
    <g clip-path="url(#clip0)">
        <path d="M15.71 9.416v9.206a1.369 1.369 0 01-2.738 0v-.404a2.52 2.52 0 01-.373.031H8.344a2.488 2.488 0 01-2.488-2.488v-.572H4.79c-.464 0-.662-.24-.745-.602-2.389-.523-4.203-3.11-2.524-5.488.705-1 2.212-2.095 1.708-3.49-.506-1.402-2.11-2.198-3.04-3.296-.618-.73.432-1.79 1.055-1.055.93 1.1 2.278 1.849 3.028 3.105.689 1.154.734 2.57-.04 3.702-.657.962-2.028 1.95-1.858 3.252.118.898.851 1.528 1.69 1.774v-.034c.094-.317.295-.522.725-.522h1.068v-.258A2.488 2.488 0 018.344 9.79h4.255c.127 0 .251.013.373.03v-.403a1.368 1.368 0 012.737 0zM21 11.465a.97.97 0 00-.97-.97h-3.898v1.94h3.897a.97.97 0 00.971-.97zm-.97 4.072h-3.898v1.94h3.897a.97.97 0 000-1.94z"/>
    </g>
    
</symbol><symbol id="ico-mono-radiator" viewBox="0 0 21 21">
    <g clip-path="url(#clip0)">
        <path d="M8.086 4.786h1.23c0-.254.048-.35.135-.523.111-.223.264-.528.264-1.072s-.153-.85-.264-1.073c-.087-.173-.135-.269-.135-.523 0-.253.048-.349.135-.522.111-.223.264-.53.264-1.073h-1.23c0 .254-.048.35-.135.523a2.153 2.153 0 00-.264 1.072c0 .544.153.85.264 1.073.087.173.134.269.134.523 0 .253-.047.349-.134.522-.111.223-.264.529-.264 1.073z"/>
        <path d="M10.957 4.786h1.23c0-.254.048-.35.135-.523.111-.223.264-.528.264-1.072s-.153-.85-.264-1.073c-.087-.173-.134-.269-.134-.523 0-.253.047-.349.134-.522.111-.223.264-.53.264-1.073h-1.23c0 .254-.048.35-.135.523a2.153 2.153 0 00-.264 1.072c0 .544.153.85.264 1.073.087.173.135.269.135.523 0 .253-.048.349-.135.522-.111.223-.264.529-.264 1.073z"/>
        <path d="M13.83 4.786h1.23c0-.254.048-.35.135-.523.111-.223.264-.528.264-1.072s-.152-.85-.264-1.073c-.087-.173-.135-.269-.135-.523 0-.253.048-.349.135-.522.111-.223.264-.53.264-1.073h-1.23c0 .254-.048.35-.135.523a2.153 2.153 0 00-.264 1.072c0 .544.153.85.264 1.073.087.173.135.269.135.523 0 .253-.048.349-.135.522-.111.223-.264.529-.264 1.073z"/>
        <path d="M8.272 6.017c-.626 0-1.135.51-1.135 1.135v12.713a1.136 1.136 0 002.27 0V7.152c0-.626-.51-1.135-1.135-1.135z"/>
        <path d="M11.774 6.017c-.626 0-1.135.51-1.135 1.135v12.713a1.136 1.136 0 002.27 0V7.152c0-.626-.51-1.135-1.136-1.135z"/>
        <path d="M15.271 6.017c-.625 0-1.134.51-1.134 1.135v12.713a1.136 1.136 0 002.27 0V7.152c0-.626-.51-1.135-1.136-1.135z"/>
        <path d="M3.637 12.294v7.571a1.136 1.136 0 002.27 0V7.152a1.136 1.136 0 00-2.27 0V8.6H1.272v1.232H.041v1.23h1.231v1.232h2.365z"/>
        <path d="M19.906 8.6V7.152c0-.626-.509-1.135-1.134-1.135-.626 0-1.135.51-1.135 1.135v12.713a1.136 1.136 0 002.27 0V9.831h1.132V8.6h-1.133z"/>
    </g>
    
</symbol><symbol id="ico-mono-repairing-service" viewBox="0 0 21 21">
    <g clip-path="url(#clip0)">
        <path d="M20.934 9.334c-.033-.295-.378-.517-.675-.517a2.332 2.332 0 01-2.175-1.439 2.339 2.339 0 01.588-2.596.584.584 0 00.064-.792 10.395 10.395 0 00-1.664-1.68.585.585 0 00-.798.065c-.626.693-1.75.95-2.619.588a2.332 2.332 0 01-1.418-2.28.583.583 0 00-.515-.613A10.479 10.479 0 009.36.063a.585.585 0 00-.52.601 2.336 2.336 0 01-1.438 2.24c-.858.351-1.975.096-2.6-.591a.585.585 0 00-.792-.067c-.629.494-1.201 1.06-1.698 1.68a.584.584 0 00.062.797c.731.662.967 1.715.587 2.62-.362.864-1.258 1.42-2.284 1.42a.571.571 0 00-.607.515 10.526 10.526 0 00-.004 2.388c.033.296.387.516.688.516.915-.023 1.792.543 2.16 1.44.368.894.132 1.937-.586 2.596a.583.583 0 00-.064.79 10.435 10.435 0 001.66 1.681c.241.194.591.167.8-.063.628-.695 1.752-.952 2.618-.589a2.329 2.329 0 011.42 2.28.583.583 0 00.515.613 10.396 10.396 0 002.363.006.584.584 0 00.52-.601 2.334 2.334 0 011.436-2.24c.864-.352 1.976-.094 2.6.592.208.226.551.253.793.066.628-.492 1.2-1.057 1.699-1.68a.583.583 0 00-.063-.797 2.326 2.326 0 01-.588-2.62 2.35 2.35 0 012.148-1.423l.13.004a.584.584 0 00.614-.515c.093-.79.094-1.593.005-2.388zM10.5 16.554a6.053 6.053 0 115.197-2.95l-2.65-2.651c.191-.452.293-.943.292-1.45 0-.99-.386-1.922-1.087-2.623A3.686 3.686 0 009.63 5.793c-.331 0-.66.044-.979.13a.42.42 0 00-.29.293.41.41 0 00.116.402s1.309 1.318 1.746 1.756c.046.046.046.155.04.195l-.004.029c-.044.481-.13 1.059-.2 1.28l-.028.028-.029.03c-.225.072-.811.158-1.3.201v-.002l-.022.005a.28.28 0 01-.222-.084 1085.14 1085.14 0 00-1.713-1.704.427.427 0 00-.306-.136c-.18 0-.34.13-.391.316a3.724 3.724 0 00.957 3.596 3.687 3.687 0 002.625 1.087c.506 0 .996-.102 1.449-.294l2.68 2.68a6.022 6.022 0 01-3.258.952z"/>
    </g>
    
</symbol><symbol id="ico-mono-search" viewBox="0 0 26 26">
    <g clip-path="url(#clip0)">
        <path d="M15.171 4.615a7.361 7.361 0 00-5.24-2.17c-1.979 0-3.84.77-5.24 2.17a7.362 7.362 0 00-2.17 5.24c0 1.979.771 3.84 2.17 5.24 1.4 1.399 3.261 2.17 5.24 2.17 1.98 0 3.84-.771 5.24-2.17 1.4-1.4 2.17-3.261 2.17-5.24 0-1.98-.77-3.84-2.17-5.24zm-.697 9.782a6.381 6.381 0 01-4.543 1.881 6.381 6.381 0 01-4.542-1.881 6.43 6.43 0 010-9.085 6.382 6.382 0 014.542-1.881c1.716 0 3.33.668 4.543 1.881a6.43 6.43 0 010 9.085z"/>
        <path d="M12.931 4.914a.493.493 0 00-.512.843c.325.198.629.437.901.71a.492.492 0 00.698 0 .493.493 0 000-.698 5.798 5.798 0 00-1.087-.855z"/>
        <path d="M6.194 6.61a.491.491 0 00.35-.144 4.812 4.812 0 014.13-1.346.493.493 0 10.151-.975 5.802 5.802 0 00-4.98 1.624.493.493 0 00.35.842z"/>
        <path d="M7.4 13.925a4.82 4.82 0 01-.857-.682.493.493 0 10-.697.698c.312.312.66.589 1.032.82a.49.49 0 00.68-.157.493.493 0 00-.158-.68z"/>
        <path d="M13.32 13.243a4.769 4.769 0 01-3.956 1.37.493.493 0 10-.116.98c.232.027.463.04.693.04a5.743 5.743 0 004.077-1.692.493.493 0 10-.698-.698z"/>
        <path d="M24.901 21.928l-5.969-5.97a.493.493 0 00-.697 0l-.24.24-.585-.587c2.851-3.697 2.583-9.042-.805-12.43-3.68-3.679-9.666-3.679-13.345 0-3.68 3.68-3.68 9.667 0 13.346a9.407 9.407 0 006.672 2.76 9.417 9.417 0 005.758-1.955l.585.586-.238.239a.493.493 0 000 .697l5.969 5.97c.399.398.923.598 1.447.598.525 0 1.05-.2 1.448-.599a2.05 2.05 0 000-2.895zM3.957 15.83a8.395 8.395 0 01-2.475-5.976c0-2.257.879-4.379 2.475-5.975a8.395 8.395 0 015.975-2.475c2.257 0 4.38.879 5.976 2.475a8.395 8.395 0 012.475 5.975c0 2.257-.88 4.38-2.475 5.976a8.395 8.395 0 01-5.976 2.475 8.395 8.395 0 01-5.975-2.475zm12.483.858a8.905 8.905 0 00.326-.326l.532.533-.325.325-.533-.532zm7.764 7.438a1.062 1.062 0 01-1.5 0l-5.621-5.62 1.5-1.501 5.62 5.62a1.062 1.062 0 010 1.5z"/>
    </g>
    
</symbol><symbol id="ico-mono-seo" viewBox="0 0 21 21">
    <path d="M.123 9.553h1.789V11.7H.123V9.553z"/>
    <path d="M4.414 12.773h1.789v1.433a.712.712 0 01-.713.713H4.414v-2.146z"/>
    <path d="M7.06 9.292l6.655-2.958v8.585l-6.654-2.958v-2.67z"/>
    <path d="M2.627 12.773h2.146v3.934H2.627v-3.934z"/>
    <path d="M18.367.253l-2.861 2.862v2.503h2.504l2.861-2.861L18.368.253zm-1.251 4.292a.537.537 0 110-1.073.537.537 0 010 1.073z"/>
    <path d="M2.582 8.122h3.669c.567 0 1.027.46 1.027 1.028v2.953c0 .567-.46 1.027-1.027 1.027H2.582c-.567 0-1.027-.46-1.027-1.027V9.15c0-.568.46-1.028 1.027-1.028z"/>
    <path d="M17.328 14.214l-2.53 2.53 3.542 3.54 2.53-2.529-3.542-3.541zm.226 3.645a.358.358 0 01-.33-.33l-.171-2.23.713-.055.148 1.925 1.965.151-.055.714-2.27-.175z"/>
    <path d="M19.799 8.48a1.073 1.073 0 11-2.147 0 1.073 1.073 0 012.146 0z"/>
    <path d="M18.373 9.911h.702c.596 0 1.08.484 1.08 1.08v1.782h-2.862V10.99c0-.596.483-1.08 1.08-1.08z"/>
    <path d="M16.937 8.838a.715.715 0 11-1.431 0 .715.715 0 011.43 0z"/>
    <path d="M16.22 9.911c.592 0 1.073.48 1.073 1.073v1.073h-2.146v-1.073c0-.592.48-1.073 1.073-1.073z"/>
    <path d="M13.612.506L13.106 0l-2.185 2.185a2.514 2.514 0 10.506.506L13.612.506zm-4.188 5.47a1.789 1.789 0 110-3.577 1.789 1.789 0 010 3.577z"/>
    <path d="M9.78 14.919H8.35l-2.147 2.146L10.138 21l2.861-2.862-3.219-3.22zm-1.684 2.609l1.431-1.431.506.506-1.43 1.43-.507-.505zm1.58 1.579L9.17 18.6l1.43-1.431.506.506-1.43 1.43z"/>
</symbol><symbol id="ico-mono-shield" viewBox="0 0 30 39">
    <path d="M29.456 6.875c-4.79-1.451-9.61-3.711-13.935-6.536a.672.672 0 00-.745 0C10.325 3.245 5.766 5.382.84 6.875c-.319.096-.54.416-.54.781v8.275c0 8.521 3.556 14.162 6.539 17.393 3.21 3.48 6.951 5.403 8.31 5.403 1.357 0 5.098-1.924 8.309-5.403 2.982-3.231 6.537-8.871 6.537-17.393V7.656c0-.365-.22-.685-.539-.781zm-.925 9.056c0 7.959-3.317 13.222-6.099 16.236-3.157 3.421-6.533 4.94-7.284 4.94-.75 0-4.126-1.519-7.284-4.94-2.782-3.014-6.098-8.277-6.098-16.236v-7.66c4.711-1.48 9.099-3.543 13.382-6.296 4.177 2.68 8.784 4.846 13.383 6.296v7.66z"/>
    <path d="M8.656 8.18c-.148-.416-.573-.62-.95-.456a55.904 55.904 0 01-3.992 1.56c-.305.105-.513.418-.513.772v3.127c0 .448.328.81.733.81.404 0 .732-.362.732-.81v-2.535A57.327 57.327 0 008.243 9.23c.377-.164.561-.635.413-1.05z"/>
    <path d="M10.049 8.334a.674.674 0 00.293-.068l.014-.007c.37-.18.537-.656.375-1.066-.163-.41-.597-.595-.967-.415l-.012.005c-.37.18-.538.656-.376 1.066.12.304.39.485.673.485z"/>
    <path d="M23.875 26.34c-.338-.244-.792-.139-1.014.236a19.5 19.5 0 01-2.105 2.907 19.472 19.472 0 01-2.1 2.067c-.322.27-.384.779-.139 1.135a.71.71 0 00.583.319.684.684 0 00.444-.166c.8-.675 1.562-1.425 2.265-2.23a21.09 21.09 0 002.279-3.146c.221-.375.126-.876-.213-1.121z"/>
    <path d="M16.954 32.82l-.041.027c-.35.224-.47.72-.268 1.106.136.26.382.405.635.405.125 0 .25-.035.366-.11l.049-.03c.349-.227.466-.723.262-1.109-.205-.386-.654-.515-1.003-.29z"/>
    <path d="M10.156 17.824c-.45-.497-1.047-.771-1.684-.771-.636 0-1.234.274-1.684.771-.928 1.027-.928 2.698 0 3.724l4.325 4.783c.45.497 1.048.77 1.684.77.636 0 1.235-.273 1.684-.77l9.03-9.984c.928-1.027.928-2.697 0-3.724-.45-.497-1.049-.77-1.685-.77-.636 0-1.234.273-1.684.77l-7.345 8.12-2.64-2.919zm11.022-4.056a.869.869 0 01.648-.296c.245 0 .475.105.648.296a1.092 1.092 0 010 1.434l-9.028 9.983a.87.87 0 01-.649.297.87.87 0 01-.648-.297l-4.325-4.782a1.092 1.092 0 010-1.433.87.87 0 01.648-.297.87.87 0 01.649.296l3.158 3.493a.699.699 0 00.518.237c.194 0 .38-.085.518-.237l7.863-8.694z"/>
</symbol><symbol id="ico-mono-small-magnifier" viewBox="0 0 16 16">
    <path d="M14.876 14.286l-3.402-3.402a5.945 5.945 0 001.465-3.915A5.976 5.976 0 006.969 1 5.976 5.976 0 001 6.97c0 3.29 2.679 5.969 5.97 5.969a5.945 5.945 0 003.914-1.465l3.402 3.402c.08.08.19.124.295.124a.42.42 0 00.295-.714zM1.835 6.969a5.137 5.137 0 015.131-5.13 5.137 5.137 0 015.132 5.13 5.14 5.14 0 01-5.132 5.135 5.14 5.14 0 01-5.131-5.135z" stroke-width=".3"/>
</symbol><symbol id="ico-mono-stairs-with-handrail" viewBox="0 0 21 21">
    <path d="M19.933 4.14h-3.836c-.59 0-1.067.477-1.067 1.067v2.77h-2.77c-.59 0-1.067.477-1.067 1.066v2.77h-2.77c-.59 0-1.067.478-1.067 1.067v2.903H4.454a1.067 1.067 0 00-1.067 1.067v2.232c0 .59.478 1.068 1.067 1.068h15.48c.589 0 1.066-.477 1.066-1.068V5.207c0-.59-.477-1.067-1.067-1.067z"/>
    <path d="M14.317 1.065a.711.711 0 00-1.006-.013C8.748 5.497 4.407 9.84.208 14.037A.712.712 0 000 14.54v4.869a.712.712 0 001.423 0v-4.574c4.13-4.13 8.4-8.398 12.881-12.764a.712.712 0 00.013-1.006z"/>
</symbol><symbol id="ico-mono-tag" viewBox="0 0 42 43">
    <g clip-path="url(#clip0)">
        <path d="M14.762 17.794c.31-.32.31-.84 0-1.16a.775.775 0 00-1.123 0c-.31.32-.31.84 0 1.16.31.32.813.32 1.123 0z"/>
        <path d="M22.621 18.954c.929-.96.929-2.52 0-3.48a2.327 2.327 0 00-3.368 0 2.517 2.517 0 000 3.48c.928.96 2.44.96 3.368 0zm-2.246-2.32a.776.776 0 011.124 0c.309.32.309.84 0 1.16a.777.777 0 01-1.124 0 .838.838 0 010-1.16z"/>
        <path d="M19.253 24.754a2.518 2.518 0 000 3.48c.93.962 2.437.963 3.368 0a2.523 2.523 0 000-3.48 2.327 2.327 0 00-3.368 0zm2.246 2.32a.776.776 0 01-1.124 0 .84.84 0 010-1.16.776.776 0 011.124 0c.31.32.31.84 0 1.16z"/>
        <path d="M14.545 23.175a.795.795 0 00.934.643l11.226-2.32a.82.82 0 00.623-.965.795.795 0 00-.934-.644L15.168 22.21a.82.82 0 00-.623.965z"/>
        <path d="M24.78 5.46a.78.78 0 00-.562.24l-8.334 8.613a.84.84 0 000 1.16c.31.321.813.321 1.122 0l7.774-8.032 10.103 10.44-17.822 18.417-10.104-10.44 5.559-5.744a.84.84 0 000-1.16.776.776 0 00-1.123 0l-6.12 6.324a.84.84 0 000 1.16l11.227 11.6c.31.32.813.32 1.123 0l18.944-19.576a.84.84 0 000-1.16L25.341 5.7a.78.78 0 00-.561-.24z"/>
        <path d="M39.936 1.06L36.53 4.582c-1.988-1.55-4.734-1.576-6.705-.064l-2.79-2.967-.009-.009a2.326 2.326 0 00-3.369.002L1.345 24.698a2.519 2.519 0 000 3.48l3.148 3.254c-.703 2.08-.196 4.438 1.342 6.026 1.538 1.59 3.82 2.114 5.832 1.387l3.15 3.254c.93.961 2.437.961 3.366.001l22.41-23.058c.931-.962.931-2.518 0-3.48l-.008-.008-2.871-2.884c1.458-2.023 1.453-4.86-.062-6.928l3.407-3.521a.84.84 0 000-1.16.776.776 0 00-1.123 0zm-3.872 11.08a.837.837 0 00.008 1.169l3.402 3.417a.838.838 0 01-.002 1.154l-22.41 23.058a.777.777 0 01-1.123 0l-3.521-3.637a.78.78 0 00-.898-.163c-1.527.74-3.36.403-4.562-.84a4.28 4.28 0 01-.813-4.713.84.84 0 00-.157-.929l-3.52-3.638a.842.842 0 010-1.162L24.781 2.701a.775.775 0 011.118-.003l3.307 3.516a.775.775 0 001.13.008c1.36-1.405 3.487-1.554 5.055-.465l-1.165 1.204a2.329 2.329 0 00-2.71.48 2.523 2.523 0 000 3.48c.93.962 2.438.962 3.368 0 .749-.773.88-1.908.466-2.801l1.164-1.203c1.047 1.6.926 3.801-.45 5.223zM33.76 8.6a.84.84 0 010 1.161.776.776 0 01-1.122 0 .841.841 0 010-1.16.777.777 0 011.122 0z"/>
    </g>
    
</symbol></svg>