<?xml version="1.0" encoding="UTF-8"?><!DOCTYPE svg PUBLIC "-//W3C//DTD SVG 1.1//EN" "http://www.w3.org/Graphics/SVG/1.1/DTD/svg11.dtd"><svg xmlns="http://www.w3.org/2000/svg" xmlns:xlink="http://www.w3.org/1999/xlink"><defs>
        <clipPath id="clip0"/>
    </defs><symbol id="ico-color-shield" viewBox="0 0 51 51">
    <g clip-path="url(#clip0)">
        <path d="M44.638 33.997c-1.344 3.642-3.376 6.809-6.041 9.412-3.034 2.962-7.007 5.316-11.808 6.995a3.675 3.675 0 01-1.148.203h-.043a3.665 3.665 0 01-1.188-.201c-4.807-1.677-8.784-4.03-11.821-6.992-2.667-2.603-4.699-5.768-6.04-9.41-2.441-6.623-2.302-13.918-2.19-19.78l.001-.09c.023-.485.037-.993.045-1.555.041-2.757 2.233-5.037 4.99-5.191 5.75-.32 10.196-2.196 13.996-5.9l.033-.03a3.201 3.201 0 014.349 0l.032.03c3.8 3.704 8.248 5.58 13.997 5.9 2.757.154 4.949 2.434 4.99 5.191.008.566.022 1.073.045 1.554v.039c.112 5.873.25 13.183-2.199 19.825z" fill="#66DAB5"/>
        <path d="M44.637 33.997c-1.343 3.642-3.376 6.809-6.041 9.412-3.034 2.962-7.007 5.316-11.808 6.995a3.683 3.683 0 01-1.148.203v-50c.764.01 1.523.294 2.132.851l.032.03c3.8 3.704 8.248 5.58 13.997 5.9 2.757.154 4.949 2.434 4.99 5.191.008.566.022 1.073.045 1.554l.001.039c.111 5.873.25 13.183-2.2 19.825z" fill="#33C093"/>
        <path d="M38.06 25.607c0 6.856-5.568 12.437-12.418 12.461h-.044c-6.87 0-12.461-5.59-12.461-12.461 0-6.87 5.59-12.461 12.461-12.461h.044c6.85.024 12.417 5.605 12.417 12.46z" fill="#fff"/>
        <path d="M38.058 25.607c0 6.856-5.567 12.437-12.417 12.461V13.146c6.85.024 12.417 5.605 12.417 12.46z" fill="#E1EBF0"/>
        <path d="M31.254 23.813l-5.612 5.613-1.213 1.212a1.464 1.464 0 01-2.076 0l-2.607-2.608a1.467 1.467 0 112.075-2.075l1.57 1.571 5.789-5.788a1.466 1.466 0 112.074 2.075z" fill="#B4D2D7"/>
        <path d="M31.253 23.813l-5.612 5.613v-4.15l3.537-3.538a1.466 1.466 0 112.075 2.075z" fill="#6FA5AA"/>
    </g>
    
</symbol></svg>