<svg width="15" height="14" viewBox="0 0 14 14" fill="none" xmlns="http://www.w3.org/2000/svg">
<path fill-rule="evenodd" clip-rule="evenodd" d="M7.16016 1.87637L6.28207 4.57884C6.05911 5.26502 5.41967 5.7296 4.69818 5.7296H1.85663L4.15549 7.39983C4.73919 7.82391 4.98344 8.57562 4.76048 9.2618L3.8824 11.9643L6.18126 10.2941C6.76496 9.86997 7.55535 9.86997 8.13905 10.2941L10.4379 11.9643L9.55983 9.2618C9.33687 8.57562 9.58112 7.82391 10.1648 7.39983L12.4637 5.7296H9.62213C8.90064 5.7296 8.2612 5.26503 8.03824 4.57884L7.16016 1.87637ZM7.79299 0.587952C7.5938 -0.0250866 6.72651 -0.025085 6.52732 0.587954L5.33101 4.26983C5.24193 4.54398 4.98645 4.7296 4.69818 4.7296H0.826829C0.182242 4.7296 -0.0857627 5.55444 0.435719 5.93332L3.56771 8.20884C3.80092 8.37828 3.89851 8.67862 3.80943 8.95278L2.61311 12.6347C2.41393 13.2477 3.11558 13.7575 3.63706 13.3786L6.76905 11.1031C7.00226 10.9336 7.31805 10.9336 7.55127 11.1031L10.6833 13.3786C11.2047 13.7575 11.9064 13.2477 11.7072 12.6347L10.5109 8.95278C10.4218 8.67862 10.5194 8.37828 10.7526 8.20884L13.8846 5.93332C14.4061 5.55444 14.1381 4.7296 13.4935 4.7296H9.62213C9.33387 4.7296 9.07838 4.54398 8.9893 4.26983L7.79299 0.587952Z" fill="#FFC501"/>
</svg>
