<svg width="15" height="13" viewBox="0 0 15 13" fill="none" xmlns="http://www.w3.org/2000/svg">
<path d="M8.23606 7.89264V7.55916C8.23606 7.15315 7.90647 6.82385 7.50075 6.82385C7.09443 6.82385 6.76514 7.15315 6.76514 7.55916V7.89264C6.76514 8.29836 7.09443 8.62795 7.50075 8.62795C7.90647 8.62795 8.23606 8.29866 8.23606 7.89264Z" fill="#4880FF"/>
<path d="M8.74013 8.29926C8.57743 8.83275 8.08632 9.22474 7.50058 9.22474C6.91454 9.22474 6.42344 8.83305 6.26043 8.29926H1.19446C0.874716 8.29926 0.572591 8.22492 0.301514 8.09595V11.4596C0.301514 12.1164 0.838891 12.6538 1.49569 12.6538H13.5049C14.1617 12.6538 14.6991 12.1164 14.6991 11.4596V8.09625C14.428 8.22522 14.1259 8.29955 13.8064 8.29955L8.74013 8.29926Z" fill="#4880FF"/>
<path d="M13.7563 2.25913H10.8897C10.7169 1.17662 9.77854 0.346069 8.64825 0.346069H6.35126C5.22068 0.346069 4.28325 1.17662 4.1098 2.25913H1.24379C0.559524 2.25913 -0.000244141 2.79651 -0.000244141 3.45331V6.20975C-0.000244141 6.86894 0.534447 7.40392 1.19393 7.40392H6.20348C6.2205 7.0609 6.36798 6.75131 6.60114 6.5283C6.60831 6.52173 6.61667 6.51606 6.62413 6.50949C6.67578 6.46202 6.72952 6.41724 6.78833 6.37843C6.80923 6.3644 6.83311 6.35484 6.8549 6.34231C6.90327 6.31454 6.95103 6.28558 7.00328 6.26409C7.04418 6.24707 7.08836 6.23722 7.13135 6.22438C7.16837 6.21334 7.2036 6.19871 7.24211 6.19094C7.32571 6.17393 7.41198 6.16497 7.50005 6.16497C7.58842 6.16497 7.6744 6.17423 7.7577 6.19094C7.79591 6.19871 7.83144 6.21334 7.86876 6.22438C7.91175 6.23722 7.95533 6.24707 7.99683 6.26439C8.04878 6.28588 8.09625 6.31454 8.14461 6.34231C8.1664 6.35514 8.19029 6.3647 8.21178 6.37873C8.27059 6.41724 8.32403 6.46202 8.37568 6.50949C8.38315 6.51636 8.3924 6.52173 8.39897 6.5289C8.63243 6.75221 8.77961 7.0609 8.79663 7.40452H13.8062C14.4657 7.40452 15.0004 6.86983 15.0004 6.21035V3.4539C15.0004 2.79651 14.4406 2.25913 13.7563 2.25913ZM5.26009 2.25913C5.41234 1.79908 5.84135 1.46381 6.35186 1.46381H8.64885C9.15906 1.46381 9.58807 1.79908 9.74032 2.25913H5.26009Z" fill="#4880FF"/>
</svg>
