<svg width="78" height="90" viewBox="0 0 78 90" fill="none" xmlns="http://www.w3.org/2000/svg">
<path d="M73.449 60.1014C71.03 66.6575 67.3715 72.358 62.5739 77.043C57.113 82.3755 49.9623 86.6128 41.3202 89.6354C41.0366 89.7343 40.7407 89.8153 40.4433 89.8751C40.0506 89.9527 39.6509 89.9946 39.2548 90H39.1772C38.7549 90 38.3305 89.9575 37.9096 89.8751C37.6123 89.8153 37.3205 89.7343 37.0383 89.6375C28.3858 86.6197 21.2262 82.3845 15.7598 77.052C10.9601 72.367 7.30236 66.6699 4.88674 60.1138C0.494268 48.1936 0.744207 35.0622 0.945395 24.5098L0.948828 24.3477C0.98934 23.4764 1.01543 22.5611 1.02985 21.5503C1.10332 16.588 5.04879 12.4825 10.0119 12.2058C20.3596 11.6283 28.3645 8.25344 35.2042 1.58679L35.264 1.53186C36.3997 0.490217 37.8307 -0.0206475 39.2548 0.000638597C40.628 0.0184914 41.9958 0.528669 43.091 1.53186L43.1494 1.58679C49.9905 8.25344 57.9954 11.6283 68.3431 12.2058C73.3062 12.4825 77.2517 16.588 77.3252 21.5503C77.3396 22.568 77.3657 23.4819 77.4062 24.3477L77.4082 24.4164C77.6087 34.9887 77.8573 48.1462 73.449 60.1014Z" fill="#33C093"/>
<path d="M61.6038 45.0001C61.6038 57.3412 51.5836 67.3868 39.2528 67.4307H39.1738C26.8066 67.4307 16.7432 57.3679 16.7432 45.0001C16.7432 32.6329 26.8066 22.5701 39.1738 22.5701H39.2528C51.5836 22.614 61.6038 32.6596 61.6038 45.0001Z" fill="white"/>
<path d="M49.3547 41.77L39.2528 51.8733L37.07 54.0561C36.5543 54.5718 35.8779 54.8293 35.2023 54.8293C34.5259 54.8293 33.8503 54.5718 33.3339 54.0561L28.6407 49.3608C27.6094 48.3295 27.6094 46.6589 28.6407 45.6269C29.6707 44.5955 31.3433 44.5955 32.3747 45.6269L35.2023 48.4545L45.6208 38.036C46.6521 37.004 48.3248 37.004 49.3547 38.036C50.3861 39.0673 50.3861 40.74 49.3547 41.77Z" fill="#33C093"/>
</svg>
