<svg width="42" height="43" viewBox="0 0 42 43" fill="none" xmlns="http://www.w3.org/2000/svg">
<g clip-path="url(#clip0)">
<path d="M14.7616 17.7941C15.072 17.4733 15.072 16.9539 14.7616 16.6341C14.4521 16.3134 13.9495 16.3134 13.6391 16.6341C13.3286 16.9539 13.3286 17.4733 13.6391 17.7941C13.9495 18.1139 14.4521 18.1139 14.7616 17.7941Z" fill="#4880FF"/>
<path d="M22.6212 18.9539C23.5496 17.9946 23.5496 16.4334 22.6212 15.474C21.6905 14.5124 20.1835 14.5121 19.2529 15.474C18.322 16.4356 18.322 17.992 19.2529 18.9539C20.1813 19.9133 21.6924 19.9136 22.6212 18.9539ZM20.3754 16.634C20.6858 16.3136 21.1882 16.3136 21.4986 16.634C21.8078 16.9538 21.8078 17.4739 21.4986 17.7936C21.1888 18.1134 20.6849 18.1138 20.3754 17.7936C20.0656 17.4739 20.0644 16.9554 20.3754 16.634Z" fill="#4880FF"/>
<path d="M19.2529 24.7538C18.322 25.7158 18.322 27.2727 19.2529 28.2347C20.1835 29.1963 21.6902 29.1966 22.6212 28.2347C23.5499 27.275 23.5499 25.7135 22.6212 24.7538C21.6905 23.7925 20.1835 23.7922 19.2529 24.7538ZM21.4986 27.0747C21.1882 27.3952 20.6855 27.3952 20.3754 27.0747C20.0656 26.7546 20.0644 26.2355 20.3754 25.9141C20.6858 25.5934 21.1882 25.5937 21.4986 25.9141C21.8081 26.2339 21.8081 26.7546 21.4986 27.0747Z" fill="#4880FF"/>
<path d="M14.5449 23.1751C14.6308 23.6199 15.0495 23.9073 15.479 23.8185L26.7054 21.4979C27.1352 21.4092 27.414 20.9769 27.3281 20.5328C27.2422 20.0884 26.8239 19.8006 26.3941 19.8894L15.1676 22.21C14.7375 22.2987 14.4587 22.731 14.5449 23.1751Z" fill="#4880FF"/>
<path d="M24.7797 5.46094C24.5691 5.46094 24.3672 5.54713 24.2184 5.70094L15.8839 14.3133C15.5738 14.6337 15.5738 15.1531 15.8839 15.4736C16.194 15.794 16.6967 15.794 17.0064 15.4736L24.7797 7.44122L34.8832 17.8819L17.0613 36.298L6.95742 25.8576L12.5159 20.1138C12.826 19.7937 12.826 19.2742 12.5159 18.9538C12.2058 18.6337 11.7032 18.6337 11.3931 18.9538L5.27359 25.2776C4.96349 25.5977 4.96349 26.1171 5.27359 26.4375L16.5 38.0382C16.8101 38.3587 17.3125 38.3587 17.6226 38.0382L36.5674 18.4619C36.8775 18.1415 36.8775 17.6221 36.5674 17.3016L25.3409 5.70094C25.1921 5.54713 24.9902 5.46094 24.7797 5.46094Z" fill="#4880FF"/>
<path d="M39.9362 1.06072L36.5288 4.58133C34.5408 3.03011 31.7955 3.0048 29.8242 4.51725L27.0333 1.5497C27.0305 1.54682 27.0281 1.54425 27.0253 1.54137C26.0993 0.584553 24.5935 0.574299 23.6564 1.54265L1.34455 24.6976C0.41395 25.6592 0.41364 27.2165 1.34455 28.1785L4.49328 31.4318C3.78998 33.5118 4.2973 35.8698 5.83507 37.4582C7.37254 39.0476 9.65454 39.5715 11.6674 38.8454L14.8161 42.0988C15.7467 43.0604 17.2544 43.0601 18.1832 42.1001L40.5936 19.0419C41.5245 18.08 41.5245 16.5236 40.5936 15.562C40.5908 15.5591 40.5883 15.5565 40.5855 15.5537L37.714 12.6704C39.1724 10.6472 39.1668 7.80907 37.6517 5.74163L41.0587 2.22101C41.3688 1.90058 41.3688 1.38115 41.0587 1.06072C40.7486 0.740284 40.2463 0.740284 39.9362 1.06072ZM36.0637 12.1404C35.9136 12.2958 35.8299 12.5066 35.8311 12.7265C35.8327 12.946 35.9195 13.1558 36.0717 13.3087L39.4741 16.7255C39.7821 17.0472 39.7787 17.5637 39.472 17.8803L17.0618 40.9385C16.7521 41.2586 16.2481 41.2586 15.9387 40.9385L12.4178 37.3006C12.2659 37.1433 12.0625 37.0603 11.8565 37.0603C11.7424 37.0603 11.6274 37.0856 11.5195 37.1378C9.99286 37.878 8.15956 37.5406 6.95794 36.2979C5.75538 35.0563 5.42885 33.1622 6.14517 31.5847C6.2872 31.2716 6.22456 30.9005 5.98795 30.6561L2.46742 27.0182C2.15763 26.698 2.15763 26.1777 2.46835 25.8563L24.7805 2.70134C25.0893 2.38251 25.5886 2.38059 25.8993 2.69782L29.2056 6.21363C29.502 6.52893 30.0097 6.5597 30.3365 6.22228C31.6953 4.81749 33.8232 4.66753 35.3908 5.75733L34.2264 6.96056C33.341 6.52477 32.2476 6.68467 31.5158 7.44089C30.5874 8.40059 30.5874 9.96207 31.5158 10.9215C32.4464 11.8831 33.9535 11.8834 34.8844 10.9215C35.633 10.1479 35.7641 9.01326 35.3502 8.11957L36.5143 6.91666C37.5608 8.51755 37.4402 10.7183 36.0637 12.1404ZM33.7615 8.60086C34.0713 8.92098 34.0726 9.44008 33.7615 9.76148C33.4514 10.0819 32.9488 10.0819 32.6387 9.76148C32.3289 9.44136 32.3289 8.92066 32.6383 8.60086C32.9481 8.28139 33.452 8.28075 33.7615 8.60086Z" fill="#4880FF"/>
</g>
<defs>
<clipPath id="clip0">
<rect x="0.646484" y="0.820068" width="40.6452" height="42" fill="white"/>
</clipPath>
</defs>
</svg>
