<svg width="36" height="36" viewBox="0 0 36 36" fill="none" xmlns="http://www.w3.org/2000/svg">
<g clip-path="url(#clip0)">
<path d="M28.0705 13.4036V9.76558C28.0705 4.58364 23.4181 0.367432 17.7002 0.367432C11.9822 0.367432 7.32981 4.58364 7.32981 9.76558C7.32981 10.124 7.61953 10.4137 7.97795 10.4137C8.33638 10.4137 8.6261 10.124 8.6261 9.76558C8.6261 5.29789 12.6965 1.66373 17.7002 1.66373C22.7039 1.66373 26.7743 5.29789 26.7743 9.76558V13.3304H8.12638C5.54286 13.3304 3.44092 15.4323 3.44092 18.0159V30.682C3.44092 33.2655 5.54286 35.3674 8.12638 35.3674H27.274C29.8575 35.3674 31.9594 33.2655 31.9594 30.682V18.0159C31.9594 15.7046 30.2749 13.7835 28.0705 13.4036ZM30.6631 30.682C30.6631 32.5506 29.1426 34.0711 27.274 34.0711H8.12638C6.25777 34.0711 4.73721 32.5506 4.73721 30.682V18.0159C4.73721 16.1472 6.25777 14.6267 8.12638 14.6267H27.274C29.1426 14.6267 30.6631 16.1472 30.6631 18.0159V30.682Z" fill="#6C7185"/>
<path d="M17.7 18.5156C16.2702 18.5156 15.1074 19.6784 15.1074 21.1082V24.9971C15.1074 26.4269 16.2702 27.5897 17.7 27.5897C19.1298 27.5897 20.2926 26.4269 20.2926 24.9971V21.1082C20.2926 19.6784 19.1298 18.5156 17.7 18.5156ZM18.9963 24.9971C18.9963 25.712 18.4149 26.2934 17.7 26.2934C16.9851 26.2934 16.4037 25.712 16.4037 24.9971V21.1082C16.4037 20.3933 16.9851 19.8119 17.7 19.8119C18.4149 19.8119 18.9963 20.3933 18.9963 21.1082V24.9971Z" fill="#6C7185"/>
</g>
<defs>
<clipPath id="clip0">
<rect x="0.200195" y="0.367432" width="35" height="35" fill="white"/>
</clipPath>
</defs>
</svg>
