<svg width="15" height="14" viewBox="0 0 15 14" fill="none" xmlns="http://www.w3.org/2000/svg">
<g clip-path="url(#clip0)">
<path d="M11.5732 6.8757L10.4023 7.93359L11.4596 9.10373L12.6304 8.04584L11.5732 6.8757Z" fill="#0368B0"/>
<path d="M9.2392 7.82783L7.67773 9.2334L9.08397 10.7956L10.6454 9.39003L9.2392 7.82783Z" fill="#0368B0"/>
<path d="M13.6862 6.50406L12.9062 7.20703L13.6092 7.98697L14.3892 7.284L13.6862 6.50406Z" fill="#0368B0"/>
<path d="M9.49234 2.04997L8.32031 3.10498L9.37533 4.27701L10.5474 3.22199L9.49234 2.04997Z" fill="#0368B0"/>
<path d="M12.6866 4.17273L11.9082 4.87598L12.6121 5.65508L13.3905 4.95183L12.6866 4.17273Z" fill="#0368B0"/>
<path d="M8.13131 5.12142L6.56836 6.52832L7.9746 8.09053L9.53754 6.68362L8.13131 5.12142Z" fill="#0368B0"/>
<path d="M7.01533 2.45948L5.45312 3.86572L6.85936 5.42793L8.42157 4.02169L7.01533 2.45948Z" fill="#0368B0"/>
<path d="M10.5676 4.40715L9.39844 5.4624L10.4557 6.63375L11.6248 5.5785L10.5676 4.40715Z" fill="#0368B0"/>
<path d="M11.6842 1.85659L10.9043 2.55957L11.6073 3.33951L12.3872 2.63653L11.6842 1.85659Z" fill="#0368B0"/>
<path d="M12.6051 9.24416L11.4336 10.2998L12.4899 11.4721L13.6615 10.4165L12.6051 9.24416Z" fill="#0368B0"/>
<path d="M10.5492 10.572L9.02217 11.98L6.44417 9.11095L7.16117 8.47995L5.35617 6.45895L6.07717 5.82695L4.24517 3.80795L7.10417 1.23395L8.01217 2.22795L9.54517 0.859953L10.4512 1.79895L11.0552 1.25795C10.9202 1.17995 10.7852 1.10795 10.6482 1.04295C9.77717 0.616952 8.79917 0.376953 7.76917 0.376953C4.15217 0.376953 1.20117 3.32695 1.20117 6.94495C1.20117 10.562 4.15217 13.512 7.76917 13.512C8.94417 13.512 10.0512 13.201 11.0062 12.656C11.3212 12.478 11.6082 12.285 11.8702 12.082L10.5492 10.572Z" fill="#0368B0"/>
</g>
<defs>
<clipPath id="clip0">
<rect x="0.5" width="14" height="14" fill="white"/>
</clipPath>
</defs>
</svg>
