<svg width="12" height="12" viewBox="0 0 12 12" fill="none" xmlns="http://www.w3.org/2000/svg">
<path d="M5.4269 5.95985L0.115398 11.2713C-0.0321641 11.4189 -0.0321641 11.658 0.115398 11.8055C0.189086 11.8794 0.285836 11.9162 0.382399 11.9162C0.479149 11.9162 0.575711 11.8794 0.649399 11.8055L6.00084 6.4541L11.3523 11.8055C11.4262 11.8794 11.5227 11.9162 11.6193 11.9162C11.7158 11.9162 11.8126 11.8794 11.8863 11.8055C12.0338 11.658 12.0338 11.4189 11.8863 11.2713L6.57496 5.95985L11.8898 0.644597C12.0374 0.497034 12.0374 0.257972 11.8898 0.110409C11.7423 -0.0369658 11.5032 -0.0369658 11.3558 0.110409L6.00102 5.4656L0.645649 0.110597C0.498086 -0.0367783 0.259211 -0.0367783 0.111648 0.110597C-0.0359141 0.258159 -0.0359141 0.497222 0.111648 0.644784L5.4269 5.95985Z" fill="#FF855F" stroke="#FF855F" stroke-width="0.5"/>
</svg>
