<svg width="10" height="15" viewBox="0 0 10 15" fill="none" xmlns="http://www.w3.org/2000/svg">
<path d="M5.68235 7.72727C7.81276 7.72727 9.54599 5.99405 9.54599 3.86364C9.54599 1.73323 7.81276 0 5.68235 0C5.67403 0 5.66576 0.000136364 5.65753 0.000454545H2.50144C2.50112 0.000454545 2.50085 0.000409091 2.50058 0.000409091C2.12403 0.000409091 1.81876 0.305682 1.81876 0.682227V0.682273V7.04545V9.09091H1.1369C0.760351 9.09091 0.455078 9.39618 0.455078 9.77273C0.455078 10.1493 0.760351 10.4545 1.1369 10.4545H1.81871V14.3182C1.81871 14.6947 2.12399 15 2.50053 15C2.87708 15 3.18235 14.6947 3.18235 14.3182V10.4545H5.68235C6.0589 10.4545 6.36417 10.1493 6.36417 9.77273C6.36417 9.39618 6.0589 9.09091 5.68235 9.09091H3.18235V7.72727H5.68235ZM5.68235 1.36409C5.68971 1.36409 5.69708 1.36395 5.70435 1.36373C7.0728 1.37555 8.18235 2.49245 8.18235 3.86364C8.18235 5.24214 7.06085 6.36364 5.68235 6.36364H3.18235V1.36409H5.68235Z" fill="#6C7185"/>
</svg>
