<svg width="7" height="12" viewBox="0 0 7 12" fill="none" xmlns="http://www.w3.org/2000/svg">
<path d="M6.0197 0H4.31476C2.58744 0 0.844491 1.27552 0.844491 4.12514C0.844491 5.60119 1.47006 6.75077 2.61681 7.40456L0.517936 11.2036C0.41842 11.3832 0.415819 11.5869 0.510951 11.7483C0.603834 11.9059 0.773686 12 0.965123 12H2.02687C2.26806 12 2.45612 11.8834 2.54631 11.6792L4.51424 7.83H4.65787V11.5203C4.65787 11.7803 4.87731 12 5.13707 12H6.06459C6.35589 12 6.55926 11.7966 6.55926 11.5054V0.52507C6.55931 0.21593 6.33745 0 6.0197 0ZM4.65787 6.12014H4.40451C3.42212 6.12014 2.83565 5.31825 2.83565 3.97507C2.83565 2.30494 3.57651 1.70988 4.26988 1.70988H4.65787V6.12014Z" fill="#D7143A"/>
</svg>
